# Tiled2Unity generated file. Do not modify by hand.
# Wavefront file for 'Casino2k_mesh_0005.obj'

# Vertices (Count = 288)
v -704 -224 0
v -736 -224 0
v -736 -192 0
v -704 -192 0
v -672 -224 0
v -704 -224 0
v -704 -192 0
v -672 -192 0
v -640 -224 0
v -672 -224 0
v -672 -192 0
v -640 -192 0
v -608 -224 0
v -640 -224 0
v -640 -192 0
v -608 -192 0
v -576 -224 0
v -608 -224 0
v -608 -192 0
v -576 -192 0
v -544 -224 0
v -576 -224 0
v -576 -192 0
v -544 -192 0
v -512 -224 0
v -544 -224 0
v -544 -192 0
v -512 -192 0
v -480 -224 0
v -512 -224 0
v -512 -192 0
v -480 -192 0
v -448 -224 0
v -480 -224 0
v -480 -192 0
v -448 -192 0
v -416 -224 0
v -448 -224 0
v -448 -192 0
v -416 -192 0
v -384 -224 0
v -416 -224 0
v -416 -192 0
v -384 -192 0
v -352 -224 0
v -384 -224 0
v -384 -192 0
v -352 -192 0
v -704 -256 0
v -736 -256 0
v -736 -224 0
v -704 -224 0
v -672 -256 0
v -704 -256 0
v -704 -224 0
v -672 -224 0
v -640 -256 0
v -672 -256 0
v -672 -224 0
v -640 -224 0
v -608 -256 0
v -640 -256 0
v -640 -224 0
v -608 -224 0
v -576 -256 0
v -608 -256 0
v -608 -224 0
v -576 -224 0
v -544 -256 0
v -576 -256 0
v -576 -224 0
v -544 -224 0
v -512 -256 0
v -544 -256 0
v -544 -224 0
v -512 -224 0
v -480 -256 0
v -512 -256 0
v -512 -224 0
v -480 -224 0
v -448 -256 0
v -480 -256 0
v -480 -224 0
v -448 -224 0
v -416 -256 0
v -448 -256 0
v -448 -224 0
v -416 -224 0
v -384 -256 0
v -416 -256 0
v -416 -224 0
v -384 -224 0
v -352 -256 0
v -384 -256 0
v -384 -224 0
v -352 -224 0
v -704 -288 0
v -736 -288 0
v -736 -256 0
v -704 -256 0
v -672 -288 0
v -704 -288 0
v -704 -256 0
v -672 -256 0
v -640 -288 0
v -672 -288 0
v -672 -256 0
v -640 -256 0
v -608 -288 0
v -640 -288 0
v -640 -256 0
v -608 -256 0
v -576 -288 0
v -608 -288 0
v -608 -256 0
v -576 -256 0
v -544 -288 0
v -576 -288 0
v -576 -256 0
v -544 -256 0
v -512 -288 0
v -544 -288 0
v -544 -256 0
v -512 -256 0
v -480 -288 0
v -512 -288 0
v -512 -256 0
v -480 -256 0
v -448 -288 0
v -480 -288 0
v -480 -256 0
v -448 -256 0
v -416 -288 0
v -448 -288 0
v -448 -256 0
v -416 -256 0
v -384 -288 0
v -416 -288 0
v -416 -256 0
v -384 -256 0
v -352 -288 0
v -384 -288 0
v -384 -256 0
v -352 -256 0
v -416 -512 0
v -448 -512 0
v -448 -480 0
v -416 -480 0
v -384 -512 0
v -416 -512 0
v -416 -480 0
v -384 -480 0
v -352 -512 0
v -384 -512 0
v -384 -480 0
v -352 -480 0
v -320 -512 0
v -352 -512 0
v -352 -480 0
v -320 -480 0
v -288 -512 0
v -320 -512 0
v -320 -480 0
v -288 -480 0
v -256 -512 0
v -288 -512 0
v -288 -480 0
v -256 -480 0
v -224 -512 0
v -256 -512 0
v -256 -480 0
v -224 -480 0
v -192 -512 0
v -224 -512 0
v -224 -480 0
v -192 -480 0
v -160 -512 0
v -192 -512 0
v -192 -480 0
v -160 -480 0
v -416 -544 0
v -448 -544 0
v -448 -512 0
v -416 -512 0
v -384 -544 0
v -416 -544 0
v -416 -512 0
v -384 -512 0
v -352 -544 0
v -384 -544 0
v -384 -512 0
v -352 -512 0
v -320 -544 0
v -352 -544 0
v -352 -512 0
v -320 -512 0
v -288 -544 0
v -320 -544 0
v -320 -512 0
v -288 -512 0
v -256 -544 0
v -288 -544 0
v -288 -512 0
v -256 -512 0
v -224 -544 0
v -256 -544 0
v -256 -512 0
v -224 -512 0
v -192 -544 0
v -224 -544 0
v -224 -512 0
v -192 -512 0
v -160 -544 0
v -192 -544 0
v -192 -512 0
v -160 -512 0
v -416 -640 0
v -448 -640 0
v -448 -608 0
v -416 -608 0
v -384 -640 0
v -416 -640 0
v -416 -608 0
v -384 -608 0
v -352 -640 0
v -384 -640 0
v -384 -608 0
v -352 -608 0
v -320 -640 0
v -352 -640 0
v -352 -608 0
v -320 -608 0
v -288 -640 0
v -320 -640 0
v -320 -608 0
v -288 -608 0
v -256 -640 0
v -288 -640 0
v -288 -608 0
v -256 -608 0
v -224 -640 0
v -256 -640 0
v -256 -608 0
v -224 -608 0
v -192 -640 0
v -224 -640 0
v -224 -608 0
v -192 -608 0
v -160 -640 0
v -192 -640 0
v -192 -608 0
v -160 -608 0
v -416 -672 0
v -448 -672 0
v -448 -640 0
v -416 -640 0
v -384 -672 0
v -416 -672 0
v -416 -640 0
v -384 -640 0
v -352 -672 0
v -384 -672 0
v -384 -640 0
v -352 -640 0
v -320 -672 0
v -352 -672 0
v -352 -640 0
v -320 -640 0
v -288 -672 0
v -320 -672 0
v -320 -640 0
v -288 -640 0
v -256 -672 0
v -288 -672 0
v -288 -640 0
v -256 -640 0
v -224 -672 0
v -256 -672 0
v -256 -640 0
v -224 -640 0
v -192 -672 0
v -224 -672 0
v -224 -640 0
v -192 -640 0
v -160 -672 0
v -192 -672 0
v -192 -640 0
v -160 -640 0

# Texture cooridinates (Count = 32)
vt 0.71875 0.625
vt 0.75 0.625
vt 0.75 0.65625
vt 0.71875 0.65625
vt 0.6875 0.625
vt 0.6875 0.65625
vt 0.65625 0.71875
vt 0.6875 0.71875
vt 0.6875 0.75
vt 0.65625 0.75
vt 0.65625 0.625
vt 0.65625 0.65625
vt 0.625 0.71875
vt 0.625 0.75
vt 0.71875 0.59375
vt 0.75 0.59375
vt 0.6875 0.59375
vt 0.65625 0.6875
vt 0.6875 0.6875
vt 0.65625 0.59375
vt 0.625 0.6875
vt 0.71875 0.5625
vt 0.75 0.5625
vt 0.6875 0.5625
vt 0.65625 0.5625
vt 0.625 0.65625
vt 0.65625 0.40625
vt 0.6875 0.40625
vt 0.6875 0.4375
vt 0.65625 0.4375
vt 0.65625 0.375
vt 0.6875 0.375

# Normal
vn 0 0 -1

# Mesh description
g Casino2k_mesh_0005

# Faces
f 1/1/1 2/2/1 3/3/1 4/4/1
f 5/5/1 6/1/1 7/4/1 8/6/1
f 9/7/1 10/8/1 11/9/1 12/10/1
f 13/11/1 14/5/1 15/6/1 16/12/1
f 17/7/1 18/8/1 19/9/1 20/10/1
f 21/7/1 22/8/1 23/9/1 24/10/1
f 25/7/1 26/8/1 27/9/1 28/10/1
f 29/11/1 30/5/1 31/6/1 32/12/1
f 33/7/1 34/8/1 35/9/1 36/10/1
f 37/7/1 38/8/1 39/9/1 40/10/1
f 41/5/1 42/1/1 43/4/1 44/6/1
f 45/13/1 46/7/1 47/10/1 48/14/1
f 49/15/1 50/16/1 51/2/1 52/1/1
f 53/17/1 54/15/1 55/1/1 56/5/1
f 57/18/1 58/19/1 59/8/1 60/7/1
f 61/20/1 62/17/1 63/5/1 64/11/1
f 65/18/1 66/19/1 67/8/1 68/7/1
f 69/18/1 70/19/1 71/8/1 72/7/1
f 73/18/1 74/19/1 75/8/1 76/7/1
f 77/20/1 78/17/1 79/5/1 80/11/1
f 81/18/1 82/19/1 83/8/1 84/7/1
f 85/18/1 86/19/1 87/8/1 88/7/1
f 89/17/1 90/15/1 91/1/1 92/5/1
f 93/21/1 94/18/1 95/7/1 96/13/1
f 97/22/1 98/23/1 99/16/1 100/15/1
f 101/24/1 102/22/1 103/15/1 104/17/1
f 105/12/1 106/6/1 107/19/1 108/18/1
f 109/25/1 110/24/1 111/17/1 112/20/1
f 113/12/1 114/6/1 115/19/1 116/18/1
f 117/12/1 118/6/1 119/19/1 120/18/1
f 121/12/1 122/6/1 123/19/1 124/18/1
f 125/25/1 126/24/1 127/17/1 128/20/1
f 129/12/1 130/6/1 131/19/1 132/18/1
f 133/12/1 134/6/1 135/19/1 136/18/1
f 137/24/1 138/22/1 139/15/1 140/17/1
f 141/26/1 142/12/1 143/18/1 144/21/1
f 145/27/1 146/28/1 147/29/1 148/30/1
f 149/27/1 150/28/1 151/29/1 152/30/1
f 153/27/1 154/28/1 155/29/1 156/30/1
f 157/27/1 158/28/1 159/29/1 160/30/1
f 161/27/1 162/28/1 163/29/1 164/30/1
f 165/27/1 166/28/1 167/29/1 168/30/1
f 169/27/1 170/28/1 171/29/1 172/30/1
f 173/27/1 174/28/1 175/29/1 176/30/1
f 177/27/1 178/28/1 179/29/1 180/30/1
f 181/31/1 182/32/1 183/28/1 184/27/1
f 185/31/1 186/32/1 187/28/1 188/27/1
f 189/31/1 190/32/1 191/28/1 192/27/1
f 193/31/1 194/32/1 195/28/1 196/27/1
f 197/31/1 198/32/1 199/28/1 200/27/1
f 201/31/1 202/32/1 203/28/1 204/27/1
f 205/31/1 206/32/1 207/28/1 208/27/1
f 209/31/1 210/32/1 211/28/1 212/27/1
f 213/31/1 214/32/1 215/28/1 216/27/1
f 217/27/1 218/28/1 219/29/1 220/30/1
f 221/27/1 222/28/1 223/29/1 224/30/1
f 225/27/1 226/28/1 227/29/1 228/30/1
f 229/27/1 230/28/1 231/29/1 232/30/1
f 233/27/1 234/28/1 235/29/1 236/30/1
f 237/27/1 238/28/1 239/29/1 240/30/1
f 241/27/1 242/28/1 243/29/1 244/30/1
f 245/27/1 246/28/1 247/29/1 248/30/1
f 249/27/1 250/28/1 251/29/1 252/30/1
f 253/31/1 254/32/1 255/28/1 256/27/1
f 257/31/1 258/32/1 259/28/1 260/27/1
f 261/31/1 262/32/1 263/28/1 264/27/1
f 265/31/1 266/32/1 267/28/1 268/27/1
f 269/31/1 270/32/1 271/28/1 272/27/1
f 273/31/1 274/32/1 275/28/1 276/27/1
f 277/31/1 278/32/1 279/28/1 280/27/1
f 281/31/1 282/32/1 283/28/1 284/27/1
f 285/31/1 286/32/1 287/28/1 288/27/1

