# Tiled2Unity generated file. Do not modify by hand.
# Wavefront file for 'Klub2k_mesh_0002.obj'

# Vertices (Count = 304)
v -224 -160 0
v -256 -160 0
v -256 -128 0
v -224 -128 0
v -224 -192 0
v -256 -192 0
v -256 -160 0
v -224 -160 0
v -736 -288 0
v -768 -288 0
v -768 -256 0
v -736 -256 0
v -704 -288 0
v -736 -288 0
v -736 -256 0
v -704 -256 0
v -672 -288 0
v -704 -288 0
v -704 -256 0
v -672 -256 0
v -640 -288 0
v -672 -288 0
v -672 -256 0
v -640 -256 0
v -608 -288 0
v -640 -288 0
v -640 -256 0
v -608 -256 0
v -576 -288 0
v -608 -288 0
v -608 -256 0
v -576 -256 0
v -544 -288 0
v -576 -288 0
v -576 -256 0
v -544 -256 0
v -512 -288 0
v -544 -288 0
v -544 -256 0
v -512 -256 0
v -480 -288 0
v -512 -288 0
v -512 -256 0
v -480 -256 0
v -448 -288 0
v -480 -288 0
v -480 -256 0
v -448 -256 0
v -416 -288 0
v -448 -288 0
v -448 -256 0
v -416 -256 0
v -384 -288 0
v -416 -288 0
v -416 -256 0
v -384 -256 0
v -352 -288 0
v -384 -288 0
v -384 -256 0
v -352 -256 0
v -352 -320 0
v -384 -320 0
v -384 -288 0
v -352 -288 0
v -704 -352 0
v -736 -352 0
v -736 -320 0
v -704 -320 0
v -672 -352 0
v -704 -352 0
v -704 -320 0
v -672 -320 0
v -640 -352 0
v -672 -352 0
v -672 -320 0
v -640 -320 0
v -608 -352 0
v -640 -352 0
v -640 -320 0
v -608 -320 0
v -576 -352 0
v -608 -352 0
v -608 -320 0
v -576 -320 0
v -544 -352 0
v -576 -352 0
v -576 -320 0
v -544 -320 0
v -512 -352 0
v -544 -352 0
v -544 -320 0
v -512 -320 0
v -480 -352 0
v -512 -352 0
v -512 -320 0
v -480 -320 0
v -448 -352 0
v -480 -352 0
v -480 -320 0
v -448 -320 0
v -416 -352 0
v -448 -352 0
v -448 -320 0
v -416 -320 0
v -384 -352 0
v -416 -352 0
v -416 -320 0
v -384 -320 0
v -352 -352 0
v -384 -352 0
v -384 -320 0
v -352 -320 0
v -352 -384 0
v -384 -384 0
v -384 -352 0
v -352 -352 0
v -256 -384 0
v -288 -384 0
v -288 -352 0
v -256 -352 0
v -256 -416 0
v -288 -416 0
v -288 -384 0
v -256 -384 0
v -224 -416 0
v -256 -416 0
v -256 -384 0
v -224 -384 0
v -768 -448 0
v -800 -448 0
v -800 -416 0
v -768 -416 0
v -736 -448 0
v -768 -448 0
v -768 -416 0
v -736 -416 0
v -256 -448 0
v -288 -448 0
v -288 -416 0
v -256 -416 0
v -224 -448 0
v -256 -448 0
v -256 -416 0
v -224 -416 0
v -768 -480 0
v -800 -480 0
v -800 -448 0
v -768 -448 0
v -736 -480 0
v -768 -480 0
v -768 -448 0
v -736 -448 0
v -256 -480 0
v -288 -480 0
v -288 -448 0
v -256 -448 0
v -224 -480 0
v -256 -480 0
v -256 -448 0
v -224 -448 0
v -768 -512 0
v -800 -512 0
v -800 -480 0
v -768 -480 0
v -736 -512 0
v -768 -512 0
v -768 -480 0
v -736 -480 0
v -256 -512 0
v -288 -512 0
v -288 -480 0
v -256 -480 0
v -224 -512 0
v -256 -512 0
v -256 -480 0
v -224 -480 0
v -768 -544 0
v -800 -544 0
v -800 -512 0
v -768 -512 0
v -736 -544 0
v -768 -544 0
v -768 -512 0
v -736 -512 0
v -704 -544 0
v -736 -544 0
v -736 -512 0
v -704 -512 0
v -672 -544 0
v -704 -544 0
v -704 -512 0
v -672 -512 0
v -640 -544 0
v -672 -544 0
v -672 -512 0
v -640 -512 0
v -608 -544 0
v -640 -544 0
v -640 -512 0
v -608 -512 0
v -576 -544 0
v -608 -544 0
v -608 -512 0
v -576 -512 0
v -544 -544 0
v -576 -544 0
v -576 -512 0
v -544 -512 0
v -512 -544 0
v -544 -544 0
v -544 -512 0
v -512 -512 0
v -480 -544 0
v -512 -544 0
v -512 -512 0
v -480 -512 0
v -448 -544 0
v -480 -544 0
v -480 -512 0
v -448 -512 0
v -416 -544 0
v -448 -544 0
v -448 -512 0
v -416 -512 0
v -384 -544 0
v -416 -544 0
v -416 -512 0
v -384 -512 0
v -352 -544 0
v -384 -544 0
v -384 -512 0
v -352 -512 0
v -256 -544 0
v -288 -544 0
v -288 -512 0
v -256 -512 0
v -224 -544 0
v -256 -544 0
v -256 -512 0
v -224 -512 0
v -768 -576 0
v -800 -576 0
v -800 -544 0
v -768 -544 0
v -736 -576 0
v -768 -576 0
v -768 -544 0
v -736 -544 0
v -704 -576 0
v -736 -576 0
v -736 -544 0
v -704 -544 0
v -672 -576 0
v -704 -576 0
v -704 -544 0
v -672 -544 0
v -640 -576 0
v -672 -576 0
v -672 -544 0
v -640 -544 0
v -608 -576 0
v -640 -576 0
v -640 -544 0
v -608 -544 0
v -576 -576 0
v -608 -576 0
v -608 -544 0
v -576 -544 0
v -544 -576 0
v -576 -576 0
v -576 -544 0
v -544 -544 0
v -512 -576 0
v -544 -576 0
v -544 -544 0
v -512 -544 0
v -480 -576 0
v -512 -576 0
v -512 -544 0
v -480 -544 0
v -448 -576 0
v -480 -576 0
v -480 -544 0
v -448 -544 0
v -416 -576 0
v -448 -576 0
v -448 -544 0
v -416 -544 0
v -384 -576 0
v -416 -576 0
v -416 -544 0
v -384 -544 0
v -352 -576 0
v -384 -576 0
v -384 -544 0
v -352 -544 0
v -256 -576 0
v -288 -576 0
v -288 -544 0
v -256 -544 0
v -224 -576 0
v -256 -576 0
v -256 -544 0
v -224 -544 0

# Texture cooridinates (Count = 52)
vt 0.9375 0.5
vt 1 0.5
vt 1 0.5625
vt 0.9375 0.5625
vt 0.9375 0.4375
vt 1 0.4375
vt 0.875 0.9375
vt 0.9375 0.9375
vt 0.9375 1
vt 0.875 1
vt 0.8125 0.9375
vt 0.8125 1
vt 0.5 0.6875
vt 0.5625 0.6875
vt 0.5625 0.75
vt 0.5 0.75
vt 0.5 0.625
vt 0.5625 0.625
vt 0.5625 0.9375
vt 0.625 0.9375
vt 0.625 1
vt 0.5625 1
vt 0.5 0.9375
vt 0.5 1
vt 0.8125 0.5625
vt 0.875 0.5625
vt 0.875 0.625
vt 0.8125 0.625
vt 0.8125 0.6875
vt 0.875 0.6875
vt 0.875 0.75
vt 0.8125 0.75
vt 0.75 0.6875
vt 0.75 0.75
vt 0.6875 0.6875
vt 0.6875 0.75
vt 0.625 0.6875
vt 0.625 0.75
vt 0.75 0.625
vt 0.5625 0.8125
vt 0.625 0.8125
vt 0.625 0.875
vt 0.5625 0.875
vt 0.5 0.8125
vt 0.5 0.875
vt 0.9375 0.6875
vt 1 0.6875
vt 1 0.75
vt 0.9375 0.75
vt 0.9375 0.625
vt 1 0.625
vt 0.625 0.625

# Normal
vn 0 0 -1

# Mesh description
g Klub2k_mesh_0002

# Faces
f 1/1/1 2/2/1 3/3/1 4/4/1
f 5/5/1 6/6/1 7/2/1 8/1/1
f 9/7/1 10/8/1 11/9/1 12/10/1
f 13/11/1 14/7/1 15/10/1 16/12/1
f 17/7/1 18/8/1 19/9/1 20/10/1
f 21/11/1 22/7/1 23/10/1 24/12/1
f 25/7/1 26/8/1 27/9/1 28/10/1
f 29/11/1 30/7/1 31/10/1 32/12/1
f 33/7/1 34/8/1 35/9/1 36/10/1
f 37/11/1 38/7/1 39/10/1 40/12/1
f 41/7/1 42/8/1 43/9/1 44/10/1
f 45/11/1 46/7/1 47/10/1 48/12/1
f 49/7/1 50/8/1 51/9/1 52/10/1
f 53/11/1 54/7/1 55/10/1 56/12/1
f 57/13/1 58/14/1 59/15/1 60/16/1
f 61/17/1 62/18/1 63/14/1 64/13/1
f 65/19/1 66/20/1 67/21/1 68/22/1
f 69/23/1 70/19/1 71/22/1 72/24/1
f 73/19/1 74/20/1 75/21/1 76/22/1
f 77/23/1 78/19/1 79/22/1 80/24/1
f 81/19/1 82/20/1 83/21/1 84/22/1
f 85/23/1 86/19/1 87/22/1 88/24/1
f 89/19/1 90/20/1 91/21/1 92/22/1
f 93/23/1 94/19/1 95/22/1 96/24/1
f 97/19/1 98/20/1 99/21/1 100/22/1
f 101/23/1 102/19/1 103/22/1 104/24/1
f 105/19/1 106/20/1 107/21/1 108/22/1
f 109/23/1 110/19/1 111/22/1 112/24/1
f 113/25/1 114/26/1 115/27/1 116/28/1
f 117/25/1 118/26/1 119/27/1 120/28/1
f 121/29/1 122/30/1 123/31/1 124/32/1
f 125/33/1 126/29/1 127/32/1 128/34/1
f 129/29/1 130/30/1 131/31/1 132/32/1
f 133/33/1 134/29/1 135/32/1 136/34/1
f 137/35/1 138/33/1 139/34/1 140/36/1
f 141/37/1 142/35/1 143/36/1 144/38/1
f 145/35/1 146/33/1 147/34/1 148/36/1
f 149/37/1 150/35/1 151/36/1 152/38/1
f 153/28/1 154/27/1 155/30/1 156/29/1
f 157/39/1 158/28/1 159/29/1 160/33/1
f 161/28/1 162/27/1 163/30/1 164/29/1
f 165/39/1 166/28/1 167/29/1 168/33/1
f 169/29/1 170/30/1 171/31/1 172/32/1
f 173/33/1 174/29/1 175/32/1 176/34/1
f 177/40/1 178/41/1 179/42/1 180/43/1
f 181/44/1 182/40/1 183/43/1 184/45/1
f 185/46/1 186/47/1 187/48/1 188/49/1
f 189/14/1 190/37/1 191/38/1 192/15/1
f 193/30/1 194/46/1 195/49/1 196/31/1
f 197/46/1 198/47/1 199/48/1 200/49/1
f 201/14/1 202/37/1 203/38/1 204/15/1
f 205/30/1 206/46/1 207/49/1 208/31/1
f 209/46/1 210/47/1 211/48/1 212/49/1
f 213/14/1 214/37/1 215/38/1 216/15/1
f 217/30/1 218/46/1 219/49/1 220/31/1
f 221/46/1 222/47/1 223/48/1 224/49/1
f 225/14/1 226/37/1 227/38/1 228/15/1
f 229/30/1 230/46/1 231/49/1 232/31/1
f 233/35/1 234/33/1 235/34/1 236/36/1
f 237/37/1 238/35/1 239/36/1 240/38/1
f 241/15/1 242/38/1 243/41/1 244/40/1
f 245/16/1 246/15/1 247/40/1 248/44/1
f 249/50/1 250/51/1 251/47/1 252/46/1
f 253/18/1 254/52/1 255/37/1 256/14/1
f 257/27/1 258/50/1 259/46/1 260/30/1
f 261/50/1 262/51/1 263/47/1 264/46/1
f 265/18/1 266/52/1 267/37/1 268/14/1
f 269/27/1 270/50/1 271/46/1 272/30/1
f 273/50/1 274/51/1 275/47/1 276/46/1
f 277/18/1 278/52/1 279/37/1 280/14/1
f 281/27/1 282/50/1 283/46/1 284/30/1
f 285/50/1 286/51/1 287/47/1 288/46/1
f 289/18/1 290/52/1 291/37/1 292/14/1
f 293/27/1 294/50/1 295/46/1 296/30/1
f 297/28/1 298/27/1 299/30/1 300/29/1
f 301/39/1 302/28/1 303/29/1 304/33/1

