# Tiled2Unity generated file. Do not modify by hand.
# Wavefront file for 'Klub2k_mesh_0003.obj'

# Vertices (Count = 12)
v -224 -320 0
v -256 -320 0
v -256 -288 0
v -224 -288 0
v -224 -352 0
v -256 -352 0
v -256 -320 0
v -224 -320 0
v -224 -384 0
v -256 -384 0
v -256 -352 0
v -224 -352 0

# Texture cooridinates (Count = 8)
vt 0.125 0.25
vt 0.15625 0.25
vt 0.15625 0.28125
vt 0.125 0.28125
vt 0.125 0.21875
vt 0.15625 0.21875
vt 0.125 0.1875
vt 0.15625 0.1875

# Normal
vn 0 0 -1

# Mesh description
g Klub2k_mesh_0003

# Faces
f 1/1/1 2/2/1 3/3/1 4/4/1
f 5/5/1 6/6/1 7/2/1 8/1/1
f 9/7/1 10/8/1 11/6/1 12/5/1

