# Tiled2Unity generated file. Do not modify by hand.
# Wavefront file for 'Pub1k_mesh_0006.obj'

# Vertices (Count = 168)
v -544 -224 0
v -576 -224 0
v -576 -192 0
v -544 -192 0
v -512 -224 0
v -544 -224 0
v -544 -192 0
v -512 -192 0
v -480 -224 0
v -512 -224 0
v -512 -192 0
v -480 -192 0
v -448 -224 0
v -480 -224 0
v -480 -192 0
v -448 -192 0
v -544 -256 0
v -576 -256 0
v -576 -224 0
v -544 -224 0
v -512 -256 0
v -544 -256 0
v -544 -224 0
v -512 -224 0
v -480 -256 0
v -512 -256 0
v -512 -224 0
v -480 -224 0
v -448 -256 0
v -480 -256 0
v -480 -224 0
v -448 -224 0
v -384 -256 0
v -416 -256 0
v -416 -224 0
v -384 -224 0
v -288 -256 0
v -320 -256 0
v -320 -224 0
v -288 -224 0
v -256 -256 0
v -288 -256 0
v -288 -224 0
v -256 -224 0
v -224 -256 0
v -256 -256 0
v -256 -224 0
v -224 -224 0
v -384 -288 0
v -416 -288 0
v -416 -256 0
v -384 -256 0
v -288 -288 0
v -320 -288 0
v -320 -256 0
v -288 -256 0
v -256 -288 0
v -288 -288 0
v -288 -256 0
v -256 -256 0
v -224 -288 0
v -256 -288 0
v -256 -256 0
v -224 -256 0
v -576 -320 0
v -608 -320 0
v -608 -288 0
v -576 -288 0
v -544 -320 0
v -576 -320 0
v -576 -288 0
v -544 -288 0
v -512 -320 0
v -544 -320 0
v -544 -288 0
v -512 -288 0
v -480 -320 0
v -512 -320 0
v -512 -288 0
v -480 -288 0
v -448 -320 0
v -480 -320 0
v -480 -288 0
v -448 -288 0
v -416 -320 0
v -448 -320 0
v -448 -288 0
v -416 -288 0
v -384 -320 0
v -416 -320 0
v -416 -288 0
v -384 -288 0
v -288 -320 0
v -320 -320 0
v -320 -288 0
v -288 -288 0
v -256 -320 0
v -288 -320 0
v -288 -288 0
v -256 -288 0
v -224 -320 0
v -256 -320 0
v -256 -288 0
v -224 -288 0
v -576 -352 0
v -608 -352 0
v -608 -320 0
v -576 -320 0
v -544 -352 0
v -576 -352 0
v -576 -320 0
v -544 -320 0
v -512 -352 0
v -544 -352 0
v -544 -320 0
v -512 -320 0
v -480 -352 0
v -512 -352 0
v -512 -320 0
v -480 -320 0
v -448 -352 0
v -480 -352 0
v -480 -320 0
v -448 -320 0
v -416 -352 0
v -448 -352 0
v -448 -320 0
v -416 -320 0
v -384 -352 0
v -416 -352 0
v -416 -320 0
v -384 -320 0
v -288 -352 0
v -320 -352 0
v -320 -320 0
v -288 -320 0
v -256 -352 0
v -288 -352 0
v -288 -320 0
v -256 -320 0
v -224 -352 0
v -256 -352 0
v -256 -320 0
v -224 -320 0
v -288 -384 0
v -320 -384 0
v -320 -352 0
v -288 -352 0
v -256 -384 0
v -288 -384 0
v -288 -352 0
v -256 -352 0
v -224 -384 0
v -256 -384 0
v -256 -352 0
v -224 -352 0
v -288 -416 0
v -320 -416 0
v -320 -384 0
v -288 -384 0
v -256 -416 0
v -288 -416 0
v -288 -384 0
v -256 -384 0
v -224 -416 0
v -256 -416 0
v -256 -384 0
v -224 -384 0

# Texture cooridinates (Count = 60)
vt 0.625 0.6
vt 0.75 0.6
vt 0.75 0.6666666
vt 0.625 0.6666666
vt 0.625 0.4666666
vt 0.75 0.4666666
vt 0.75 0.5333333
vt 0.625 0.5333333
vt 0.5 0.4666666
vt 0.5 0.5333333
vt 0.5 0.6
vt 0.5 0.6666666
vt 0.625 0.4
vt 0.75 0.4
vt 0.5 0.4
vt 0.875 0.6666666
vt 0.875 0.7333333
vt 0.75 0.7333333
vt 0.25 0.2
vt 0.375 0.2
vt 0.375 0.2666667
vt 0.25 0.2666667
vt 0.125 0.2
vt 0.125 0.2666667
vt 0 0.2
vt 0 0.2666667
vt 0.875 0.6
vt 0.25 0.1333333
vt 0.375 0.1333333
vt 0.125 0.1333333
vt 0 0.1333333
vt 0.875 0.4666666
vt 1 0.4666666
vt 1 0.5333333
vt 0.875 0.5333333
vt 0.875 0.3333333
vt 1 0.3333333
vt 1 0.4
vt 0.875 0.4
vt 0.625 0.06666666
vt 0.75 0.06666666
vt 0.75 0.1333333
vt 0.625 0.1333333
vt 0.5 0.06666666
vt 0.5 0.1333333
vt 0.375 0.06666666
vt 0.875 0.2666667
vt 1 0.2666667
vt 0.75 0.2666667
vt 0.75 0.3333333
vt 0.625 0
vt 0.75 0
vt 0.5 0
vt 0.375 0
vt 0.25 0.06666666
vt 0.125 0.06666666
vt 0 0.06666666
vt 0.25 0
vt 0.125 0
vt 0 0

# Normal
vn 0 0 -1

# Mesh description
g Pub1k_mesh_0006

# Faces
f 1/1/1 2/2/1 3/3/1 4/4/1
f 5/5/1 6/6/1 7/7/1 8/8/1
f 9/9/1 10/5/1 11/8/1 12/10/1
f 13/11/1 14/1/1 15/4/1 16/12/1
f 17/8/1 18/7/1 19/2/1 20/1/1
f 21/13/1 22/14/1 23/6/1 24/5/1
f 25/15/1 26/13/1 27/5/1 28/9/1
f 29/10/1 30/8/1 31/1/1 32/11/1
f 33/3/1 34/16/1 35/17/1 36/18/1
f 37/19/1 38/20/1 39/21/1 40/22/1
f 41/23/1 42/19/1 43/22/1 44/24/1
f 45/25/1 46/23/1 47/24/1 48/26/1
f 49/2/1 50/27/1 51/16/1 52/3/1
f 53/28/1 54/29/1 55/20/1 56/19/1
f 57/30/1 58/28/1 59/19/1 60/23/1
f 61/31/1 62/30/1 63/23/1 64/25/1
f 65/32/1 66/33/1 67/34/1 68/35/1
f 69/36/1 70/37/1 71/38/1 72/39/1
f 73/36/1 74/37/1 75/38/1 76/39/1
f 77/36/1 78/37/1 79/38/1 80/39/1
f 81/36/1 82/37/1 83/38/1 84/39/1
f 85/36/1 86/37/1 87/38/1 88/39/1
f 89/6/1 90/32/1 91/35/1 92/7/1
f 93/40/1 94/41/1 95/42/1 96/43/1
f 97/44/1 98/40/1 99/43/1 100/45/1
f 101/46/1 102/44/1 103/45/1 104/29/1
f 105/39/1 106/38/1 107/33/1 108/32/1
f 109/47/1 110/48/1 111/37/1 112/36/1
f 113/47/1 114/48/1 115/37/1 116/36/1
f 117/47/1 118/48/1 119/37/1 120/36/1
f 121/47/1 122/48/1 123/37/1 124/36/1
f 125/47/1 126/48/1 127/37/1 128/36/1
f 129/49/1 130/47/1 131/36/1 132/50/1
f 133/51/1 134/52/1 135/41/1 136/40/1
f 137/53/1 138/51/1 139/40/1 140/44/1
f 141/54/1 142/53/1 143/44/1 144/46/1
f 145/55/1 146/46/1 147/29/1 148/28/1
f 149/56/1 150/55/1 151/28/1 152/30/1
f 153/57/1 154/56/1 155/30/1 156/31/1
f 157/58/1 158/54/1 159/46/1 160/55/1
f 161/59/1 162/58/1 163/55/1 164/56/1
f 165/60/1 166/59/1 167/56/1 168/57/1

