# Tiled2Unity generated file. Do not modify by hand.
# Wavefront file for 'Pub1k_mesh_0008.obj'

# Vertices (Count = 80)
v -608 -224 0
v -640 -224 0
v -640 -192 0
v -608 -192 0
v -416 -224 0
v -448 -224 0
v -448 -192 0
v -416 -192 0
v -224 -224 0
v -256 -224 0
v -256 -192 0
v -224 -192 0
v -608 -256 0
v -640 -256 0
v -640 -224 0
v -608 -224 0
v -576 -256 0
v -608 -256 0
v -608 -224 0
v -576 -224 0
v -544 -256 0
v -576 -256 0
v -576 -224 0
v -544 -224 0
v -512 -256 0
v -544 -256 0
v -544 -224 0
v -512 -224 0
v -480 -256 0
v -512 -256 0
v -512 -224 0
v -480 -224 0
v -448 -256 0
v -480 -256 0
v -480 -224 0
v -448 -224 0
v -416 -256 0
v -448 -256 0
v -448 -224 0
v -416 -224 0
v -608 -288 0
v -640 -288 0
v -640 -256 0
v -608 -256 0
v -576 -288 0
v -608 -288 0
v -608 -256 0
v -576 -256 0
v -544 -288 0
v -576 -288 0
v -576 -256 0
v -544 -256 0
v -512 -288 0
v -544 -288 0
v -544 -256 0
v -512 -256 0
v -480 -288 0
v -512 -288 0
v -512 -256 0
v -480 -256 0
v -448 -288 0
v -480 -288 0
v -480 -256 0
v -448 -256 0
v -416 -288 0
v -448 -288 0
v -448 -256 0
v -416 -256 0
v -544 -320 0
v -576 -320 0
v -576 -288 0
v -544 -288 0
v -256 -320 0
v -288 -320 0
v -288 -288 0
v -256 -288 0
v -224 -320 0
v -256 -320 0
v -256 -288 0
v -224 -288 0

# Texture cooridinates (Count = 29)
vt 0.75 0.1333333
vt 0.875 0.1333333
vt 0.875 0.2
vt 0.75 0.2
vt 0.75 0.06666666
vt 0.875 0.06666666
vt 1 0.2
vt 1 0.2666667
vt 0.875 0.2666667
vt 0.625 0.06666666
vt 0.625 0.1333333
vt 0.5 0.06666666
vt 0.5 0.1333333
vt 0.375 0.06666666
vt 0.375 0.1333333
vt 0.625 0
vt 0.75 0
vt 0.5 0
vt 0.375 0
vt 0 0.2666667
vt 0.125 0.2666667
vt 0.125 0.3333333
vt 0 0.3333333
vt 0.625 0.3333333
vt 0.75 0.3333333
vt 0.75 0.4
vt 0.625 0.4
vt 0.5 0.3333333
vt 0.5 0.4

# Normal
vn 0 0 -1

# Mesh description
g Pub1k_mesh_0008

# Faces
f 1/1/1 2/2/1 3/3/1 4/4/1
f 5/5/1 6/6/1 7/2/1 8/1/1
f 9/3/1 10/7/1 11/8/1 12/9/1
f 13/10/1 14/5/1 15/1/1 16/11/1
f 17/12/1 18/10/1 19/11/1 20/13/1
f 21/12/1 22/10/1 23/11/1 24/13/1
f 25/12/1 26/10/1 27/11/1 28/13/1
f 29/12/1 30/10/1 31/11/1 32/13/1
f 33/12/1 34/10/1 35/11/1 36/13/1
f 37/14/1 38/12/1 39/13/1 40/15/1
f 41/16/1 42/17/1 43/5/1 44/10/1
f 45/18/1 46/16/1 47/10/1 48/12/1
f 49/18/1 50/16/1 51/10/1 52/12/1
f 53/18/1 54/16/1 55/10/1 56/12/1
f 57/18/1 58/16/1 59/10/1 60/12/1
f 61/18/1 62/16/1 63/10/1 64/12/1
f 65/19/1 66/18/1 67/12/1 68/14/1
f 69/20/1 70/21/1 71/22/1 72/23/1
f 73/24/1 74/25/1 75/26/1 76/27/1
f 77/28/1 78/24/1 79/27/1 80/29/1

