# Tiled2Unity generated file. Do not modify by hand.
# Wavefront file for 'Ducan_mesh_0004.obj'

# Vertices (Count = 16)
v -480 -160 0
v -512 -160 0
v -512 -128 0
v -480 -128 0
v -448 -160 0
v -480 -160 0
v -480 -128 0
v -448 -128 0
v -480 -192 0
v -512 -192 0
v -512 -160 0
v -480 -160 0
v -448 -192 0
v -480 -192 0
v -480 -160 0
v -448 -160 0

# Texture cooridinates (Count = 9)
vt 0.0625 0.59375
vt 0.09375 0.59375
vt 0.09375 0.625
vt 0.0625 0.625
vt 0.03125 0.59375
vt 0.03125 0.625
vt 0.0625 0.5625
vt 0.09375 0.5625
vt 0.03125 0.5625

# Normal
vn 0 0 -1

# Mesh description
g Ducan_mesh_0004

# Faces
f 1/1/1 2/2/1 3/3/1 4/4/1
f 5/5/1 6/1/1 7/4/1 8/6/1
f 9/7/1 10/8/1 11/2/1 12/1/1
f 13/9/1 14/7/1 15/1/1 16/5/1

