# Tiled2Unity generated file. Do not modify by hand.
# Wavefront file for 'Ducan_mesh_0003.obj'

# Vertices (Count = 284)
v -544 -160 0
v -576 -160 0
v -576 -128 0
v -544 -128 0
v -512 -160 0
v -544 -160 0
v -544 -128 0
v -512 -128 0
v -320 -160 0
v -352 -160 0
v -352 -128 0
v -320 -128 0
v -288 -160 0
v -320 -160 0
v -320 -128 0
v -288 -128 0
v -256 -160 0
v -288 -160 0
v -288 -128 0
v -256 -128 0
v -224 -160 0
v -256 -160 0
v -256 -128 0
v -224 -128 0
v -192 -160 0
v -224 -160 0
v -224 -128 0
v -192 -128 0
v -160 -160 0
v -192 -160 0
v -192 -128 0
v -160 -128 0
v -128 -160 0
v -160 -160 0
v -160 -128 0
v -128 -128 0
v -544 -192 0
v -576 -192 0
v -576 -160 0
v -544 -160 0
v -512 -192 0
v -544 -192 0
v -544 -160 0
v -512 -160 0
v -320 -192 0
v -352 -192 0
v -352 -160 0
v -320 -160 0
v -288 -192 0
v -320 -192 0
v -320 -160 0
v -288 -160 0
v -256 -192 0
v -288 -192 0
v -288 -160 0
v -256 -160 0
v -224 -192 0
v -256 -192 0
v -256 -160 0
v -224 -160 0
v -192 -192 0
v -224 -192 0
v -224 -160 0
v -192 -160 0
v -160 -192 0
v -192 -192 0
v -192 -160 0
v -160 -160 0
v -128 -192 0
v -160 -192 0
v -160 -160 0
v -128 -160 0
v -512 -224 0
v -544 -224 0
v -544 -192 0
v -512 -192 0
v -480 -224 0
v -512 -224 0
v -512 -192 0
v -480 -192 0
v -448 -224 0
v -480 -224 0
v -480 -192 0
v -448 -192 0
v -416 -224 0
v -448 -224 0
v -448 -192 0
v -416 -192 0
v -256 -224 0
v -288 -224 0
v -288 -192 0
v -256 -192 0
v -224 -224 0
v -256 -224 0
v -256 -192 0
v -224 -192 0
v -192 -224 0
v -224 -224 0
v -224 -192 0
v -192 -192 0
v -160 -224 0
v -192 -224 0
v -192 -192 0
v -160 -192 0
v -128 -224 0
v -160 -224 0
v -160 -192 0
v -128 -192 0
v -512 -256 0
v -544 -256 0
v -544 -224 0
v -512 -224 0
v -480 -256 0
v -512 -256 0
v -512 -224 0
v -480 -224 0
v -448 -256 0
v -480 -256 0
v -480 -224 0
v -448 -224 0
v -416 -256 0
v -448 -256 0
v -448 -224 0
v -416 -224 0
v -512 -288 0
v -544 -288 0
v -544 -256 0
v -512 -256 0
v -480 -288 0
v -512 -288 0
v -512 -256 0
v -480 -256 0
v -448 -288 0
v -480 -288 0
v -480 -256 0
v -448 -256 0
v -416 -288 0
v -448 -288 0
v -448 -256 0
v -416 -256 0
v -320 -288 0
v -352 -288 0
v -352 -256 0
v -320 -256 0
v -288 -288 0
v -320 -288 0
v -320 -256 0
v -288 -256 0
v -256 -288 0
v -288 -288 0
v -288 -256 0
v -256 -256 0
v -224 -288 0
v -256 -288 0
v -256 -256 0
v -224 -256 0
v -192 -288 0
v -224 -288 0
v -224 -256 0
v -192 -256 0
v -160 -288 0
v -192 -288 0
v -192 -256 0
v -160 -256 0
v -128 -288 0
v -160 -288 0
v -160 -256 0
v -128 -256 0
v -512 -320 0
v -544 -320 0
v -544 -288 0
v -512 -288 0
v -480 -320 0
v -512 -320 0
v -512 -288 0
v -480 -288 0
v -448 -320 0
v -480 -320 0
v -480 -288 0
v -448 -288 0
v -416 -320 0
v -448 -320 0
v -448 -288 0
v -416 -288 0
v -320 -320 0
v -352 -320 0
v -352 -288 0
v -320 -288 0
v -288 -320 0
v -320 -320 0
v -320 -288 0
v -288 -288 0
v -256 -320 0
v -288 -320 0
v -288 -288 0
v -256 -288 0
v -224 -320 0
v -256 -320 0
v -256 -288 0
v -224 -288 0
v -192 -320 0
v -224 -320 0
v -224 -288 0
v -192 -288 0
v -160 -320 0
v -192 -320 0
v -192 -288 0
v -160 -288 0
v -128 -320 0
v -160 -320 0
v -160 -288 0
v -128 -288 0
v -512 -352 0
v -544 -352 0
v -544 -320 0
v -512 -320 0
v -480 -352 0
v -512 -352 0
v -512 -320 0
v -480 -320 0
v -448 -352 0
v -480 -352 0
v -480 -320 0
v -448 -320 0
v -416 -352 0
v -448 -352 0
v -448 -320 0
v -416 -320 0
v -512 -384 0
v -544 -384 0
v -544 -352 0
v -512 -352 0
v -480 -384 0
v -512 -384 0
v -512 -352 0
v -480 -352 0
v -448 -384 0
v -480 -384 0
v -480 -352 0
v -448 -352 0
v -416 -384 0
v -448 -384 0
v -448 -352 0
v -416 -352 0
v -256 -384 0
v -288 -384 0
v -288 -352 0
v -256 -352 0
v -224 -384 0
v -256 -384 0
v -256 -352 0
v -224 -352 0
v -192 -384 0
v -224 -384 0
v -224 -352 0
v -192 -352 0
v -160 -384 0
v -192 -384 0
v -192 -352 0
v -160 -352 0
v -128 -384 0
v -160 -384 0
v -160 -352 0
v -128 -352 0
v -256 -416 0
v -288 -416 0
v -288 -384 0
v -256 -384 0
v -224 -416 0
v -256 -416 0
v -256 -384 0
v -224 -384 0
v -192 -416 0
v -224 -416 0
v -224 -384 0
v -192 -384 0
v -160 -416 0
v -192 -416 0
v -192 -384 0
v -160 -384 0
v -128 -416 0
v -160 -416 0
v -160 -384 0
v -128 -384 0

# Texture cooridinates (Count = 96)
vt 0.0625 0.0625
vt 0.125 0.0625
vt 0.125 0.125
vt 0.0625 0.125
vt 0 0.0625
vt 0 0.125
vt 0.1875 0.1875
vt 0.25 0.1875
vt 0.25 0.25
vt 0.1875 0.25
vt 0.125 0.1875
vt 0.125 0.25
vt 0.25 0.75
vt 0.3125 0.75
vt 0.3125 0.8125
vt 0.25 0.8125
vt 0.1875 0.75
vt 0.1875 0.8125
vt 0.125 0.75
vt 0.125 0.8125
vt 0.0625 0.75
vt 0.0625 0.8125
vt 0 0.75
vt 0 0.8125
vt 0.0625 0
vt 0.125 0
vt 0 0
vt 0.1875 0.125
vt 0.25 0.125
vt 0.25 0.6875
vt 0.3125 0.6875
vt 0.1875 0.6875
vt 0.125 0.6875
vt 0.0625 0.6875
vt 0 0.6875
vt 0.8125 0.8125
vt 0.875 0.8125
vt 0.875 0.875
vt 0.8125 0.875
vt 0.75 0.8125
vt 0.75 0.875
vt 0.6875 0.8125
vt 0.6875 0.875
vt 0.625 0.8125
vt 0.625 0.875
vt 0.25 0.625
vt 0.3125 0.625
vt 0.1875 0.625
vt 0.125 0.625
vt 0.0625 0.625
vt 0 0.625
vt 0.8125 0.75
vt 0.875 0.75
vt 0.75 0.75
vt 0.6875 0.75
vt 0.625 0.75
vt 0.8125 0.6875
vt 0.875 0.6875
vt 0.75 0.6875
vt 0.6875 0.6875
vt 0.625 0.6875
vt 0.0625 0.1875
vt 0.0625 0.25
vt 0 0.1875
vt 0 0.25
vt 0.25 0.5
vt 0.3125 0.5
vt 0.3125 0.5625
vt 0.25 0.5625
vt 0.1875 0.5
vt 0.1875 0.5625
vt 0.125 0.5
vt 0.125 0.5625
vt 0.0625 0.5
vt 0.0625 0.5625
vt 0 0.5
vt 0 0.5625
vt 0.25 0.4375
vt 0.3125 0.4375
vt 0.1875 0.4375
vt 0.125 0.4375
vt 0.0625 0.4375
vt 0 0.4375
vt 0.25 0.3125
vt 0.3125 0.3125
vt 0.3125 0.375
vt 0.25 0.375
vt 0.1875 0.3125
vt 0.1875 0.375
vt 0.125 0.3125
vt 0.125 0.375
vt 0.0625 0.3125
vt 0.0625 0.375
vt 0 0.3125
vt 0 0.375
vt 0.3125 0.25

# Normal
vn 0 0 -1

# Mesh description
g Ducan_mesh_0003

# Faces
f 1/1/1 2/2/1 3/3/1 4/4/1
f 5/5/1 6/1/1 7/4/1 8/6/1
f 9/7/1 10/8/1 11/9/1 12/10/1
f 13/11/1 14/7/1 15/10/1 16/12/1
f 17/13/1 18/14/1 19/15/1 20/16/1
f 21/17/1 22/13/1 23/16/1 24/18/1
f 25/19/1 26/17/1 27/18/1 28/20/1
f 29/21/1 30/19/1 31/20/1 32/22/1
f 33/23/1 34/21/1 35/22/1 36/24/1
f 37/25/1 38/26/1 39/2/1 40/1/1
f 41/27/1 42/25/1 43/1/1 44/5/1
f 45/28/1 46/29/1 47/8/1 48/7/1
f 49/3/1 50/28/1 51/7/1 52/11/1
f 53/30/1 54/31/1 55/14/1 56/13/1
f 57/32/1 58/30/1 59/13/1 60/17/1
f 61/33/1 62/32/1 63/17/1 64/19/1
f 65/34/1 66/33/1 67/19/1 68/21/1
f 69/35/1 70/34/1 71/21/1 72/23/1
f 73/36/1 74/37/1 75/38/1 76/39/1
f 77/40/1 78/36/1 79/39/1 80/41/1
f 81/42/1 82/40/1 83/41/1 84/43/1
f 85/44/1 86/42/1 87/43/1 88/45/1
f 89/46/1 90/47/1 91/31/1 92/30/1
f 93/48/1 94/46/1 95/30/1 96/32/1
f 97/49/1 98/48/1 99/32/1 100/33/1
f 101/50/1 102/49/1 103/33/1 104/34/1
f 105/51/1 106/50/1 107/34/1 108/35/1
f 109/52/1 110/53/1 111/37/1 112/36/1
f 113/54/1 114/52/1 115/36/1 116/40/1
f 117/55/1 118/54/1 119/40/1 120/42/1
f 121/56/1 122/55/1 123/42/1 124/44/1
f 125/57/1 126/58/1 127/53/1 128/52/1
f 129/59/1 130/57/1 131/52/1 132/54/1
f 133/60/1 134/59/1 135/54/1 136/55/1
f 137/61/1 138/60/1 139/55/1 140/56/1
f 141/62/1 142/11/1 143/12/1 144/63/1
f 145/64/1 146/62/1 147/63/1 148/65/1
f 149/66/1 150/67/1 151/68/1 152/69/1
f 153/70/1 154/66/1 155/69/1 156/71/1
f 157/72/1 158/70/1 159/71/1 160/73/1
f 161/74/1 162/72/1 163/73/1 164/75/1
f 165/76/1 166/74/1 167/75/1 168/77/1
f 169/36/1 170/37/1 171/38/1 172/39/1
f 173/40/1 174/36/1 175/39/1 176/41/1
f 177/42/1 178/40/1 179/41/1 180/43/1
f 181/44/1 182/42/1 183/43/1 184/45/1
f 185/4/1 186/3/1 187/11/1 188/62/1
f 189/6/1 190/4/1 191/62/1 192/64/1
f 193/78/1 194/79/1 195/67/1 196/66/1
f 197/80/1 198/78/1 199/66/1 200/70/1
f 201/81/1 202/80/1 203/70/1 204/72/1
f 205/82/1 206/81/1 207/72/1 208/74/1
f 209/83/1 210/82/1 211/74/1 212/76/1
f 213/52/1 214/53/1 215/37/1 216/36/1
f 217/54/1 218/52/1 219/36/1 220/40/1
f 221/55/1 222/54/1 223/40/1 224/42/1
f 225/56/1 226/55/1 227/42/1 228/44/1
f 229/57/1 230/58/1 231/53/1 232/52/1
f 233/59/1 234/57/1 235/52/1 236/54/1
f 237/60/1 238/59/1 239/54/1 240/55/1
f 241/61/1 242/60/1 243/55/1 244/56/1
f 245/84/1 246/85/1 247/86/1 248/87/1
f 249/88/1 250/84/1 251/87/1 252/89/1
f 253/90/1 254/88/1 255/89/1 256/91/1
f 257/92/1 258/90/1 259/91/1 260/93/1
f 261/94/1 262/92/1 263/93/1 264/95/1
f 265/9/1 266/96/1 267/85/1 268/84/1
f 269/10/1 270/9/1 271/84/1 272/88/1
f 273/12/1 274/10/1 275/88/1 276/90/1
f 277/63/1 278/12/1 279/90/1 280/92/1
f 281/65/1 282/63/1 283/92/1 284/94/1

