# Tiled2Unity generated file. Do not modify by hand.
# Wavefront file for 'Hood2_mesh_0018.obj'

# Vertices (Count = 216)
v -2560 -1760 0
v -2592 -1760 0
v -2592 -1728 0
v -2560 -1728 0
v -2528 -1760 0
v -2560 -1760 0
v -2560 -1728 0
v -2528 -1728 0
v -2464 -1760 0
v -2496 -1760 0
v -2496 -1728 0
v -2464 -1728 0
v -2432 -1760 0
v -2464 -1760 0
v -2464 -1728 0
v -2432 -1728 0
v -2368 -1760 0
v -2400 -1760 0
v -2400 -1728 0
v -2368 -1728 0
v -2336 -1760 0
v -2368 -1760 0
v -2368 -1728 0
v -2336 -1728 0
v -2560 -1792 0
v -2592 -1792 0
v -2592 -1760 0
v -2560 -1760 0
v -2528 -1792 0
v -2560 -1792 0
v -2560 -1760 0
v -2528 -1760 0
v -2464 -1792 0
v -2496 -1792 0
v -2496 -1760 0
v -2464 -1760 0
v -2432 -1792 0
v -2464 -1792 0
v -2464 -1760 0
v -2432 -1760 0
v -2368 -1792 0
v -2400 -1792 0
v -2400 -1760 0
v -2368 -1760 0
v -2336 -1792 0
v -2368 -1792 0
v -2368 -1760 0
v -2336 -1760 0
v -2560 -1856 0
v -2592 -1856 0
v -2592 -1824 0
v -2560 -1824 0
v -2528 -1856 0
v -2560 -1856 0
v -2560 -1824 0
v -2528 -1824 0
v -2464 -1856 0
v -2496 -1856 0
v -2496 -1824 0
v -2464 -1824 0
v -2432 -1856 0
v -2464 -1856 0
v -2464 -1824 0
v -2432 -1824 0
v -2368 -1856 0
v -2400 -1856 0
v -2400 -1824 0
v -2368 -1824 0
v -2336 -1856 0
v -2368 -1856 0
v -2368 -1824 0
v -2336 -1824 0
v -2560 -1888 0
v -2592 -1888 0
v -2592 -1856 0
v -2560 -1856 0
v -2528 -1888 0
v -2560 -1888 0
v -2560 -1856 0
v -2528 -1856 0
v -2464 -1888 0
v -2496 -1888 0
v -2496 -1856 0
v -2464 -1856 0
v -2432 -1888 0
v -2464 -1888 0
v -2464 -1856 0
v -2432 -1856 0
v -2368 -1888 0
v -2400 -1888 0
v -2400 -1856 0
v -2368 -1856 0
v -2336 -1888 0
v -2368 -1888 0
v -2368 -1856 0
v -2336 -1856 0
v -2176 -3040 0
v -2208 -3040 0
v -2208 -3008 0
v -2176 -3008 0
v -2144 -3040 0
v -2176 -3040 0
v -2176 -3008 0
v -2144 -3008 0
v -2112 -3040 0
v -2144 -3040 0
v -2144 -3008 0
v -2112 -3008 0
v -2080 -3040 0
v -2112 -3040 0
v -2112 -3008 0
v -2080 -3008 0
v -2336 -3072 0
v -2368 -3072 0
v -2368 -3040 0
v -2336 -3040 0
v -2304 -3072 0
v -2336 -3072 0
v -2336 -3040 0
v -2304 -3040 0
v -2176 -3072 0
v -2208 -3072 0
v -2208 -3040 0
v -2176 -3040 0
v -2144 -3072 0
v -2176 -3072 0
v -2176 -3040 0
v -2144 -3040 0
v -2112 -3072 0
v -2144 -3072 0
v -2144 -3040 0
v -2112 -3040 0
v -2080 -3072 0
v -2112 -3072 0
v -2112 -3040 0
v -2080 -3040 0
v -2336 -3104 0
v -2368 -3104 0
v -2368 -3072 0
v -2336 -3072 0
v -2304 -3104 0
v -2336 -3104 0
v -2336 -3072 0
v -2304 -3072 0
v -2272 -3104 0
v -2304 -3104 0
v -2304 -3072 0
v -2272 -3072 0
v -2240 -3104 0
v -2272 -3104 0
v -2272 -3072 0
v -2240 -3072 0
v -2208 -3104 0
v -2240 -3104 0
v -2240 -3072 0
v -2208 -3072 0
v -2176 -3104 0
v -2208 -3104 0
v -2208 -3072 0
v -2176 -3072 0
v -2144 -3104 0
v -2176 -3104 0
v -2176 -3072 0
v -2144 -3072 0
v -2112 -3104 0
v -2144 -3104 0
v -2144 -3072 0
v -2112 -3072 0
v -2080 -3104 0
v -2112 -3104 0
v -2112 -3072 0
v -2080 -3072 0
v -2272 -3136 0
v -2304 -3136 0
v -2304 -3104 0
v -2272 -3104 0
v -2240 -3136 0
v -2272 -3136 0
v -2272 -3104 0
v -2240 -3104 0
v -2208 -3136 0
v -2240 -3136 0
v -2240 -3104 0
v -2208 -3104 0
v -2176 -3136 0
v -2208 -3136 0
v -2208 -3104 0
v -2176 -3104 0
v -2144 -3136 0
v -2176 -3136 0
v -2176 -3104 0
v -2144 -3104 0
v -2112 -3136 0
v -2144 -3136 0
v -2144 -3104 0
v -2112 -3104 0
v -2080 -3136 0
v -2112 -3136 0
v -2112 -3104 0
v -2080 -3104 0
v -2176 -3168 0
v -2208 -3168 0
v -2208 -3136 0
v -2176 -3136 0
v -2144 -3168 0
v -2176 -3168 0
v -2176 -3136 0
v -2144 -3136 0
v -2112 -3168 0
v -2144 -3168 0
v -2144 -3136 0
v -2112 -3136 0
v -2080 -3168 0
v -2112 -3168 0
v -2112 -3136 0
v -2080 -3136 0

# Texture cooridinates (Count = 78)
vt 0.75 0.21875
vt 0.78125 0.21875
vt 0.78125 0.25
vt 0.75 0.25
vt 0.8125 0.21875
vt 0.8125 0.25
vt 0.53125 0.28125
vt 0.5625 0.28125
vt 0.5625 0.3125
vt 0.53125 0.3125
vt 0.75 0.1875
vt 0.78125 0.1875
vt 0.8125 0.1875
vt 0.53125 0.25
vt 0.5625 0.25
vt 0.84375 0.21875
vt 0.84375 0.25
vt 0.71875 0.21875
vt 0.71875 0.25
vt 0.6875 0.21875
vt 0.6875 0.25
vt 0.65625 0.21875
vt 0.65625 0.25
vt 0.625 0.21875
vt 0.625 0.25
vt 0.6875 0.1875
vt 0.71875 0.1875
vt 0.65625 0.1875
vt 0.625 0.1875
vt 0.09375 0.28125
vt 0.125 0.28125
vt 0.125 0.3125
vt 0.09375 0.3125
vt 0.0625 0.28125
vt 0.0625 0.3125
vt 0.03125 0.28125
vt 0.03125 0.3125
vt 0 0.28125
vt 0 0.3125
vt 0.3125 0.1875
vt 0.34375 0.1875
vt 0.34375 0.21875
vt 0.3125 0.21875
vt 0.28125 0.1875
vt 0.28125 0.21875
vt 0.09375 0.25
vt 0.125 0.25
vt 0.0625 0.25
vt 0.03125 0.25
vt 0 0.25
vt 0.3125 0.15625
vt 0.34375 0.15625
vt 0.28125 0.15625
vt 0.25 0.15625
vt 0.25 0.1875
vt 0.21875 0.15625
vt 0.21875 0.1875
vt 0.1875 0.15625
vt 0.1875 0.1875
vt 0.09375 0.21875
vt 0.125 0.21875
vt 0.0625 0.21875
vt 0.03125 0.21875
vt 0 0.21875
vt 0.25 0.125
vt 0.28125 0.125
vt 0.21875 0.125
vt 0.1875 0.125
vt 0.09375 0.1875
vt 0.125 0.1875
vt 0.0625 0.1875
vt 0.03125 0.1875
vt 0 0.1875
vt 0.09375 0.15625
vt 0.125 0.15625
vt 0.0625 0.15625
vt 0.03125 0.15625
vt 0 0.15625

# Normal
vn 0 0 -1

# Mesh description
g Hood2_mesh_0018

# Faces
f 1/1/1 2/2/1 3/3/1 4/4/1
f 5/1/1 6/2/1 7/3/1 8/4/1
f 9/2/1 10/5/1 11/6/1 12/3/1
f 13/2/1 14/5/1 15/6/1 16/3/1
f 17/7/1 18/8/1 19/9/1 20/10/1
f 21/7/1 22/8/1 23/9/1 24/10/1
f 25/11/1 26/12/1 27/2/1 28/1/1
f 29/11/1 30/12/1 31/2/1 32/1/1
f 33/12/1 34/13/1 35/5/1 36/2/1
f 37/12/1 38/13/1 39/5/1 40/2/1
f 41/14/1 42/15/1 43/8/1 44/7/1
f 45/11/1 46/12/1 47/2/1 48/1/1
f 49/5/1 50/16/1 51/17/1 52/6/1
f 53/18/1 54/1/1 55/4/1 56/19/1
f 57/20/1 58/18/1 59/19/1 60/21/1
f 61/22/1 62/20/1 63/21/1 64/23/1
f 65/24/1 66/22/1 67/23/1 68/25/1
f 69/24/1 70/22/1 71/23/1 72/25/1
f 73/12/1 74/13/1 75/5/1 76/2/1
f 77/12/1 78/13/1 79/5/1 80/2/1
f 81/26/1 82/27/1 83/18/1 84/20/1
f 85/28/1 86/26/1 87/20/1 88/22/1
f 89/29/1 90/28/1 91/22/1 92/24/1
f 93/29/1 94/28/1 95/22/1 96/24/1
f 97/30/1 98/31/1 99/32/1 100/33/1
f 101/34/1 102/30/1 103/33/1 104/35/1
f 105/36/1 106/34/1 107/35/1 108/37/1
f 109/38/1 110/36/1 111/37/1 112/39/1
f 113/40/1 114/41/1 115/42/1 116/43/1
f 117/44/1 118/40/1 119/43/1 120/45/1
f 121/46/1 122/47/1 123/31/1 124/30/1
f 125/48/1 126/46/1 127/30/1 128/34/1
f 129/49/1 130/48/1 131/34/1 132/36/1
f 133/50/1 134/49/1 135/36/1 136/38/1
f 137/51/1 138/52/1 139/41/1 140/40/1
f 141/53/1 142/51/1 143/40/1 144/44/1
f 145/54/1 146/53/1 147/44/1 148/55/1
f 149/56/1 150/54/1 151/55/1 152/57/1
f 153/58/1 154/56/1 155/57/1 156/59/1
f 157/60/1 158/61/1 159/47/1 160/46/1
f 161/62/1 162/60/1 163/46/1 164/48/1
f 165/63/1 166/62/1 167/48/1 168/49/1
f 169/64/1 170/63/1 171/49/1 172/50/1
f 173/65/1 174/66/1 175/53/1 176/54/1
f 177/67/1 178/65/1 179/54/1 180/56/1
f 181/68/1 182/67/1 183/56/1 184/58/1
f 185/69/1 186/70/1 187/61/1 188/60/1
f 189/71/1 190/69/1 191/60/1 192/62/1
f 193/72/1 194/71/1 195/62/1 196/63/1
f 197/73/1 198/72/1 199/63/1 200/64/1
f 201/74/1 202/75/1 203/70/1 204/69/1
f 205/76/1 206/74/1 207/69/1 208/71/1
f 209/77/1 210/76/1 211/71/1 212/72/1
f 213/78/1 214/77/1 215/72/1 216/73/1

