# Tiled2Unity generated file. Do not modify by hand.
# Wavefront file for 'Hood2_mesh_0073.obj'

# Vertices (Count = 76)
v -1696 -96 0
v -1728 -96 0
v -1728 -64 0
v -1696 -64 0
v -1664 -96 0
v -1696 -96 0
v -1696 -64 0
v -1664 -64 0
v -1632 -96 0
v -1664 -96 0
v -1664 -64 0
v -1632 -64 0
v -1600 -96 0
v -1632 -96 0
v -1632 -64 0
v -1600 -64 0
v -1696 -128 0
v -1728 -128 0
v -1728 -96 0
v -1696 -96 0
v -1664 -128 0
v -1696 -128 0
v -1696 -96 0
v -1664 -96 0
v -1632 -128 0
v -1664 -128 0
v -1664 -96 0
v -1632 -96 0
v -1600 -128 0
v -1632 -128 0
v -1632 -96 0
v -1600 -96 0
v -1696 -160 0
v -1728 -160 0
v -1728 -128 0
v -1696 -128 0
v -1664 -160 0
v -1696 -160 0
v -1696 -128 0
v -1664 -128 0
v -1632 -160 0
v -1664 -160 0
v -1664 -128 0
v -1632 -128 0
v -1600 -160 0
v -1632 -160 0
v -1632 -128 0
v -1600 -128 0
v -1664 -192 0
v -1696 -192 0
v -1696 -160 0
v -1664 -160 0
v -1632 -192 0
v -1664 -192 0
v -1664 -160 0
v -1632 -160 0
v -1600 -192 0
v -1632 -192 0
v -1632 -160 0
v -1600 -160 0
v -1664 -224 0
v -1696 -224 0
v -1696 -192 0
v -1664 -192 0
v -1632 -224 0
v -1664 -224 0
v -1664 -192 0
v -1632 -192 0
v -1600 -224 0
v -1632 -224 0
v -1632 -192 0
v -1600 -192 0
v -1824 -352 0
v -1856 -352 0
v -1856 -320 0
v -1824 -320 0

# Texture cooridinates (Count = 32)
vt 0.875 0.6097561
vt 1 0.6097561
vt 1 0.6341463
vt 0.875 0.6341463
vt 0.75 0.6097561
vt 0.75 0.6341463
vt 0.625 0.6097561
vt 0.625 0.6341463
vt 0.5 0.6097561
vt 0.5 0.6341463
vt 0.875 0.5853659
vt 1 0.5853659
vt 0.75 0.5853659
vt 0.625 0.5853659
vt 0.5 0.5853659
vt 0.875 0.5609756
vt 1 0.5609756
vt 0.75 0.5609756
vt 0.625 0.5609756
vt 0.5 0.5609756
vt 0.75 0.5365853
vt 0.875 0.5365853
vt 0.625 0.5365853
vt 0.5 0.5365853
vt 0.75 0.5121951
vt 0.875 0.5121951
vt 0.625 0.5121951
vt 0.5 0.5121951
vt 0.125 0.6585366
vt 0.25 0.6585366
vt 0.25 0.6829268
vt 0.125 0.6829268

# Normal
vn 0 0 -1

# Mesh description
g Hood2_mesh_0073

# Faces
f 1/1/1 2/2/1 3/3/1 4/4/1
f 5/5/1 6/1/1 7/4/1 8/6/1
f 9/7/1 10/5/1 11/6/1 12/8/1
f 13/9/1 14/7/1 15/8/1 16/10/1
f 17/11/1 18/12/1 19/2/1 20/1/1
f 21/13/1 22/11/1 23/1/1 24/5/1
f 25/14/1 26/13/1 27/5/1 28/7/1
f 29/15/1 30/14/1 31/7/1 32/9/1
f 33/16/1 34/17/1 35/12/1 36/11/1
f 37/18/1 38/16/1 39/11/1 40/13/1
f 41/19/1 42/18/1 43/13/1 44/14/1
f 45/20/1 46/19/1 47/14/1 48/15/1
f 49/21/1 50/22/1 51/16/1 52/18/1
f 53/23/1 54/21/1 55/18/1 56/19/1
f 57/24/1 58/23/1 59/19/1 60/20/1
f 61/25/1 62/26/1 63/22/1 64/21/1
f 65/27/1 66/25/1 67/21/1 68/23/1
f 69/28/1 70/27/1 71/23/1 72/24/1
f 73/29/1 74/30/1 75/31/1 76/32/1

