# Tiled2Unity generated file. Do not modify by hand.
# Wavefront file for 'Hood2_mesh_0047.obj'

# Vertices (Count = 216)
v -416 -2240 0
v -448 -2240 0
v -448 -2208 0
v -416 -2208 0
v -384 -2240 0
v -416 -2240 0
v -416 -2208 0
v -384 -2208 0
v -352 -2240 0
v -384 -2240 0
v -384 -2208 0
v -352 -2208 0
v -320 -2240 0
v -352 -2240 0
v -352 -2208 0
v -320 -2208 0
v -288 -2240 0
v -320 -2240 0
v -320 -2208 0
v -288 -2208 0
v -256 -2240 0
v -288 -2240 0
v -288 -2208 0
v -256 -2208 0
v -224 -2240 0
v -256 -2240 0
v -256 -2208 0
v -224 -2208 0
v -192 -2240 0
v -224 -2240 0
v -224 -2208 0
v -192 -2208 0
v -160 -2240 0
v -192 -2240 0
v -192 -2208 0
v -160 -2208 0
v -128 -2240 0
v -160 -2240 0
v -160 -2208 0
v -128 -2208 0
v -96 -2240 0
v -128 -2240 0
v -128 -2208 0
v -96 -2208 0
v -64 -2240 0
v -96 -2240 0
v -96 -2208 0
v -64 -2208 0
v -32 -2240 0
v -64 -2240 0
v -64 -2208 0
v -32 -2208 0
v 0 -2240 0
v -32 -2240 0
v -32 -2208 0
v 0 -2208 0
v -416 -2272 0
v -448 -2272 0
v -448 -2240 0
v -416 -2240 0
v 0 -2272 0
v -32 -2272 0
v -32 -2240 0
v 0 -2240 0
v -416 -2304 0
v -448 -2304 0
v -448 -2272 0
v -416 -2272 0
v 0 -2304 0
v -32 -2304 0
v -32 -2272 0
v 0 -2272 0
v -416 -2336 0
v -448 -2336 0
v -448 -2304 0
v -416 -2304 0
v 0 -2336 0
v -32 -2336 0
v -32 -2304 0
v 0 -2304 0
v -416 -2368 0
v -448 -2368 0
v -448 -2336 0
v -416 -2336 0
v 0 -2368 0
v -32 -2368 0
v -32 -2336 0
v 0 -2336 0
v -416 -2400 0
v -448 -2400 0
v -448 -2368 0
v -416 -2368 0
v 0 -2400 0
v -32 -2400 0
v -32 -2368 0
v 0 -2368 0
v -416 -2432 0
v -448 -2432 0
v -448 -2400 0
v -416 -2400 0
v 0 -2432 0
v -32 -2432 0
v -32 -2400 0
v 0 -2400 0
v -416 -2464 0
v -448 -2464 0
v -448 -2432 0
v -416 -2432 0
v 0 -2464 0
v -32 -2464 0
v -32 -2432 0
v 0 -2432 0
v -416 -2496 0
v -448 -2496 0
v -448 -2464 0
v -416 -2464 0
v 0 -2496 0
v -32 -2496 0
v -32 -2464 0
v 0 -2464 0
v -416 -2528 0
v -448 -2528 0
v -448 -2496 0
v -416 -2496 0
v 0 -2528 0
v -32 -2528 0
v -32 -2496 0
v 0 -2496 0
v -416 -2560 0
v -448 -2560 0
v -448 -2528 0
v -416 -2528 0
v 0 -2560 0
v -32 -2560 0
v -32 -2528 0
v 0 -2528 0
v -416 -2592 0
v -448 -2592 0
v -448 -2560 0
v -416 -2560 0
v 0 -2592 0
v -32 -2592 0
v -32 -2560 0
v 0 -2560 0
v -416 -2624 0
v -448 -2624 0
v -448 -2592 0
v -416 -2592 0
v 0 -2624 0
v -32 -2624 0
v -32 -2592 0
v 0 -2592 0
v -416 -2656 0
v -448 -2656 0
v -448 -2624 0
v -416 -2624 0
v 0 -2656 0
v -32 -2656 0
v -32 -2624 0
v 0 -2624 0
v -416 -2688 0
v -448 -2688 0
v -448 -2656 0
v -416 -2656 0
v 0 -2688 0
v -32 -2688 0
v -32 -2656 0
v 0 -2656 0
v -416 -2720 0
v -448 -2720 0
v -448 -2688 0
v -416 -2688 0
v 0 -2720 0
v -32 -2720 0
v -32 -2688 0
v 0 -2688 0
v -416 -2752 0
v -448 -2752 0
v -448 -2720 0
v -416 -2720 0
v -384 -2752 0
v -416 -2752 0
v -416 -2720 0
v -384 -2720 0
v -352 -2752 0
v -384 -2752 0
v -384 -2720 0
v -352 -2720 0
v -320 -2752 0
v -352 -2752 0
v -352 -2720 0
v -320 -2720 0
v -288 -2752 0
v -320 -2752 0
v -320 -2720 0
v -288 -2720 0
v -128 -2752 0
v -160 -2752 0
v -160 -2720 0
v -128 -2720 0
v -96 -2752 0
v -128 -2752 0
v -128 -2720 0
v -96 -2720 0
v -64 -2752 0
v -96 -2752 0
v -96 -2720 0
v -64 -2720 0
v -32 -2752 0
v -64 -2752 0
v -64 -2720 0
v -32 -2720 0
v 0 -2752 0
v -32 -2752 0
v -32 -2720 0
v 0 -2720 0

# Texture cooridinates (Count = 16)
vt 0.4375 0.6875
vt 0.5 0.6875
vt 0.5 0.75
vt 0.4375 0.75
vt 0.375 0.6875
vt 0.375 0.75
vt 0.3125 0.6875
vt 0.3125 0.75
vt 0.4375 0.625
vt 0.5 0.625
vt 0.3125 0.625
vt 0.375 0.625
vt 0.4375 0.5625
vt 0.5 0.5625
vt 0.3125 0.5625
vt 0.375 0.5625

# Normal
vn 0 0 -1

# Mesh description
g Hood2_mesh_0047

# Faces
f 1/1/1 2/2/1 3/3/1 4/4/1
f 5/5/1 6/1/1 7/4/1 8/6/1
f 9/5/1 10/1/1 11/4/1 12/6/1
f 13/5/1 14/1/1 15/4/1 16/6/1
f 17/5/1 18/1/1 19/4/1 20/6/1
f 21/5/1 22/1/1 23/4/1 24/6/1
f 25/5/1 26/1/1 27/4/1 28/6/1
f 29/5/1 30/1/1 31/4/1 32/6/1
f 33/5/1 34/1/1 35/4/1 36/6/1
f 37/5/1 38/1/1 39/4/1 40/6/1
f 41/5/1 42/1/1 43/4/1 44/6/1
f 45/5/1 46/1/1 47/4/1 48/6/1
f 49/5/1 50/1/1 51/4/1 52/6/1
f 53/7/1 54/5/1 55/6/1 56/8/1
f 57/9/1 58/10/1 59/2/1 60/1/1
f 61/11/1 62/12/1 63/5/1 64/7/1
f 65/9/1 66/10/1 67/2/1 68/1/1
f 69/11/1 70/12/1 71/5/1 72/7/1
f 73/9/1 74/10/1 75/2/1 76/1/1
f 77/11/1 78/12/1 79/5/1 80/7/1
f 81/9/1 82/10/1 83/2/1 84/1/1
f 85/11/1 86/12/1 87/5/1 88/7/1
f 89/9/1 90/10/1 91/2/1 92/1/1
f 93/11/1 94/12/1 95/5/1 96/7/1
f 97/9/1 98/10/1 99/2/1 100/1/1
f 101/11/1 102/12/1 103/5/1 104/7/1
f 105/9/1 106/10/1 107/2/1 108/1/1
f 109/11/1 110/12/1 111/5/1 112/7/1
f 113/9/1 114/10/1 115/2/1 116/1/1
f 117/11/1 118/12/1 119/5/1 120/7/1
f 121/9/1 122/10/1 123/2/1 124/1/1
f 125/11/1 126/12/1 127/5/1 128/7/1
f 129/9/1 130/10/1 131/2/1 132/1/1
f 133/11/1 134/12/1 135/5/1 136/7/1
f 137/9/1 138/10/1 139/2/1 140/1/1
f 141/11/1 142/12/1 143/5/1 144/7/1
f 145/9/1 146/10/1 147/2/1 148/1/1
f 149/11/1 150/12/1 151/5/1 152/7/1
f 153/9/1 154/10/1 155/2/1 156/1/1
f 157/11/1 158/12/1 159/5/1 160/7/1
f 161/9/1 162/10/1 163/2/1 164/1/1
f 165/11/1 166/12/1 167/5/1 168/7/1
f 169/9/1 170/10/1 171/2/1 172/1/1
f 173/11/1 174/12/1 175/5/1 176/7/1
f 177/13/1 178/14/1 179/10/1 180/9/1
f 181/12/1 182/9/1 183/1/1 184/5/1
f 185/12/1 186/9/1 187/1/1 188/5/1
f 189/12/1 190/9/1 191/1/1 192/5/1
f 193/12/1 194/9/1 195/1/1 196/5/1
f 197/12/1 198/9/1 199/1/1 200/5/1
f 201/12/1 202/9/1 203/1/1 204/5/1
f 205/12/1 206/9/1 207/1/1 208/5/1
f 209/12/1 210/9/1 211/1/1 212/5/1
f 213/15/1 214/16/1 215/12/1 216/11/1

