# Tiled2Unity generated file. Do not modify by hand.
# Wavefront file for 'Hood2_mesh_0040.obj'

# Vertices (Count = 272)
v -2432 -512 0
v -2464 -512 0
v -2464 -480 0
v -2432 -480 0
v -2400 -512 0
v -2432 -512 0
v -2432 -480 0
v -2400 -480 0
v -2368 -512 0
v -2400 -512 0
v -2400 -480 0
v -2368 -480 0
v -1728 -512 0
v -1760 -512 0
v -1760 -480 0
v -1728 -480 0
v -1696 -512 0
v -1728 -512 0
v -1728 -480 0
v -1696 -480 0
v -1664 -512 0
v -1696 -512 0
v -1696 -480 0
v -1664 -480 0
v -2432 -544 0
v -2464 -544 0
v -2464 -512 0
v -2432 -512 0
v -2400 -544 0
v -2432 -544 0
v -2432 -512 0
v -2400 -512 0
v -2368 -544 0
v -2400 -544 0
v -2400 -512 0
v -2368 -512 0
v -2112 -544 0
v -2144 -544 0
v -2144 -512 0
v -2112 -512 0
v -2080 -544 0
v -2112 -544 0
v -2112 -512 0
v -2080 -512 0
v -2048 -544 0
v -2080 -544 0
v -2080 -512 0
v -2048 -512 0
v -1856 -544 0
v -1888 -544 0
v -1888 -512 0
v -1856 -512 0
v -1824 -544 0
v -1856 -544 0
v -1856 -512 0
v -1824 -512 0
v -1792 -544 0
v -1824 -544 0
v -1824 -512 0
v -1792 -512 0
v -1728 -544 0
v -1760 -544 0
v -1760 -512 0
v -1728 -512 0
v -1696 -544 0
v -1728 -544 0
v -1728 -512 0
v -1696 -512 0
v -1664 -544 0
v -1696 -544 0
v -1696 -512 0
v -1664 -512 0
v -2432 -576 0
v -2464 -576 0
v -2464 -544 0
v -2432 -544 0
v -2400 -576 0
v -2432 -576 0
v -2432 -544 0
v -2400 -544 0
v -2368 -576 0
v -2400 -576 0
v -2400 -544 0
v -2368 -544 0
v -2240 -576 0
v -2272 -576 0
v -2272 -544 0
v -2240 -544 0
v -2208 -576 0
v -2240 -576 0
v -2240 -544 0
v -2208 -544 0
v -2176 -576 0
v -2208 -576 0
v -2208 -544 0
v -2176 -544 0
v -2112 -576 0
v -2144 -576 0
v -2144 -544 0
v -2112 -544 0
v -2080 -576 0
v -2112 -576 0
v -2112 -544 0
v -2080 -544 0
v -2048 -576 0
v -2080 -576 0
v -2080 -544 0
v -2048 -544 0
v -1984 -576 0
v -2016 -576 0
v -2016 -544 0
v -1984 -544 0
v -1952 -576 0
v -1984 -576 0
v -1984 -544 0
v -1952 -544 0
v -1920 -576 0
v -1952 -576 0
v -1952 -544 0
v -1920 -544 0
v -1856 -576 0
v -1888 -576 0
v -1888 -544 0
v -1856 -544 0
v -1824 -576 0
v -1856 -576 0
v -1856 -544 0
v -1824 -544 0
v -1792 -576 0
v -1824 -576 0
v -1824 -544 0
v -1792 -544 0
v -1728 -576 0
v -1760 -576 0
v -1760 -544 0
v -1728 -544 0
v -1696 -576 0
v -1728 -576 0
v -1728 -544 0
v -1696 -544 0
v -1664 -576 0
v -1696 -576 0
v -1696 -544 0
v -1664 -544 0
v -2432 -608 0
v -2464 -608 0
v -2464 -576 0
v -2432 -576 0
v -2400 -608 0
v -2432 -608 0
v -2432 -576 0
v -2400 -576 0
v -2368 -608 0
v -2400 -608 0
v -2400 -576 0
v -2368 -576 0
v -2240 -608 0
v -2272 -608 0
v -2272 -576 0
v -2240 -576 0
v -2208 -608 0
v -2240 -608 0
v -2240 -576 0
v -2208 -576 0
v -2176 -608 0
v -2208 -608 0
v -2208 -576 0
v -2176 -576 0
v -2112 -608 0
v -2144 -608 0
v -2144 -576 0
v -2112 -576 0
v -2080 -608 0
v -2112 -608 0
v -2112 -576 0
v -2080 -576 0
v -2048 -608 0
v -2080 -608 0
v -2080 -576 0
v -2048 -576 0
v -1984 -608 0
v -2016 -608 0
v -2016 -576 0
v -1984 -576 0
v -1952 -608 0
v -1984 -608 0
v -1984 -576 0
v -1952 -576 0
v -1920 -608 0
v -1952 -608 0
v -1952 -576 0
v -1920 -576 0
v -1856 -608 0
v -1888 -608 0
v -1888 -576 0
v -1856 -576 0
v -1824 -608 0
v -1856 -608 0
v -1856 -576 0
v -1824 -576 0
v -1792 -608 0
v -1824 -608 0
v -1824 -576 0
v -1792 -576 0
v -1728 -608 0
v -1760 -608 0
v -1760 -576 0
v -1728 -576 0
v -1696 -608 0
v -1728 -608 0
v -1728 -576 0
v -1696 -576 0
v -1664 -608 0
v -1696 -608 0
v -1696 -576 0
v -1664 -576 0
v -2240 -640 0
v -2272 -640 0
v -2272 -608 0
v -2240 -608 0
v -2208 -640 0
v -2240 -640 0
v -2240 -608 0
v -2208 -608 0
v -2176 -640 0
v -2208 -640 0
v -2208 -608 0
v -2176 -608 0
v -2112 -640 0
v -2144 -640 0
v -2144 -608 0
v -2112 -608 0
v -2080 -640 0
v -2112 -640 0
v -2112 -608 0
v -2080 -608 0
v -2048 -640 0
v -2080 -640 0
v -2080 -608 0
v -2048 -608 0
v -1984 -640 0
v -2016 -640 0
v -2016 -608 0
v -1984 -608 0
v -1952 -640 0
v -1984 -640 0
v -1984 -608 0
v -1952 -608 0
v -1920 -640 0
v -1952 -640 0
v -1952 -608 0
v -1920 -608 0
v -1728 -640 0
v -1760 -640 0
v -1760 -608 0
v -1728 -608 0
v -1696 -640 0
v -1728 -640 0
v -1728 -608 0
v -1696 -608 0
v -1664 -640 0
v -1696 -640 0
v -1696 -608 0
v -1664 -608 0
v -2368 -1760 0
v -2400 -1760 0
v -2400 -1728 0
v -2368 -1728 0
v -2336 -1760 0
v -2368 -1760 0
v -2368 -1728 0
v -2336 -1728 0

# Texture cooridinates (Count = 54)
vt 0.0625 0.5625
vt 0.09375 0.5625
vt 0.09375 0.59375
vt 0.0625 0.59375
vt 0.03125 0.5625
vt 0.03125 0.59375
vt 0 0.5625
vt 0 0.59375
vt 0.25 0.875
vt 0.28125 0.875
vt 0.28125 0.90625
vt 0.25 0.90625
vt 0.21875 0.875
vt 0.21875 0.90625
vt 0.1875 0.875
vt 0.1875 0.90625
vt 0.0625 0.53125
vt 0.09375 0.53125
vt 0.03125 0.53125
vt 0 0.53125
vt 0.25 0.84375
vt 0.28125 0.84375
vt 0.21875 0.84375
vt 0.1875 0.84375
vt 0.0625 0.5
vt 0.09375 0.5
vt 0.03125 0.5
vt 0 0.5
vt 0.15625 0.53125
vt 0.1875 0.53125
vt 0.1875 0.5625
vt 0.15625 0.5625
vt 0.125 0.53125
vt 0.125 0.5625
vt 0.0625 0.46875
vt 0.09375 0.46875
vt 0.03125 0.46875
vt 0 0.46875
vt 0.15625 0.5
vt 0.1875 0.5
vt 0.125 0.5
vt 0.25 0.8125
vt 0.28125 0.8125
vt 0.21875 0.8125
vt 0.1875 0.8125
vt 0.15625 0.46875
vt 0.1875 0.46875
vt 0.125 0.46875
vt 0.59375 0.375
vt 0.625 0.375
vt 0.625 0.40625
vt 0.59375 0.40625
vt 0.5625 0.375
vt 0.5625 0.40625

# Normal
vn 0 0 -1

# Mesh description
g Hood2_mesh_0040

# Faces
f 1/1/1 2/2/1 3/3/1 4/4/1
f 5/5/1 6/1/1 7/4/1 8/6/1
f 9/7/1 10/5/1 11/6/1 12/8/1
f 13/9/1 14/10/1 15/11/1 16/12/1
f 17/13/1 18/9/1 19/12/1 20/14/1
f 21/15/1 22/13/1 23/14/1 24/16/1
f 25/17/1 26/18/1 27/2/1 28/1/1
f 29/19/1 30/17/1 31/1/1 32/5/1
f 33/20/1 34/19/1 35/5/1 36/7/1
f 37/1/1 38/2/1 39/3/1 40/4/1
f 41/5/1 42/1/1 43/4/1 44/6/1
f 45/7/1 46/5/1 47/6/1 48/8/1
f 49/9/1 50/10/1 51/11/1 52/12/1
f 53/13/1 54/9/1 55/12/1 56/14/1
f 57/15/1 58/13/1 59/14/1 60/16/1
f 61/21/1 62/22/1 63/10/1 64/9/1
f 65/23/1 66/21/1 67/9/1 68/13/1
f 69/24/1 70/23/1 71/13/1 72/15/1
f 73/25/1 74/26/1 75/18/1 76/17/1
f 77/27/1 78/25/1 79/17/1 80/19/1
f 81/28/1 82/27/1 83/19/1 84/20/1
f 85/29/1 86/30/1 87/31/1 88/32/1
f 89/33/1 90/29/1 91/32/1 92/34/1
f 93/18/1 94/33/1 95/34/1 96/2/1
f 97/17/1 98/18/1 99/2/1 100/1/1
f 101/19/1 102/17/1 103/1/1 104/5/1
f 105/20/1 106/19/1 107/5/1 108/7/1
f 109/17/1 110/18/1 111/2/1 112/1/1
f 113/19/1 114/17/1 115/1/1 116/5/1
f 117/20/1 118/19/1 119/5/1 120/7/1
f 121/21/1 122/22/1 123/10/1 124/9/1
f 125/23/1 126/21/1 127/9/1 128/13/1
f 129/24/1 130/23/1 131/13/1 132/15/1
f 133/17/1 134/18/1 135/2/1 136/1/1
f 137/19/1 138/17/1 139/1/1 140/5/1
f 141/20/1 142/19/1 143/5/1 144/7/1
f 145/35/1 146/36/1 147/26/1 148/25/1
f 149/37/1 150/35/1 151/25/1 152/27/1
f 153/38/1 154/37/1 155/27/1 156/28/1
f 157/39/1 158/40/1 159/30/1 160/29/1
f 161/41/1 162/39/1 163/29/1 164/33/1
f 165/26/1 166/41/1 167/33/1 168/18/1
f 169/25/1 170/26/1 171/18/1 172/17/1
f 173/27/1 174/25/1 175/17/1 176/19/1
f 177/28/1 178/27/1 179/19/1 180/20/1
f 181/25/1 182/26/1 183/18/1 184/17/1
f 185/27/1 186/25/1 187/17/1 188/19/1
f 189/28/1 190/27/1 191/19/1 192/20/1
f 193/42/1 194/43/1 195/22/1 196/21/1
f 197/44/1 198/42/1 199/21/1 200/23/1
f 201/45/1 202/44/1 203/23/1 204/24/1
f 205/25/1 206/26/1 207/18/1 208/17/1
f 209/27/1 210/25/1 211/17/1 212/19/1
f 213/28/1 214/27/1 215/19/1 216/20/1
f 217/46/1 218/47/1 219/40/1 220/39/1
f 221/48/1 222/46/1 223/39/1 224/41/1
f 225/36/1 226/48/1 227/41/1 228/26/1
f 229/35/1 230/36/1 231/26/1 232/25/1
f 233/37/1 234/35/1 235/25/1 236/27/1
f 237/38/1 238/37/1 239/27/1 240/28/1
f 241/35/1 242/36/1 243/26/1 244/25/1
f 245/37/1 246/35/1 247/25/1 248/27/1
f 249/38/1 250/37/1 251/27/1 252/28/1
f 253/35/1 254/36/1 255/26/1 256/25/1
f 257/37/1 258/35/1 259/25/1 260/27/1
f 261/38/1 262/37/1 263/27/1 264/28/1
f 265/49/1 266/50/1 267/51/1 268/52/1
f 269/53/1 270/49/1 271/52/1 272/54/1

