# Tiled2Unity generated file. Do not modify by hand.
# Wavefront file for 'Hood2_mesh_0023.obj'

# Vertices (Count = 68)
v -1440 -3040 0
v -1472 -3040 0
v -1472 -3008 0
v -1440 -3008 0
v -1408 -3040 0
v -1440 -3040 0
v -1440 -3008 0
v -1408 -3008 0
v -1376 -3040 0
v -1408 -3040 0
v -1408 -3008 0
v -1376 -3008 0
v -1344 -3040 0
v -1376 -3040 0
v -1376 -3008 0
v -1344 -3008 0
v -1312 -3040 0
v -1344 -3040 0
v -1344 -3008 0
v -1312 -3008 0
v -1440 -3072 0
v -1472 -3072 0
v -1472 -3040 0
v -1440 -3040 0
v -1408 -3072 0
v -1440 -3072 0
v -1440 -3040 0
v -1408 -3040 0
v -1376 -3072 0
v -1408 -3072 0
v -1408 -3040 0
v -1376 -3040 0
v -1344 -3072 0
v -1376 -3072 0
v -1376 -3040 0
v -1344 -3040 0
v -1312 -3072 0
v -1344 -3072 0
v -1344 -3040 0
v -1312 -3040 0
v -1440 -3104 0
v -1472 -3104 0
v -1472 -3072 0
v -1440 -3072 0
v -1408 -3104 0
v -1440 -3104 0
v -1440 -3072 0
v -1408 -3072 0
v -1376 -3104 0
v -1408 -3104 0
v -1408 -3072 0
v -1376 -3072 0
v -1344 -3104 0
v -1376 -3104 0
v -1376 -3072 0
v -1344 -3072 0
v -1312 -3104 0
v -1344 -3104 0
v -1344 -3072 0
v -1312 -3072 0
v -1440 -3136 0
v -1472 -3136 0
v -1472 -3104 0
v -1440 -3104 0
v -1312 -3136 0
v -1344 -3136 0
v -1344 -3104 0
v -1312 -3104 0

# Texture cooridinates (Count = 26)
vt 0.0625 0.9375
vt 0.125 0.9375
vt 0.125 1
vt 0.0625 1
vt 0 0.9375
vt 0 1
vt 0.125 0.8125
vt 0.1875 0.8125
vt 0.1875 0.875
vt 0.125 0.875
vt 0.0625 0.8125
vt 0.0625 0.875
vt 0 0.8125
vt 0 0.875
vt 0.125 0.75
vt 0.1875 0.75
vt 0.0625 0.75
vt 0.25 0.75
vt 0.3125 0.75
vt 0.3125 0.8125
vt 0.25 0.8125
vt 0 0.75
vt 0.125 0.6875
vt 0.1875 0.6875
vt 0 0.6875
vt 0.0625 0.6875

# Normal
vn 0 0 -1

# Mesh description
g Hood2_mesh_0023

# Faces
f 1/1/1 2/2/1 3/3/1 4/4/1
f 5/1/1 6/2/1 7/3/1 8/4/1
f 9/1/1 10/2/1 11/3/1 12/4/1
f 13/1/1 14/2/1 15/3/1 16/4/1
f 17/5/1 18/1/1 19/4/1 20/6/1
f 21/7/1 22/8/1 23/9/1 24/10/1
f 25/11/1 26/7/1 27/10/1 28/12/1
f 29/11/1 30/7/1 31/10/1 32/12/1
f 33/11/1 34/7/1 35/10/1 36/12/1
f 37/13/1 38/11/1 39/12/1 40/14/1
f 41/15/1 42/16/1 43/8/1 44/7/1
f 45/17/1 46/15/1 47/7/1 48/11/1
f 49/18/1 50/19/1 51/20/1 52/21/1
f 53/17/1 54/15/1 55/7/1 56/11/1
f 57/22/1 58/17/1 59/11/1 60/13/1
f 61/23/1 62/24/1 63/16/1 64/15/1
f 65/25/1 66/26/1 67/17/1 68/22/1

