# Tiled2Unity generated file. Do not modify by hand.
# Wavefront file for 'Hood2_mesh_0014.obj'

# Vertices (Count = 456)
v -2624 -928 0
v -2656 -928 0
v -2656 -896 0
v -2624 -896 0
v -2592 -928 0
v -2624 -928 0
v -2624 -896 0
v -2592 -896 0
v -2560 -928 0
v -2592 -928 0
v -2592 -896 0
v -2560 -896 0
v -2528 -928 0
v -2560 -928 0
v -2560 -896 0
v -2528 -896 0
v -2496 -928 0
v -2528 -928 0
v -2528 -896 0
v -2496 -896 0
v -2464 -928 0
v -2496 -928 0
v -2496 -896 0
v -2464 -896 0
v -2432 -928 0
v -2464 -928 0
v -2464 -896 0
v -2432 -896 0
v -2400 -928 0
v -2432 -928 0
v -2432 -896 0
v -2400 -896 0
v -2368 -928 0
v -2400 -928 0
v -2400 -896 0
v -2368 -896 0
v -2336 -928 0
v -2368 -928 0
v -2368 -896 0
v -2336 -896 0
v -2304 -928 0
v -2336 -928 0
v -2336 -896 0
v -2304 -896 0
v -2272 -928 0
v -2304 -928 0
v -2304 -896 0
v -2272 -896 0
v -2240 -928 0
v -2272 -928 0
v -2272 -896 0
v -2240 -896 0
v -2208 -928 0
v -2240 -928 0
v -2240 -896 0
v -2208 -896 0
v -2176 -928 0
v -2208 -928 0
v -2208 -896 0
v -2176 -896 0
v -2144 -928 0
v -2176 -928 0
v -2176 -896 0
v -2144 -896 0
v -2112 -928 0
v -2144 -928 0
v -2144 -896 0
v -2112 -896 0
v -2080 -928 0
v -2112 -928 0
v -2112 -896 0
v -2080 -896 0
v -2048 -928 0
v -2080 -928 0
v -2080 -896 0
v -2048 -896 0
v -2016 -928 0
v -2048 -928 0
v -2048 -896 0
v -2016 -896 0
v -1984 -928 0
v -2016 -928 0
v -2016 -896 0
v -1984 -896 0
v -1952 -928 0
v -1984 -928 0
v -1984 -896 0
v -1952 -896 0
v -1920 -928 0
v -1952 -928 0
v -1952 -896 0
v -1920 -896 0
v -1888 -928 0
v -1920 -928 0
v -1920 -896 0
v -1888 -896 0
v -1856 -928 0
v -1888 -928 0
v -1888 -896 0
v -1856 -896 0
v -1824 -928 0
v -1856 -928 0
v -1856 -896 0
v -1824 -896 0
v -1792 -928 0
v -1824 -928 0
v -1824 -896 0
v -1792 -896 0
v -1760 -928 0
v -1792 -928 0
v -1792 -896 0
v -1760 -896 0
v -1728 -928 0
v -1760 -928 0
v -1760 -896 0
v -1728 -896 0
v -1696 -928 0
v -1728 -928 0
v -1728 -896 0
v -1696 -896 0
v -1664 -928 0
v -1696 -928 0
v -1696 -896 0
v -1664 -896 0
v -1632 -928 0
v -1664 -928 0
v -1664 -896 0
v -1632 -896 0
v -1600 -928 0
v -1632 -928 0
v -1632 -896 0
v -1600 -896 0
v -1568 -928 0
v -1600 -928 0
v -1600 -896 0
v -1568 -896 0
v -1536 -928 0
v -1568 -928 0
v -1568 -896 0
v -1536 -896 0
v -1504 -928 0
v -1536 -928 0
v -1536 -896 0
v -1504 -896 0
v -1472 -928 0
v -1504 -928 0
v -1504 -896 0
v -1472 -896 0
v -1440 -928 0
v -1472 -928 0
v -1472 -896 0
v -1440 -896 0
v -2624 -960 0
v -2656 -960 0
v -2656 -928 0
v -2624 -928 0
v -1440 -960 0
v -1472 -960 0
v -1472 -928 0
v -1440 -928 0
v -2624 -992 0
v -2656 -992 0
v -2656 -960 0
v -2624 -960 0
v -1440 -992 0
v -1472 -992 0
v -1472 -960 0
v -1440 -960 0
v -2624 -1024 0
v -2656 -1024 0
v -2656 -992 0
v -2624 -992 0
v -1440 -1024 0
v -1472 -1024 0
v -1472 -992 0
v -1440 -992 0
v -2624 -1056 0
v -2656 -1056 0
v -2656 -1024 0
v -2624 -1024 0
v -1440 -1056 0
v -1472 -1056 0
v -1472 -1024 0
v -1440 -1024 0
v -2624 -1088 0
v -2656 -1088 0
v -2656 -1056 0
v -2624 -1056 0
v -1440 -1088 0
v -1472 -1088 0
v -1472 -1056 0
v -1440 -1056 0
v -2624 -1120 0
v -2656 -1120 0
v -2656 -1088 0
v -2624 -1088 0
v -1440 -1120 0
v -1472 -1120 0
v -1472 -1088 0
v -1440 -1088 0
v -2624 -1152 0
v -2656 -1152 0
v -2656 -1120 0
v -2624 -1120 0
v -1440 -1152 0
v -1472 -1152 0
v -1472 -1120 0
v -1440 -1120 0
v -2624 -1184 0
v -2656 -1184 0
v -2656 -1152 0
v -2624 -1152 0
v -1440 -1184 0
v -1472 -1184 0
v -1472 -1152 0
v -1440 -1152 0
v -2624 -1216 0
v -2656 -1216 0
v -2656 -1184 0
v -2624 -1184 0
v -1440 -1216 0
v -1472 -1216 0
v -1472 -1184 0
v -1440 -1184 0
v -2624 -1248 0
v -2656 -1248 0
v -2656 -1216 0
v -2624 -1216 0
v -1440 -1248 0
v -1472 -1248 0
v -1472 -1216 0
v -1440 -1216 0
v -2624 -1280 0
v -2656 -1280 0
v -2656 -1248 0
v -2624 -1248 0
v -1440 -1280 0
v -1472 -1280 0
v -1472 -1248 0
v -1440 -1248 0
v -2624 -1312 0
v -2656 -1312 0
v -2656 -1280 0
v -2624 -1280 0
v -1440 -1312 0
v -1472 -1312 0
v -1472 -1280 0
v -1440 -1280 0
v -2624 -1344 0
v -2656 -1344 0
v -2656 -1312 0
v -2624 -1312 0
v -1440 -1344 0
v -1472 -1344 0
v -1472 -1312 0
v -1440 -1312 0
v -2624 -1376 0
v -2656 -1376 0
v -2656 -1344 0
v -2624 -1344 0
v -1440 -1376 0
v -1472 -1376 0
v -1472 -1344 0
v -1440 -1344 0
v -2624 -1408 0
v -2656 -1408 0
v -2656 -1376 0
v -2624 -1376 0
v -1440 -1408 0
v -1472 -1408 0
v -1472 -1376 0
v -1440 -1376 0
v -2624 -1440 0
v -2656 -1440 0
v -2656 -1408 0
v -2624 -1408 0
v -1440 -1440 0
v -1472 -1440 0
v -1472 -1408 0
v -1440 -1408 0
v -2624 -1472 0
v -2656 -1472 0
v -2656 -1440 0
v -2624 -1440 0
v -1888 -1472 0
v -1920 -1472 0
v -1920 -1440 0
v -1888 -1440 0
v -1856 -1472 0
v -1888 -1472 0
v -1888 -1440 0
v -1856 -1440 0
v -1824 -1472 0
v -1856 -1472 0
v -1856 -1440 0
v -1824 -1440 0
v -1792 -1472 0
v -1824 -1472 0
v -1824 -1440 0
v -1792 -1440 0
v -1760 -1472 0
v -1792 -1472 0
v -1792 -1440 0
v -1760 -1440 0
v -1728 -1472 0
v -1760 -1472 0
v -1760 -1440 0
v -1728 -1440 0
v -1696 -1472 0
v -1728 -1472 0
v -1728 -1440 0
v -1696 -1440 0
v -1664 -1472 0
v -1696 -1472 0
v -1696 -1440 0
v -1664 -1440 0
v -1632 -1472 0
v -1664 -1472 0
v -1664 -1440 0
v -1632 -1440 0
v -1600 -1472 0
v -1632 -1472 0
v -1632 -1440 0
v -1600 -1440 0
v -1568 -1472 0
v -1600 -1472 0
v -1600 -1440 0
v -1568 -1440 0
v -1536 -1472 0
v -1568 -1472 0
v -1568 -1440 0
v -1536 -1440 0
v -1504 -1472 0
v -1536 -1472 0
v -1536 -1440 0
v -1504 -1440 0
v -1472 -1472 0
v -1504 -1472 0
v -1504 -1440 0
v -1472 -1440 0
v -1440 -1472 0
v -1472 -1472 0
v -1472 -1440 0
v -1440 -1440 0
v -2624 -1504 0
v -2656 -1504 0
v -2656 -1472 0
v -2624 -1472 0
v -1888 -1504 0
v -1920 -1504 0
v -1920 -1472 0
v -1888 -1472 0
v -2624 -1536 0
v -2656 -1536 0
v -2656 -1504 0
v -2624 -1504 0
v -1888 -1536 0
v -1920 -1536 0
v -1920 -1504 0
v -1888 -1504 0
v -2624 -1568 0
v -2656 -1568 0
v -2656 -1536 0
v -2624 -1536 0
v -1888 -1568 0
v -1920 -1568 0
v -1920 -1536 0
v -1888 -1536 0
v -2624 -1600 0
v -2656 -1600 0
v -2656 -1568 0
v -2624 -1568 0
v -1888 -1600 0
v -1920 -1600 0
v -1920 -1568 0
v -1888 -1568 0
v -2624 -1632 0
v -2656 -1632 0
v -2656 -1600 0
v -2624 -1600 0
v -1888 -1632 0
v -1920 -1632 0
v -1920 -1600 0
v -1888 -1600 0
v -2624 -1664 0
v -2656 -1664 0
v -2656 -1632 0
v -2624 -1632 0
v -2592 -1664 0
v -2624 -1664 0
v -2624 -1632 0
v -2592 -1632 0
v -2560 -1664 0
v -2592 -1664 0
v -2592 -1632 0
v -2560 -1632 0
v -2528 -1664 0
v -2560 -1664 0
v -2560 -1632 0
v -2528 -1632 0
v -2496 -1664 0
v -2528 -1664 0
v -2528 -1632 0
v -2496 -1632 0
v -2464 -1664 0
v -2496 -1664 0
v -2496 -1632 0
v -2464 -1632 0
v -2432 -1664 0
v -2464 -1664 0
v -2464 -1632 0
v -2432 -1632 0
v -2400 -1664 0
v -2432 -1664 0
v -2432 -1632 0
v -2400 -1632 0
v -2368 -1664 0
v -2400 -1664 0
v -2400 -1632 0
v -2368 -1632 0
v -2144 -1664 0
v -2176 -1664 0
v -2176 -1632 0
v -2144 -1632 0
v -2112 -1664 0
v -2144 -1664 0
v -2144 -1632 0
v -2112 -1632 0
v -2080 -1664 0
v -2112 -1664 0
v -2112 -1632 0
v -2080 -1632 0
v -2048 -1664 0
v -2080 -1664 0
v -2080 -1632 0
v -2048 -1632 0
v -2016 -1664 0
v -2048 -1664 0
v -2048 -1632 0
v -2016 -1632 0
v -1984 -1664 0
v -2016 -1664 0
v -2016 -1632 0
v -1984 -1632 0
v -1952 -1664 0
v -1984 -1664 0
v -1984 -1632 0
v -1952 -1632 0
v -1920 -1664 0
v -1952 -1664 0
v -1952 -1632 0
v -1920 -1632 0
v -1888 -1664 0
v -1920 -1664 0
v -1920 -1632 0
v -1888 -1632 0

# Texture cooridinates (Count = 16)
vt 0.125 0.875
vt 0.1875 0.875
vt 0.1875 0.9375
vt 0.125 0.9375
vt 0.0625 0.875
vt 0.0625 0.9375
vt 0.125 0.75
vt 0.1875 0.75
vt 0.1875 0.8125
vt 0.125 0.8125
vt 0 0.875
vt 0 0.9375
vt 0 0.8125
vt 0.0625 0.8125
vt 0 0.75
vt 0.0625 0.75

# Normal
vn 0 0 -1

# Mesh description
g Hood2_mesh_0014

# Faces
f 1/1/1 2/2/1 3/3/1 4/4/1
f 5/5/1 6/1/1 7/4/1 8/6/1
f 9/5/1 10/1/1 11/4/1 12/6/1
f 13/5/1 14/1/1 15/4/1 16/6/1
f 17/5/1 18/1/1 19/4/1 20/6/1
f 21/5/1 22/1/1 23/4/1 24/6/1
f 25/5/1 26/1/1 27/4/1 28/6/1
f 29/5/1 30/1/1 31/4/1 32/6/1
f 33/5/1 34/1/1 35/4/1 36/6/1
f 37/5/1 38/1/1 39/4/1 40/6/1
f 41/5/1 42/1/1 43/4/1 44/6/1
f 45/5/1 46/1/1 47/4/1 48/6/1
f 49/5/1 50/1/1 51/4/1 52/6/1
f 53/7/1 54/8/1 55/9/1 56/10/1
f 57/5/1 58/1/1 59/4/1 60/6/1
f 61/5/1 62/1/1 63/4/1 64/6/1
f 65/5/1 66/1/1 67/4/1 68/6/1
f 69/5/1 70/1/1 71/4/1 72/6/1
f 73/5/1 74/1/1 75/4/1 76/6/1
f 77/5/1 78/1/1 79/4/1 80/6/1
f 81/5/1 82/1/1 83/4/1 84/6/1
f 85/5/1 86/1/1 87/4/1 88/6/1
f 89/5/1 90/1/1 91/4/1 92/6/1
f 93/5/1 94/1/1 95/4/1 96/6/1
f 97/5/1 98/1/1 99/4/1 100/6/1
f 101/5/1 102/1/1 103/4/1 104/6/1
f 105/5/1 106/1/1 107/4/1 108/6/1
f 109/5/1 110/1/1 111/4/1 112/6/1
f 113/5/1 114/1/1 115/4/1 116/6/1
f 117/5/1 118/1/1 119/4/1 120/6/1
f 121/5/1 122/1/1 123/4/1 124/6/1
f 125/5/1 126/1/1 127/4/1 128/6/1
f 129/5/1 130/1/1 131/4/1 132/6/1
f 133/5/1 134/1/1 135/4/1 136/6/1
f 137/5/1 138/1/1 139/4/1 140/6/1
f 141/5/1 142/1/1 143/4/1 144/6/1
f 145/5/1 146/1/1 147/4/1 148/6/1
f 149/11/1 150/5/1 151/6/1 152/12/1
f 153/13/1 154/14/1 155/5/1 156/11/1
f 157/13/1 158/14/1 159/5/1 160/11/1
f 161/13/1 162/14/1 163/5/1 164/11/1
f 165/13/1 166/14/1 167/5/1 168/11/1
f 169/13/1 170/14/1 171/5/1 172/11/1
f 173/13/1 174/14/1 175/5/1 176/11/1
f 177/13/1 178/14/1 179/5/1 180/11/1
f 181/13/1 182/14/1 183/5/1 184/11/1
f 185/13/1 186/14/1 187/5/1 188/11/1
f 189/13/1 190/14/1 191/5/1 192/11/1
f 193/13/1 194/14/1 195/5/1 196/11/1
f 197/13/1 198/14/1 199/5/1 200/11/1
f 201/13/1 202/14/1 203/5/1 204/11/1
f 205/13/1 206/14/1 207/5/1 208/11/1
f 209/13/1 210/14/1 211/5/1 212/11/1
f 213/13/1 214/14/1 215/5/1 216/11/1
f 217/13/1 218/14/1 219/5/1 220/11/1
f 221/13/1 222/14/1 223/5/1 224/11/1
f 225/13/1 226/14/1 227/5/1 228/11/1
f 229/13/1 230/14/1 231/5/1 232/11/1
f 233/13/1 234/14/1 235/5/1 236/11/1
f 237/13/1 238/14/1 239/5/1 240/11/1
f 241/13/1 242/14/1 243/5/1 244/11/1
f 245/13/1 246/14/1 247/5/1 248/11/1
f 249/13/1 250/14/1 251/5/1 252/11/1
f 253/13/1 254/14/1 255/5/1 256/11/1
f 257/13/1 258/14/1 259/5/1 260/11/1
f 261/13/1 262/14/1 263/5/1 264/11/1
f 265/13/1 266/14/1 267/5/1 268/11/1
f 269/13/1 270/14/1 271/5/1 272/11/1
f 273/13/1 274/14/1 275/5/1 276/11/1
f 277/13/1 278/14/1 279/5/1 280/11/1
f 281/13/1 282/14/1 283/5/1 284/11/1
f 285/1/1 286/2/1 287/3/1 288/4/1
f 289/5/1 290/1/1 291/4/1 292/6/1
f 293/5/1 294/1/1 295/4/1 296/6/1
f 297/5/1 298/1/1 299/4/1 300/6/1
f 301/5/1 302/1/1 303/4/1 304/6/1
f 305/5/1 306/1/1 307/4/1 308/6/1
f 309/5/1 310/1/1 311/4/1 312/6/1
f 313/5/1 314/1/1 315/4/1 316/6/1
f 317/5/1 318/1/1 319/4/1 320/6/1
f 321/5/1 322/1/1 323/4/1 324/6/1
f 325/5/1 326/1/1 327/4/1 328/6/1
f 329/5/1 330/1/1 331/4/1 332/6/1
f 333/5/1 334/1/1 335/4/1 336/6/1
f 337/7/1 338/8/1 339/9/1 340/10/1
f 341/15/1 342/16/1 343/14/1 344/13/1
f 345/13/1 346/14/1 347/5/1 348/11/1
f 349/13/1 350/14/1 351/5/1 352/11/1
f 353/13/1 354/14/1 355/5/1 356/11/1
f 357/13/1 358/14/1 359/5/1 360/11/1
f 361/13/1 362/14/1 363/5/1 364/11/1
f 365/13/1 366/14/1 367/5/1 368/11/1
f 369/13/1 370/14/1 371/5/1 372/11/1
f 373/13/1 374/14/1 375/5/1 376/11/1
f 377/13/1 378/14/1 379/5/1 380/11/1
f 381/13/1 382/14/1 383/5/1 384/11/1
f 385/10/1 386/9/1 387/2/1 388/1/1
f 389/5/1 390/1/1 391/4/1 392/6/1
f 393/5/1 394/1/1 395/4/1 396/6/1
f 397/5/1 398/1/1 399/4/1 400/6/1
f 401/5/1 402/1/1 403/4/1 404/6/1
f 405/5/1 406/1/1 407/4/1 408/6/1
f 409/5/1 410/1/1 411/4/1 412/6/1
f 413/5/1 414/1/1 415/4/1 416/6/1
f 417/14/1 418/10/1 419/1/1 420/5/1
f 421/16/1 422/7/1 423/10/1 424/14/1
f 425/5/1 426/1/1 427/4/1 428/6/1
f 429/5/1 430/1/1 431/4/1 432/6/1
f 433/5/1 434/1/1 435/4/1 436/6/1
f 437/5/1 438/1/1 439/4/1 440/6/1
f 441/5/1 442/1/1 443/4/1 444/6/1
f 445/5/1 446/1/1 447/4/1 448/6/1
f 449/5/1 450/1/1 451/4/1 452/6/1
f 453/15/1 454/16/1 455/14/1 456/13/1

