# Tiled2Unity generated file. Do not modify by hand.
# Wavefront file for 'Hood2_mesh_0060.obj'

# Vertices (Count = 396)
v -352 -992 0
v -384 -992 0
v -384 -960 0
v -352 -960 0
v -352 -1024 0
v -384 -1024 0
v -384 -992 0
v -352 -992 0
v -1600 -2272 0
v -1632 -2272 0
v -1632 -2240 0
v -1600 -2240 0
v -1568 -2272 0
v -1600 -2272 0
v -1600 -2240 0
v -1568 -2240 0
v -1536 -2272 0
v -1568 -2272 0
v -1568 -2240 0
v -1536 -2240 0
v -1504 -2272 0
v -1536 -2272 0
v -1536 -2240 0
v -1504 -2240 0
v -1472 -2272 0
v -1504 -2272 0
v -1504 -2240 0
v -1472 -2240 0
v -1440 -2272 0
v -1472 -2272 0
v -1472 -2240 0
v -1440 -2240 0
v -1408 -2272 0
v -1440 -2272 0
v -1440 -2240 0
v -1408 -2240 0
v -1376 -2272 0
v -1408 -2272 0
v -1408 -2240 0
v -1376 -2240 0
v -1344 -2272 0
v -1376 -2272 0
v -1376 -2240 0
v -1344 -2240 0
v -1312 -2272 0
v -1344 -2272 0
v -1344 -2240 0
v -1312 -2240 0
v -1280 -2272 0
v -1312 -2272 0
v -1312 -2240 0
v -1280 -2240 0
v -1248 -2272 0
v -1280 -2272 0
v -1280 -2240 0
v -1248 -2240 0
v -1216 -2272 0
v -1248 -2272 0
v -1248 -2240 0
v -1216 -2240 0
v -1184 -2272 0
v -1216 -2272 0
v -1216 -2240 0
v -1184 -2240 0
v -1152 -2272 0
v -1184 -2272 0
v -1184 -2240 0
v -1152 -2240 0
v -1120 -2272 0
v -1152 -2272 0
v -1152 -2240 0
v -1120 -2240 0
v -1088 -2272 0
v -1120 -2272 0
v -1120 -2240 0
v -1088 -2240 0
v -1056 -2272 0
v -1088 -2272 0
v -1088 -2240 0
v -1056 -2240 0
v -1024 -2272 0
v -1056 -2272 0
v -1056 -2240 0
v -1024 -2240 0
v -1600 -2304 0
v -1632 -2304 0
v -1632 -2272 0
v -1600 -2272 0
v -1568 -2304 0
v -1600 -2304 0
v -1600 -2272 0
v -1568 -2272 0
v -1536 -2304 0
v -1568 -2304 0
v -1568 -2272 0
v -1536 -2272 0
v -1504 -2304 0
v -1536 -2304 0
v -1536 -2272 0
v -1504 -2272 0
v -1472 -2304 0
v -1504 -2304 0
v -1504 -2272 0
v -1472 -2272 0
v -1440 -2304 0
v -1472 -2304 0
v -1472 -2272 0
v -1440 -2272 0
v -1408 -2304 0
v -1440 -2304 0
v -1440 -2272 0
v -1408 -2272 0
v -1376 -2304 0
v -1408 -2304 0
v -1408 -2272 0
v -1376 -2272 0
v -1344 -2304 0
v -1376 -2304 0
v -1376 -2272 0
v -1344 -2272 0
v -1312 -2304 0
v -1344 -2304 0
v -1344 -2272 0
v -1312 -2272 0
v -1280 -2304 0
v -1312 -2304 0
v -1312 -2272 0
v -1280 -2272 0
v -1248 -2304 0
v -1280 -2304 0
v -1280 -2272 0
v -1248 -2272 0
v -1216 -2304 0
v -1248 -2304 0
v -1248 -2272 0
v -1216 -2272 0
v -1184 -2304 0
v -1216 -2304 0
v -1216 -2272 0
v -1184 -2272 0
v -1152 -2304 0
v -1184 -2304 0
v -1184 -2272 0
v -1152 -2272 0
v -1120 -2304 0
v -1152 -2304 0
v -1152 -2272 0
v -1120 -2272 0
v -1088 -2304 0
v -1120 -2304 0
v -1120 -2272 0
v -1088 -2272 0
v -1056 -2304 0
v -1088 -2304 0
v -1088 -2272 0
v -1056 -2272 0
v -1024 -2304 0
v -1056 -2304 0
v -1056 -2272 0
v -1024 -2272 0
v -1600 -2336 0
v -1632 -2336 0
v -1632 -2304 0
v -1600 -2304 0
v -1024 -2336 0
v -1056 -2336 0
v -1056 -2304 0
v -1024 -2304 0
v -1600 -2368 0
v -1632 -2368 0
v -1632 -2336 0
v -1600 -2336 0
v -1024 -2368 0
v -1056 -2368 0
v -1056 -2336 0
v -1024 -2336 0
v -1600 -2400 0
v -1632 -2400 0
v -1632 -2368 0
v -1600 -2368 0
v -1024 -2400 0
v -1056 -2400 0
v -1056 -2368 0
v -1024 -2368 0
v -1600 -2432 0
v -1632 -2432 0
v -1632 -2400 0
v -1600 -2400 0
v -1024 -2432 0
v -1056 -2432 0
v -1056 -2400 0
v -1024 -2400 0
v -1600 -2464 0
v -1632 -2464 0
v -1632 -2432 0
v -1600 -2432 0
v -1024 -2464 0
v -1056 -2464 0
v -1056 -2432 0
v -1024 -2432 0
v -1600 -2496 0
v -1632 -2496 0
v -1632 -2464 0
v -1600 -2464 0
v -1024 -2496 0
v -1056 -2496 0
v -1056 -2464 0
v -1024 -2464 0
v -1600 -2528 0
v -1632 -2528 0
v -1632 -2496 0
v -1600 -2496 0
v -1024 -2528 0
v -1056 -2528 0
v -1056 -2496 0
v -1024 -2496 0
v -1600 -2560 0
v -1632 -2560 0
v -1632 -2528 0
v -1600 -2528 0
v -1024 -2560 0
v -1056 -2560 0
v -1056 -2528 0
v -1024 -2528 0
v -1600 -2592 0
v -1632 -2592 0
v -1632 -2560 0
v -1600 -2560 0
v -1024 -2592 0
v -1056 -2592 0
v -1056 -2560 0
v -1024 -2560 0
v -1600 -2624 0
v -1632 -2624 0
v -1632 -2592 0
v -1600 -2592 0
v -1024 -2624 0
v -1056 -2624 0
v -1056 -2592 0
v -1024 -2592 0
v -256 -2624 0
v -288 -2624 0
v -288 -2592 0
v -256 -2592 0
v -224 -2624 0
v -256 -2624 0
v -256 -2592 0
v -224 -2592 0
v -192 -2624 0
v -224 -2624 0
v -224 -2592 0
v -192 -2592 0
v -160 -2624 0
v -192 -2624 0
v -192 -2592 0
v -160 -2592 0
v -1600 -2656 0
v -1632 -2656 0
v -1632 -2624 0
v -1600 -2624 0
v -1024 -2656 0
v -1056 -2656 0
v -1056 -2624 0
v -1024 -2624 0
v -224 -2656 0
v -256 -2656 0
v -256 -2624 0
v -224 -2624 0
v -192 -2656 0
v -224 -2656 0
v -224 -2624 0
v -192 -2624 0
v -160 -2656 0
v -192 -2656 0
v -192 -2624 0
v -160 -2624 0
v -1600 -2688 0
v -1632 -2688 0
v -1632 -2656 0
v -1600 -2656 0
v -1024 -2688 0
v -1056 -2688 0
v -1056 -2656 0
v -1024 -2656 0
v -1600 -2720 0
v -1632 -2720 0
v -1632 -2688 0
v -1600 -2688 0
v -1568 -2720 0
v -1600 -2720 0
v -1600 -2688 0
v -1568 -2688 0
v -1536 -2720 0
v -1568 -2720 0
v -1568 -2688 0
v -1536 -2688 0
v -1504 -2720 0
v -1536 -2720 0
v -1536 -2688 0
v -1504 -2688 0
v -1472 -2720 0
v -1504 -2720 0
v -1504 -2688 0
v -1472 -2688 0
v -1440 -2720 0
v -1472 -2720 0
v -1472 -2688 0
v -1440 -2688 0
v -1408 -2720 0
v -1440 -2720 0
v -1440 -2688 0
v -1408 -2688 0
v -1376 -2720 0
v -1408 -2720 0
v -1408 -2688 0
v -1376 -2688 0
v -1184 -2720 0
v -1216 -2720 0
v -1216 -2688 0
v -1184 -2688 0
v -1152 -2720 0
v -1184 -2720 0
v -1184 -2688 0
v -1152 -2688 0
v -1120 -2720 0
v -1152 -2720 0
v -1152 -2688 0
v -1120 -2688 0
v -1088 -2720 0
v -1120 -2720 0
v -1120 -2688 0
v -1088 -2688 0
v -1056 -2720 0
v -1088 -2720 0
v -1088 -2688 0
v -1056 -2688 0
v -1024 -2720 0
v -1056 -2720 0
v -1056 -2688 0
v -1024 -2688 0
v -1600 -2752 0
v -1632 -2752 0
v -1632 -2720 0
v -1600 -2720 0
v -1568 -2752 0
v -1600 -2752 0
v -1600 -2720 0
v -1568 -2720 0
v -1536 -2752 0
v -1568 -2752 0
v -1568 -2720 0
v -1536 -2720 0
v -1504 -2752 0
v -1536 -2752 0
v -1536 -2720 0
v -1504 -2720 0
v -1472 -2752 0
v -1504 -2752 0
v -1504 -2720 0
v -1472 -2720 0
v -1440 -2752 0
v -1472 -2752 0
v -1472 -2720 0
v -1440 -2720 0
v -1408 -2752 0
v -1440 -2752 0
v -1440 -2720 0
v -1408 -2720 0
v -1376 -2752 0
v -1408 -2752 0
v -1408 -2720 0
v -1376 -2720 0
v -1184 -2752 0
v -1216 -2752 0
v -1216 -2720 0
v -1184 -2720 0
v -1152 -2752 0
v -1184 -2752 0
v -1184 -2720 0
v -1152 -2720 0
v -1120 -2752 0
v -1152 -2752 0
v -1152 -2720 0
v -1120 -2720 0
v -1088 -2752 0
v -1120 -2752 0
v -1120 -2720 0
v -1088 -2720 0
v -1056 -2752 0
v -1088 -2752 0
v -1088 -2720 0
v -1056 -2720 0
v -1024 -2752 0
v -1056 -2752 0
v -1056 -2720 0
v -1024 -2720 0

# Texture cooridinates (Count = 38)
vt 0.78125 0.96875
vt 0.8125 0.96875
vt 0.8125 1
vt 0.78125 1
vt 0.78125 0.9375
vt 0.8125 0.9375
vt 0.5625 0.375
vt 0.59375 0.375
vt 0.59375 0.40625
vt 0.5625 0.40625
vt 0.4375 0.375
vt 0.46875 0.375
vt 0.46875 0.40625
vt 0.4375 0.40625
vt 0.5 0.375
vt 0.53125 0.375
vt 0.53125 0.40625
vt 0.5 0.40625
vt 0.5625 0.34375
vt 0.59375 0.34375
vt 0.4375 0.34375
vt 0.46875 0.34375
vt 0.5 0.34375
vt 0.53125 0.34375
vt 0.46875 0.6875
vt 0.5 0.6875
vt 0.5 0.71875
vt 0.46875 0.71875
vt 0.4375 0.6875
vt 0.4375 0.71875
vt 0.40625 0.6875
vt 0.40625 0.71875
vt 0.4375 0.65625
vt 0.46875 0.65625
vt 0.40625 0.65625
vt 0.40625 0.375
vt 0.40625 0.40625
vt 0.40625 0.34375

# Normal
vn 0 0 -1

# Mesh description
g Hood2_mesh_0060

# Faces
f 1/1/1 2/2/1 3/3/1 4/4/1
f 5/5/1 6/6/1 7/2/1 8/1/1
f 9/7/1 10/8/1 11/9/1 12/10/1
f 13/11/1 14/12/1 15/13/1 16/14/1
f 17/11/1 18/12/1 19/13/1 20/14/1
f 21/11/1 22/12/1 23/13/1 24/14/1
f 25/11/1 26/12/1 27/13/1 28/14/1
f 29/11/1 30/12/1 31/13/1 32/14/1
f 33/11/1 34/12/1 35/13/1 36/14/1
f 37/11/1 38/12/1 39/13/1 40/14/1
f 41/11/1 42/12/1 43/13/1 44/14/1
f 45/11/1 46/12/1 47/13/1 48/14/1
f 49/11/1 50/12/1 51/13/1 52/14/1
f 53/11/1 54/12/1 55/13/1 56/14/1
f 57/11/1 58/12/1 59/13/1 60/14/1
f 61/11/1 62/12/1 63/13/1 64/14/1
f 65/11/1 66/12/1 67/13/1 68/14/1
f 69/11/1 70/12/1 71/13/1 72/14/1
f 73/11/1 74/12/1 75/13/1 76/14/1
f 77/11/1 78/12/1 79/13/1 80/14/1
f 81/15/1 82/16/1 83/17/1 84/18/1
f 85/19/1 86/20/1 87/8/1 88/7/1
f 89/21/1 90/22/1 91/12/1 92/11/1
f 93/21/1 94/22/1 95/12/1 96/11/1
f 97/21/1 98/22/1 99/12/1 100/11/1
f 101/21/1 102/22/1 103/12/1 104/11/1
f 105/21/1 106/22/1 107/12/1 108/11/1
f 109/21/1 110/22/1 111/12/1 112/11/1
f 113/21/1 114/22/1 115/12/1 116/11/1
f 117/21/1 118/22/1 119/12/1 120/11/1
f 121/21/1 122/22/1 123/12/1 124/11/1
f 125/21/1 126/22/1 127/12/1 128/11/1
f 129/21/1 130/22/1 131/12/1 132/11/1
f 133/21/1 134/22/1 135/12/1 136/11/1
f 137/21/1 138/22/1 139/12/1 140/11/1
f 141/21/1 142/22/1 143/12/1 144/11/1
f 145/21/1 146/22/1 147/12/1 148/11/1
f 149/21/1 150/22/1 151/12/1 152/11/1
f 153/21/1 154/22/1 155/12/1 156/11/1
f 157/23/1 158/24/1 159/16/1 160/15/1
f 161/19/1 162/20/1 163/8/1 164/7/1
f 165/23/1 166/24/1 167/16/1 168/15/1
f 169/19/1 170/20/1 171/8/1 172/7/1
f 173/23/1 174/24/1 175/16/1 176/15/1
f 177/19/1 178/20/1 179/8/1 180/7/1
f 181/23/1 182/24/1 183/16/1 184/15/1
f 185/19/1 186/20/1 187/8/1 188/7/1
f 189/23/1 190/24/1 191/16/1 192/15/1
f 193/19/1 194/20/1 195/8/1 196/7/1
f 197/23/1 198/24/1 199/16/1 200/15/1
f 201/19/1 202/20/1 203/8/1 204/7/1
f 205/23/1 206/24/1 207/16/1 208/15/1
f 209/19/1 210/20/1 211/8/1 212/7/1
f 213/23/1 214/24/1 215/16/1 216/15/1
f 217/19/1 218/20/1 219/8/1 220/7/1
f 221/23/1 222/24/1 223/16/1 224/15/1
f 225/19/1 226/20/1 227/8/1 228/7/1
f 229/23/1 230/24/1 231/16/1 232/15/1
f 233/19/1 234/20/1 235/8/1 236/7/1
f 237/23/1 238/24/1 239/16/1 240/15/1
f 241/25/1 242/26/1 243/27/1 244/28/1
f 245/29/1 246/25/1 247/28/1 248/30/1
f 249/29/1 250/25/1 251/28/1 252/30/1
f 253/31/1 254/29/1 255/30/1 256/32/1
f 257/19/1 258/20/1 259/8/1 260/7/1
f 261/23/1 262/24/1 263/16/1 264/15/1
f 265/33/1 266/34/1 267/25/1 268/29/1
f 269/33/1 270/34/1 271/25/1 272/29/1
f 273/35/1 274/33/1 275/29/1 276/31/1
f 277/19/1 278/20/1 279/8/1 280/7/1
f 281/23/1 282/24/1 283/16/1 284/15/1
f 285/19/1 286/20/1 287/8/1 288/7/1
f 289/11/1 290/12/1 291/13/1 292/14/1
f 293/11/1 294/12/1 295/13/1 296/14/1
f 297/11/1 298/12/1 299/13/1 300/14/1
f 301/11/1 302/12/1 303/13/1 304/14/1
f 305/11/1 306/12/1 307/13/1 308/14/1
f 309/11/1 310/12/1 311/13/1 312/14/1
f 313/11/1 314/12/1 315/13/1 316/14/1
f 317/11/1 318/12/1 319/13/1 320/14/1
f 321/11/1 322/12/1 323/13/1 324/14/1
f 325/36/1 326/11/1 327/14/1 328/37/1
f 329/36/1 330/11/1 331/14/1 332/37/1
f 333/11/1 334/12/1 335/13/1 336/14/1
f 337/23/1 338/24/1 339/16/1 340/15/1
f 341/22/1 342/23/1 343/15/1 344/12/1
f 345/21/1 346/22/1 347/12/1 348/11/1
f 349/21/1 350/22/1 351/12/1 352/11/1
f 353/21/1 354/22/1 355/12/1 356/11/1
f 357/21/1 358/22/1 359/12/1 360/11/1
f 361/21/1 362/22/1 363/12/1 364/11/1
f 365/21/1 366/22/1 367/12/1 368/11/1
f 369/21/1 370/22/1 371/12/1 372/11/1
f 373/21/1 374/22/1 375/12/1 376/11/1
f 377/21/1 378/22/1 379/12/1 380/11/1
f 381/21/1 382/22/1 383/12/1 384/11/1
f 385/21/1 386/22/1 387/12/1 388/11/1
f 389/21/1 390/22/1 391/12/1 392/11/1
f 393/38/1 394/21/1 395/11/1 396/36/1

