# Tiled2Unity generated file. Do not modify by hand.
# Wavefront file for 'Hood2_mesh_0078.obj'

# Vertices (Count = 48)
v -32 -960 0
v -64 -960 0
v -64 -928 0
v -32 -928 0
v -32 -992 0
v -64 -992 0
v -64 -960 0
v -32 -960 0
v -1504 -2304 0
v -1536 -2304 0
v -1536 -2272 0
v -1504 -2272 0
v -1472 -2304 0
v -1504 -2304 0
v -1504 -2272 0
v -1472 -2272 0
v -1504 -2336 0
v -1536 -2336 0
v -1536 -2304 0
v -1504 -2304 0
v -1472 -2336 0
v -1504 -2336 0
v -1504 -2304 0
v -1472 -2304 0
v -2176 -2528 0
v -2208 -2528 0
v -2208 -2496 0
v -2176 -2496 0
v -2144 -2528 0
v -2176 -2528 0
v -2176 -2496 0
v -2144 -2496 0
v -2112 -2528 0
v -2144 -2528 0
v -2144 -2496 0
v -2112 -2496 0
v -2176 -2560 0
v -2208 -2560 0
v -2208 -2528 0
v -2176 -2528 0
v -2144 -2560 0
v -2176 -2560 0
v -2176 -2528 0
v -2144 -2528 0
v -2112 -2560 0
v -2144 -2560 0
v -2144 -2528 0
v -2112 -2528 0

# Texture cooridinates (Count = 24)
vt 0.875 0.5
vt 0.9375 0.5
vt 0.9375 0.5625
vt 0.875 0.5625
vt 0.875 0.4375
vt 0.9375 0.4375
vt 0.9375 0.375
vt 1 0.375
vt 1 0.4375
vt 0.875 0.375
vt 0.9375 0.3125
vt 1 0.3125
vt 0.875 0.3125
vt 0.8125 0.25
vt 0.875 0.25
vt 0.8125 0.3125
vt 0.75 0.25
vt 0.75 0.3125
vt 0.6875 0.25
vt 0.6875 0.3125
vt 0.8125 0.1875
vt 0.875 0.1875
vt 0.75 0.1875
vt 0.6875 0.1875

# Normal
vn 0 0 -1

# Mesh description
g Hood2_mesh_0078

# Faces
f 1/1/1 2/2/1 3/3/1 4/4/1
f 5/5/1 6/6/1 7/2/1 8/1/1
f 9/7/1 10/8/1 11/9/1 12/6/1
f 13/10/1 14/7/1 15/6/1 16/5/1
f 17/11/1 18/12/1 19/8/1 20/7/1
f 21/13/1 22/11/1 23/7/1 24/10/1
f 25/14/1 26/15/1 27/13/1 28/16/1
f 29/17/1 30/14/1 31/16/1 32/18/1
f 33/19/1 34/17/1 35/18/1 36/20/1
f 37/21/1 38/22/1 39/15/1 40/14/1
f 41/23/1 42/21/1 43/14/1 44/17/1
f 45/24/1 46/23/1 47/17/1 48/19/1

