# Tiled2Unity generated file. Do not modify by hand.
# Wavefront file for 'Hood2_mesh_0031.obj'

# Vertices (Count = 112)
v -2208 -1728 0
v -2240 -1728 0
v -2240 -1696 0
v -2208 -1696 0
v -2176 -1728 0
v -2208 -1728 0
v -2208 -1696 0
v -2176 -1696 0
v -2208 -1760 0
v -2240 -1760 0
v -2240 -1728 0
v -2208 -1728 0
v -2176 -1760 0
v -2208 -1760 0
v -2208 -1728 0
v -2176 -1728 0
v -2208 -1792 0
v -2240 -1792 0
v -2240 -1760 0
v -2208 -1760 0
v -2176 -1792 0
v -2208 -1792 0
v -2208 -1760 0
v -2176 -1760 0
v -2208 -1824 0
v -2240 -1824 0
v -2240 -1792 0
v -2208 -1792 0
v -2176 -1824 0
v -2208 -1824 0
v -2208 -1792 0
v -2176 -1792 0
v -2208 -1856 0
v -2240 -1856 0
v -2240 -1824 0
v -2208 -1824 0
v -2176 -1856 0
v -2208 -1856 0
v -2208 -1824 0
v -2176 -1824 0
v -2208 -1888 0
v -2240 -1888 0
v -2240 -1856 0
v -2208 -1856 0
v -2176 -1888 0
v -2208 -1888 0
v -2208 -1856 0
v -2176 -1856 0
v -2208 -1920 0
v -2240 -1920 0
v -2240 -1888 0
v -2208 -1888 0
v -2176 -1920 0
v -2208 -1920 0
v -2208 -1888 0
v -2176 -1888 0
v -2208 -1952 0
v -2240 -1952 0
v -2240 -1920 0
v -2208 -1920 0
v -2176 -1952 0
v -2208 -1952 0
v -2208 -1920 0
v -2176 -1920 0
v -2048 -1952 0
v -2080 -1952 0
v -2080 -1920 0
v -2048 -1920 0
v -1920 -1952 0
v -1952 -1952 0
v -1952 -1920 0
v -1920 -1920 0
v -1888 -1952 0
v -1920 -1952 0
v -1920 -1920 0
v -1888 -1920 0
v -1856 -1952 0
v -1888 -1952 0
v -1888 -1920 0
v -1856 -1920 0
v -2112 -1984 0
v -2144 -1984 0
v -2144 -1952 0
v -2112 -1952 0
v -2080 -1984 0
v -2112 -1984 0
v -2112 -1952 0
v -2080 -1952 0
v -2048 -1984 0
v -2080 -1984 0
v -2080 -1952 0
v -2048 -1952 0
v -1920 -1984 0
v -1952 -1984 0
v -1952 -1952 0
v -1920 -1952 0
v -1888 -1984 0
v -1920 -1984 0
v -1920 -1952 0
v -1888 -1952 0
v -1856 -1984 0
v -1888 -1984 0
v -1888 -1952 0
v -1856 -1952 0
v -2112 -2016 0
v -2144 -2016 0
v -2144 -1984 0
v -2112 -1984 0
v -2080 -2016 0
v -2112 -2016 0
v -2112 -1984 0
v -2080 -1984 0

# Texture cooridinates (Count = 15)
vt 0.25 0.6666666
vt 0.375 0.6666666
vt 0.375 0.7333333
vt 0.25 0.7333333
vt 0.25 0.6
vt 0.375 0.6
vt 0.5 0.6666666
vt 0.5 0.7333333
vt 0.5 0.6
vt 0.125 0.6666666
vt 0.125 0.7333333
vt 0 0.6666666
vt 0 0.7333333
vt 0.125 0.6
vt 0 0.6

# Normal
vn 0 0 -1

# Mesh description
g Hood2_mesh_0031

# Faces
f 1/1/1 2/2/1 3/3/1 4/4/1
f 5/1/1 6/2/1 7/3/1 8/4/1
f 9/5/1 10/6/1 11/2/1 12/1/1
f 13/5/1 14/6/1 15/2/1 16/1/1
f 17/2/1 18/7/1 19/8/1 20/3/1
f 21/2/1 22/7/1 23/8/1 24/3/1
f 25/6/1 26/9/1 27/7/1 28/2/1
f 29/6/1 30/9/1 31/7/1 32/2/1
f 33/1/1 34/2/1 35/3/1 36/4/1
f 37/1/1 38/2/1 39/3/1 40/4/1
f 41/5/1 42/6/1 43/2/1 44/1/1
f 45/5/1 46/6/1 47/2/1 48/1/1
f 49/2/1 50/7/1 51/8/1 52/3/1
f 53/2/1 54/7/1 55/8/1 56/3/1
f 57/6/1 58/9/1 59/7/1 60/2/1
f 61/6/1 62/9/1 63/7/1 64/2/1
f 65/1/1 66/2/1 67/3/1 68/4/1
f 69/10/1 70/1/1 71/4/1 72/11/1
f 73/12/1 74/10/1 75/11/1 76/13/1
f 77/1/1 78/2/1 79/3/1 80/4/1
f 81/2/1 82/7/1 83/8/1 84/3/1
f 85/2/1 86/7/1 87/8/1 88/3/1
f 89/5/1 90/6/1 91/2/1 92/1/1
f 93/14/1 94/5/1 95/1/1 96/10/1
f 97/15/1 98/14/1 99/10/1 100/12/1
f 101/5/1 102/6/1 103/2/1 104/1/1
f 105/6/1 106/9/1 107/7/1 108/2/1
f 109/6/1 110/9/1 111/7/1 112/2/1

