# Tiled2Unity generated file. Do not modify by hand.
# Wavefront file for 'Hood2_mesh_0044.obj'

# Vertices (Count = 48)
v -2208 -1760 0
v -2240 -1760 0
v -2240 -1728 0
v -2208 -1728 0
v -2176 -1760 0
v -2208 -1760 0
v -2208 -1728 0
v -2176 -1728 0
v -2208 -1792 0
v -2240 -1792 0
v -2240 -1760 0
v -2208 -1760 0
v -2176 -1792 0
v -2208 -1792 0
v -2208 -1760 0
v -2176 -1760 0
v -2208 -1888 0
v -2240 -1888 0
v -2240 -1856 0
v -2208 -1856 0
v -2176 -1888 0
v -2208 -1888 0
v -2208 -1856 0
v -2176 -1856 0
v -2208 -1920 0
v -2240 -1920 0
v -2240 -1888 0
v -2208 -1888 0
v -2176 -1920 0
v -2208 -1920 0
v -2208 -1888 0
v -2176 -1888 0
v -2112 -1952 0
v -2144 -1952 0
v -2144 -1920 0
v -2112 -1920 0
v -2080 -1952 0
v -2112 -1952 0
v -2112 -1920 0
v -2080 -1920 0
v -2112 -1984 0
v -2144 -1984 0
v -2144 -1952 0
v -2112 -1952 0
v -2080 -1984 0
v -2112 -1984 0
v -2112 -1952 0
v -2080 -1952 0

# Texture cooridinates (Count = 9)
vt 0.125 0.6666666
vt 0.25 0.6666666
vt 0.25 0.7333333
vt 0.125 0.7333333
vt 0 0.6666666
vt 0 0.7333333
vt 0.125 0.6
vt 0.25 0.6
vt 0 0.6

# Normal
vn 0 0 -1

# Mesh description
g Hood2_mesh_0044

# Faces
f 1/1/1 2/2/1 3/3/1 4/4/1
f 5/5/1 6/1/1 7/4/1 8/6/1
f 9/7/1 10/8/1 11/2/1 12/1/1
f 13/9/1 14/7/1 15/1/1 16/5/1
f 17/1/1 18/2/1 19/3/1 20/4/1
f 21/5/1 22/1/1 23/4/1 24/6/1
f 25/7/1 26/8/1 27/2/1 28/1/1
f 29/9/1 30/7/1 31/1/1 32/5/1
f 33/1/1 34/2/1 35/3/1 36/4/1
f 37/5/1 38/1/1 39/4/1 40/6/1
f 41/7/1 42/8/1 43/2/1 44/1/1
f 45/9/1 46/7/1 47/1/1 48/5/1

