# Tiled2Unity generated file. Do not modify by hand.
# Wavefront file for 'Hood2_mesh_0056.obj'

# Vertices (Count = 36)
v -1728 -160 0
v -1760 -160 0
v -1760 -128 0
v -1728 -128 0
v -1600 -288 0
v -1632 -288 0
v -1632 -256 0
v -1600 -256 0
v -1728 -416 0
v -1760 -416 0
v -1760 -384 0
v -1728 -384 0
v -1696 -448 0
v -1728 -448 0
v -1728 -416 0
v -1696 -416 0
v -1664 -448 0
v -1696 -448 0
v -1696 -416 0
v -1664 -416 0
v -1696 -480 0
v -1728 -480 0
v -1728 -448 0
v -1696 -448 0
v -1664 -480 0
v -1696 -480 0
v -1696 -448 0
v -1664 -448 0
v -1600 -544 0
v -1632 -544 0
v -1632 -512 0
v -1600 -512 0
v -1600 -576 0
v -1632 -576 0
v -1632 -544 0
v -1600 -544 0

# Texture cooridinates (Count = 22)
vt 0.125 0.9512195
vt 0.25 0.9512195
vt 0.25 0.9756098
vt 0.125 0.9756098
vt 0.25 0.8048781
vt 0.375 0.8048781
vt 0.375 0.8292683
vt 0.25 0.8292683
vt 0.625 0.7804878
vt 0.75 0.7804878
vt 0.75 0.8048781
vt 0.625 0.8048781
vt 0.375 0.7804878
vt 0.5 0.7804878
vt 0.5 0.8048781
vt 0.25 0.7804878
vt 0.375 0.7560976
vt 0.5 0.7560976
vt 0.25 0.7560976
vt 0.125 0.7804878
vt 0.125 0.8048781
vt 0.125 0.7560976

# Normal
vn 0 0 -1

# Mesh description
g Hood2_mesh_0056

# Faces
f 1/1/1 2/2/1 3/3/1 4/4/1
f 5/5/1 6/6/1 7/7/1 8/8/1
f 9/9/1 10/10/1 11/11/1 12/12/1
f 13/13/1 14/14/1 15/15/1 16/6/1
f 17/16/1 18/13/1 19/6/1 20/5/1
f 21/17/1 22/18/1 23/14/1 24/13/1
f 25/19/1 26/17/1 27/13/1 28/16/1
f 29/20/1 30/16/1 31/5/1 32/21/1
f 33/22/1 34/19/1 35/16/1 36/20/1

