# Tiled2Unity generated file. Do not modify by hand.
# Wavefront file for 'Hood2_mesh_0052.obj'

# Vertices (Count = 36)
v -896 -64 0
v -928 -64 0
v -928 -32 0
v -896 -32 0
v -864 -64 0
v -896 -64 0
v -896 -32 0
v -864 -32 0
v -32 -1664 0
v -64 -1664 0
v -64 -1632 0
v -32 -1632 0
v -32 -1696 0
v -64 -1696 0
v -64 -1664 0
v -32 -1664 0
v -32 -1728 0
v -64 -1728 0
v -64 -1696 0
v -32 -1696 0
v -32 -1760 0
v -64 -1760 0
v -64 -1728 0
v -32 -1728 0
v -96 -1792 0
v -128 -1792 0
v -128 -1760 0
v -96 -1760 0
v -64 -1792 0
v -96 -1792 0
v -96 -1760 0
v -64 -1760 0
v -32 -1792 0
v -64 -1792 0
v -64 -1760 0
v -32 -1760 0

# Texture cooridinates (Count = 12)
vt 0.9375 0.9375
vt 1 0.9375
vt 1 1
vt 0.9375 1
vt 0.875 0.9375
vt 0.875 1
vt 0.375 0.1875
vt 0.4375 0.1875
vt 0.4375 0.25
vt 0.375 0.25
vt 0.5 0.1875
vt 0.5 0.25

# Normal
vn 0 0 -1

# Mesh description
g Hood2_mesh_0052

# Faces
f 1/1/1 2/2/1 3/3/1 4/4/1
f 5/5/1 6/1/1 7/4/1 8/6/1
f 9/7/1 10/8/1 11/9/1 12/10/1
f 13/8/1 14/11/1 15/12/1 16/9/1
f 17/8/1 18/11/1 19/12/1 20/9/1
f 21/8/1 22/11/1 23/12/1 24/9/1
f 25/7/1 26/8/1 27/9/1 28/10/1
f 29/8/1 30/11/1 31/12/1 32/9/1
f 33/7/1 34/8/1 35/9/1 36/10/1

