# Tiled2Unity generated file. Do not modify by hand.
# Wavefront file for 'Hood2_mesh_0049.obj'

# Vertices (Count = 12)
v -3008 -3072 0
v -3040 -3072 0
v -3040 -3040 0
v -3008 -3040 0
v -192 -3104 0
v -224 -3104 0
v -224 -3072 0
v -192 -3072 0
v -96 -3104 0
v -128 -3104 0
v -128 -3072 0
v -96 -3072 0

# Texture cooridinates (Count = 10)
vt 0.6875 0.8125
vt 0.75 0.8125
vt 0.75 0.875
vt 0.6875 0.875
vt 0.4375 0.8125
vt 0.5 0.8125
vt 0.5 0.875
vt 0.4375 0.875
vt 0.4375 0.75
vt 0.5 0.75

# Normal
vn 0 0 -1

# Mesh description
g Hood2_mesh_0049

# Faces
f 1/1/1 2/2/1 3/3/1 4/4/1
f 5/5/1 6/6/1 7/7/1 8/8/1
f 9/9/1 10/10/1 11/6/1 12/5/1

