# Tiled2Unity generated file. Do not modify by hand.
# Wavefront file for 'Hood2_mesh_0006.obj'

# Vertices (Count = 512)
v -384 -1248 0
v -416 -1248 0
v -416 -1216 0
v -384 -1216 0
v -352 -1248 0
v -384 -1248 0
v -384 -1216 0
v -352 -1216 0
v -320 -1248 0
v -352 -1248 0
v -352 -1216 0
v -320 -1216 0
v -288 -1248 0
v -320 -1248 0
v -320 -1216 0
v -288 -1216 0
v -256 -1248 0
v -288 -1248 0
v -288 -1216 0
v -256 -1216 0
v -224 -1248 0
v -256 -1248 0
v -256 -1216 0
v -224 -1216 0
v -192 -1248 0
v -224 -1248 0
v -224 -1216 0
v -192 -1216 0
v -160 -1248 0
v -192 -1248 0
v -192 -1216 0
v -160 -1216 0
v -128 -1248 0
v -160 -1248 0
v -160 -1216 0
v -128 -1216 0
v -96 -1248 0
v -128 -1248 0
v -128 -1216 0
v -96 -1216 0
v -64 -1248 0
v -96 -1248 0
v -96 -1216 0
v -64 -1216 0
v -32 -1248 0
v -64 -1248 0
v -64 -1216 0
v -32 -1216 0
v -384 -1280 0
v -416 -1280 0
v -416 -1248 0
v -384 -1248 0
v -352 -1280 0
v -384 -1280 0
v -384 -1248 0
v -352 -1248 0
v -320 -1280 0
v -352 -1280 0
v -352 -1248 0
v -320 -1248 0
v -288 -1280 0
v -320 -1280 0
v -320 -1248 0
v -288 -1248 0
v -256 -1280 0
v -288 -1280 0
v -288 -1248 0
v -256 -1248 0
v -224 -1280 0
v -256 -1280 0
v -256 -1248 0
v -224 -1248 0
v -192 -1280 0
v -224 -1280 0
v -224 -1248 0
v -192 -1248 0
v -160 -1280 0
v -192 -1280 0
v -192 -1248 0
v -160 -1248 0
v -128 -1280 0
v -160 -1280 0
v -160 -1248 0
v -128 -1248 0
v -96 -1280 0
v -128 -1280 0
v -128 -1248 0
v -96 -1248 0
v -64 -1280 0
v -96 -1280 0
v -96 -1248 0
v -64 -1248 0
v -32 -1280 0
v -64 -1280 0
v -64 -1248 0
v -32 -1248 0
v -384 -1312 0
v -416 -1312 0
v -416 -1280 0
v -384 -1280 0
v -352 -1312 0
v -384 -1312 0
v -384 -1280 0
v -352 -1280 0
v -320 -1312 0
v -352 -1312 0
v -352 -1280 0
v -320 -1280 0
v -288 -1312 0
v -320 -1312 0
v -320 -1280 0
v -288 -1280 0
v -256 -1312 0
v -288 -1312 0
v -288 -1280 0
v -256 -1280 0
v -224 -1312 0
v -256 -1312 0
v -256 -1280 0
v -224 -1280 0
v -192 -1312 0
v -224 -1312 0
v -224 -1280 0
v -192 -1280 0
v -160 -1312 0
v -192 -1312 0
v -192 -1280 0
v -160 -1280 0
v -128 -1312 0
v -160 -1312 0
v -160 -1280 0
v -128 -1280 0
v -96 -1312 0
v -128 -1312 0
v -128 -1280 0
v -96 -1280 0
v -64 -1312 0
v -96 -1312 0
v -96 -1280 0
v -64 -1280 0
v -32 -1312 0
v -64 -1312 0
v -64 -1280 0
v -32 -1280 0
v -384 -1344 0
v -416 -1344 0
v -416 -1312 0
v -384 -1312 0
v -352 -1344 0
v -384 -1344 0
v -384 -1312 0
v -352 -1312 0
v -320 -1344 0
v -352 -1344 0
v -352 -1312 0
v -320 -1312 0
v -288 -1344 0
v -320 -1344 0
v -320 -1312 0
v -288 -1312 0
v -256 -1344 0
v -288 -1344 0
v -288 -1312 0
v -256 -1312 0
v -32 -1344 0
v -64 -1344 0
v -64 -1312 0
v -32 -1312 0
v -384 -1376 0
v -416 -1376 0
v -416 -1344 0
v -384 -1344 0
v -352 -1376 0
v -384 -1376 0
v -384 -1344 0
v -352 -1344 0
v -320 -1376 0
v -352 -1376 0
v -352 -1344 0
v -320 -1344 0
v -288 -1376 0
v -320 -1376 0
v -320 -1344 0
v -288 -1344 0
v -256 -1376 0
v -288 -1376 0
v -288 -1344 0
v -256 -1344 0
v -32 -1376 0
v -64 -1376 0
v -64 -1344 0
v -32 -1344 0
v -384 -1408 0
v -416 -1408 0
v -416 -1376 0
v -384 -1376 0
v -352 -1408 0
v -384 -1408 0
v -384 -1376 0
v -352 -1376 0
v -320 -1408 0
v -352 -1408 0
v -352 -1376 0
v -320 -1376 0
v -288 -1408 0
v -320 -1408 0
v -320 -1376 0
v -288 -1376 0
v -256 -1408 0
v -288 -1408 0
v -288 -1376 0
v -256 -1376 0
v -32 -1408 0
v -64 -1408 0
v -64 -1376 0
v -32 -1376 0
v -384 -1440 0
v -416 -1440 0
v -416 -1408 0
v -384 -1408 0
v -352 -1440 0
v -384 -1440 0
v -384 -1408 0
v -352 -1408 0
v -320 -1440 0
v -352 -1440 0
v -352 -1408 0
v -320 -1408 0
v -288 -1440 0
v -320 -1440 0
v -320 -1408 0
v -288 -1408 0
v -256 -1440 0
v -288 -1440 0
v -288 -1408 0
v -256 -1408 0
v -224 -1440 0
v -256 -1440 0
v -256 -1408 0
v -224 -1408 0
v -192 -1440 0
v -224 -1440 0
v -224 -1408 0
v -192 -1408 0
v -160 -1440 0
v -192 -1440 0
v -192 -1408 0
v -160 -1408 0
v -128 -1440 0
v -160 -1440 0
v -160 -1408 0
v -128 -1408 0
v -96 -1440 0
v -128 -1440 0
v -128 -1408 0
v -96 -1408 0
v -64 -1440 0
v -96 -1440 0
v -96 -1408 0
v -64 -1408 0
v -32 -1440 0
v -64 -1440 0
v -64 -1408 0
v -32 -1408 0
v -384 -1472 0
v -416 -1472 0
v -416 -1440 0
v -384 -1440 0
v -352 -1472 0
v -384 -1472 0
v -384 -1440 0
v -352 -1440 0
v -320 -1472 0
v -352 -1472 0
v -352 -1440 0
v -320 -1440 0
v -288 -1472 0
v -320 -1472 0
v -320 -1440 0
v -288 -1440 0
v -256 -1472 0
v -288 -1472 0
v -288 -1440 0
v -256 -1440 0
v -224 -1472 0
v -256 -1472 0
v -256 -1440 0
v -224 -1440 0
v -192 -1472 0
v -224 -1472 0
v -224 -1440 0
v -192 -1440 0
v -160 -1472 0
v -192 -1472 0
v -192 -1440 0
v -160 -1440 0
v -128 -1472 0
v -160 -1472 0
v -160 -1440 0
v -128 -1440 0
v -96 -1472 0
v -128 -1472 0
v -128 -1440 0
v -96 -1440 0
v -64 -1472 0
v -96 -1472 0
v -96 -1440 0
v -64 -1440 0
v -32 -1472 0
v -64 -1472 0
v -64 -1440 0
v -32 -1440 0
v -1504 -1536 0
v -1536 -1536 0
v -1536 -1504 0
v -1504 -1504 0
v -1344 -1536 0
v -1376 -1536 0
v -1376 -1504 0
v -1344 -1504 0
v -2048 -3008 0
v -2080 -3008 0
v -2080 -2976 0
v -2048 -2976 0
v -2016 -3008 0
v -2048 -3008 0
v -2048 -2976 0
v -2016 -2976 0
v -1984 -3008 0
v -2016 -3008 0
v -2016 -2976 0
v -1984 -2976 0
v -1952 -3008 0
v -1984 -3008 0
v -1984 -2976 0
v -1952 -2976 0
v -2048 -3040 0
v -2080 -3040 0
v -2080 -3008 0
v -2048 -3008 0
v -2016 -3040 0
v -2048 -3040 0
v -2048 -3008 0
v -2016 -3008 0
v -1984 -3040 0
v -2016 -3040 0
v -2016 -3008 0
v -1984 -3008 0
v -1952 -3040 0
v -1984 -3040 0
v -1984 -3008 0
v -1952 -3008 0
v -1184 -3040 0
v -1216 -3040 0
v -1216 -3008 0
v -1184 -3008 0
v -1152 -3040 0
v -1184 -3040 0
v -1184 -3008 0
v -1152 -3008 0
v -1120 -3040 0
v -1152 -3040 0
v -1152 -3008 0
v -1120 -3008 0
v -1088 -3040 0
v -1120 -3040 0
v -1120 -3008 0
v -1088 -3008 0
v -2048 -3072 0
v -2080 -3072 0
v -2080 -3040 0
v -2048 -3040 0
v -2016 -3072 0
v -2048 -3072 0
v -2048 -3040 0
v -2016 -3040 0
v -1984 -3072 0
v -2016 -3072 0
v -2016 -3040 0
v -1984 -3040 0
v -1952 -3072 0
v -1984 -3072 0
v -1984 -3040 0
v -1952 -3040 0
v -1184 -3072 0
v -1216 -3072 0
v -1216 -3040 0
v -1184 -3040 0
v -1152 -3072 0
v -1184 -3072 0
v -1184 -3040 0
v -1152 -3040 0
v -1120 -3072 0
v -1152 -3072 0
v -1152 -3040 0
v -1120 -3040 0
v -1088 -3072 0
v -1120 -3072 0
v -1120 -3040 0
v -1088 -3040 0
v -2048 -3104 0
v -2080 -3104 0
v -2080 -3072 0
v -2048 -3072 0
v -2016 -3104 0
v -2048 -3104 0
v -2048 -3072 0
v -2016 -3072 0
v -1984 -3104 0
v -2016 -3104 0
v -2016 -3072 0
v -1984 -3072 0
v -1952 -3104 0
v -1984 -3104 0
v -1984 -3072 0
v -1952 -3072 0
v -1184 -3104 0
v -1216 -3104 0
v -1216 -3072 0
v -1184 -3072 0
v -1152 -3104 0
v -1184 -3104 0
v -1184 -3072 0
v -1152 -3072 0
v -1120 -3104 0
v -1152 -3104 0
v -1152 -3072 0
v -1120 -3072 0
v -1088 -3104 0
v -1120 -3104 0
v -1120 -3072 0
v -1088 -3072 0
v -2048 -3136 0
v -2080 -3136 0
v -2080 -3104 0
v -2048 -3104 0
v -2016 -3136 0
v -2048 -3136 0
v -2048 -3104 0
v -2016 -3104 0
v -1984 -3136 0
v -2016 -3136 0
v -2016 -3104 0
v -1984 -3104 0
v -1952 -3136 0
v -1984 -3136 0
v -1984 -3104 0
v -1952 -3104 0
v -1184 -3136 0
v -1216 -3136 0
v -1216 -3104 0
v -1184 -3104 0
v -1152 -3136 0
v -1184 -3136 0
v -1184 -3104 0
v -1152 -3104 0
v -1120 -3136 0
v -1152 -3136 0
v -1152 -3104 0
v -1120 -3104 0
v -1088 -3136 0
v -1120 -3136 0
v -1120 -3104 0
v -1088 -3104 0
v -2048 -3168 0
v -2080 -3168 0
v -2080 -3136 0
v -2048 -3136 0
v -2016 -3168 0
v -2048 -3168 0
v -2048 -3136 0
v -2016 -3136 0
v -1984 -3168 0
v -2016 -3168 0
v -2016 -3136 0
v -1984 -3136 0
v -1952 -3168 0
v -1984 -3168 0
v -1984 -3136 0
v -1952 -3136 0
v -1184 -3168 0
v -1216 -3168 0
v -1216 -3136 0
v -1184 -3136 0
v -1152 -3168 0
v -1184 -3168 0
v -1184 -3136 0
v -1152 -3136 0
v -1120 -3168 0
v -1152 -3168 0
v -1152 -3136 0
v -1120 -3136 0
v -1088 -3168 0
v -1120 -3168 0
v -1120 -3136 0
v -1088 -3136 0
v -2048 -3200 0
v -2080 -3200 0
v -2080 -3168 0
v -2048 -3168 0
v -2016 -3200 0
v -2048 -3200 0
v -2048 -3168 0
v -2016 -3168 0
v -1984 -3200 0
v -2016 -3200 0
v -2016 -3168 0
v -1984 -3168 0
v -1952 -3200 0
v -1984 -3200 0
v -1984 -3168 0
v -1952 -3168 0

# Texture cooridinates (Count = 36)
vt 0.1875 0.5625
vt 0.21875 0.5625
vt 0.21875 0.59375
vt 0.1875 0.59375
vt 0.1875 0.53125
vt 0.21875 0.53125
vt 0.25 0.53125
vt 0.25 0.5625
vt 0 0.75
vt 0.03125 0.75
vt 0.03125 0.78125
vt 0 0.78125
vt 0.03125 0.8125
vt 0 0.8125
vt 0.1875 0.15625
vt 0.21875 0.15625
vt 0.21875 0.1875
vt 0.1875 0.1875
vt 0.15625 0.15625
vt 0.15625 0.1875
vt 0.125 0.15625
vt 0.125 0.1875
vt 0.1875 0.125
vt 0.21875 0.125
vt 0.15625 0.125
vt 0.125 0.125
vt 0.125 0.25
vt 0.15625 0.25
vt 0.15625 0.28125
vt 0.125 0.28125
vt 0.1875 0.25
vt 0.1875 0.28125
vt 0.1875 0.09375
vt 0.21875 0.09375
vt 0.15625 0.09375
vt 0.125 0.09375

# Normal
vn 0 0 -1

# Mesh description
g Hood2_mesh_0006

# Faces
f 1/1/1 2/2/1 3/3/1 4/4/1
f 5/5/1 6/6/1 7/2/1 8/1/1
f 9/1/1 10/2/1 11/3/1 12/4/1
f 13/1/1 14/2/1 15/3/1 16/4/1
f 17/1/1 18/2/1 19/3/1 20/4/1
f 21/6/1 22/7/1 23/8/1 24/2/1
f 25/5/1 26/6/1 27/2/1 28/1/1
f 29/5/1 30/6/1 31/2/1 32/1/1
f 33/5/1 34/6/1 35/2/1 36/1/1
f 37/5/1 38/6/1 39/2/1 40/1/1
f 41/5/1 42/6/1 43/2/1 44/1/1
f 45/6/1 46/7/1 47/8/1 48/2/1
f 49/1/1 50/2/1 51/3/1 52/4/1
f 53/5/1 54/6/1 55/2/1 56/1/1
f 57/5/1 58/6/1 59/2/1 60/1/1
f 61/1/1 62/2/1 63/3/1 64/4/1
f 65/1/1 66/2/1 67/3/1 68/4/1
f 69/5/1 70/6/1 71/2/1 72/1/1
f 73/5/1 74/6/1 75/2/1 76/1/1
f 77/6/1 78/7/1 79/8/1 80/2/1
f 81/1/1 82/2/1 83/3/1 84/4/1
f 85/6/1 86/7/1 87/8/1 88/2/1
f 89/5/1 90/6/1 91/2/1 92/1/1
f 93/6/1 94/7/1 95/8/1 96/2/1
f 97/6/1 98/7/1 99/8/1 100/2/1
f 101/6/1 102/7/1 103/8/1 104/2/1
f 105/5/1 106/6/1 107/2/1 108/1/1
f 109/1/1 110/2/1 111/3/1 112/4/1
f 113/6/1 114/7/1 115/8/1 116/2/1
f 117/6/1 118/7/1 119/8/1 120/2/1
f 121/5/1 122/6/1 123/2/1 124/1/1
f 125/5/1 126/6/1 127/2/1 128/1/1
f 129/1/1 130/2/1 131/3/1 132/4/1
f 133/5/1 134/6/1 135/2/1 136/1/1
f 137/5/1 138/6/1 139/2/1 140/1/1
f 141/5/1 142/6/1 143/2/1 144/1/1
f 145/6/1 146/7/1 147/8/1 148/2/1
f 149/1/1 150/2/1 151/3/1 152/4/1
f 153/5/1 154/6/1 155/2/1 156/1/1
f 157/1/1 158/2/1 159/3/1 160/4/1
f 161/1/1 162/2/1 163/3/1 164/4/1
f 165/1/1 166/2/1 167/3/1 168/4/1
f 169/1/1 170/2/1 171/3/1 172/4/1
f 173/6/1 174/7/1 175/8/1 176/2/1
f 177/6/1 178/7/1 179/8/1 180/2/1
f 181/1/1 182/2/1 183/3/1 184/4/1
f 185/1/1 186/2/1 187/3/1 188/4/1
f 189/6/1 190/7/1 191/8/1 192/2/1
f 193/1/1 194/2/1 195/3/1 196/4/1
f 197/6/1 198/7/1 199/8/1 200/2/1
f 201/1/1 202/2/1 203/3/1 204/4/1
f 205/1/1 206/2/1 207/3/1 208/4/1
f 209/5/1 210/6/1 211/2/1 212/1/1
f 213/5/1 214/6/1 215/2/1 216/1/1
f 217/5/1 218/6/1 219/2/1 220/1/1
f 221/6/1 222/7/1 223/8/1 224/2/1
f 225/6/1 226/7/1 227/8/1 228/2/1
f 229/1/1 230/2/1 231/3/1 232/4/1
f 233/6/1 234/7/1 235/8/1 236/2/1
f 237/5/1 238/6/1 239/2/1 240/1/1
f 241/5/1 242/6/1 243/2/1 244/1/1
f 245/6/1 246/7/1 247/8/1 248/2/1
f 249/6/1 250/7/1 251/8/1 252/2/1
f 253/5/1 254/6/1 255/2/1 256/1/1
f 257/5/1 258/6/1 259/2/1 260/1/1
f 261/5/1 262/6/1 263/2/1 264/1/1
f 265/6/1 266/7/1 267/8/1 268/2/1
f 269/6/1 270/7/1 271/8/1 272/2/1
f 273/5/1 274/6/1 275/2/1 276/1/1
f 277/6/1 278/7/1 279/8/1 280/2/1
f 281/5/1 282/6/1 283/2/1 284/1/1
f 285/6/1 286/7/1 287/8/1 288/2/1
f 289/5/1 290/6/1 291/2/1 292/1/1
f 293/6/1 294/7/1 295/8/1 296/2/1
f 297/5/1 298/6/1 299/2/1 300/1/1
f 301/6/1 302/7/1 303/8/1 304/2/1
f 305/6/1 306/7/1 307/8/1 308/2/1
f 309/5/1 310/6/1 311/2/1 312/1/1
f 313/9/1 314/10/1 315/11/1 316/12/1
f 317/12/1 318/11/1 319/13/1 320/14/1
f 321/15/1 322/16/1 323/17/1 324/18/1
f 325/19/1 326/15/1 327/18/1 328/20/1
f 329/19/1 330/15/1 331/18/1 332/20/1
f 333/21/1 334/19/1 335/20/1 336/22/1
f 337/23/1 338/24/1 339/16/1 340/15/1
f 341/25/1 342/23/1 343/15/1 344/19/1
f 345/25/1 346/23/1 347/15/1 348/19/1
f 349/26/1 350/25/1 351/19/1 352/21/1
f 353/15/1 354/16/1 355/17/1 356/18/1
f 357/19/1 358/15/1 359/18/1 360/20/1
f 361/19/1 362/15/1 363/18/1 364/20/1
f 365/21/1 366/19/1 367/20/1 368/22/1
f 369/23/1 370/24/1 371/16/1 372/15/1
f 373/25/1 374/23/1 375/15/1 376/19/1
f 377/25/1 378/23/1 379/15/1 380/19/1
f 381/26/1 382/25/1 383/19/1 384/21/1
f 385/23/1 386/24/1 387/16/1 388/15/1
f 389/27/1 390/28/1 391/29/1 392/30/1
f 393/28/1 394/31/1 395/32/1 396/29/1
f 397/26/1 398/25/1 399/19/1 400/21/1
f 401/23/1 402/24/1 403/16/1 404/15/1
f 405/25/1 406/23/1 407/15/1 408/19/1
f 409/25/1 410/23/1 411/15/1 412/19/1
f 413/26/1 414/25/1 415/19/1 416/21/1
f 417/23/1 418/24/1 419/16/1 420/15/1
f 421/27/1 422/28/1 423/29/1 424/30/1
f 425/28/1 426/31/1 427/32/1 428/29/1
f 429/26/1 430/25/1 431/19/1 432/21/1
f 433/23/1 434/24/1 435/16/1 436/15/1
f 437/25/1 438/23/1 439/15/1 440/19/1
f 441/25/1 442/23/1 443/15/1 444/19/1
f 445/26/1 446/25/1 447/19/1 448/21/1
f 449/23/1 450/24/1 451/16/1 452/15/1
f 453/27/1 454/28/1 455/29/1 456/30/1
f 457/28/1 458/31/1 459/32/1 460/29/1
f 461/26/1 462/25/1 463/19/1 464/21/1
f 465/23/1 466/24/1 467/16/1 468/15/1
f 469/25/1 470/23/1 471/15/1 472/19/1
f 473/25/1 474/23/1 475/15/1 476/19/1
f 477/26/1 478/25/1 479/19/1 480/21/1
f 481/33/1 482/34/1 483/24/1 484/23/1
f 485/35/1 486/33/1 487/23/1 488/25/1
f 489/35/1 490/33/1 491/23/1 492/25/1
f 493/36/1 494/35/1 495/25/1 496/26/1
f 497/33/1 498/34/1 499/24/1 500/23/1
f 501/35/1 502/33/1 503/23/1 504/25/1
f 505/35/1 506/33/1 507/23/1 508/25/1
f 509/36/1 510/35/1 511/25/1 512/26/1

