# Tiled2Unity generated file. Do not modify by hand.
# Wavefront file for 'Hood2_mesh_0048.obj'

# Vertices (Count = 52)
v -992 -2432 0
v -1024 -2432 0
v -1024 -2400 0
v -992 -2400 0
v -960 -2432 0
v -992 -2432 0
v -992 -2400 0
v -960 -2400 0
v -736 -2432 0
v -768 -2432 0
v -768 -2400 0
v -736 -2400 0
v -992 -2464 0
v -1024 -2464 0
v -1024 -2432 0
v -992 -2432 0
v -960 -2464 0
v -992 -2464 0
v -992 -2432 0
v -960 -2432 0
v -992 -2496 0
v -1024 -2496 0
v -1024 -2464 0
v -992 -2464 0
v -960 -2496 0
v -992 -2496 0
v -992 -2464 0
v -960 -2464 0
v -704 -2560 0
v -736 -2560 0
v -736 -2528 0
v -704 -2528 0
v -960 -2592 0
v -992 -2592 0
v -992 -2560 0
v -960 -2560 0
v -960 -2624 0
v -992 -2624 0
v -992 -2592 0
v -960 -2592 0
v -896 -2656 0
v -928 -2656 0
v -928 -2624 0
v -896 -2624 0
v -768 -2656 0
v -800 -2656 0
v -800 -2624 0
v -768 -2624 0
v -736 -2656 0
v -768 -2656 0
v -768 -2624 0
v -736 -2624 0

# Texture cooridinates (Count = 33)
vt 0.125 0.7317073
vt 0.25 0.7317073
vt 0.25 0.7560976
vt 0.125 0.7560976
vt 0 0.7317073
vt 0 0.7560976
vt 0.125 0.6341463
vt 0.25 0.6341463
vt 0.25 0.6585366
vt 0.125 0.6585366
vt 0.125 0.7073171
vt 0.25 0.7073171
vt 0 0.7073171
vt 0.125 0.6829268
vt 0.25 0.6829268
vt 0 0.6829268
vt 0 0.6585366
vt 0.875 0.9756098
vt 1 0.9756098
vt 1 1
vt 0.875 1
vt 0.875 0.9512195
vt 1 0.9512195
vt 0.25 0.8048781
vt 0.375 0.8048781
vt 0.375 0.8292683
vt 0.25 0.8292683
vt 0.625 0.7804878
vt 0.75 0.7804878
vt 0.75 0.8048781
vt 0.625 0.8048781
vt 0.875 0.7804878
vt 0.875 0.8048781

# Normal
vn 0 0 -1

# Mesh description
g Hood2_mesh_0048

# Faces
f 1/1/1 2/2/1 3/3/1 4/4/1
f 5/5/1 6/1/1 7/4/1 8/6/1
f 9/7/1 10/8/1 11/9/1 12/10/1
f 13/11/1 14/12/1 15/2/1 16/1/1
f 17/13/1 18/11/1 19/1/1 20/5/1
f 21/14/1 22/15/1 23/12/1 24/11/1
f 25/16/1 26/14/1 27/11/1 28/13/1
f 29/17/1 30/10/1 31/14/1 32/16/1
f 33/18/1 34/19/1 35/20/1 36/21/1
f 37/22/1 38/23/1 39/19/1 40/18/1
f 41/24/1 42/25/1 43/26/1 44/27/1
f 45/28/1 46/29/1 47/30/1 48/31/1
f 49/29/1 50/32/1 51/33/1 52/30/1

