# Tiled2Unity generated file. Do not modify by hand.
# Wavefront file for 'Hood2_mesh_0057.obj'

# Vertices (Count = 20)
v -1824 -448 0
v -1856 -448 0
v -1856 -416 0
v -1824 -416 0
v -1856 -480 0
v -1888 -480 0
v -1888 -448 0
v -1856 -448 0
v -1824 -480 0
v -1856 -480 0
v -1856 -448 0
v -1824 -448 0
v -1792 -480 0
v -1824 -480 0
v -1824 -448 0
v -1792 -448 0
v -1824 -512 0
v -1856 -512 0
v -1856 -480 0
v -1824 -480 0

# Texture cooridinates (Count = 12)
vt 0.71875 0.5625
vt 0.75 0.5625
vt 0.75 0.59375
vt 0.71875 0.59375
vt 0.78125 0.53125
vt 0.8125 0.53125
vt 0.8125 0.5625
vt 0.78125 0.5625
vt 0.75 0.53125
vt 0.71875 0.53125
vt 0.8125 0.59375
vt 0.78125 0.59375

# Normal
vn 0 0 -1

# Mesh description
g Hood2_mesh_0057

# Faces
f 1/1/1 2/2/1 3/3/1 4/4/1
f 5/5/1 6/6/1 7/7/1 8/8/1
f 9/9/1 10/5/1 11/8/1 12/2/1
f 13/10/1 14/9/1 15/2/1 16/1/1
f 17/8/1 18/7/1 19/11/1 20/12/1

