# Tiled2Unity generated file. Do not modify by hand.
# Wavefront file for 'Hood2_mesh_0076.obj'

# Vertices (Count = 48)
v -1920 -352 0
v -1952 -352 0
v -1952 -320 0
v -1920 -320 0
v -1920 -384 0
v -1952 -384 0
v -1952 -352 0
v -1920 -352 0
v -1920 -416 0
v -1952 -416 0
v -1952 -384 0
v -1920 -384 0
v -2272 -2624 0
v -2304 -2624 0
v -2304 -2592 0
v -2272 -2592 0
v -2176 -2624 0
v -2208 -2624 0
v -2208 -2592 0
v -2176 -2592 0
v -2176 -2656 0
v -2208 -2656 0
v -2208 -2624 0
v -2176 -2624 0
v -1984 -2688 0
v -2016 -2688 0
v -2016 -2656 0
v -1984 -2656 0
v -1952 -2688 0
v -1984 -2688 0
v -1984 -2656 0
v -1952 -2656 0
v -1664 -2720 0
v -1696 -2720 0
v -1696 -2688 0
v -1664 -2688 0
v -1632 -2720 0
v -1664 -2720 0
v -1664 -2688 0
v -1632 -2688 0
v -1664 -2752 0
v -1696 -2752 0
v -1696 -2720 0
v -1664 -2720 0
v -1632 -2752 0
v -1664 -2752 0
v -1664 -2720 0
v -1632 -2720 0

# Texture cooridinates (Count = 29)
vt 0.8125 0.5
vt 0.875 0.5
vt 0.875 0.5625
vt 0.8125 0.5625
vt 0.8125 0.4375
vt 0.875 0.4375
vt 0.625 0.4375
vt 0.6875 0.4375
vt 0.6875 0.5
vt 0.625 0.5
vt 0.625 0.375
vt 0.6875 0.375
vt 0.625 0.3125
vt 0.6875 0.3125
vt 0.6875 0.625
vt 0.75 0.625
vt 0.75 0.6875
vt 0.6875 0.6875
vt 0.6875 0.5625
vt 0.625 0.5625
vt 0.6875 0.9375
vt 0.75 0.9375
vt 0.75 1
vt 0.6875 1
vt 0.625 0.9375
vt 0.625 1
vt 0.6875 0.875
vt 0.75 0.875
vt 0.625 0.875

# Normal
vn 0 0 -1

# Mesh description
g Hood2_mesh_0076

# Faces
f 1/1/1 2/2/1 3/3/1 4/4/1
f 5/5/1 6/6/1 7/2/1 8/1/1
f 9/5/1 10/6/1 11/2/1 12/1/1
f 13/7/1 14/8/1 15/9/1 16/10/1
f 17/11/1 18/12/1 19/8/1 20/7/1
f 21/13/1 22/14/1 23/12/1 24/11/1
f 25/15/1 26/16/1 27/17/1 28/18/1
f 29/10/1 30/9/1 31/19/1 32/20/1
f 33/21/1 34/22/1 35/23/1 36/24/1
f 37/25/1 38/21/1 39/24/1 40/26/1
f 41/27/1 42/28/1 43/22/1 44/21/1
f 45/29/1 46/27/1 47/21/1 48/25/1

