# Tiled2Unity generated file. Do not modify by hand.
# Wavefront file for 'Hood2_mesh_0036.obj'

# Vertices (Count = 120)
v -1152 -2336 0
v -1184 -2336 0
v -1184 -2304 0
v -1152 -2304 0
v -1120 -2336 0
v -1152 -2336 0
v -1152 -2304 0
v -1120 -2304 0
v -1088 -2336 0
v -1120 -2336 0
v -1120 -2304 0
v -1088 -2304 0
v -1056 -2336 0
v -1088 -2336 0
v -1088 -2304 0
v -1056 -2304 0
v -1184 -2368 0
v -1216 -2368 0
v -1216 -2336 0
v -1184 -2336 0
v -1152 -2368 0
v -1184 -2368 0
v -1184 -2336 0
v -1152 -2336 0
v -1120 -2368 0
v -1152 -2368 0
v -1152 -2336 0
v -1120 -2336 0
v -1088 -2368 0
v -1120 -2368 0
v -1120 -2336 0
v -1088 -2336 0
v -1056 -2368 0
v -1088 -2368 0
v -1088 -2336 0
v -1056 -2336 0
v -1568 -2624 0
v -1600 -2624 0
v -1600 -2592 0
v -1568 -2592 0
v -1536 -2624 0
v -1568 -2624 0
v -1568 -2592 0
v -1536 -2592 0
v -1504 -2624 0
v -1536 -2624 0
v -1536 -2592 0
v -1504 -2592 0
v -1472 -2624 0
v -1504 -2624 0
v -1504 -2592 0
v -1472 -2592 0
v -1056 -2624 0
v -1088 -2624 0
v -1088 -2592 0
v -1056 -2592 0
v -1568 -2656 0
v -1600 -2656 0
v -1600 -2624 0
v -1568 -2624 0
v -1536 -2656 0
v -1568 -2656 0
v -1568 -2624 0
v -1536 -2624 0
v -1504 -2656 0
v -1536 -2656 0
v -1536 -2624 0
v -1504 -2624 0
v -1472 -2656 0
v -1504 -2656 0
v -1504 -2624 0
v -1472 -2624 0
v -1568 -2688 0
v -1600 -2688 0
v -1600 -2656 0
v -1568 -2656 0
v -1536 -2688 0
v -1568 -2688 0
v -1568 -2656 0
v -1536 -2656 0
v -1504 -2688 0
v -1536 -2688 0
v -1536 -2656 0
v -1504 -2656 0
v -1472 -2688 0
v -1504 -2688 0
v -1504 -2656 0
v -1472 -2656 0
v -1568 -2720 0
v -1600 -2720 0
v -1600 -2688 0
v -1568 -2688 0
v -1536 -2720 0
v -1568 -2720 0
v -1568 -2688 0
v -1536 -2688 0
v -1504 -2720 0
v -1536 -2720 0
v -1536 -2688 0
v -1504 -2688 0
v -1472 -2720 0
v -1504 -2720 0
v -1504 -2688 0
v -1472 -2688 0
v -2976 -3040 0
v -3008 -3040 0
v -3008 -3008 0
v -2976 -3008 0
v -2976 -3072 0
v -3008 -3072 0
v -3008 -3040 0
v -2976 -3040 0
v -800 -3104 0
v -832 -3104 0
v -832 -3072 0
v -800 -3072 0
v -736 -3104 0
v -768 -3104 0
v -768 -3072 0
v -736 -3072 0

# Texture cooridinates (Count = 62)
vt 0.4375 0.6875
vt 0.5 0.6875
vt 0.5 0.75
vt 0.4375 0.75
vt 0.375 0.5
vt 0.4375 0.5
vt 0.4375 0.5625
vt 0.375 0.5625
vt 0.3125 0.5
vt 0.3125 0.5625
vt 0.375 0.6875
vt 0.375 0.75
vt 0.4375 0.625
vt 0.5 0.625
vt 0.375 0.4375
vt 0.4375 0.4375
vt 0.3125 0.4375
vt 0.9375 0.4375
vt 1 0.4375
vt 1 0.5
vt 0.9375 0.5
vt 0.875 0.4375
vt 0.875 0.5
vt 0.6875 0.4375
vt 0.75 0.4375
vt 0.75 0.5
vt 0.6875 0.5
vt 0.625 0.4375
vt 0.625 0.5
vt 0.25 0.9375
vt 0.3125 0.9375
vt 0.3125 1
vt 0.25 1
vt 0.9375 0.375
vt 1 0.375
vt 0.875 0.375
vt 0.6875 0.375
vt 0.75 0.375
vt 0.625 0.375
vt 0.8125 0.1875
vt 0.875 0.1875
vt 0.875 0.25
vt 0.8125 0.25
vt 0.75 0.1875
vt 0.75 0.25
vt 0.6875 0.1875
vt 0.6875 0.25
vt 0.625 0.1875
vt 0.625 0.25
vt 0.8125 0.125
vt 0.875 0.125
vt 0.75 0.125
vt 0.6875 0.125
vt 0.625 0.125
vt 0.0625 0.8125
vt 0.125 0.8125
vt 0.125 0.875
vt 0.0625 0.875
vt 0.0625 0.75
vt 0.125 0.75
vt 0.4375 0.8125
vt 0.375 0.8125

# Normal
vn 0 0 -1

# Mesh description
g Hood2_mesh_0036

# Faces
f 1/1/1 2/2/1 3/3/1 4/4/1
f 5/1/1 6/2/1 7/3/1 8/4/1
f 9/5/1 10/6/1 11/7/1 12/8/1
f 13/9/1 14/5/1 15/8/1 16/10/1
f 17/11/1 18/1/1 19/4/1 20/12/1
f 21/13/1 22/14/1 23/2/1 24/1/1
f 25/13/1 26/14/1 27/2/1 28/1/1
f 29/15/1 30/16/1 31/6/1 32/5/1
f 33/17/1 34/15/1 35/5/1 36/9/1
f 37/18/1 38/19/1 39/20/1 40/21/1
f 41/22/1 42/18/1 43/21/1 44/23/1
f 45/24/1 46/25/1 47/26/1 48/27/1
f 49/28/1 50/24/1 51/27/1 52/29/1
f 53/30/1 54/31/1 55/32/1 56/33/1
f 57/34/1 58/35/1 59/19/1 60/18/1
f 61/36/1 62/34/1 63/18/1 64/22/1
f 65/37/1 66/38/1 67/25/1 68/24/1
f 69/39/1 70/37/1 71/24/1 72/28/1
f 73/40/1 74/41/1 75/42/1 76/43/1
f 77/44/1 78/40/1 79/43/1 80/45/1
f 81/46/1 82/44/1 83/45/1 84/47/1
f 85/48/1 86/46/1 87/47/1 88/49/1
f 89/50/1 90/51/1 91/41/1 92/40/1
f 93/52/1 94/50/1 95/40/1 96/44/1
f 97/53/1 98/52/1 99/44/1 100/46/1
f 101/54/1 102/53/1 103/46/1 104/48/1
f 105/55/1 106/56/1 107/57/1 108/58/1
f 109/59/1 110/60/1 111/56/1 112/55/1
f 113/12/1 114/4/1 115/61/1 116/62/1
f 117/12/1 118/4/1 119/61/1 120/62/1

