# Tiled2Unity generated file. Do not modify by hand.
# Wavefront file for 'Hood2_mesh_0009.obj'

# Vertices (Count = 8)
v -960 -2528 0
v -992 -2528 0
v -992 -2496 0
v -960 -2496 0
v -3136 -3168 0
v -3168 -3168 0
v -3168 -3136 0
v -3136 -3136 0

# Texture cooridinates (Count = 8)
vt 0 0.5625
vt 0.0625 0.5625
vt 0.0625 0.625
vt 0 0.625
vt 0.125 0.4375
vt 0.1875 0.4375
vt 0.1875 0.5
vt 0.125 0.5

# Normal
vn 0 0 -1

# Mesh description
g Hood2_mesh_0009

# Faces
f 1/1/1 2/2/1 3/3/1 4/4/1
f 5/5/1 6/6/1 7/7/1 8/8/1

