# Tiled2Unity generated file. Do not modify by hand.
# Wavefront file for 'Hood2_mesh_0072.obj'

# Vertices (Count = 24)
v -2848 -64 0
v -2880 -64 0
v -2880 -32 0
v -2848 -32 0
v -2592 -2368 0
v -2624 -2368 0
v -2624 -2336 0
v -2592 -2336 0
v -2560 -2368 0
v -2592 -2368 0
v -2592 -2336 0
v -2560 -2336 0
v -2592 -2400 0
v -2624 -2400 0
v -2624 -2368 0
v -2592 -2368 0
v -2560 -2400 0
v -2592 -2400 0
v -2592 -2368 0
v -2560 -2368 0
v -256 -2656 0
v -288 -2656 0
v -288 -2624 0
v -256 -2624 0

# Texture cooridinates (Count = 17)
vt 0.34375 0.78125
vt 0.375 0.78125
vt 0.375 0.8125
vt 0.34375 0.8125
vt 0.84375 0.53125
vt 0.875 0.53125
vt 0.875 0.5625
vt 0.84375 0.5625
vt 0.8125 0.53125
vt 0.8125 0.5625
vt 0.84375 0.5
vt 0.875 0.5
vt 0.8125 0.5
vt 0.46875 0.65625
vt 0.5 0.65625
vt 0.5 0.6875
vt 0.46875 0.6875

# Normal
vn 0 0 -1

# Mesh description
g Hood2_mesh_0072

# Faces
f 1/1/1 2/2/1 3/3/1 4/4/1
f 5/5/1 6/6/1 7/7/1 8/8/1
f 9/9/1 10/5/1 11/8/1 12/10/1
f 13/11/1 14/12/1 15/6/1 16/5/1
f 17/13/1 18/11/1 19/5/1 20/9/1
f 21/14/1 22/15/1 23/16/1 24/17/1

