# Tiled2Unity generated file. Do not modify by hand.
# Wavefront file for 'Hood2_mesh_0032.obj'

# Vertices (Count = 52)
v -1472 -1824 0
v -1504 -1824 0
v -1504 -1792 0
v -1472 -1792 0
v -1440 -1824 0
v -1472 -1824 0
v -1472 -1792 0
v -1440 -1792 0
v -1408 -1824 0
v -1440 -1824 0
v -1440 -1792 0
v -1408 -1792 0
v -1376 -1824 0
v -1408 -1824 0
v -1408 -1792 0
v -1376 -1792 0
v -1280 -1824 0
v -1312 -1824 0
v -1312 -1792 0
v -1280 -1792 0
v -1472 -1856 0
v -1504 -1856 0
v -1504 -1824 0
v -1472 -1824 0
v -1440 -1856 0
v -1472 -1856 0
v -1472 -1824 0
v -1440 -1824 0
v -1408 -1856 0
v -1440 -1856 0
v -1440 -1824 0
v -1408 -1824 0
v -1376 -1856 0
v -1408 -1856 0
v -1408 -1824 0
v -1376 -1824 0
v -1728 -1920 0
v -1760 -1920 0
v -1760 -1888 0
v -1728 -1888 0
v -1760 -1952 0
v -1792 -1952 0
v -1792 -1920 0
v -1760 -1920 0
v -1792 -1984 0
v -1824 -1984 0
v -1824 -1952 0
v -1792 -1952 0
v -1824 -2016 0
v -1856 -2016 0
v -1856 -1984 0
v -1824 -1984 0

# Texture cooridinates (Count = 23)
vt 0.1904762 0.8666667
vt 0.2539683 0.8666667
vt 0.2539683 1
vt 0.1904762 1
vt 0.1269841 0.8666667
vt 0.1269841 1
vt 0.06349207 0.8666667
vt 0.06349207 1
vt 0 0.8666667
vt 0 1
vt 0.1904762 0.2
vt 0.2539683 0.2
vt 0.2539683 0.3333333
vt 0.1904762 0.3333333
vt 0.1904762 0.7333333
vt 0.2539683 0.7333333
vt 0.1269841 0.7333333
vt 0.06349207 0.7333333
vt 0 0.7333333
vt 0.06349207 0.3333333
vt 0.1269841 0.3333333
vt 0.1269841 0.4666666
vt 0.06349207 0.4666666

# Normal
vn 0 0 -1

# Mesh description
g Hood2_mesh_0032

# Faces
f 1/1/1 2/2/1 3/3/1 4/4/1
f 5/5/1 6/1/1 7/4/1 8/6/1
f 9/7/1 10/5/1 11/6/1 12/8/1
f 13/9/1 14/7/1 15/8/1 16/10/1
f 17/11/1 18/12/1 19/13/1 20/14/1
f 21/15/1 22/16/1 23/2/1 24/1/1
f 25/17/1 26/15/1 27/1/1 28/5/1
f 29/18/1 30/17/1 31/5/1 32/7/1
f 33/19/1 34/18/1 35/7/1 36/9/1
f 37/20/1 38/21/1 39/22/1 40/23/1
f 41/20/1 42/21/1 43/22/1 44/23/1
f 45/20/1 46/21/1 47/22/1 48/23/1
f 49/20/1 50/21/1 51/22/1 52/23/1

