# Tiled2Unity generated file. Do not modify by hand.
# Wavefront file for 'Hood2_mesh_0020.obj'

# Vertices (Count = 16)
v -1920 -1984 0
v -1952 -1984 0
v -1952 -1952 0
v -1920 -1952 0
v -1888 -1984 0
v -1920 -1984 0
v -1920 -1952 0
v -1888 -1952 0
v -1920 -2016 0
v -1952 -2016 0
v -1952 -1984 0
v -1920 -1984 0
v -1888 -2016 0
v -1920 -2016 0
v -1920 -1984 0
v -1888 -1984 0

# Texture cooridinates (Count = 6)
vt 0.375 0.6666666
vt 0.5 0.6666666
vt 0.5 0.7333333
vt 0.375 0.7333333
vt 0.375 0.6
vt 0.5 0.6

# Normal
vn 0 0 -1

# Mesh description
g Hood2_mesh_0020

# Faces
f 1/1/1 2/2/1 3/3/1 4/4/1
f 5/1/1 6/2/1 7/3/1 8/4/1
f 9/5/1 10/6/1 11/2/1 12/1/1
f 13/5/1 14/6/1 15/2/1 16/1/1

