# Tiled2Unity generated file. Do not modify by hand.
# Wavefront file for 'Hood2_mesh_0030.obj'

# Vertices (Count = 308)
v -1504 -1568 0
v -1536 -1568 0
v -1536 -1536 0
v -1504 -1536 0
v -1472 -1568 0
v -1504 -1568 0
v -1504 -1536 0
v -1472 -1536 0
v -1440 -1568 0
v -1472 -1568 0
v -1472 -1536 0
v -1440 -1536 0
v -1408 -1568 0
v -1440 -1568 0
v -1440 -1536 0
v -1408 -1536 0
v -1376 -1568 0
v -1408 -1568 0
v -1408 -1536 0
v -1376 -1536 0
v -1344 -1568 0
v -1376 -1568 0
v -1376 -1536 0
v -1344 -1536 0
v -1312 -1568 0
v -1344 -1568 0
v -1344 -1536 0
v -1312 -1536 0
v -1280 -1568 0
v -1312 -1568 0
v -1312 -1536 0
v -1280 -1536 0
v -1248 -1568 0
v -1280 -1568 0
v -1280 -1536 0
v -1248 -1536 0
v -1216 -1568 0
v -1248 -1568 0
v -1248 -1536 0
v -1216 -1536 0
v -1184 -1568 0
v -1216 -1568 0
v -1216 -1536 0
v -1184 -1536 0
v -1504 -1600 0
v -1536 -1600 0
v -1536 -1568 0
v -1504 -1568 0
v -1472 -1600 0
v -1504 -1600 0
v -1504 -1568 0
v -1472 -1568 0
v -1440 -1600 0
v -1472 -1600 0
v -1472 -1568 0
v -1440 -1568 0
v -1408 -1600 0
v -1440 -1600 0
v -1440 -1568 0
v -1408 -1568 0
v -1376 -1600 0
v -1408 -1600 0
v -1408 -1568 0
v -1376 -1568 0
v -1344 -1600 0
v -1376 -1600 0
v -1376 -1568 0
v -1344 -1568 0
v -1312 -1600 0
v -1344 -1600 0
v -1344 -1568 0
v -1312 -1568 0
v -1280 -1600 0
v -1312 -1600 0
v -1312 -1568 0
v -1280 -1568 0
v -1248 -1600 0
v -1280 -1600 0
v -1280 -1568 0
v -1248 -1568 0
v -1216 -1600 0
v -1248 -1600 0
v -1248 -1568 0
v -1216 -1568 0
v -1184 -1600 0
v -1216 -1600 0
v -1216 -1568 0
v -1184 -1568 0
v -1504 -1632 0
v -1536 -1632 0
v -1536 -1600 0
v -1504 -1600 0
v -1184 -1632 0
v -1216 -1632 0
v -1216 -1600 0
v -1184 -1600 0
v -1504 -1664 0
v -1536 -1664 0
v -1536 -1632 0
v -1504 -1632 0
v -1472 -1664 0
v -1504 -1664 0
v -1504 -1632 0
v -1472 -1632 0
v -1440 -1664 0
v -1472 -1664 0
v -1472 -1632 0
v -1440 -1632 0
v -1408 -1664 0
v -1440 -1664 0
v -1440 -1632 0
v -1408 -1632 0
v -1376 -1664 0
v -1408 -1664 0
v -1408 -1632 0
v -1376 -1632 0
v -1344 -1664 0
v -1376 -1664 0
v -1376 -1632 0
v -1344 -1632 0
v -1312 -1664 0
v -1344 -1664 0
v -1344 -1632 0
v -1312 -1632 0
v -1280 -1664 0
v -1312 -1664 0
v -1312 -1632 0
v -1280 -1632 0
v -1248 -1664 0
v -1280 -1664 0
v -1280 -1632 0
v -1248 -1632 0
v -1216 -1664 0
v -1248 -1664 0
v -1248 -1632 0
v -1216 -1632 0
v -1184 -1664 0
v -1216 -1664 0
v -1216 -1632 0
v -1184 -1632 0
v -1504 -1696 0
v -1536 -1696 0
v -1536 -1664 0
v -1504 -1664 0
v -1504 -1728 0
v -1536 -1728 0
v -1536 -1696 0
v -1504 -1696 0
v -1472 -1728 0
v -1504 -1728 0
v -1504 -1696 0
v -1472 -1696 0
v -1440 -1728 0
v -1472 -1728 0
v -1472 -1696 0
v -1440 -1696 0
v -1408 -1728 0
v -1440 -1728 0
v -1440 -1696 0
v -1408 -1696 0
v -1376 -1728 0
v -1408 -1728 0
v -1408 -1696 0
v -1376 -1696 0
v -1312 -1728 0
v -1344 -1728 0
v -1344 -1696 0
v -1312 -1696 0
v -1280 -1728 0
v -1312 -1728 0
v -1312 -1696 0
v -1280 -1696 0
v -1248 -1728 0
v -1280 -1728 0
v -1280 -1696 0
v -1248 -1696 0
v -1216 -1728 0
v -1248 -1728 0
v -1248 -1696 0
v -1216 -1696 0
v -1504 -1760 0
v -1536 -1760 0
v -1536 -1728 0
v -1504 -1728 0
v -1504 -1792 0
v -1536 -1792 0
v -1536 -1760 0
v -1504 -1760 0
v -1472 -1792 0
v -1504 -1792 0
v -1504 -1760 0
v -1472 -1760 0
v -1440 -1792 0
v -1472 -1792 0
v -1472 -1760 0
v -1440 -1760 0
v -1408 -1792 0
v -1440 -1792 0
v -1440 -1760 0
v -1408 -1760 0
v -1376 -1792 0
v -1408 -1792 0
v -1408 -1760 0
v -1376 -1760 0
v -1312 -1792 0
v -1344 -1792 0
v -1344 -1760 0
v -1312 -1760 0
v -1280 -1792 0
v -1312 -1792 0
v -1312 -1760 0
v -1280 -1760 0
v -1248 -1792 0
v -1280 -1792 0
v -1280 -1760 0
v -1248 -1760 0
v -1216 -1792 0
v -1248 -1792 0
v -1248 -1760 0
v -1216 -1760 0
v -1504 -1824 0
v -1536 -1824 0
v -1536 -1792 0
v -1504 -1792 0
v -1504 -1856 0
v -1536 -1856 0
v -1536 -1824 0
v -1504 -1824 0
v -1312 -1856 0
v -1344 -1856 0
v -1344 -1824 0
v -1312 -1824 0
v -1280 -1856 0
v -1312 -1856 0
v -1312 -1824 0
v -1280 -1824 0
v -1248 -1856 0
v -1280 -1856 0
v -1280 -1824 0
v -1248 -1824 0
v -1216 -1856 0
v -1248 -1856 0
v -1248 -1824 0
v -1216 -1824 0
v -1504 -1888 0
v -1536 -1888 0
v -1536 -1856 0
v -1504 -1856 0
v -1504 -1920 0
v -1536 -1920 0
v -1536 -1888 0
v -1504 -1888 0
v -1472 -1920 0
v -1504 -1920 0
v -1504 -1888 0
v -1472 -1888 0
v -1440 -1920 0
v -1472 -1920 0
v -1472 -1888 0
v -1440 -1888 0
v -1376 -1920 0
v -1408 -1920 0
v -1408 -1888 0
v -1376 -1888 0
v -1344 -1920 0
v -1376 -1920 0
v -1376 -1888 0
v -1344 -1888 0
v -1312 -1920 0
v -1344 -1920 0
v -1344 -1888 0
v -1312 -1888 0
v -1248 -1920 0
v -1280 -1920 0
v -1280 -1888 0
v -1248 -1888 0
v -1216 -1920 0
v -1248 -1920 0
v -1248 -1888 0
v -1216 -1888 0
v -1504 -1952 0
v -1536 -1952 0
v -1536 -1920 0
v -1504 -1920 0
v -1376 -1952 0
v -1408 -1952 0
v -1408 -1920 0
v -1376 -1920 0
v -1344 -1952 0
v -1376 -1952 0
v -1376 -1920 0
v -1344 -1920 0
v -1312 -1952 0
v -1344 -1952 0
v -1344 -1920 0
v -1312 -1920 0
v -1376 -1984 0
v -1408 -1984 0
v -1408 -1952 0
v -1376 -1952 0
v -1344 -1984 0
v -1376 -1984 0
v -1376 -1952 0
v -1344 -1952 0
v -1312 -1984 0
v -1344 -1984 0
v -1344 -1952 0
v -1312 -1952 0

# Texture cooridinates (Count = 49)
vt 0.3125 0.4375
vt 0.375 0.4375
vt 0.375 0.5
vt 0.3125 0.5
vt 0.25 0.4375
vt 0.25 0.5
vt 0.1875 0.4375
vt 0.1875 0.5
vt 0.3125 0.375
vt 0.375 0.375
vt 0.25 0.375
vt 0.1875 0.375
vt 0.3125 0.3125
vt 0.375 0.3125
vt 0.1875 0.3125
vt 0.25 0.3125
vt 0.3125 0.25
vt 0.375 0.25
vt 0.25 0.25
vt 0.1875 0.25
vt 0.3125 0.625
vt 0.375 0.625
vt 0.375 0.6875
vt 0.3125 0.6875
vt 0.4375 0.5625
vt 0.5 0.5625
vt 0.5 0.625
vt 0.4375 0.625
vt 0.125 0.5625
vt 0.1875 0.5625
vt 0.1875 0.625
vt 0.125 0.625
vt 0.0625 0.5625
vt 0.0625 0.625
vt 0 0.5625
vt 0 0.625
vt 0.4375 0.6875
vt 0.125 0.6875
vt 0.1875 0.6875
vt 0.1875 0.75
vt 0.125 0.75
vt 0.0625 0.875
vt 0.125 0.875
vt 0.125 0.9375
vt 0.0625 0.9375
vt 0 0.6875
vt 0.0625 0.6875
vt 0.0625 0.75
vt 0 0.75

# Normal
vn 0 0 -1

# Mesh description
g Hood2_mesh_0030

# Faces
f 1/1/1 2/2/1 3/3/1 4/4/1
f 5/5/1 6/1/1 7/4/1 8/6/1
f 9/5/1 10/1/1 11/4/1 12/6/1
f 13/5/1 14/1/1 15/4/1 16/6/1
f 17/5/1 18/1/1 19/4/1 20/6/1
f 21/5/1 22/1/1 23/4/1 24/6/1
f 25/5/1 26/1/1 27/4/1 28/6/1
f 29/5/1 30/1/1 31/4/1 32/6/1
f 33/5/1 34/1/1 35/4/1 36/6/1
f 37/5/1 38/1/1 39/4/1 40/6/1
f 41/7/1 42/5/1 43/6/1 44/8/1
f 45/9/1 46/10/1 47/2/1 48/1/1
f 49/11/1 50/9/1 51/1/1 52/5/1
f 53/11/1 54/9/1 55/1/1 56/5/1
f 57/11/1 58/9/1 59/1/1 60/5/1
f 61/11/1 62/9/1 63/1/1 64/5/1
f 65/11/1 66/9/1 67/1/1 68/5/1
f 69/11/1 70/9/1 71/1/1 72/5/1
f 73/11/1 74/9/1 75/1/1 76/5/1
f 77/11/1 78/9/1 79/1/1 80/5/1
f 81/11/1 82/9/1 83/1/1 84/5/1
f 85/12/1 86/11/1 87/5/1 88/7/1
f 89/13/1 90/14/1 91/10/1 92/9/1
f 93/15/1 94/16/1 95/11/1 96/12/1
f 97/17/1 98/18/1 99/14/1 100/13/1
f 101/19/1 102/17/1 103/13/1 104/16/1
f 105/19/1 106/17/1 107/13/1 108/16/1
f 109/19/1 110/17/1 111/13/1 112/16/1
f 113/19/1 114/17/1 115/13/1 116/16/1
f 117/19/1 118/17/1 119/13/1 120/16/1
f 121/19/1 122/17/1 123/13/1 124/16/1
f 125/19/1 126/17/1 127/13/1 128/16/1
f 129/19/1 130/17/1 131/13/1 132/16/1
f 133/19/1 134/17/1 135/13/1 136/16/1
f 137/20/1 138/19/1 139/16/1 140/15/1
f 141/21/1 142/22/1 143/23/1 144/24/1
f 145/21/1 146/22/1 147/23/1 148/24/1
f 149/25/1 150/26/1 151/27/1 152/28/1
f 153/25/1 154/26/1 155/27/1 156/28/1
f 157/25/1 158/26/1 159/27/1 160/28/1
f 161/25/1 162/26/1 163/27/1 164/28/1
f 165/25/1 166/26/1 167/27/1 168/28/1
f 169/25/1 170/26/1 171/27/1 172/28/1
f 173/25/1 174/26/1 175/27/1 176/28/1
f 177/25/1 178/26/1 179/27/1 180/28/1
f 181/21/1 182/22/1 183/23/1 184/24/1
f 185/21/1 186/22/1 187/23/1 188/24/1
f 189/25/1 190/26/1 191/27/1 192/28/1
f 193/25/1 194/26/1 195/27/1 196/28/1
f 197/25/1 198/26/1 199/27/1 200/28/1
f 201/25/1 202/26/1 203/27/1 204/28/1
f 205/25/1 206/26/1 207/27/1 208/28/1
f 209/25/1 210/26/1 211/27/1 212/28/1
f 213/25/1 214/26/1 215/27/1 216/28/1
f 217/25/1 218/26/1 219/27/1 220/28/1
f 221/21/1 222/22/1 223/23/1 224/24/1
f 225/21/1 226/22/1 227/23/1 228/24/1
f 229/25/1 230/26/1 231/27/1 232/28/1
f 233/25/1 234/26/1 235/27/1 236/28/1
f 237/25/1 238/26/1 239/27/1 240/28/1
f 241/25/1 242/26/1 243/27/1 244/28/1
f 245/21/1 246/22/1 247/23/1 248/24/1
f 249/21/1 250/22/1 251/23/1 252/24/1
f 253/25/1 254/26/1 255/27/1 256/28/1
f 257/25/1 258/26/1 259/27/1 260/28/1
f 261/29/1 262/30/1 263/31/1 264/32/1
f 265/33/1 266/29/1 267/32/1 268/34/1
f 269/35/1 270/33/1 271/34/1 272/36/1
f 273/25/1 274/26/1 275/27/1 276/28/1
f 277/25/1 278/26/1 279/27/1 280/28/1
f 281/22/1 282/28/1 283/37/1 284/23/1
f 285/38/1 286/39/1 287/40/1 288/41/1
f 289/42/1 290/43/1 291/44/1 292/45/1
f 293/46/1 294/47/1 295/48/1 296/49/1
f 297/32/1 298/31/1 299/39/1 300/38/1
f 301/34/1 302/32/1 303/38/1 304/47/1
f 305/36/1 306/34/1 307/47/1 308/46/1

