# Tiled2Unity generated file. Do not modify by hand.
# Wavefront file for 'Hood2_mesh_0074.obj'

# Vertices (Count = 76)
v -1952 -96 0
v -1984 -96 0
v -1984 -64 0
v -1952 -64 0
v -2048 -128 0
v -2080 -128 0
v -2080 -96 0
v -2048 -96 0
v -2144 -160 0
v -2176 -160 0
v -2176 -128 0
v -2144 -128 0
v -2016 -160 0
v -2048 -160 0
v -2048 -128 0
v -2016 -128 0
v -1920 -192 0
v -1952 -192 0
v -1952 -160 0
v -1920 -160 0
v -2432 -224 0
v -2464 -224 0
v -2464 -192 0
v -2432 -192 0
v -1888 -224 0
v -1920 -224 0
v -1920 -192 0
v -1888 -192 0
v -1888 -256 0
v -1920 -256 0
v -1920 -224 0
v -1888 -224 0
v -2400 -288 0
v -2432 -288 0
v -2432 -256 0
v -2400 -256 0
v -2400 -320 0
v -2432 -320 0
v -2432 -288 0
v -2400 -288 0
v -2304 -320 0
v -2336 -320 0
v -2336 -288 0
v -2304 -288 0
v -2240 -352 0
v -2272 -352 0
v -2272 -320 0
v -2240 -320 0
v -2240 -384 0
v -2272 -384 0
v -2272 -352 0
v -2240 -352 0
v -2080 -384 0
v -2112 -384 0
v -2112 -352 0
v -2080 -352 0
v -1984 -416 0
v -2016 -416 0
v -2016 -384 0
v -1984 -384 0
v -2464 -448 0
v -2496 -448 0
v -2496 -416 0
v -2464 -416 0
v -928 -1024 0
v -960 -1024 0
v -960 -992 0
v -928 -992 0
v -960 -1056 0
v -992 -1056 0
v -992 -1024 0
v -960 -1024 0
v -928 -1120 0
v -960 -1120 0
v -960 -1088 0
v -928 -1088 0

# Texture cooridinates (Count = 30)
vt 0.46875 0.375
vt 0.5 0.375
vt 0.5 0.40625
vt 0.46875 0.40625
vt 0.25 0.4375
vt 0.28125 0.4375
vt 0.28125 0.46875
vt 0.25 0.46875
vt 0.5 0.4375
vt 0.46875 0.4375
vt 0.34375 0.4375
vt 0.375 0.4375
vt 0.375 0.46875
vt 0.34375 0.46875
vt 0.21875 0.40625
vt 0.25 0.40625
vt 0.21875 0.4375
vt 0.21875 0.375
vt 0.25 0.375
vt 0.09375 0.78125
vt 0.125 0.78125
vt 0.125 0.8125
vt 0.09375 0.8125
vt 0.09375 0.75
vt 0.125 0.75
vt 0.3125 0.4375
vt 0.3125 0.46875
vt 0.1875 0.4375
vt 0.21875 0.46875
vt 0.1875 0.46875

# Normal
vn 0 0 -1

# Mesh description
g Hood2_mesh_0074

# Faces
f 1/1/1 2/2/1 3/3/1 4/4/1
f 5/1/1 6/2/1 7/3/1 8/4/1
f 9/5/1 10/6/1 11/7/1 12/8/1
f 13/4/1 14/3/1 15/9/1 16/10/1
f 17/5/1 18/6/1 19/7/1 20/8/1
f 21/11/1 22/12/1 23/13/1 24/14/1
f 25/15/1 26/16/1 27/5/1 28/17/1
f 29/18/1 30/19/1 31/16/1 32/15/1
f 33/20/1 34/21/1 35/22/1 36/23/1
f 37/24/1 38/25/1 39/21/1 40/20/1
f 41/26/1 42/11/1 43/14/1 44/27/1
f 45/28/1 46/17/1 47/29/1 48/30/1
f 49/6/1 50/26/1 51/27/1 52/7/1
f 53/5/1 54/6/1 55/7/1 56/8/1
f 57/11/1 58/12/1 59/13/1 60/14/1
f 61/11/1 62/12/1 63/13/1 64/14/1
f 65/5/1 66/6/1 67/7/1 68/8/1
f 69/17/1 70/5/1 71/8/1 72/29/1
f 73/26/1 74/11/1 75/14/1 76/27/1

