# Tiled2Unity generated file. Do not modify by hand.
# Wavefront file for 'Hood2_mesh_0027.obj'

# Vertices (Count = 40)
v -1728 -224 0
v -1760 -224 0
v -1760 -192 0
v -1728 -192 0
v -1728 -256 0
v -1760 -256 0
v -1760 -224 0
v -1728 -224 0
v -1728 -320 0
v -1760 -320 0
v -1760 -288 0
v -1728 -288 0
v -1664 -320 0
v -1696 -320 0
v -1696 -288 0
v -1664 -288 0
v -1728 -352 0
v -1760 -352 0
v -1760 -320 0
v -1728 -320 0
v -1664 -352 0
v -1696 -352 0
v -1696 -320 0
v -1664 -320 0
v -1696 -384 0
v -1728 -384 0
v -1728 -352 0
v -1696 -352 0
v -1664 -384 0
v -1696 -384 0
v -1696 -352 0
v -1664 -352 0
v -1696 -416 0
v -1728 -416 0
v -1728 -384 0
v -1696 -384 0
v -1664 -416 0
v -1696 -416 0
v -1696 -384 0
v -1664 -384 0

# Texture cooridinates (Count = 19)
vt 0 0.2195122
vt 0.125 0.2195122
vt 0.125 0.2439024
vt 0 0.2439024
vt 0 0.1951219
vt 0.125 0.1951219
vt 0.375 0.6585366
vt 0.5 0.6585366
vt 0.5 0.6829268
vt 0.375 0.6829268
vt 0.5 0.6341463
vt 0.625 0.6341463
vt 0.625 0.6585366
vt 0 0.8536586
vt 0.125 0.8536586
vt 0.125 0.8780488
vt 0 0.8780488
vt 0 0.8292683
vt 0.125 0.8292683

# Normal
vn 0 0 -1

# Mesh description
g Hood2_mesh_0027

# Faces
f 1/1/1 2/2/1 3/3/1 4/4/1
f 5/5/1 6/6/1 7/2/1 8/1/1
f 9/7/1 10/8/1 11/9/1 12/10/1
f 13/7/1 14/8/1 15/9/1 16/10/1
f 17/11/1 18/12/1 19/13/1 20/8/1
f 21/11/1 22/12/1 23/13/1 24/8/1
f 25/14/1 26/15/1 27/16/1 28/17/1
f 29/14/1 30/15/1 31/16/1 32/17/1
f 33/18/1 34/19/1 35/15/1 36/14/1
f 37/18/1 38/19/1 39/15/1 40/14/1

