# Tiled2Unity generated file. Do not modify by hand.
# Wavefront file for 'Hood2_mesh_0029.obj'

# Vertices (Count = 232)
v -3168 -928 0
v -3200 -928 0
v -3200 -896 0
v -3168 -896 0
v -3136 -928 0
v -3168 -928 0
v -3168 -896 0
v -3136 -896 0
v -3104 -928 0
v -3136 -928 0
v -3136 -896 0
v -3104 -896 0
v -3072 -928 0
v -3104 -928 0
v -3104 -896 0
v -3072 -896 0
v -3040 -928 0
v -3072 -928 0
v -3072 -896 0
v -3040 -896 0
v -3008 -928 0
v -3040 -928 0
v -3040 -896 0
v -3008 -896 0
v -2976 -928 0
v -3008 -928 0
v -3008 -896 0
v -2976 -896 0
v -2944 -928 0
v -2976 -928 0
v -2976 -896 0
v -2944 -896 0
v -2912 -928 0
v -2944 -928 0
v -2944 -896 0
v -2912 -896 0
v -2880 -928 0
v -2912 -928 0
v -2912 -896 0
v -2880 -896 0
v -2848 -928 0
v -2880 -928 0
v -2880 -896 0
v -2848 -896 0
v -2816 -928 0
v -2848 -928 0
v -2848 -896 0
v -2816 -896 0
v -3168 -960 0
v -3200 -960 0
v -3200 -928 0
v -3168 -928 0
v -2816 -960 0
v -2848 -960 0
v -2848 -928 0
v -2816 -928 0
v -3168 -992 0
v -3200 -992 0
v -3200 -960 0
v -3168 -960 0
v -2816 -992 0
v -2848 -992 0
v -2848 -960 0
v -2816 -960 0
v -3168 -1024 0
v -3200 -1024 0
v -3200 -992 0
v -3168 -992 0
v -2816 -1024 0
v -2848 -1024 0
v -2848 -992 0
v -2816 -992 0
v -3168 -1056 0
v -3200 -1056 0
v -3200 -1024 0
v -3168 -1024 0
v -2816 -1056 0
v -2848 -1056 0
v -2848 -1024 0
v -2816 -1024 0
v -3168 -1088 0
v -3200 -1088 0
v -3200 -1056 0
v -3168 -1056 0
v -2816 -1088 0
v -2848 -1088 0
v -2848 -1056 0
v -2816 -1056 0
v -3168 -1120 0
v -3200 -1120 0
v -3200 -1088 0
v -3168 -1088 0
v -2816 -1120 0
v -2848 -1120 0
v -2848 -1088 0
v -2816 -1088 0
v -3168 -1152 0
v -3200 -1152 0
v -3200 -1120 0
v -3168 -1120 0
v -2816 -1152 0
v -2848 -1152 0
v -2848 -1120 0
v -2816 -1120 0
v -3168 -1184 0
v -3200 -1184 0
v -3200 -1152 0
v -3168 -1152 0
v -2816 -1184 0
v -2848 -1184 0
v -2848 -1152 0
v -2816 -1152 0
v -3168 -1216 0
v -3200 -1216 0
v -3200 -1184 0
v -3168 -1184 0
v -2816 -1216 0
v -2848 -1216 0
v -2848 -1184 0
v -2816 -1184 0
v -3168 -1248 0
v -3200 -1248 0
v -3200 -1216 0
v -3168 -1216 0
v -3040 -1248 0
v -3072 -1248 0
v -3072 -1216 0
v -3040 -1216 0
v -2816 -1248 0
v -2848 -1248 0
v -2848 -1216 0
v -2816 -1216 0
v -3168 -1280 0
v -3200 -1280 0
v -3200 -1248 0
v -3168 -1248 0
v -2816 -1280 0
v -2848 -1280 0
v -2848 -1248 0
v -2816 -1248 0
v -3168 -1312 0
v -3200 -1312 0
v -3200 -1280 0
v -3168 -1280 0
v -2816 -1312 0
v -2848 -1312 0
v -2848 -1280 0
v -2816 -1280 0
v -3168 -1344 0
v -3200 -1344 0
v -3200 -1312 0
v -3168 -1312 0
v -3168 -1376 0
v -3200 -1376 0
v -3200 -1344 0
v -3168 -1344 0
v -3168 -1408 0
v -3200 -1408 0
v -3200 -1376 0
v -3168 -1376 0
v -3168 -1440 0
v -3200 -1440 0
v -3200 -1408 0
v -3168 -1408 0
v -3136 -1440 0
v -3168 -1440 0
v -3168 -1408 0
v -3136 -1408 0
v -3104 -1440 0
v -3136 -1440 0
v -3136 -1408 0
v -3104 -1408 0
v -3072 -1440 0
v -3104 -1440 0
v -3104 -1408 0
v -3072 -1408 0
v -3040 -1440 0
v -3072 -1440 0
v -3072 -1408 0
v -3040 -1408 0
v -3008 -1440 0
v -3040 -1440 0
v -3040 -1408 0
v -3008 -1408 0
v -2976 -1440 0
v -3008 -1440 0
v -3008 -1408 0
v -2976 -1408 0
v -2944 -1440 0
v -2976 -1440 0
v -2976 -1408 0
v -2944 -1408 0
v -2912 -1440 0
v -2944 -1440 0
v -2944 -1408 0
v -2912 -1408 0
v -2880 -1440 0
v -2912 -1440 0
v -2912 -1408 0
v -2880 -1408 0
v -2848 -1440 0
v -2880 -1440 0
v -2880 -1408 0
v -2848 -1408 0
v -2816 -1440 0
v -2848 -1440 0
v -2848 -1408 0
v -2816 -1408 0
v -2016 -1920 0
v -2048 -1920 0
v -2048 -1888 0
v -2016 -1888 0
v -1408 -3072 0
v -1440 -3072 0
v -1440 -3040 0
v -1408 -3040 0
v -1344 -3072 0
v -1376 -3072 0
v -1376 -3040 0
v -1344 -3040 0
v -1408 -3104 0
v -1440 -3104 0
v -1440 -3072 0
v -1408 -3072 0
v -1344 -3104 0
v -1376 -3104 0
v -1376 -3072 0
v -1344 -3072 0
v -768 -3136 0
v -800 -3136 0
v -800 -3104 0
v -768 -3104 0

# Texture cooridinates (Count = 29)
vt 0.625 0.75
vt 0.6875 0.75
vt 0.6875 0.8125
vt 0.625 0.8125
vt 0.5625 0.75
vt 0.5625 0.8125
vt 0.5 0.75
vt 0.5 0.8125
vt 0.5 0.6875
vt 0.5625 0.6875
vt 0.5625 0.875
vt 0.625 0.875
vt 0.625 0.9375
vt 0.5625 0.9375
vt 0.625 0.6875
vt 0.6875 0.6875
vt 0.5 0.625
vt 0.5625 0.625
vt 0.6875 0.875
vt 0.375 0.8125
vt 0.4375 0.8125
vt 0.4375 0.875
vt 0.375 0.875
vt 0.375 0.75
vt 0.4375 0.75
vt 0.3125 0.0625
vt 0.375 0.0625
vt 0.375 0.125
vt 0.3125 0.125

# Normal
vn 0 0 -1

# Mesh description
g Hood2_mesh_0029

# Faces
f 1/1/1 2/2/1 3/3/1 4/4/1
f 5/5/1 6/1/1 7/4/1 8/6/1
f 9/5/1 10/1/1 11/4/1 12/6/1
f 13/5/1 14/1/1 15/4/1 16/6/1
f 17/5/1 18/1/1 19/4/1 20/6/1
f 21/5/1 22/1/1 23/4/1 24/6/1
f 25/5/1 26/1/1 27/4/1 28/6/1
f 29/5/1 30/1/1 31/4/1 32/6/1
f 33/5/1 34/1/1 35/4/1 36/6/1
f 37/5/1 38/1/1 39/4/1 40/6/1
f 41/5/1 42/1/1 43/4/1 44/6/1
f 45/7/1 46/5/1 47/6/1 48/8/1
f 49/9/1 50/10/1 51/5/1 52/7/1
f 53/9/1 54/10/1 55/5/1 56/7/1
f 57/9/1 58/10/1 59/5/1 60/7/1
f 61/9/1 62/10/1 63/5/1 64/7/1
f 65/9/1 66/10/1 67/5/1 68/7/1
f 69/9/1 70/10/1 71/5/1 72/7/1
f 73/9/1 74/10/1 75/5/1 76/7/1
f 77/9/1 78/10/1 79/5/1 80/7/1
f 81/9/1 82/10/1 83/5/1 84/7/1
f 85/9/1 86/10/1 87/5/1 88/7/1
f 89/9/1 90/10/1 91/5/1 92/7/1
f 93/9/1 94/10/1 95/5/1 96/7/1
f 97/9/1 98/10/1 99/5/1 100/7/1
f 101/9/1 102/10/1 103/5/1 104/7/1
f 105/9/1 106/10/1 107/5/1 108/7/1
f 109/9/1 110/10/1 111/5/1 112/7/1
f 113/9/1 114/10/1 115/5/1 116/7/1
f 117/9/1 118/10/1 119/5/1 120/7/1
f 121/9/1 122/10/1 123/5/1 124/7/1
f 125/11/1 126/12/1 127/13/1 128/14/1
f 129/9/1 130/10/1 131/5/1 132/7/1
f 133/9/1 134/10/1 135/5/1 136/7/1
f 137/9/1 138/10/1 139/5/1 140/7/1
f 141/9/1 142/10/1 143/5/1 144/7/1
f 145/9/1 146/10/1 147/5/1 148/7/1
f 149/9/1 150/10/1 151/5/1 152/7/1
f 153/9/1 154/10/1 155/5/1 156/7/1
f 157/9/1 158/10/1 159/5/1 160/7/1
f 161/15/1 162/16/1 163/2/1 164/1/1
f 165/5/1 166/1/1 167/4/1 168/6/1
f 169/5/1 170/1/1 171/4/1 172/6/1
f 173/5/1 174/1/1 175/4/1 176/6/1
f 177/5/1 178/1/1 179/4/1 180/6/1
f 181/5/1 182/1/1 183/4/1 184/6/1
f 185/5/1 186/1/1 187/4/1 188/6/1
f 189/5/1 190/1/1 191/4/1 192/6/1
f 193/5/1 194/1/1 195/4/1 196/6/1
f 197/5/1 198/1/1 199/4/1 200/6/1
f 201/5/1 202/1/1 203/4/1 204/6/1
f 205/17/1 206/18/1 207/10/1 208/9/1
f 209/4/1 210/3/1 211/19/1 212/12/1
f 213/20/1 214/21/1 215/22/1 216/23/1
f 217/20/1 218/21/1 219/22/1 220/23/1
f 221/24/1 222/25/1 223/21/1 224/20/1
f 225/24/1 226/25/1 227/21/1 228/20/1
f 229/26/1 230/27/1 231/28/1 232/29/1

