# Tiled2Unity generated file. Do not modify by hand.
# Wavefront file for 'Map01_mesh_0008.obj'

# Vertices (Count = 32)
v -864 -640 0
v -880 -640 0
v -880 -624 0
v -864 -624 0
v -848 -640 0
v -864 -640 0
v -864 -624 0
v -848 -624 0
v -864 -656 0
v -880 -656 0
v -880 -640 0
v -864 -640 0
v -848 -656 0
v -864 -656 0
v -864 -640 0
v -848 -640 0
v -864 -672 0
v -880 -672 0
v -880 -656 0
v -864 -656 0
v -848 -672 0
v -864 -672 0
v -864 -656 0
v -848 -656 0
v -864 -688 0
v -880 -688 0
v -880 -672 0
v -864 -672 0
v -848 -688 0
v -864 -688 0
v -864 -672 0
v -848 -672 0

# Texture cooridinates (Count = 32)
vt 0.01660156 0.9921875
vt 0.03222656 0.9921875
vt 0.03222656 1
vt 0.01660156 1
vt 0 0.9921875
vt 0.015625 0.9921875
vt 0.015625 1
vt 0 1
vt 0.01660156 0.9838867
vt 0.03222656 0.9838867
vt 0.03222656 0.9916992
vt 0.01660156 0.9916992
vt 0 0.9838867
vt 0.015625 0.9838867
vt 0.015625 0.9916992
vt 0 0.9916992
vt 0.01660156 0.9755859
vt 0.03222656 0.9755859
vt 0.03222656 0.9833984
vt 0.01660156 0.9833984
vt 0 0.9755859
vt 0.015625 0.9755859
vt 0.015625 0.9833984
vt 0 0.9833984
vt 0.01660156 0.9672852
vt 0.03222656 0.9672852
vt 0.03222656 0.9750977
vt 0.01660156 0.9750977
vt 0 0.9672852
vt 0.015625 0.9672852
vt 0.015625 0.9750977
vt 0 0.9750977

# Normal
vn 0 0 -1

# Mesh description
g Map01_mesh_0008

# Faces
f 1/1/1 2/2/1 3/3/1 4/4/1
f 5/5/1 6/6/1 7/7/1 8/8/1
f 9/9/1 10/10/1 11/11/1 12/12/1
f 13/13/1 14/14/1 15/15/1 16/16/1
f 17/17/1 18/18/1 19/19/1 20/20/1
f 21/21/1 22/22/1 23/23/1 24/24/1
f 25/25/1 26/26/1 27/27/1 28/28/1
f 29/29/1 30/30/1 31/31/1 32/32/1

