# Tiled2Unity generated file. Do not modify by hand.
# Wavefront file for 'Map01_mesh_0007.obj'

# Vertices (Count = 156)
v -704 -512 0
v -720 -512 0
v -720 -496 0
v -704 -496 0
v -832 -528 0
v -848 -528 0
v -848 -512 0
v -832 -512 0
v -800 -528 0
v -816 -528 0
v -816 -512 0
v -800 -512 0
v -784 -528 0
v -800 -528 0
v -800 -512 0
v -784 -512 0
v -736 -528 0
v -752 -528 0
v -752 -512 0
v -736 -512 0
v -688 -528 0
v -704 -528 0
v -704 -512 0
v -688 -512 0
v -704 -544 0
v -720 -544 0
v -720 -528 0
v -704 -528 0
v -832 -656 0
v -848 -656 0
v -848 -640 0
v -832 -640 0
v -816 -656 0
v -832 -656 0
v -832 -640 0
v -816 -640 0
v -832 -672 0
v -848 -672 0
v -848 -656 0
v -832 -656 0
v -816 -672 0
v -832 -672 0
v -832 -656 0
v -816 -656 0
v -1376 -704 0
v -1392 -704 0
v -1392 -688 0
v -1376 -688 0
v -1360 -704 0
v -1376 -704 0
v -1376 -688 0
v -1360 -688 0
v -1344 -704 0
v -1360 -704 0
v -1360 -688 0
v -1344 -688 0
v -1328 -704 0
v -1344 -704 0
v -1344 -688 0
v -1328 -688 0
v -1312 -704 0
v -1328 -704 0
v -1328 -688 0
v -1312 -688 0
v -1296 -768 0
v -1312 -768 0
v -1312 -752 0
v -1296 -752 0
v -1568 -896 0
v -1584 -896 0
v -1584 -880 0
v -1568 -880 0
v -1536 -896 0
v -1552 -896 0
v -1552 -880 0
v -1536 -880 0
v -1504 -896 0
v -1520 -896 0
v -1520 -880 0
v -1504 -880 0
v -1472 -896 0
v -1488 -896 0
v -1488 -880 0
v -1472 -880 0
v -1440 -896 0
v -1456 -896 0
v -1456 -880 0
v -1440 -880 0
v -1568 -912 0
v -1584 -912 0
v -1584 -896 0
v -1568 -896 0
v -1536 -912 0
v -1552 -912 0
v -1552 -896 0
v -1536 -896 0
v -1504 -912 0
v -1520 -912 0
v -1520 -896 0
v -1504 -896 0
v -1472 -912 0
v -1488 -912 0
v -1488 -896 0
v -1472 -896 0
v -1440 -912 0
v -1456 -912 0
v -1456 -896 0
v -1440 -896 0
v -1536 -944 0
v -1552 -944 0
v -1552 -928 0
v -1536 -928 0
v -1456 -944 0
v -1472 -944 0
v -1472 -928 0
v -1456 -928 0
v -1552 -960 0
v -1568 -960 0
v -1568 -944 0
v -1552 -944 0
v -1536 -960 0
v -1552 -960 0
v -1552 -944 0
v -1536 -944 0
v -1520 -960 0
v -1536 -960 0
v -1536 -944 0
v -1520 -944 0
v -1472 -960 0
v -1488 -960 0
v -1488 -944 0
v -1472 -944 0
v -1456 -960 0
v -1472 -960 0
v -1472 -944 0
v -1456 -944 0
v -1440 -960 0
v -1456 -960 0
v -1456 -944 0
v -1440 -944 0
v -1552 -992 0
v -1568 -992 0
v -1568 -976 0
v -1552 -976 0
v -1536 -992 0
v -1552 -992 0
v -1552 -976 0
v -1536 -976 0
v -1472 -992 0
v -1488 -992 0
v -1488 -976 0
v -1472 -976 0
v -1456 -992 0
v -1472 -992 0
v -1472 -976 0
v -1456 -976 0

# Texture cooridinates (Count = 116)
vt 0.7308917 0.4652631
vt 0.7563694 0.4652631
vt 0.7563694 0.4989474
vt 0.7308917 0.4989474
vt 0.8121019 0.4652631
vt 0.8375796 0.4652631
vt 0.8375796 0.4989474
vt 0.8121019 0.4989474
vt 0.6496815 0.4294737
vt 0.6751592 0.4294737
vt 0.6751592 0.4631579
vt 0.6496815 0.4631579
vt 0.9745223 0.7157894
vt 1 0.7157894
vt 1 0.7494737
vt 0.9745223 0.7494737
vt 0.9474522 0.7157894
vt 0.97293 0.7157894
vt 0.97293 0.7494737
vt 0.9474522 0.7494737
vt 0.9745223 0.68
vt 1 0.68
vt 1 0.7136842
vt 0.9745223 0.7136842
vt 0.9474522 0.68
vt 0.97293 0.68
vt 0.97293 0.7136842
vt 0.9474522 0.7136842
vt 0.2707006 0.5010526
vt 0.2961783 0.5010526
vt 0.2961783 0.5347369
vt 0.2707006 0.5347369
vt 0.1624204 0.5010526
vt 0.1878981 0.5010526
vt 0.1878981 0.5347369
vt 0.1624204 0.5347369
vt 0.1353503 0.5010526
vt 0.160828 0.5010526
vt 0.160828 0.5347369
vt 0.1353503 0.5347369
vt 0.1082803 0.5010526
vt 0.133758 0.5010526
vt 0.133758 0.5347369
vt 0.1082803 0.5347369
vt 0.2977707 0.5010526
vt 0.3232484 0.5010526
vt 0.3232484 0.5347369
vt 0.2977707 0.5347369
vt 0.3248408 0.5010526
vt 0.3503185 0.5010526
vt 0.3503185 0.5347369
vt 0.3248408 0.5347369
vt 0.9474522 0.6084211
vt 0.97293 0.6084211
vt 0.97293 0.6421052
vt 0.9474522 0.6421052
vt 0.9203821 0.6084211
vt 0.9458598 0.6084211
vt 0.9458598 0.6421052
vt 0.9203821 0.6421052
vt 0.8933121 0.6084211
vt 0.9187898 0.6084211
vt 0.9187898 0.6421052
vt 0.8933121 0.6421052
vt 0.8662421 0.6084211
vt 0.8917198 0.6084211
vt 0.8917198 0.6421052
vt 0.8662421 0.6421052
vt 0.8391719 0.6084211
vt 0.8646497 0.6084211
vt 0.8646497 0.6421052
vt 0.8391719 0.6421052
vt 0.9474522 0.5726316
vt 0.97293 0.5726316
vt 0.97293 0.6063158
vt 0.9474522 0.6063158
vt 0.9203821 0.5726316
vt 0.9458598 0.5726316
vt 0.9458598 0.6063158
vt 0.9203821 0.6063158
vt 0.8933121 0.5726316
vt 0.9187898 0.5726316
vt 0.9187898 0.6063158
vt 0.8933121 0.6063158
vt 0.8662421 0.5726316
vt 0.8917198 0.5726316
vt 0.8917198 0.6063158
vt 0.8662421 0.6063158
vt 0.8391719 0.5726316
vt 0.8646497 0.5726316
vt 0.8646497 0.6063158
vt 0.8391719 0.6063158
vt 0.406051 0.4294737
vt 0.4315287 0.4294737
vt 0.4315287 0.4631579
vt 0.406051 0.4631579
vt 0.4601911 0.4652631
vt 0.4856688 0.4652631
vt 0.4856688 0.4989474
vt 0.4601911 0.4989474
vt 0.406051 0.3936842
vt 0.4315287 0.3936842
vt 0.4315287 0.4273684
vt 0.406051 0.4273684
vt 0.4872611 0.4652631
vt 0.5127388 0.4652631
vt 0.5127388 0.4989474
vt 0.4872611 0.4989474
vt 0.4872611 0.5010526
vt 0.5127388 0.5010526
vt 0.5127388 0.5347369
vt 0.4872611 0.5347369
vt 0.3519108 0.4294737
vt 0.3773885 0.4294737
vt 0.3773885 0.4631579
vt 0.3519108 0.4631579

# Normal
vn 0 0 -1

# Mesh description
g Map01_mesh_0007

# Faces
f 1/1/1 2/2/1 3/3/1 4/4/1
f 5/5/1 6/6/1 7/7/1 8/8/1
f 9/5/1 10/6/1 11/7/1 12/8/1
f 13/9/1 14/10/1 15/11/1 16/12/1
f 17/5/1 18/6/1 19/7/1 20/8/1
f 21/5/1 22/6/1 23/7/1 24/8/1
f 25/1/1 26/2/1 27/3/1 28/4/1
f 29/13/1 30/14/1 31/15/1 32/16/1
f 33/17/1 34/18/1 35/19/1 36/20/1
f 37/21/1 38/22/1 39/23/1 40/24/1
f 41/25/1 42/26/1 43/27/1 44/28/1
f 45/29/1 46/30/1 47/31/1 48/32/1
f 49/33/1 50/34/1 51/35/1 52/36/1
f 53/37/1 54/38/1 55/39/1 56/40/1
f 57/41/1 58/42/1 59/43/1 60/44/1
f 61/45/1 62/46/1 63/47/1 64/48/1
f 65/49/1 66/50/1 67/51/1 68/52/1
f 69/53/1 70/54/1 71/55/1 72/56/1
f 73/57/1 74/58/1 75/59/1 76/60/1
f 77/61/1 78/62/1 79/63/1 80/64/1
f 81/65/1 82/66/1 83/67/1 84/68/1
f 85/69/1 86/70/1 87/71/1 88/72/1
f 89/73/1 90/74/1 91/75/1 92/76/1
f 93/77/1 94/78/1 95/79/1 96/80/1
f 97/81/1 98/82/1 99/83/1 100/84/1
f 101/85/1 102/86/1 103/87/1 104/88/1
f 105/89/1 106/90/1 107/91/1 108/92/1
f 109/93/1 110/94/1 111/95/1 112/96/1
f 113/93/1 114/94/1 115/95/1 116/96/1
f 117/97/1 118/98/1 119/99/1 120/100/1
f 121/101/1 122/102/1 123/103/1 124/104/1
f 125/105/1 126/106/1 127/107/1 128/108/1
f 129/97/1 130/98/1 131/99/1 132/100/1
f 133/101/1 134/102/1 135/103/1 136/104/1
f 137/105/1 138/106/1 139/107/1 140/108/1
f 141/109/1 142/110/1 143/111/1 144/112/1
f 145/113/1 146/114/1 147/115/1 148/116/1
f 149/109/1 150/110/1 151/111/1 152/112/1
f 153/113/1 154/114/1 155/115/1 156/116/1

