# Tiled2Unity generated file. Do not modify by hand.
# Wavefront file for 'Map01_mesh_0004.obj'

# Vertices (Count = 16)
v -1232 -1024 0
v -1248 -1024 0
v -1248 -1008 0
v -1232 -1008 0
v -1216 -1024 0
v -1232 -1024 0
v -1232 -1008 0
v -1216 -1008 0
v -1200 -1024 0
v -1216 -1024 0
v -1216 -1008 0
v -1200 -1008 0
v -1232 -1040 0
v -1248 -1040 0
v -1248 -1024 0
v -1232 -1024 0

# Texture cooridinates (Count = 12)
vt 0.7200413 0.6463878
vt 0.7365702 0.6463878
vt 0.7365702 0.6768061
vt 0.7200413 0.6768061
vt 0.9307851 0.2585551
vt 0.947314 0.2585551
vt 0.947314 0.2889734
vt 0.9307851 0.2889734
vt 0.9307851 0.2908745
vt 0.947314 0.2908745
vt 0.947314 0.3212928
vt 0.9307851 0.3212928

# Normal
vn 0 0 -1

# Mesh description
g Map01_mesh_0004

# Faces
f 1/1/1 2/2/1 3/3/1 4/4/1
f 5/5/1 6/6/1 7/7/1 8/8/1
f 9/5/1 10/6/1 11/7/1 12/8/1
f 13/9/1 14/10/1 15/11/1 16/12/1

