# Tiled2Unity generated file. Do not modify by hand.
# Wavefront file for 'Map01_mesh_0006.obj'

# Vertices (Count = 248)
v -720 -592 0
v -736 -592 0
v -736 -576 0
v -720 -576 0
v -704 -592 0
v -720 -592 0
v -720 -576 0
v -704 -576 0
v -688 -592 0
v -704 -592 0
v -704 -576 0
v -688 -576 0
v -672 -592 0
v -688 -592 0
v -688 -576 0
v -672 -576 0
v -864 -608 0
v -880 -608 0
v -880 -592 0
v -864 -592 0
v -848 -608 0
v -864 -608 0
v -864 -592 0
v -848 -592 0
v -832 -608 0
v -848 -608 0
v -848 -592 0
v -832 -592 0
v -816 -608 0
v -832 -608 0
v -832 -592 0
v -816 -592 0
v -800 -608 0
v -816 -608 0
v -816 -592 0
v -800 -592 0
v -784 -608 0
v -800 -608 0
v -800 -592 0
v -784 -592 0
v -768 -608 0
v -784 -608 0
v -784 -592 0
v -768 -592 0
v -752 -608 0
v -768 -608 0
v -768 -592 0
v -752 -592 0
v -720 -608 0
v -736 -608 0
v -736 -592 0
v -720 -592 0
v -704 -608 0
v -720 -608 0
v -720 -592 0
v -704 -592 0
v -688 -608 0
v -704 -608 0
v -704 -592 0
v -688 -592 0
v -672 -608 0
v -688 -608 0
v -688 -592 0
v -672 -592 0
v -864 -624 0
v -880 -624 0
v -880 -608 0
v -864 -608 0
v -848 -624 0
v -864 -624 0
v -864 -608 0
v -848 -608 0
v -832 -624 0
v -848 -624 0
v -848 -608 0
v -832 -608 0
v -816 -624 0
v -832 -624 0
v -832 -608 0
v -816 -608 0
v -800 -624 0
v -816 -624 0
v -816 -608 0
v -800 -608 0
v -784 -624 0
v -800 -624 0
v -800 -608 0
v -784 -608 0
v -768 -624 0
v -784 -624 0
v -784 -608 0
v -768 -608 0
v -752 -624 0
v -768 -624 0
v -768 -608 0
v -752 -608 0
v -720 -624 0
v -736 -624 0
v -736 -608 0
v -720 -608 0
v -704 -624 0
v -720 -624 0
v -720 -608 0
v -704 -608 0
v -688 -624 0
v -704 -624 0
v -704 -608 0
v -688 -608 0
v -672 -624 0
v -688 -624 0
v -688 -608 0
v -672 -608 0
v -864 -640 0
v -880 -640 0
v -880 -624 0
v -864 -624 0
v -848 -640 0
v -864 -640 0
v -864 -624 0
v -848 -624 0
v -832 -640 0
v -848 -640 0
v -848 -624 0
v -832 -624 0
v -816 -640 0
v -832 -640 0
v -832 -624 0
v -816 -624 0
v -800 -640 0
v -816 -640 0
v -816 -624 0
v -800 -624 0
v -784 -640 0
v -800 -640 0
v -800 -624 0
v -784 -624 0
v -768 -640 0
v -784 -640 0
v -784 -624 0
v -768 -624 0
v -752 -640 0
v -768 -640 0
v -768 -624 0
v -752 -624 0
v -720 -640 0
v -736 -640 0
v -736 -624 0
v -720 -624 0
v -704 -640 0
v -720 -640 0
v -720 -624 0
v -704 -624 0
v -688 -640 0
v -704 -640 0
v -704 -624 0
v -688 -624 0
v -672 -640 0
v -688 -640 0
v -688 -624 0
v -672 -624 0
v -800 -656 0
v -816 -656 0
v -816 -640 0
v -800 -640 0
v -784 -656 0
v -800 -656 0
v -800 -640 0
v -784 -640 0
v -768 -656 0
v -784 -656 0
v -784 -640 0
v -768 -640 0
v -752 -656 0
v -768 -656 0
v -768 -640 0
v -752 -640 0
v -720 -656 0
v -736 -656 0
v -736 -640 0
v -720 -640 0
v -704 -656 0
v -720 -656 0
v -720 -640 0
v -704 -640 0
v -688 -656 0
v -704 -656 0
v -704 -640 0
v -688 -640 0
v -672 -656 0
v -688 -656 0
v -688 -640 0
v -672 -640 0
v -800 -672 0
v -816 -672 0
v -816 -656 0
v -800 -656 0
v -784 -672 0
v -800 -672 0
v -800 -656 0
v -784 -656 0
v -768 -672 0
v -784 -672 0
v -784 -656 0
v -768 -656 0
v -752 -672 0
v -768 -672 0
v -768 -656 0
v -752 -656 0
v -720 -672 0
v -736 -672 0
v -736 -656 0
v -720 -656 0
v -704 -672 0
v -720 -672 0
v -720 -656 0
v -704 -656 0
v -688 -672 0
v -704 -672 0
v -704 -656 0
v -688 -656 0
v -672 -672 0
v -688 -672 0
v -688 -656 0
v -672 -656 0
v -800 -688 0
v -816 -688 0
v -816 -672 0
v -800 -672 0
v -784 -688 0
v -800 -688 0
v -800 -672 0
v -784 -672 0
v -720 -688 0
v -736 -688 0
v -736 -672 0
v -720 -672 0
v -704 -688 0
v -720 -688 0
v -720 -672 0
v -704 -672 0
v -688 -688 0
v -704 -688 0
v -704 -672 0
v -688 -672 0
v -672 -688 0
v -688 -688 0
v -688 -672 0
v -672 -672 0

# Texture cooridinates (Count = 248)
vt 0.09960938 0.2382813
vt 0.1308594 0.2382813
vt 0.1308594 0.2695313
vt 0.09960938 0.2695313
vt 0.06640625 0.2382813
vt 0.09765625 0.2382813
vt 0.09765625 0.2695313
vt 0.06640625 0.2695313
vt 0.03320313 0.2382813
vt 0.06445313 0.2382813
vt 0.06445313 0.2695313
vt 0.03320313 0.2695313
vt 0 0.2382813
vt 0.03125 0.2382813
vt 0.03125 0.2695313
vt 0 0.2695313
vt 0.4980469 0.96875
vt 0.5292969 0.96875
vt 0.5292969 1
vt 0.4980469 1
vt 0.4648438 0.96875
vt 0.4960938 0.96875
vt 0.4960938 1
vt 0.4648438 1
vt 0.4316406 0.96875
vt 0.4628906 0.96875
vt 0.4628906 1
vt 0.4316406 1
vt 0.3984375 0.96875
vt 0.4296875 0.96875
vt 0.4296875 1
vt 0.3984375 1
vt 0.3652344 0.96875
vt 0.3964844 0.96875
vt 0.3964844 1
vt 0.3652344 1
vt 0.3320313 0.96875
vt 0.3632813 0.96875
vt 0.3632813 1
vt 0.3320313 1
vt 0.2988281 0.96875
vt 0.3300781 0.96875
vt 0.3300781 1
vt 0.2988281 1
vt 0.265625 0.96875
vt 0.296875 0.96875
vt 0.296875 1
vt 0.265625 1
vt 0.09960938 0.2050781
vt 0.1308594 0.2050781
vt 0.1308594 0.2363281
vt 0.09960938 0.2363281
vt 0.06640625 0.2050781
vt 0.09765625 0.2050781
vt 0.09765625 0.2363281
vt 0.06640625 0.2363281
vt 0.03320313 0.2050781
vt 0.06445313 0.2050781
vt 0.06445313 0.2363281
vt 0.03320313 0.2363281
vt 0 0.2050781
vt 0.03125 0.2050781
vt 0.03125 0.2363281
vt 0 0.2363281
vt 0.4980469 0.9355469
vt 0.5292969 0.9355469
vt 0.5292969 0.9667969
vt 0.4980469 0.9667969
vt 0.4648438 0.9355469
vt 0.4960938 0.9355469
vt 0.4960938 0.9667969
vt 0.4648438 0.9667969
vt 0.4316406 0.9355469
vt 0.4628906 0.9355469
vt 0.4628906 0.9667969
vt 0.4316406 0.9667969
vt 0.3984375 0.9355469
vt 0.4296875 0.9355469
vt 0.4296875 0.9667969
vt 0.3984375 0.9667969
vt 0.3652344 0.9355469
vt 0.3964844 0.9355469
vt 0.3964844 0.9667969
vt 0.3652344 0.9667969
vt 0.3320313 0.9355469
vt 0.3632813 0.9355469
vt 0.3632813 0.9667969
vt 0.3320313 0.9667969
vt 0.2988281 0.9355469
vt 0.3300781 0.9355469
vt 0.3300781 0.9667969
vt 0.2988281 0.9667969
vt 0.265625 0.9355469
vt 0.296875 0.9355469
vt 0.296875 0.9667969
vt 0.265625 0.9667969
vt 0.09960938 0.171875
vt 0.1308594 0.171875
vt 0.1308594 0.203125
vt 0.09960938 0.203125
vt 0.06640625 0.171875
vt 0.09765625 0.171875
vt 0.09765625 0.203125
vt 0.06640625 0.203125
vt 0.03320313 0.171875
vt 0.06445313 0.171875
vt 0.06445313 0.203125
vt 0.03320313 0.203125
vt 0 0.171875
vt 0.03125 0.171875
vt 0.03125 0.203125
vt 0 0.203125
vt 0.4980469 0.9023438
vt 0.5292969 0.9023438
vt 0.5292969 0.9335938
vt 0.4980469 0.9335938
vt 0.4648438 0.9023438
vt 0.4960938 0.9023438
vt 0.4960938 0.9335938
vt 0.4648438 0.9335938
vt 0.4316406 0.9023438
vt 0.4628906 0.9023438
vt 0.4628906 0.9335938
vt 0.4316406 0.9335938
vt 0.3984375 0.9023438
vt 0.4296875 0.9023438
vt 0.4296875 0.9335938
vt 0.3984375 0.9335938
vt 0.3652344 0.9023438
vt 0.3964844 0.9023438
vt 0.3964844 0.9335938
vt 0.3652344 0.9335938
vt 0.3320313 0.9023438
vt 0.3632813 0.9023438
vt 0.3632813 0.9335938
vt 0.3320313 0.9335938
vt 0.2988281 0.9023438
vt 0.3300781 0.9023438
vt 0.3300781 0.9335938
vt 0.2988281 0.9335938
vt 0.265625 0.9023438
vt 0.296875 0.9023438
vt 0.296875 0.9335938
vt 0.265625 0.9335938
vt 0.09960938 0.1386719
vt 0.1308594 0.1386719
vt 0.1308594 0.1699219
vt 0.09960938 0.1699219
vt 0.06640625 0.1386719
vt 0.09765625 0.1386719
vt 0.09765625 0.1699219
vt 0.06640625 0.1699219
vt 0.03320313 0.1386719
vt 0.06445313 0.1386719
vt 0.06445313 0.1699219
vt 0.03320313 0.1699219
vt 0 0.1386719
vt 0.03125 0.1386719
vt 0.03125 0.1699219
vt 0 0.1699219
vt 0.3652344 0.8691406
vt 0.3964844 0.8691406
vt 0.3964844 0.9003906
vt 0.3652344 0.9003906
vt 0.3320313 0.8691406
vt 0.3632813 0.8691406
vt 0.3632813 0.9003906
vt 0.3320313 0.9003906
vt 0.2988281 0.8691406
vt 0.3300781 0.8691406
vt 0.3300781 0.9003906
vt 0.2988281 0.9003906
vt 0.265625 0.8691406
vt 0.296875 0.8691406
vt 0.296875 0.9003906
vt 0.265625 0.9003906
vt 0.09960938 0.1054688
vt 0.1308594 0.1054688
vt 0.1308594 0.1367188
vt 0.09960938 0.1367188
vt 0.06640625 0.1054688
vt 0.09765625 0.1054688
vt 0.09765625 0.1367188
vt 0.06640625 0.1367188
vt 0.03320313 0.1054688
vt 0.06445313 0.1054688
vt 0.06445313 0.1367188
vt 0.03320313 0.1367188
vt 0 0.1054688
vt 0.03125 0.1054688
vt 0.03125 0.1367188
vt 0 0.1367188
vt 0.3652344 0.8359375
vt 0.3964844 0.8359375
vt 0.3964844 0.8671875
vt 0.3652344 0.8671875
vt 0.3320313 0.8359375
vt 0.3632813 0.8359375
vt 0.3632813 0.8671875
vt 0.3320313 0.8671875
vt 0.2988281 0.8359375
vt 0.3300781 0.8359375
vt 0.3300781 0.8671875
vt 0.2988281 0.8671875
vt 0.265625 0.8359375
vt 0.296875 0.8359375
vt 0.296875 0.8671875
vt 0.265625 0.8671875
vt 0.09960938 0.07226563
vt 0.1308594 0.07226563
vt 0.1308594 0.1035156
vt 0.09960938 0.1035156
vt 0.06640625 0.07226563
vt 0.09765625 0.07226563
vt 0.09765625 0.1035156
vt 0.06640625 0.1035156
vt 0.03320313 0.07226563
vt 0.06445313 0.07226563
vt 0.06445313 0.1035156
vt 0.03320313 0.1035156
vt 0 0.07226563
vt 0.03125 0.07226563
vt 0.03125 0.1035156
vt 0 0.1035156
vt 0.3652344 0.8027344
vt 0.3964844 0.8027344
vt 0.3964844 0.8339844
vt 0.3652344 0.8339844
vt 0.3320313 0.8027344
vt 0.3632813 0.8027344
vt 0.3632813 0.8339844
vt 0.3320313 0.8339844
vt 0.09960938 0.0390625
vt 0.1308594 0.0390625
vt 0.1308594 0.0703125
vt 0.09960938 0.0703125
vt 0.06640625 0.0390625
vt 0.09765625 0.0390625
vt 0.09765625 0.0703125
vt 0.06640625 0.0703125
vt 0.03320313 0.0390625
vt 0.06445313 0.0390625
vt 0.06445313 0.0703125
vt 0.03320313 0.0703125
vt 0 0.0390625
vt 0.03125 0.0390625
vt 0.03125 0.0703125
vt 0 0.0703125

# Normal
vn 0 0 -1

# Mesh description
g Map01_mesh_0006

# Faces
f 1/1/1 2/2/1 3/3/1 4/4/1
f 5/5/1 6/6/1 7/7/1 8/8/1
f 9/9/1 10/10/1 11/11/1 12/12/1
f 13/13/1 14/14/1 15/15/1 16/16/1
f 17/17/1 18/18/1 19/19/1 20/20/1
f 21/21/1 22/22/1 23/23/1 24/24/1
f 25/25/1 26/26/1 27/27/1 28/28/1
f 29/29/1 30/30/1 31/31/1 32/32/1
f 33/33/1 34/34/1 35/35/1 36/36/1
f 37/37/1 38/38/1 39/39/1 40/40/1
f 41/41/1 42/42/1 43/43/1 44/44/1
f 45/45/1 46/46/1 47/47/1 48/48/1
f 49/49/1 50/50/1 51/51/1 52/52/1
f 53/53/1 54/54/1 55/55/1 56/56/1
f 57/57/1 58/58/1 59/59/1 60/60/1
f 61/61/1 62/62/1 63/63/1 64/64/1
f 65/65/1 66/66/1 67/67/1 68/68/1
f 69/69/1 70/70/1 71/71/1 72/72/1
f 73/73/1 74/74/1 75/75/1 76/76/1
f 77/77/1 78/78/1 79/79/1 80/80/1
f 81/81/1 82/82/1 83/83/1 84/84/1
f 85/85/1 86/86/1 87/87/1 88/88/1
f 89/89/1 90/90/1 91/91/1 92/92/1
f 93/93/1 94/94/1 95/95/1 96/96/1
f 97/97/1 98/98/1 99/99/1 100/100/1
f 101/101/1 102/102/1 103/103/1 104/104/1
f 105/105/1 106/106/1 107/107/1 108/108/1
f 109/109/1 110/110/1 111/111/1 112/112/1
f 113/113/1 114/114/1 115/115/1 116/116/1
f 117/117/1 118/118/1 119/119/1 120/120/1
f 121/121/1 122/122/1 123/123/1 124/124/1
f 125/125/1 126/126/1 127/127/1 128/128/1
f 129/129/1 130/130/1 131/131/1 132/132/1
f 133/133/1 134/134/1 135/135/1 136/136/1
f 137/137/1 138/138/1 139/139/1 140/140/1
f 141/141/1 142/142/1 143/143/1 144/144/1
f 145/145/1 146/146/1 147/147/1 148/148/1
f 149/149/1 150/150/1 151/151/1 152/152/1
f 153/153/1 154/154/1 155/155/1 156/156/1
f 157/157/1 158/158/1 159/159/1 160/160/1
f 161/161/1 162/162/1 163/163/1 164/164/1
f 165/165/1 166/166/1 167/167/1 168/168/1
f 169/169/1 170/170/1 171/171/1 172/172/1
f 173/173/1 174/174/1 175/175/1 176/176/1
f 177/177/1 178/178/1 179/179/1 180/180/1
f 181/181/1 182/182/1 183/183/1 184/184/1
f 185/185/1 186/186/1 187/187/1 188/188/1
f 189/189/1 190/190/1 191/191/1 192/192/1
f 193/193/1 194/194/1 195/195/1 196/196/1
f 197/197/1 198/198/1 199/199/1 200/200/1
f 201/201/1 202/202/1 203/203/1 204/204/1
f 205/205/1 206/206/1 207/207/1 208/208/1
f 209/209/1 210/210/1 211/211/1 212/212/1
f 213/213/1 214/214/1 215/215/1 216/216/1
f 217/217/1 218/218/1 219/219/1 220/220/1
f 221/221/1 222/222/1 223/223/1 224/224/1
f 225/225/1 226/226/1 227/227/1 228/228/1
f 229/229/1 230/230/1 231/231/1 232/232/1
f 233/233/1 234/234/1 235/235/1 236/236/1
f 237/237/1 238/238/1 239/239/1 240/240/1
f 241/241/1 242/242/1 243/243/1 244/244/1
f 245/245/1 246/246/1 247/247/1 248/248/1

