# Tiled2Unity generated file. Do not modify by hand.
# Wavefront file for 'Haus06k1_mesh_0003.obj'

# Vertices (Count = 28)
v -256 -192 0
v -288 -192 0
v -288 -160 0
v -256 -160 0
v -224 -192 0
v -256 -192 0
v -256 -160 0
v -224 -160 0
v -256 -224 0
v -288 -224 0
v -288 -192 0
v -256 -192 0
v -224 -224 0
v -256 -224 0
v -256 -192 0
v -224 -192 0
v -544 -320 0
v -576 -320 0
v -576 -288 0
v -544 -288 0
v -544 -352 0
v -576 -352 0
v -576 -320 0
v -544 -320 0
v -544 -384 0
v -576 -384 0
v -576 -352 0
v -544 -352 0

# Texture cooridinates (Count = 17)
vt 0.21875 0.375
vt 0.25 0.375
vt 0.25 0.40625
vt 0.21875 0.40625
vt 0.1875 0.375
vt 0.1875 0.40625
vt 0.21875 0.34375
vt 0.25 0.34375
vt 0.1875 0.34375
vt 0.71875 0.1875
vt 0.75 0.1875
vt 0.75 0.21875
vt 0.71875 0.21875
vt 0.71875 0.15625
vt 0.75 0.15625
vt 0.71875 0.125
vt 0.75 0.125

# Normal
vn 0 0 -1

# Mesh description
g Haus06k1_mesh_0003

# Faces
f 1/1/1 2/2/1 3/3/1 4/4/1
f 5/5/1 6/1/1 7/4/1 8/6/1
f 9/7/1 10/8/1 11/2/1 12/1/1
f 13/9/1 14/7/1 15/1/1 16/5/1
f 17/10/1 18/11/1 19/12/1 20/13/1
f 21/14/1 22/15/1 23/11/1 24/10/1
f 25/16/1 26/17/1 27/15/1 28/14/1

