# Tiled2Unity generated file. Do not modify by hand.
# Wavefront file for 'Haus02_mesh_0002.obj'

# Vertices (Count = 104)
v -448 -192 0
v -480 -192 0
v -480 -160 0
v -448 -160 0
v -416 -192 0
v -448 -192 0
v -448 -160 0
v -416 -160 0
v -384 -192 0
v -416 -192 0
v -416 -160 0
v -384 -160 0
v -288 -192 0
v -320 -192 0
v -320 -160 0
v -288 -160 0
v -256 -192 0
v -288 -192 0
v -288 -160 0
v -256 -160 0
v -224 -192 0
v -256 -192 0
v -256 -160 0
v -224 -160 0
v -192 -192 0
v -224 -192 0
v -224 -160 0
v -192 -160 0
v -448 -224 0
v -480 -224 0
v -480 -192 0
v -448 -192 0
v -416 -224 0
v -448 -224 0
v -448 -192 0
v -416 -192 0
v -384 -224 0
v -416 -224 0
v -416 -192 0
v -384 -192 0
v -288 -224 0
v -320 -224 0
v -320 -192 0
v -288 -192 0
v -256 -224 0
v -288 -224 0
v -288 -192 0
v -256 -192 0
v -224 -224 0
v -256 -224 0
v -256 -192 0
v -224 -192 0
v -192 -224 0
v -224 -224 0
v -224 -192 0
v -192 -192 0
v -448 -256 0
v -480 -256 0
v -480 -224 0
v -448 -224 0
v -416 -256 0
v -448 -256 0
v -448 -224 0
v -416 -224 0
v -288 -256 0
v -320 -256 0
v -320 -224 0
v -288 -224 0
v -256 -256 0
v -288 -256 0
v -288 -224 0
v -256 -224 0
v -224 -256 0
v -256 -256 0
v -256 -224 0
v -224 -224 0
v -192 -256 0
v -224 -256 0
v -224 -224 0
v -192 -224 0
v -128 -288 0
v -160 -288 0
v -160 -256 0
v -128 -256 0
v -448 -320 0
v -480 -320 0
v -480 -288 0
v -448 -288 0
v -448 -352 0
v -480 -352 0
v -480 -320 0
v -448 -320 0
v -96 -352 0
v -128 -352 0
v -128 -320 0
v -96 -320 0
v -384 -384 0
v -416 -384 0
v -416 -352 0
v -384 -352 0
v -96 -384 0
v -128 -384 0
v -128 -352 0
v -96 -352 0

# Texture cooridinates (Count = 57)
vt 0.6875 0.40625
vt 0.71875 0.40625
vt 0.71875 0.4375
vt 0.6875 0.4375
vt 0.65625 0.40625
vt 0.65625 0.4375
vt 0.5625 0.71875
vt 0.59375 0.71875
vt 0.59375 0.75
vt 0.5625 0.75
vt 0.59375 0.875
vt 0.625 0.875
vt 0.625 0.90625
vt 0.59375 0.90625
vt 0.5625 0.875
vt 0.5625 0.90625
vt 0.53125 0.875
vt 0.53125 0.90625
vt 0.5 0.875
vt 0.5 0.90625
vt 0.6875 0.375
vt 0.71875 0.375
vt 0.65625 0.375
vt 0.5625 0.6875
vt 0.59375 0.6875
vt 0.59375 0.84375
vt 0.625 0.84375
vt 0.5625 0.84375
vt 0.53125 0.84375
vt 0.5 0.84375
vt 0.6875 0.34375
vt 0.71875 0.34375
vt 0.65625 0.34375
vt 0.59375 0.8125
vt 0.625 0.8125
vt 0.5625 0.8125
vt 0.53125 0.8125
vt 0.5 0.8125
vt 0.625 0.4375
vt 0.65625 0.46875
vt 0.625 0.46875
vt 0.6875 0.875
vt 0.71875 0.875
vt 0.71875 0.90625
vt 0.6875 0.90625
vt 0.6875 0.84375
vt 0.71875 0.84375
vt 0.65625 0.5625
vt 0.6875 0.5625
vt 0.6875 0.59375
vt 0.65625 0.59375
vt 0.71875 0.71875
vt 0.75 0.71875
vt 0.75 0.75
vt 0.71875 0.75
vt 0.65625 0.53125
vt 0.6875 0.53125

# Normal
vn 0 0 -1

# Mesh description
g Haus02_mesh_0002

# Faces
f 1/1/1 2/2/1 3/3/1 4/4/1
f 5/5/1 6/1/1 7/4/1 8/6/1
f 9/7/1 10/8/1 11/9/1 12/10/1
f 13/11/1 14/12/1 15/13/1 16/14/1
f 17/15/1 18/11/1 19/14/1 20/16/1
f 21/17/1 22/15/1 23/16/1 24/18/1
f 25/19/1 26/17/1 27/18/1 28/20/1
f 29/21/1 30/22/1 31/2/1 32/1/1
f 33/23/1 34/21/1 35/1/1 36/5/1
f 37/24/1 38/25/1 39/8/1 40/7/1
f 41/26/1 42/27/1 43/12/1 44/11/1
f 45/28/1 46/26/1 47/11/1 48/15/1
f 49/29/1 50/28/1 51/15/1 52/17/1
f 53/30/1 54/29/1 55/17/1 56/19/1
f 57/31/1 58/32/1 59/22/1 60/21/1
f 61/33/1 62/31/1 63/21/1 64/23/1
f 65/34/1 66/35/1 67/27/1 68/26/1
f 69/36/1 70/34/1 71/26/1 72/28/1
f 73/37/1 74/36/1 75/28/1 76/29/1
f 77/38/1 78/37/1 79/29/1 80/30/1
f 81/39/1 82/6/1 83/40/1 84/41/1
f 85/42/1 86/43/1 87/44/1 88/45/1
f 89/46/1 90/47/1 91/43/1 92/42/1
f 93/48/1 94/49/1 95/50/1 96/51/1
f 97/52/1 98/53/1 99/54/1 100/55/1
f 101/56/1 102/57/1 103/49/1 104/48/1

