# Tiled2Unity generated file. Do not modify by hand.
# Wavefront file for 'Haus03_mesh_0002.obj'

# Vertices (Count = 96)
v -320 -128 0
v -352 -128 0
v -352 -96 0
v -320 -96 0
v -320 -160 0
v -352 -160 0
v -352 -128 0
v -320 -128 0
v -224 -160 0
v -256 -160 0
v -256 -128 0
v -224 -128 0
v -192 -160 0
v -224 -160 0
v -224 -128 0
v -192 -128 0
v -480 -192 0
v -512 -192 0
v -512 -160 0
v -480 -160 0
v -448 -192 0
v -480 -192 0
v -480 -160 0
v -448 -160 0
v -416 -192 0
v -448 -192 0
v -448 -160 0
v -416 -160 0
v -320 -192 0
v -352 -192 0
v -352 -160 0
v -320 -160 0
v -224 -192 0
v -256 -192 0
v -256 -160 0
v -224 -160 0
v -192 -192 0
v -224 -192 0
v -224 -160 0
v -192 -160 0
v -128 -192 0
v -160 -192 0
v -160 -160 0
v -128 -160 0
v -480 -224 0
v -512 -224 0
v -512 -192 0
v -480 -192 0
v -448 -224 0
v -480 -224 0
v -480 -192 0
v -448 -192 0
v -416 -224 0
v -448 -224 0
v -448 -192 0
v -416 -192 0
v -192 -256 0
v -224 -256 0
v -224 -224 0
v -192 -224 0
v -480 -288 0
v -512 -288 0
v -512 -256 0
v -480 -256 0
v -448 -288 0
v -480 -288 0
v -480 -256 0
v -448 -256 0
v -256 -288 0
v -288 -288 0
v -288 -256 0
v -256 -256 0
v -128 -288 0
v -160 -288 0
v -160 -256 0
v -128 -256 0
v -480 -320 0
v -512 -320 0
v -512 -288 0
v -480 -288 0
v -448 -320 0
v -480 -320 0
v -480 -288 0
v -448 -288 0
v -192 -320 0
v -224 -320 0
v -224 -288 0
v -192 -288 0
v -480 -352 0
v -512 -352 0
v -512 -320 0
v -480 -320 0
v -448 -352 0
v -480 -352 0
v -480 -320 0
v -448 -320 0

# Texture cooridinates (Count = 58)
vt 0.84375 0.71875
vt 0.875 0.71875
vt 0.875 0.75
vt 0.84375 0.75
vt 0.78125 0.6875
vt 0.8125 0.6875
vt 0.8125 0.71875
vt 0.78125 0.71875
vt 0.625 0.71875
vt 0.65625 0.71875
vt 0.65625 0.75
vt 0.625 0.75
vt 0.59375 0.71875
vt 0.59375 0.75
vt 0.84375 0.4375
vt 0.875 0.4375
vt 0.875 0.46875
vt 0.84375 0.46875
vt 0.8125 0.4375
vt 0.8125 0.46875
vt 0.78125 0.4375
vt 0.78125 0.46875
vt 0.78125 0.65625
vt 0.8125 0.65625
vt 0.625 0.6875
vt 0.65625 0.6875
vt 0.59375 0.6875
vt 0.625 0.625
vt 0.65625 0.625
vt 0.65625 0.65625
vt 0.625 0.65625
vt 0.84375 0.40625
vt 0.875 0.40625
vt 0.8125 0.40625
vt 0.78125 0.40625
vt 0.71875 0.5625
vt 0.75 0.5625
vt 0.75 0.59375
vt 0.71875 0.59375
vt 0.6875 0.5
vt 0.71875 0.5
vt 0.71875 0.53125
vt 0.6875 0.53125
vt 0.65625 0.5
vt 0.65625 0.53125
vt 0.78125 0.53125
vt 0.8125 0.53125
vt 0.8125 0.5625
vt 0.78125 0.5625
vt 0.75 0.53125
vt 0.6875 0.46875
vt 0.71875 0.46875
vt 0.65625 0.46875
vt 0.8125 0.59375
vt 0.78125 0.59375
vt 0.6875 0.4375
vt 0.71875 0.4375
vt 0.65625 0.4375

# Normal
vn 0 0 -1

# Mesh description
g Haus03_mesh_0002

# Faces
f 1/1/1 2/2/1 3/3/1 4/4/1
f 5/5/1 6/6/1 7/7/1 8/8/1
f 9/9/1 10/10/1 11/11/1 12/12/1
f 13/13/1 14/9/1 15/12/1 16/14/1
f 17/15/1 18/16/1 19/17/1 20/18/1
f 21/19/1 22/15/1 23/18/1 24/20/1
f 25/21/1 26/19/1 27/20/1 28/22/1
f 29/23/1 30/24/1 31/6/1 32/5/1
f 33/25/1 34/26/1 35/10/1 36/9/1
f 37/27/1 38/25/1 39/9/1 40/13/1
f 41/28/1 42/29/1 43/30/1 44/31/1
f 45/32/1 46/33/1 47/16/1 48/15/1
f 49/34/1 50/32/1 51/15/1 52/19/1
f 53/35/1 54/34/1 55/19/1 56/21/1
f 57/36/1 58/37/1 59/38/1 60/39/1
f 61/40/1 62/41/1 63/42/1 64/43/1
f 65/44/1 66/40/1 67/43/1 68/45/1
f 69/46/1 70/47/1 71/48/1 72/49/1
f 73/42/1 74/50/1 75/37/1 76/36/1
f 77/51/1 78/52/1 79/41/1 80/40/1
f 81/53/1 82/51/1 83/40/1 84/44/1
f 85/49/1 86/48/1 87/54/1 88/55/1
f 89/56/1 90/57/1 91/52/1 92/51/1
f 93/58/1 94/56/1 95/51/1 96/53/1

