# Tiled2Unity generated file. Do not modify by hand.
# Wavefront file for 'Kuca02_mesh_0002.obj'

# Vertices (Count = 48)
v -352 -240 0
v -368 -240 0
v -368 -224 0
v -352 -224 0
v -336 -240 0
v -352 -240 0
v -352 -224 0
v -336 -224 0
v -320 -240 0
v -336 -240 0
v -336 -224 0
v -320 -224 0
v -304 -240 0
v -320 -240 0
v -320 -224 0
v -304 -224 0
v -256 -240 0
v -272 -240 0
v -272 -224 0
v -256 -224 0
v -352 -272 0
v -368 -272 0
v -368 -256 0
v -352 -256 0
v -336 -272 0
v -352 -272 0
v -352 -256 0
v -336 -256 0
v -320 -272 0
v -336 -272 0
v -336 -256 0
v -320 -256 0
v -304 -272 0
v -320 -272 0
v -320 -256 0
v -304 -256 0
v -336 -288 0
v -352 -288 0
v -352 -272 0
v -336 -272 0
v -320 -288 0
v -336 -288 0
v -336 -272 0
v -320 -272 0
v -272 -304 0
v -288 -304 0
v -288 -288 0
v -272 -288 0

# Texture cooridinates (Count = 40)
vt 0.07439825 0.2229508
vt 0.1094092 0.2229508
vt 0.1094092 0.2754098
vt 0.07439825 0.2754098
vt 0.297593 0.2229508
vt 0.3326039 0.2229508
vt 0.3326039 0.2754098
vt 0.297593 0.2754098
vt 0.4091904 0.05573773
vt 0.4442013 0.05573773
vt 0.4442013 0.1081967
vt 0.4091904 0.1081967
vt 0.5579869 0.3344262
vt 0.5929978 0.3344262
vt 0.5929978 0.3868852
vt 0.5579869 0.3868852
vt 0.1115974 0.7245902
vt 0.1466083 0.7245902
vt 0.1466083 0.7770492
vt 0.1115974 0.7770492
vt 0.07439825 0.8918033
vt 0.1094092 0.8918033
vt 0.1094092 0.9442623
vt 0.07439825 0.9442623
vt 0 0.8918033
vt 0.03501094 0.8918033
vt 0.03501094 0.9442623
vt 0 0.9442623
vt 0.07439825 0.7245902
vt 0.1094092 0.7245902
vt 0.1094092 0.7770492
vt 0.07439825 0.7770492
vt 0.03719912 0.8360656
vt 0.07221007 0.8360656
vt 0.07221007 0.8885246
vt 0.03719912 0.8885246
vt 0.595186 0.947541
vt 0.6301969 0.947541
vt 0.6301969 1
vt 0.595186 1

# Normal
vn 0 0 -1

# Mesh description
g Kuca02_mesh_0002

# Faces
f 1/1/1 2/2/1 3/3/1 4/4/1
f 5/5/1 6/6/1 7/7/1 8/8/1
f 9/1/1 10/2/1 11/3/1 12/4/1
f 13/9/1 14/10/1 15/11/1 16/12/1
f 17/13/1 18/14/1 19/15/1 20/16/1
f 21/17/1 22/18/1 23/19/1 24/20/1
f 25/21/1 26/22/1 27/23/1 28/24/1
f 29/25/1 30/26/1 31/27/1 32/28/1
f 33/29/1 34/30/1 35/31/1 36/32/1
f 37/33/1 38/34/1 39/35/1 40/36/1
f 41/33/1 42/34/1 43/35/1 44/36/1
f 45/37/1 46/38/1 47/39/1 48/40/1

