# Tiled2Unity generated file. Do not modify by hand.
# Wavefront file for 'Haus09k1_mesh_0004.obj'

# Vertices (Count = 68)
v -128 -192 0
v -160 -192 0
v -160 -160 0
v -128 -160 0
v -128 -224 0
v -160 -224 0
v -160 -192 0
v -128 -192 0
v -128 -256 0
v -160 -256 0
v -160 -224 0
v -128 -224 0
v -128 -288 0
v -160 -288 0
v -160 -256 0
v -128 -256 0
v -352 -384 0
v -384 -384 0
v -384 -352 0
v -352 -352 0
v -320 -384 0
v -352 -384 0
v -352 -352 0
v -320 -352 0
v -288 -384 0
v -320 -384 0
v -320 -352 0
v -288 -352 0
v -128 -384 0
v -160 -384 0
v -160 -352 0
v -128 -352 0
v -512 -416 0
v -544 -416 0
v -544 -384 0
v -512 -384 0
v -480 -416 0
v -512 -416 0
v -512 -384 0
v -480 -384 0
v -448 -416 0
v -480 -416 0
v -480 -384 0
v -448 -384 0
v -352 -416 0
v -384 -416 0
v -384 -384 0
v -352 -384 0
v -320 -416 0
v -352 -416 0
v -352 -384 0
v -320 -384 0
v -288 -416 0
v -320 -416 0
v -320 -384 0
v -288 -384 0
v -352 -448 0
v -384 -448 0
v -384 -416 0
v -352 -416 0
v -320 -448 0
v -352 -448 0
v -352 -416 0
v -320 -416 0
v -288 -448 0
v -320 -448 0
v -320 -416 0
v -288 -416 0

# Texture cooridinates (Count = 42)
vt 0.46875 0.5625
vt 0.5 0.5625
vt 0.5 0.59375
vt 0.46875 0.59375
vt 0.46875 0.53125
vt 0.5 0.53125
vt 0.875 0.71875
vt 0.90625 0.71875
vt 0.90625 0.75
vt 0.875 0.75
vt 0.875 0.6875
vt 0.90625 0.6875
vt 0.59375 0.5
vt 0.625 0.5
vt 0.625 0.53125
vt 0.59375 0.53125
vt 0.5625 0.5
vt 0.5625 0.53125
vt 0.53125 0.5
vt 0.53125 0.53125
vt 0.9375 0.75
vt 0.9375 0.78125
vt 0.90625 0.78125
vt 0.8125 0.78125
vt 0.84375 0.78125
vt 0.84375 0.8125
vt 0.8125 0.8125
vt 0.59375 0.625
vt 0.625 0.625
vt 0.625 0.65625
vt 0.59375 0.65625
vt 0.875 0.78125
vt 0.90625 0.8125
vt 0.875 0.8125
vt 0.59375 0.46875
vt 0.625 0.46875
vt 0.5625 0.46875
vt 0.53125 0.46875
vt 0.59375 0.4375
vt 0.625 0.4375
vt 0.5625 0.4375
vt 0.53125 0.4375

# Normal
vn 0 0 -1

# Mesh description
g Haus09k1_mesh_0004

# Faces
f 1/1/1 2/2/1 3/3/1 4/4/1
f 5/5/1 6/6/1 7/2/1 8/1/1
f 9/7/1 10/8/1 11/9/1 12/10/1
f 13/11/1 14/12/1 15/8/1 16/7/1
f 17/13/1 18/14/1 19/15/1 20/16/1
f 21/17/1 22/13/1 23/16/1 24/18/1
f 25/19/1 26/17/1 27/18/1 28/20/1
f 29/9/1 30/21/1 31/22/1 32/23/1
f 33/24/1 34/25/1 35/26/1 36/27/1
f 37/28/1 38/29/1 39/30/1 40/31/1
f 41/32/1 42/23/1 43/33/1 44/34/1
f 45/35/1 46/36/1 47/14/1 48/13/1
f 49/37/1 50/35/1 51/13/1 52/17/1
f 53/38/1 54/37/1 55/17/1 56/19/1
f 57/39/1 58/40/1 59/36/1 60/35/1
f 61/41/1 62/39/1 63/35/1 64/37/1
f 65/42/1 66/41/1 67/37/1 68/38/1

