# Tiled2Unity generated file. Do not modify by hand.
# Wavefront file for 'Haus08k2_mesh_0007.obj'

# Vertices (Count = 16)
v -256 -384 0
v -288 -384 0
v -288 -352 0
v -256 -352 0
v -224 -384 0
v -256 -384 0
v -256 -352 0
v -224 -352 0
v -256 -416 0
v -288 -416 0
v -288 -384 0
v -256 -384 0
v -224 -416 0
v -256 -416 0
v -256 -384 0
v -224 -384 0

# Texture cooridinates (Count = 9)
vt 0.6875 0.8125
vt 0.75 0.8125
vt 0.75 0.875
vt 0.6875 0.875
vt 0.625 0.8125
vt 0.625 0.875
vt 0.6875 0.75
vt 0.75 0.75
vt 0.625 0.75

# Normal
vn 0 0 -1

# Mesh description
g Haus08k2_mesh_0007

# Faces
f 1/1/1 2/2/1 3/3/1 4/4/1
f 5/5/1 6/1/1 7/4/1 8/6/1
f 9/7/1 10/8/1 11/2/1 12/1/1
f 13/9/1 14/7/1 15/1/1 16/5/1

