# Tiled2Unity generated file. Do not modify by hand.
# Wavefront file for 'Haus08k2_mesh_0005.obj'

# Vertices (Count = 48)
v -640 -352 0
v -672 -352 0
v -672 -320 0
v -640 -320 0
v -608 -352 0
v -640 -352 0
v -640 -320 0
v -608 -320 0
v -96 -352 0
v -128 -352 0
v -128 -320 0
v -96 -320 0
v -64 -352 0
v -96 -352 0
v -96 -320 0
v -64 -320 0
v -640 -384 0
v -672 -384 0
v -672 -352 0
v -640 -352 0
v -608 -384 0
v -640 -384 0
v -640 -352 0
v -608 -352 0
v -96 -384 0
v -128 -384 0
v -128 -352 0
v -96 -352 0
v -64 -384 0
v -96 -384 0
v -96 -352 0
v -64 -352 0
v -640 -416 0
v -672 -416 0
v -672 -384 0
v -640 -384 0
v -608 -416 0
v -640 -416 0
v -640 -384 0
v -608 -384 0
v -96 -416 0
v -128 -416 0
v -128 -384 0
v -96 -384 0
v -64 -416 0
v -96 -416 0
v -96 -384 0
v -64 -384 0

# Texture cooridinates (Count = 20)
vt 0.78125 0.96875
vt 0.8125 0.96875
vt 0.8125 1
vt 0.78125 1
vt 0.75 0.96875
vt 0.75 1
vt 0.84375 0.96875
vt 0.875 0.96875
vt 0.875 1
vt 0.84375 1
vt 0.78125 0.9375
vt 0.8125 0.9375
vt 0.75 0.9375
vt 0.84375 0.9375
vt 0.875 0.9375
vt 0.78125 0.90625
vt 0.8125 0.90625
vt 0.75 0.90625
vt 0.84375 0.90625
vt 0.875 0.90625

# Normal
vn 0 0 -1

# Mesh description
g Haus08k2_mesh_0005

# Faces
f 1/1/1 2/2/1 3/3/1 4/4/1
f 5/5/1 6/1/1 7/4/1 8/6/1
f 9/7/1 10/8/1 11/9/1 12/10/1
f 13/2/1 14/7/1 15/10/1 16/3/1
f 17/11/1 18/12/1 19/2/1 20/1/1
f 21/13/1 22/11/1 23/1/1 24/5/1
f 25/14/1 26/15/1 27/8/1 28/7/1
f 29/12/1 30/14/1 31/7/1 32/2/1
f 33/16/1 34/17/1 35/12/1 36/11/1
f 37/18/1 38/16/1 39/11/1 40/13/1
f 41/19/1 42/20/1 43/15/1 44/14/1
f 45/17/1 46/19/1 47/14/1 48/12/1

