# Tiled2Unity generated file. Do not modify by hand.
# Wavefront file for 'Klub1k_mesh_0007.obj'

# Vertices (Count = 108)
v -768 -288 0
v -800 -288 0
v -800 -256 0
v -768 -256 0
v -736 -288 0
v -768 -288 0
v -768 -256 0
v -736 -256 0
v -704 -288 0
v -736 -288 0
v -736 -256 0
v -704 -256 0
v -672 -288 0
v -704 -288 0
v -704 -256 0
v -672 -256 0
v -640 -288 0
v -672 -288 0
v -672 -256 0
v -640 -256 0
v -608 -288 0
v -640 -288 0
v -640 -256 0
v -608 -256 0
v -576 -288 0
v -608 -288 0
v -608 -256 0
v -576 -256 0
v -544 -288 0
v -576 -288 0
v -576 -256 0
v -544 -256 0
v -512 -288 0
v -544 -288 0
v -544 -256 0
v -512 -256 0
v -480 -288 0
v -512 -288 0
v -512 -256 0
v -480 -256 0
v -448 -288 0
v -480 -288 0
v -480 -256 0
v -448 -256 0
v -416 -288 0
v -448 -288 0
v -448 -256 0
v -416 -256 0
v -384 -288 0
v -416 -288 0
v -416 -256 0
v -384 -256 0
v -352 -288 0
v -384 -288 0
v -384 -256 0
v -352 -256 0
v -352 -320 0
v -384 -320 0
v -384 -288 0
v -352 -288 0
v -704 -352 0
v -736 -352 0
v -736 -320 0
v -704 -320 0
v -672 -352 0
v -704 -352 0
v -704 -320 0
v -672 -320 0
v -640 -352 0
v -672 -352 0
v -672 -320 0
v -640 -320 0
v -608 -352 0
v -640 -352 0
v -640 -320 0
v -608 -320 0
v -576 -352 0
v -608 -352 0
v -608 -320 0
v -576 -320 0
v -544 -352 0
v -576 -352 0
v -576 -320 0
v -544 -320 0
v -512 -352 0
v -544 -352 0
v -544 -320 0
v -512 -320 0
v -480 -352 0
v -512 -352 0
v -512 -320 0
v -480 -320 0
v -448 -352 0
v -480 -352 0
v -480 -320 0
v -448 -320 0
v -416 -352 0
v -448 -352 0
v -448 -320 0
v -416 -320 0
v -384 -352 0
v -416 -352 0
v -416 -320 0
v -384 -320 0
v -352 -352 0
v -384 -352 0
v -384 -320 0
v -352 -320 0

# Texture cooridinates (Count = 14)
vt 0.875 0.9375
vt 0.9375 0.9375
vt 0.9375 1
vt 0.875 1
vt 0.8125 0.9375
vt 0.8125 1
vt 0.625 0.9375
vt 0.6875 0.9375
vt 0.6875 1
vt 0.625 1
vt 0.5625 0.9375
vt 0.5625 1
vt 0.5 0.9375
vt 0.5 1

# Normal
vn 0 0 -1

# Mesh description
g Klub1k_mesh_0007

# Faces
f 1/1/1 2/2/1 3/3/1 4/4/1
f 5/5/1 6/1/1 7/4/1 8/6/1
f 9/1/1 10/2/1 11/3/1 12/4/1
f 13/5/1 14/1/1 15/4/1 16/6/1
f 17/1/1 18/2/1 19/3/1 20/4/1
f 21/5/1 22/1/1 23/4/1 24/6/1
f 25/1/1 26/2/1 27/3/1 28/4/1
f 29/5/1 30/1/1 31/4/1 32/6/1
f 33/1/1 34/2/1 35/3/1 36/4/1
f 37/5/1 38/1/1 39/4/1 40/6/1
f 41/1/1 42/2/1 43/3/1 44/4/1
f 45/5/1 46/1/1 47/4/1 48/6/1
f 49/1/1 50/2/1 51/3/1 52/4/1
f 53/5/1 54/1/1 55/4/1 56/6/1
f 57/7/1 58/8/1 59/9/1 60/10/1
f 61/11/1 62/7/1 63/10/1 64/12/1
f 65/13/1 66/11/1 67/12/1 68/14/1
f 69/11/1 70/7/1 71/10/1 72/12/1
f 73/13/1 74/11/1 75/12/1 76/14/1
f 77/11/1 78/7/1 79/10/1 80/12/1
f 81/13/1 82/11/1 83/12/1 84/14/1
f 85/11/1 86/7/1 87/10/1 88/12/1
f 89/13/1 90/11/1 91/12/1 92/14/1
f 93/11/1 94/7/1 95/10/1 96/12/1
f 97/13/1 98/11/1 99/12/1 100/14/1
f 101/11/1 102/7/1 103/10/1 104/12/1
f 105/13/1 106/11/1 107/12/1 108/14/1

