# Tiled2Unity generated file. Do not modify by hand.
# Wavefront file for 'Klub1k_mesh_0009.obj'

# Vertices (Count = 132)
v -736 -416 0
v -768 -416 0
v -768 -384 0
v -736 -384 0
v -256 -416 0
v -288 -416 0
v -288 -384 0
v -256 -384 0
v -768 -448 0
v -800 -448 0
v -800 -416 0
v -768 -416 0
v -736 -448 0
v -768 -448 0
v -768 -416 0
v -736 -416 0
v -704 -448 0
v -736 -448 0
v -736 -416 0
v -704 -416 0
v -288 -448 0
v -320 -448 0
v -320 -416 0
v -288 -416 0
v -256 -448 0
v -288 -448 0
v -288 -416 0
v -256 -416 0
v -224 -448 0
v -256 -448 0
v -256 -416 0
v -224 -416 0
v -736 -480 0
v -768 -480 0
v -768 -448 0
v -736 -448 0
v -256 -480 0
v -288 -480 0
v -288 -448 0
v -256 -448 0
v -608 -512 0
v -640 -512 0
v -640 -480 0
v -608 -480 0
v -352 -512 0
v -384 -512 0
v -384 -480 0
v -352 -480 0
v -256 -512 0
v -288 -512 0
v -288 -480 0
v -256 -480 0
v -768 -544 0
v -800 -544 0
v -800 -512 0
v -768 -512 0
v -736 -544 0
v -768 -544 0
v -768 -512 0
v -736 -512 0
v -704 -544 0
v -736 -544 0
v -736 -512 0
v -704 -512 0
v -672 -544 0
v -704 -544 0
v -704 -512 0
v -672 -512 0
v -640 -544 0
v -672 -544 0
v -672 -512 0
v -640 -512 0
v -608 -544 0
v -640 -544 0
v -640 -512 0
v -608 -512 0
v -576 -544 0
v -608 -544 0
v -608 -512 0
v -576 -512 0
v -384 -544 0
v -416 -544 0
v -416 -512 0
v -384 -512 0
v -352 -544 0
v -384 -544 0
v -384 -512 0
v -352 -512 0
v -320 -544 0
v -352 -544 0
v -352 -512 0
v -320 -512 0
v -288 -544 0
v -320 -544 0
v -320 -512 0
v -288 -512 0
v -256 -544 0
v -288 -544 0
v -288 -512 0
v -256 -512 0
v -224 -544 0
v -256 -544 0
v -256 -512 0
v -224 -512 0
v -768 -576 0
v -800 -576 0
v -800 -544 0
v -768 -544 0
v -672 -576 0
v -704 -576 0
v -704 -544 0
v -672 -544 0
v -608 -576 0
v -640 -576 0
v -640 -544 0
v -608 -544 0
v -544 -576 0
v -576 -576 0
v -576 -544 0
v -544 -544 0
v -448 -576 0
v -480 -576 0
v -480 -544 0
v -448 -544 0
v -352 -576 0
v -384 -576 0
v -384 -544 0
v -352 -544 0
v -256 -576 0
v -288 -576 0
v -288 -544 0
v -256 -544 0

# Texture cooridinates (Count = 23)
vt 0.875 0.875
vt 0.9375 0.875
vt 0.9375 0.9375
vt 0.875 0.9375
vt 0.8125 0.875
vt 0.8125 0.9375
vt 1 0.9375
vt 1 1
vt 0.9375 1
vt 0.6875 0.625
vt 0.75 0.625
vt 0.75 0.6875
vt 0.6875 0.6875
vt 0.625 0.625
vt 0.625 0.6875
vt 0.75 0.9375
vt 0.8125 1
vt 0.75 1
vt 1 0.875
vt 0.75 0.875
vt 0.75 0.5625
vt 0.8125 0.5625
vt 0.8125 0.625

# Normal
vn 0 0 -1

# Mesh description
g Klub1k_mesh_0009

# Faces
f 1/1/1 2/2/1 3/3/1 4/4/1
f 5/1/1 6/2/1 7/3/1 8/4/1
f 9/1/1 10/2/1 11/3/1 12/4/1
f 13/5/1 14/1/1 15/4/1 16/6/1
f 17/1/1 18/2/1 19/3/1 20/4/1
f 21/1/1 22/2/1 23/3/1 24/4/1
f 25/5/1 26/1/1 27/4/1 28/6/1
f 29/1/1 30/2/1 31/3/1 32/4/1
f 33/1/1 34/2/1 35/3/1 36/4/1
f 37/1/1 38/2/1 39/3/1 40/4/1
f 41/1/1 42/2/1 43/3/1 44/4/1
f 45/1/1 46/2/1 47/3/1 48/4/1
f 49/1/1 50/2/1 51/3/1 52/4/1
f 53/3/1 54/7/1 55/8/1 56/9/1
f 57/10/1 58/11/1 59/12/1 60/13/1
f 61/14/1 62/10/1 63/13/1 64/15/1
f 65/16/1 66/6/1 67/17/1 68/18/1
f 69/1/1 70/2/1 71/3/1 72/4/1
f 73/5/1 74/1/1 75/4/1 76/6/1
f 77/1/1 78/2/1 79/3/1 80/4/1
f 81/1/1 82/2/1 83/3/1 84/4/1
f 85/5/1 86/1/1 87/4/1 88/6/1
f 89/1/1 90/2/1 91/3/1 92/4/1
f 93/1/1 94/2/1 95/3/1 96/4/1
f 97/5/1 98/1/1 99/4/1 100/6/1
f 101/1/1 102/2/1 103/3/1 104/4/1
f 105/2/1 106/19/1 107/7/1 108/3/1
f 109/20/1 110/5/1 111/6/1 112/16/1
f 113/1/1 114/2/1 115/3/1 116/4/1
f 117/21/1 118/22/1 119/23/1 120/11/1
f 121/21/1 122/22/1 123/23/1 124/11/1
f 125/1/1 126/2/1 127/3/1 128/4/1
f 129/1/1 130/2/1 131/3/1 132/4/1

