# Tiled2Unity generated file. Do not modify by hand.
# Wavefront file for 'Klub1k_mesh_0002.obj'

# Vertices (Count = 80)
v -480 -64 0
v -512 -64 0
v -512 -32 0
v -480 -32 0
v -448 -64 0
v -480 -64 0
v -480 -32 0
v -448 -32 0
v -416 -64 0
v -448 -64 0
v -448 -32 0
v -416 -32 0
v -384 -64 0
v -416 -64 0
v -416 -32 0
v -384 -32 0
v -352 -64 0
v -384 -64 0
v -384 -32 0
v -352 -32 0
v -320 -64 0
v -352 -64 0
v -352 -32 0
v -320 -32 0
v -288 -64 0
v -320 -64 0
v -320 -32 0
v -288 -32 0
v -256 -64 0
v -288 -64 0
v -288 -32 0
v -256 -32 0
v -224 -64 0
v -256 -64 0
v -256 -32 0
v -224 -32 0
v -544 -96 0
v -576 -96 0
v -576 -64 0
v -544 -64 0
v -480 -96 0
v -512 -96 0
v -512 -64 0
v -480 -64 0
v -448 -96 0
v -480 -96 0
v -480 -64 0
v -448 -64 0
v -416 -96 0
v -448 -96 0
v -448 -64 0
v -416 -64 0
v -384 -96 0
v -416 -96 0
v -416 -64 0
v -384 -64 0
v -352 -96 0
v -384 -96 0
v -384 -64 0
v -352 -64 0
v -320 -96 0
v -352 -96 0
v -352 -64 0
v -320 -64 0
v -288 -96 0
v -320 -96 0
v -320 -64 0
v -288 -64 0
v -256 -96 0
v -288 -96 0
v -288 -64 0
v -256 -64 0
v -224 -96 0
v -256 -96 0
v -256 -64 0
v -224 -64 0
v -544 -128 0
v -576 -128 0
v -576 -96 0
v -544 -96 0

# Texture cooridinates (Count = 19)
vt 0.75 0.9375
vt 0.8125 0.9375
vt 0.8125 1
vt 0.75 1
vt 0.3125 0.0625
vt 0.375 0.0625
vt 0.375 0.125
vt 0.3125 0.125
vt 0.4375 0.0625
vt 0.5 0.0625
vt 0.5 0.125
vt 0.4375 0.125
vt 0.875 0.9375
vt 0.875 1
vt 0.75 0.875
vt 0.8125 0.875
vt 0.4375 0
vt 0.5 0
vt 0.875 0.875

# Normal
vn 0 0 -1

# Mesh description
g Klub1k_mesh_0002

# Faces
f 1/1/1 2/2/1 3/3/1 4/4/1
f 5/1/1 6/2/1 7/3/1 8/4/1
f 9/1/1 10/2/1 11/3/1 12/4/1
f 13/1/1 14/2/1 15/3/1 16/4/1
f 17/1/1 18/2/1 19/3/1 20/4/1
f 21/5/1 22/6/1 23/7/1 24/8/1
f 25/5/1 26/6/1 27/7/1 28/8/1
f 29/9/1 30/10/1 31/11/1 32/12/1
f 33/5/1 34/6/1 35/7/1 36/8/1
f 37/2/1 38/13/1 39/14/1 40/3/1
f 41/15/1 42/16/1 43/2/1 44/1/1
f 45/15/1 46/16/1 47/2/1 48/1/1
f 49/15/1 50/16/1 51/2/1 52/1/1
f 53/15/1 54/16/1 55/2/1 56/1/1
f 57/15/1 58/16/1 59/2/1 60/1/1
f 61/17/1 62/18/1 63/10/1 64/9/1
f 65/17/1 66/18/1 67/10/1 68/9/1
f 69/17/1 70/18/1 71/10/1 72/9/1
f 73/17/1 74/18/1 75/10/1 76/9/1
f 77/16/1 78/19/1 79/13/1 80/2/1

