# Tiled2Unity generated file. Do not modify by hand.
# Wavefront file for 'Klub1k_mesh_0004.obj'

# Vertices (Count = 44)
v -768 -256 0
v -800 -256 0
v -800 -224 0
v -768 -224 0
v -736 -256 0
v -768 -256 0
v -768 -224 0
v -736 -224 0
v -704 -256 0
v -736 -256 0
v -736 -224 0
v -704 -224 0
v -672 -256 0
v -704 -256 0
v -704 -224 0
v -672 -224 0
v -640 -256 0
v -672 -256 0
v -672 -224 0
v -640 -224 0
v -576 -256 0
v -608 -256 0
v -608 -224 0
v -576 -224 0
v -480 -256 0
v -512 -256 0
v -512 -224 0
v -480 -224 0
v -448 -256 0
v -480 -256 0
v -480 -224 0
v -448 -224 0
v -416 -256 0
v -448 -256 0
v -448 -224 0
v -416 -224 0
v -384 -256 0
v -416 -256 0
v -416 -224 0
v -384 -224 0
v -768 -544 0
v -800 -544 0
v -800 -512 0
v -768 -512 0

# Texture cooridinates (Count = 6)
vt 0.125 0.2666667
vt 0.25 0.2666667
vt 0.25 0.3333333
vt 0.125 0.3333333
vt 0 0.2666667
vt 0 0.3333333

# Normal
vn 0 0 -1

# Mesh description
g Klub1k_mesh_0004

# Faces
f 1/1/1 2/2/1 3/3/1 4/4/1
f 5/1/1 6/2/1 7/3/1 8/4/1
f 9/1/1 10/2/1 11/3/1 12/4/1
f 13/1/1 14/2/1 15/3/1 16/4/1
f 17/5/1 18/1/1 19/4/1 20/6/1
f 21/1/1 22/2/1 23/3/1 24/4/1
f 25/5/1 26/1/1 27/4/1 28/6/1
f 29/1/1 30/2/1 31/3/1 32/4/1
f 33/1/1 34/2/1 35/3/1 36/4/1
f 37/1/1 38/2/1 39/3/1 40/4/1
f 41/5/1 42/1/1 43/4/1 44/6/1

