# Tiled2Unity generated file. Do not modify by hand.
# Wavefront file for 'Haus09k2_mesh_0004.obj'

# Vertices (Count = 32)
v -512 -256 0
v -544 -256 0
v -544 -224 0
v -512 -224 0
v -448 -256 0
v -480 -256 0
v -480 -224 0
v -448 -224 0
v -512 -288 0
v -544 -288 0
v -544 -256 0
v -512 -256 0
v -448 -288 0
v -480 -288 0
v -480 -256 0
v -448 -256 0
v -512 -416 0
v -544 -416 0
v -544 -384 0
v -512 -384 0
v -480 -416 0
v -512 -416 0
v -512 -384 0
v -480 -384 0
v -512 -448 0
v -544 -448 0
v -544 -416 0
v -512 -416 0
v -480 -448 0
v -512 -448 0
v -512 -416 0
v -480 -416 0

# Texture cooridinates (Count = 20)
vt 0.375 0.0625
vt 0.4375 0.0625
vt 0.4375 0.125
vt 0.375 0.125
vt 0.25 0.0625
vt 0.3125 0.0625
vt 0.3125 0.125
vt 0.25 0.125
vt 0.375 0
vt 0.4375 0
vt 0.25 0
vt 0.3125 0
vt 0.1875 0.1875
vt 0.25 0.1875
vt 0.25 0.25
vt 0.1875 0.25
vt 0.125 0.1875
vt 0.125 0.25
vt 0.1875 0.125
vt 0.125 0.125

# Normal
vn 0 0 -1

# Mesh description
g Haus09k2_mesh_0004

# Faces
f 1/1/1 2/2/1 3/3/1 4/4/1
f 5/5/1 6/6/1 7/7/1 8/8/1
f 9/9/1 10/10/1 11/2/1 12/1/1
f 13/11/1 14/12/1 15/6/1 16/5/1
f 17/13/1 18/14/1 19/15/1 20/16/1
f 21/17/1 22/13/1 23/16/1 24/18/1
f 25/19/1 26/8/1 27/14/1 28/13/1
f 29/20/1 30/19/1 31/13/1 32/17/1

