# Tiled2Unity generated file. Do not modify by hand.
# Wavefront file for 'Haus01_mesh_0002.obj'

# Vertices (Count = 76)
v -480 -192 0
v -512 -192 0
v -512 -160 0
v -480 -160 0
v -448 -192 0
v -480 -192 0
v -480 -160 0
v -448 -160 0
v -320 -192 0
v -352 -192 0
v -352 -160 0
v -320 -160 0
v -288 -192 0
v -320 -192 0
v -320 -160 0
v -288 -160 0
v -256 -192 0
v -288 -192 0
v -288 -160 0
v -256 -160 0
v -224 -192 0
v -256 -192 0
v -256 -160 0
v -224 -160 0
v -160 -192 0
v -192 -192 0
v -192 -160 0
v -160 -160 0
v -480 -224 0
v -512 -224 0
v -512 -192 0
v -480 -192 0
v -448 -224 0
v -480 -224 0
v -480 -192 0
v -448 -192 0
v -320 -224 0
v -352 -224 0
v -352 -192 0
v -320 -192 0
v -288 -224 0
v -320 -224 0
v -320 -192 0
v -288 -192 0
v -256 -224 0
v -288 -224 0
v -288 -192 0
v -256 -192 0
v -224 -224 0
v -256 -224 0
v -256 -192 0
v -224 -192 0
v -160 -224 0
v -192 -224 0
v -192 -192 0
v -160 -192 0
v -480 -256 0
v -512 -256 0
v -512 -224 0
v -480 -224 0
v -448 -256 0
v -480 -256 0
v -480 -224 0
v -448 -224 0
v -288 -256 0
v -320 -256 0
v -320 -224 0
v -288 -224 0
v -256 -256 0
v -288 -256 0
v -288 -224 0
v -256 -224 0
v -160 -256 0
v -192 -256 0
v -192 -224 0
v -160 -224 0

# Texture cooridinates (Count = 37)
vt 0.78125 0.96875
vt 0.8125 0.96875
vt 0.8125 1
vt 0.78125 1
vt 0.75 0.96875
vt 0.75 1
vt 0.46875 0.375
vt 0.5 0.375
vt 0.5 0.40625
vt 0.46875 0.40625
vt 0.46875 0.78125
vt 0.5 0.78125
vt 0.5 0.8125
vt 0.46875 0.8125
vt 0.4375 0.78125
vt 0.4375 0.8125
vt 0.4375 0.375
vt 0.4375 0.40625
vt 0.71875 0.96875
vt 0.71875 1
vt 0.78125 0.9375
vt 0.8125 0.9375
vt 0.75 0.9375
vt 0.46875 0.34375
vt 0.5 0.34375
vt 0.46875 0.75
vt 0.5 0.75
vt 0.4375 0.75
vt 0.4375 0.34375
vt 0.71875 0.9375
vt 0.78125 0.90625
vt 0.8125 0.90625
vt 0.75 0.90625
vt 0.46875 0.71875
vt 0.5 0.71875
vt 0.4375 0.71875
vt 0.71875 0.90625

# Normal
vn 0 0 -1

# Mesh description
g Haus01_mesh_0002

# Faces
f 1/1/1 2/2/1 3/3/1 4/4/1
f 5/5/1 6/1/1 7/4/1 8/6/1
f 9/7/1 10/8/1 11/9/1 12/10/1
f 13/11/1 14/12/1 15/13/1 16/14/1
f 17/15/1 18/11/1 19/14/1 20/16/1
f 21/17/1 22/7/1 23/10/1 24/18/1
f 25/19/1 26/5/1 27/6/1 28/20/1
f 29/21/1 30/22/1 31/2/1 32/1/1
f 33/23/1 34/21/1 35/1/1 36/5/1
f 37/24/1 38/25/1 39/8/1 40/7/1
f 41/26/1 42/27/1 43/12/1 44/11/1
f 45/28/1 46/26/1 47/11/1 48/15/1
f 49/29/1 50/24/1 51/7/1 52/17/1
f 53/30/1 54/23/1 55/5/1 56/19/1
f 57/31/1 58/32/1 59/22/1 60/21/1
f 61/33/1 62/31/1 63/21/1 64/23/1
f 65/34/1 66/35/1 67/27/1 68/26/1
f 69/36/1 70/34/1 71/26/1 72/28/1
f 73/37/1 74/33/1 75/23/1 76/30/1

