# Tiled2Unity generated file. Do not modify by hand.
# Wavefront file for 'Haus01_mesh_0003.obj'

# Vertices (Count = 52)
v -416 -192 0
v -448 -192 0
v -448 -160 0
v -416 -160 0
v -416 -224 0
v -448 -224 0
v -448 -192 0
v -416 -192 0
v -320 -224 0
v -352 -224 0
v -352 -192 0
v -320 -192 0
v -224 -224 0
v -256 -224 0
v -256 -192 0
v -224 -192 0
v -320 -256 0
v -352 -256 0
v -352 -224 0
v -320 -224 0
v -224 -256 0
v -256 -256 0
v -256 -224 0
v -224 -224 0
v -160 -256 0
v -192 -256 0
v -192 -224 0
v -160 -224 0
v -288 -288 0
v -320 -288 0
v -320 -256 0
v -288 -256 0
v -160 -288 0
v -192 -288 0
v -192 -256 0
v -160 -256 0
v -480 -320 0
v -512 -320 0
v -512 -288 0
v -480 -288 0
v -448 -320 0
v -480 -320 0
v -480 -288 0
v -448 -288 0
v -416 -320 0
v -448 -320 0
v -448 -288 0
v -416 -288 0
v -160 -320 0
v -192 -320 0
v -192 -288 0
v -160 -288 0

# Texture cooridinates (Count = 40)
vt 0.8125 0.78125
vt 0.84375 0.78125
vt 0.84375 0.8125
vt 0.8125 0.8125
vt 0.78125 0.75
vt 0.8125 0.75
vt 0.78125 0.78125
vt 0.46875 0.375
vt 0.5 0.375
vt 0.5 0.40625
vt 0.46875 0.40625
vt 0.4375 0.375
vt 0.4375 0.40625
vt 0.46875 0.34375
vt 0.5 0.34375
vt 0.4375 0.34375
vt 0.90625 0.875
vt 0.9375 0.875
vt 0.9375 0.90625
vt 0.90625 0.90625
vt 0.65625 0.625
vt 0.6875 0.625
vt 0.6875 0.65625
vt 0.65625 0.65625
vt 0.90625 0.84375
vt 0.9375 0.84375
vt 0.90625 0.75
vt 0.9375 0.75
vt 0.9375 0.78125
vt 0.90625 0.78125
vt 0.96875 0.84375
vt 1 0.84375
vt 1 0.875
vt 0.96875 0.875
vt 0.6875 0.8125
vt 0.71875 0.8125
vt 0.71875 0.84375
vt 0.6875 0.84375
vt 0.90625 0.8125
vt 0.9375 0.8125

# Normal
vn 0 0 -1

# Mesh description
g Haus01_mesh_0003

# Faces
f 1/1/1 2/2/1 3/3/1 4/4/1
f 5/5/1 6/6/1 7/1/1 8/7/1
f 9/8/1 10/9/1 11/10/1 12/11/1
f 13/12/1 14/8/1 15/11/1 16/13/1
f 17/14/1 18/15/1 19/9/1 20/8/1
f 21/16/1 22/14/1 23/8/1 24/12/1
f 25/17/1 26/18/1 27/19/1 28/20/1
f 29/21/1 30/22/1 31/23/1 32/24/1
f 33/25/1 34/26/1 35/18/1 36/17/1
f 37/27/1 38/28/1 39/29/1 40/30/1
f 41/31/1 42/32/1 43/33/1 44/34/1
f 45/35/1 46/36/1 47/37/1 48/38/1
f 49/39/1 50/40/1 51/26/1 52/25/1

