# Tiled2Unity generated file. Do not modify by hand.
# Wavefront file for 'Vila1k_mesh_0002.obj'

# Vertices (Count = 216)
v -128 -480 0
v -160 -480 0
v -160 -448 0
v -128 -448 0
v -160 -480 0
v -192 -480 0
v -192 -448 0
v -160 -448 0
v -192 -480 0
v -224 -480 0
v -224 -448 0
v -192 -448 0
v -224 -480 0
v -256 -480 0
v -256 -448 0
v -224 -448 0
v -256 -480 0
v -288 -480 0
v -288 -448 0
v -256 -448 0
v -352 -480 0
v -384 -480 0
v -384 -448 0
v -352 -448 0
v -384 -480 0
v -416 -480 0
v -416 -448 0
v -384 -448 0
v -416 -480 0
v -448 -480 0
v -448 -448 0
v -416 -448 0
v -448 -480 0
v -480 -480 0
v -480 -448 0
v -448 -448 0
v -128 -512 0
v -160 -512 0
v -160 -480 0
v -128 -480 0
v -160 -512 0
v -192 -512 0
v -192 -480 0
v -160 -480 0
v -192 -512 0
v -224 -512 0
v -224 -480 0
v -192 -480 0
v -224 -512 0
v -256 -512 0
v -256 -480 0
v -224 -480 0
v -256 -512 0
v -288 -512 0
v -288 -480 0
v -256 -480 0
v -352 -512 0
v -384 -512 0
v -384 -480 0
v -352 -480 0
v -384 -512 0
v -416 -512 0
v -416 -480 0
v -384 -480 0
v -416 -512 0
v -448 -512 0
v -448 -480 0
v -416 -480 0
v -448 -512 0
v -480 -512 0
v -480 -480 0
v -448 -480 0
v -128 -544 0
v -160 -544 0
v -160 -512 0
v -128 -512 0
v -160 -544 0
v -192 -544 0
v -192 -512 0
v -160 -512 0
v -192 -544 0
v -224 -544 0
v -224 -512 0
v -192 -512 0
v -224 -544 0
v -256 -544 0
v -256 -512 0
v -224 -512 0
v -256 -544 0
v -288 -544 0
v -288 -512 0
v -256 -512 0
v -352 -544 0
v -384 -544 0
v -384 -512 0
v -352 -512 0
v -384 -544 0
v -416 -544 0
v -416 -512 0
v -384 -512 0
v -416 -544 0
v -448 -544 0
v -448 -512 0
v -416 -512 0
v -448 -544 0
v -480 -544 0
v -480 -512 0
v -448 -512 0
v -128 -576 0
v -160 -576 0
v -160 -544 0
v -128 -544 0
v -160 -576 0
v -192 -576 0
v -192 -544 0
v -160 -544 0
v -192 -576 0
v -224 -576 0
v -224 -544 0
v -192 -544 0
v -224 -576 0
v -256 -576 0
v -256 -544 0
v -224 -544 0
v -256 -576 0
v -288 -576 0
v -288 -544 0
v -256 -544 0
v -352 -576 0
v -384 -576 0
v -384 -544 0
v -352 -544 0
v -384 -576 0
v -416 -576 0
v -416 -544 0
v -384 -544 0
v -416 -576 0
v -448 -576 0
v -448 -544 0
v -416 -544 0
v -448 -576 0
v -480 -576 0
v -480 -544 0
v -448 -544 0
v -128 -608 0
v -160 -608 0
v -160 -576 0
v -128 -576 0
v -160 -608 0
v -192 -608 0
v -192 -576 0
v -160 -576 0
v -192 -608 0
v -224 -608 0
v -224 -576 0
v -192 -576 0
v -224 -608 0
v -256 -608 0
v -256 -576 0
v -224 -576 0
v -256 -608 0
v -288 -608 0
v -288 -576 0
v -256 -576 0
v -352 -608 0
v -384 -608 0
v -384 -576 0
v -352 -576 0
v -384 -608 0
v -416 -608 0
v -416 -576 0
v -384 -576 0
v -416 -608 0
v -448 -608 0
v -448 -576 0
v -416 -576 0
v -448 -608 0
v -480 -608 0
v -480 -576 0
v -448 -576 0
v -128 -640 0
v -160 -640 0
v -160 -608 0
v -128 -608 0
v -160 -640 0
v -192 -640 0
v -192 -608 0
v -160 -608 0
v -192 -640 0
v -224 -640 0
v -224 -608 0
v -192 -608 0
v -224 -640 0
v -256 -640 0
v -256 -608 0
v -224 -608 0
v -256 -640 0
v -288 -640 0
v -288 -608 0
v -256 -608 0
v -352 -640 0
v -384 -640 0
v -384 -608 0
v -352 -608 0
v -384 -640 0
v -416 -640 0
v -416 -608 0
v -384 -608 0
v -416 -640 0
v -448 -640 0
v -448 -608 0
v -416 -608 0
v -448 -640 0
v -480 -640 0
v -480 -608 0
v -448 -608 0

# Texture cooridinates (Count = 8)
vt 0.125 0.0625
vt 0.25 0.0625
vt 0.25 0.125
vt 0.125 0.125
vt 0.5 0.0625
vt 0.625 0.0625
vt 0.625 0.125
vt 0.5 0.125

# Normal
vn 0 0 -1

# Mesh description
g Vila1k_mesh_0002

# Faces
f 1/1/1 2/2/1 3/3/1 4/4/1
f 5/1/1 6/2/1 7/3/1 8/4/1
f 9/1/1 10/2/1 11/3/1 12/4/1
f 13/1/1 14/2/1 15/3/1 16/4/1
f 17/1/1 18/2/1 19/3/1 20/4/1
f 21/5/1 22/6/1 23/7/1 24/8/1
f 25/5/1 26/6/1 27/7/1 28/8/1
f 29/5/1 30/6/1 31/7/1 32/8/1
f 33/5/1 34/6/1 35/7/1 36/8/1
f 37/1/1 38/2/1 39/3/1 40/4/1
f 41/1/1 42/2/1 43/3/1 44/4/1
f 45/1/1 46/2/1 47/3/1 48/4/1
f 49/1/1 50/2/1 51/3/1 52/4/1
f 53/1/1 54/2/1 55/3/1 56/4/1
f 57/5/1 58/6/1 59/7/1 60/8/1
f 61/5/1 62/6/1 63/7/1 64/8/1
f 65/5/1 66/6/1 67/7/1 68/8/1
f 69/5/1 70/6/1 71/7/1 72/8/1
f 73/1/1 74/2/1 75/3/1 76/4/1
f 77/1/1 78/2/1 79/3/1 80/4/1
f 81/1/1 82/2/1 83/3/1 84/4/1
f 85/1/1 86/2/1 87/3/1 88/4/1
f 89/1/1 90/2/1 91/3/1 92/4/1
f 93/5/1 94/6/1 95/7/1 96/8/1
f 97/5/1 98/6/1 99/7/1 100/8/1
f 101/5/1 102/6/1 103/7/1 104/8/1
f 105/5/1 106/6/1 107/7/1 108/8/1
f 109/1/1 110/2/1 111/3/1 112/4/1
f 113/1/1 114/2/1 115/3/1 116/4/1
f 117/1/1 118/2/1 119/3/1 120/4/1
f 121/1/1 122/2/1 123/3/1 124/4/1
f 125/1/1 126/2/1 127/3/1 128/4/1
f 129/5/1 130/6/1 131/7/1 132/8/1
f 133/5/1 134/6/1 135/7/1 136/8/1
f 137/5/1 138/6/1 139/7/1 140/8/1
f 141/5/1 142/6/1 143/7/1 144/8/1
f 145/1/1 146/2/1 147/3/1 148/4/1
f 149/1/1 150/2/1 151/3/1 152/4/1
f 153/1/1 154/2/1 155/3/1 156/4/1
f 157/1/1 158/2/1 159/3/1 160/4/1
f 161/1/1 162/2/1 163/3/1 164/4/1
f 165/5/1 166/6/1 167/7/1 168/8/1
f 169/5/1 170/6/1 171/7/1 172/8/1
f 173/5/1 174/6/1 175/7/1 176/8/1
f 177/5/1 178/6/1 179/7/1 180/8/1
f 181/1/1 182/2/1 183/3/1 184/4/1
f 185/1/1 186/2/1 187/3/1 188/4/1
f 189/1/1 190/2/1 191/3/1 192/4/1
f 193/1/1 194/2/1 195/3/1 196/4/1
f 197/1/1 198/2/1 199/3/1 200/4/1
f 201/5/1 202/6/1 203/7/1 204/8/1
f 205/5/1 206/6/1 207/7/1 208/8/1
f 209/5/1 210/6/1 211/7/1 212/8/1
f 213/5/1 214/6/1 215/7/1 216/8/1

