# Tiled2Unity generated file. Do not modify by hand.
# Wavefront file for 'Vila1k_mesh_0004.obj'

# Vertices (Count = 32)
v -128 -288 0
v -160 -288 0
v -160 -256 0
v -128 -256 0
v -448 -288 0
v -480 -288 0
v -480 -256 0
v -448 -256 0
v -128 -320 0
v -160 -320 0
v -160 -288 0
v -128 -288 0
v -448 -320 0
v -480 -320 0
v -480 -288 0
v -448 -288 0
v -544 -736 0
v -576 -736 0
v -576 -704 0
v -544 -704 0
v -704 -736 0
v -736 -736 0
v -736 -704 0
v -704 -704 0
v -544 -768 0
v -576 -768 0
v -576 -736 0
v -544 -736 0
v -704 -768 0
v -736 -768 0
v -736 -736 0
v -704 -736 0

# Texture cooridinates (Count = 15)
vt 0.125 0.9375
vt 0.1875 0.9375
vt 0.1875 1
vt 0.125 1
vt 0.25 0.9375
vt 0.25 1
vt 0.125 0.875
vt 0.1875 0.875
vt 0.25 0.875
vt 0.3125 0.9375
vt 0.375 0.9375
vt 0.375 1
vt 0.3125 1
vt 0.3125 0.875
vt 0.375 0.875

# Normal
vn 0 0 -1

# Mesh description
g Vila1k_mesh_0004

# Faces
f 1/1/1 2/2/1 3/3/1 4/4/1
f 5/2/1 6/5/1 7/6/1 8/3/1
f 9/7/1 10/8/1 11/2/1 12/1/1
f 13/8/1 14/9/1 15/5/1 16/2/1
f 17/10/1 18/11/1 19/12/1 20/13/1
f 21/10/1 22/11/1 23/12/1 24/13/1
f 25/14/1 26/15/1 27/11/1 28/10/1
f 29/14/1 30/15/1 31/11/1 32/10/1

