# Tiled2Unity generated file. Do not modify by hand.
# Wavefront file for 'Vila1k_mesh_0005.obj'

# Vertices (Count = 148)
v -544 -288 0
v -576 -288 0
v -576 -256 0
v -544 -256 0
v -704 -288 0
v -736 -288 0
v -736 -256 0
v -704 -256 0
v -1024 -288 0
v -1056 -288 0
v -1056 -256 0
v -1024 -256 0
v -1056 -288 0
v -1088 -288 0
v -1088 -256 0
v -1056 -256 0
v -544 -320 0
v -576 -320 0
v -576 -288 0
v -544 -288 0
v -704 -320 0
v -736 -320 0
v -736 -288 0
v -704 -288 0
v -800 -320 0
v -832 -320 0
v -832 -288 0
v -800 -288 0
v -832 -320 0
v -864 -320 0
v -864 -288 0
v -832 -288 0
v -864 -320 0
v -896 -320 0
v -896 -288 0
v -864 -288 0
v -896 -320 0
v -928 -320 0
v -928 -288 0
v -896 -288 0
v -928 -320 0
v -960 -320 0
v -960 -288 0
v -928 -288 0
v -960 -320 0
v -992 -320 0
v -992 -288 0
v -960 -288 0
v -992 -320 0
v -1024 -320 0
v -1024 -288 0
v -992 -288 0
v -1024 -320 0
v -1056 -320 0
v -1056 -288 0
v -1024 -288 0
v -1056 -320 0
v -1088 -320 0
v -1088 -288 0
v -1056 -288 0
v -1088 -320 0
v -1120 -320 0
v -1120 -288 0
v -1088 -288 0
v -1120 -320 0
v -1152 -320 0
v -1152 -288 0
v -1120 -288 0
v -1088 -384 0
v -1120 -384 0
v -1120 -352 0
v -1088 -352 0
v -1120 -384 0
v -1152 -384 0
v -1152 -352 0
v -1120 -352 0
v -1024 -416 0
v -1056 -416 0
v -1056 -384 0
v -1024 -384 0
v -1056 -416 0
v -1088 -416 0
v -1088 -384 0
v -1056 -384 0
v -1088 -416 0
v -1120 -416 0
v -1120 -384 0
v -1088 -384 0
v -1120 -416 0
v -1152 -416 0
v -1152 -384 0
v -1120 -384 0
v -1024 -448 0
v -1056 -448 0
v -1056 -416 0
v -1024 -416 0
v -1056 -448 0
v -1088 -448 0
v -1088 -416 0
v -1056 -416 0
v -960 -544 0
v -992 -544 0
v -992 -512 0
v -960 -512 0
v -992 -544 0
v -1024 -544 0
v -1024 -512 0
v -992 -512 0
v -1024 -544 0
v -1056 -544 0
v -1056 -512 0
v -1024 -512 0
v -1056 -544 0
v -1088 -544 0
v -1088 -512 0
v -1056 -512 0
v -928 -576 0
v -960 -576 0
v -960 -544 0
v -928 -544 0
v -1088 -576 0
v -1120 -576 0
v -1120 -544 0
v -1088 -544 0
v -1120 -608 0
v -1152 -608 0
v -1152 -576 0
v -1120 -576 0
v -960 -640 0
v -992 -640 0
v -992 -608 0
v -960 -608 0
v -992 -640 0
v -1024 -640 0
v -1024 -608 0
v -992 -608 0
v -1024 -640 0
v -1056 -640 0
v -1056 -608 0
v -1024 -608 0
v -1056 -640 0
v -1088 -640 0
v -1088 -608 0
v -1056 -608 0
v -1120 -640 0
v -1152 -640 0
v -1152 -608 0
v -1120 -608 0

# Texture cooridinates (Count = 46)
vt 0.3125 0.625
vt 0.375 0.625
vt 0.375 0.6875
vt 0.3125 0.6875
vt 0 0.3125
vt 0.0625 0.3125
vt 0.0625 0.375
vt 0 0.375
vt 0.125 0.3125
vt 0.125 0.375
vt 0.3125 0.5625
vt 0.375 0.5625
vt 0.3125 0.8125
vt 0.375 0.8125
vt 0.375 0.875
vt 0.3125 0.875
vt 0 0.25
vt 0.0625 0.25
vt 0.125 0.25
vt 0.4375 0.75
vt 0.5 0.75
vt 0.5 0.8125
vt 0.4375 0.8125
vt 0.1875 0.625
vt 0.25 0.625
vt 0.25 0.6875
vt 0.1875 0.6875
vt 0.125 0.6875
vt 0.1875 0.75
vt 0.125 0.75
vt 0.25 0.75
vt 0.4375 0.6875
vt 0.5 0.6875
vt 0.1875 0.5625
vt 0.25 0.5625
vt 0 0.5625
vt 0.0625 0.5625
vt 0.0625 0.625
vt 0 0.625
vt 0.125 0.5625
vt 0.125 0.625
vt 0.3125 0.75
vt 0.25 0.8125
vt 0.1875 0.8125
vt 0.125 0.8125
vt 0.375 0.75

# Normal
vn 0 0 -1

# Mesh description
g Vila1k_mesh_0005

# Faces
f 1/1/1 2/2/1 3/3/1 4/4/1
f 5/1/1 6/2/1 7/3/1 8/4/1
f 9/5/1 10/6/1 11/7/1 12/8/1
f 13/6/1 14/9/1 15/10/1 16/7/1
f 17/11/1 18/12/1 19/2/1 20/1/1
f 21/11/1 22/12/1 23/2/1 24/1/1
f 25/13/1 26/14/1 27/15/1 28/16/1
f 29/13/1 30/14/1 31/15/1 32/16/1
f 33/13/1 34/14/1 35/15/1 36/16/1
f 37/13/1 38/14/1 39/15/1 40/16/1
f 41/13/1 42/14/1 43/15/1 44/16/1
f 45/13/1 46/14/1 47/15/1 48/16/1
f 49/13/1 50/14/1 51/15/1 52/16/1
f 53/17/1 54/18/1 55/6/1 56/5/1
f 57/18/1 58/19/1 59/9/1 60/6/1
f 61/13/1 62/14/1 63/15/1 64/16/1
f 65/13/1 66/14/1 67/15/1 68/16/1
f 69/20/1 70/21/1 71/22/1 72/23/1
f 73/24/1 74/25/1 75/26/1 76/27/1
f 77/28/1 78/27/1 79/29/1 80/30/1
f 81/27/1 82/26/1 83/31/1 84/29/1
f 85/32/1 86/33/1 87/21/1 88/20/1
f 89/34/1 90/35/1 91/25/1 92/24/1
f 93/36/1 94/37/1 95/38/1 96/39/1
f 97/37/1 98/40/1 99/41/1 100/38/1
f 101/31/1 102/42/1 103/13/1 104/43/1
f 105/31/1 106/42/1 107/13/1 108/43/1
f 109/31/1 110/42/1 111/13/1 112/43/1
f 113/31/1 114/42/1 115/13/1 116/43/1
f 117/30/1 118/29/1 119/44/1 120/45/1
f 121/29/1 122/31/1 123/43/1 124/44/1
f 125/1/1 126/2/1 127/3/1 128/4/1
f 129/42/1 130/46/1 131/14/1 132/13/1
f 133/42/1 134/46/1 135/14/1 136/13/1
f 137/42/1 138/46/1 139/14/1 140/13/1
f 141/42/1 142/46/1 143/14/1 144/13/1
f 145/11/1 146/12/1 147/2/1 148/1/1

