# Tiled2Unity generated file. Do not modify by hand.
# Wavefront file for 'Skola2k_mesh_0006.obj'

# Vertices (Count = 44)
v -96 -512 0
v -128 -512 0
v -128 -480 0
v -96 -480 0
v -384 -512 0
v -416 -512 0
v -416 -480 0
v -384 -480 0
v -96 -544 0
v -128 -544 0
v -128 -512 0
v -96 -512 0
v -384 -544 0
v -416 -544 0
v -416 -512 0
v -384 -512 0
v -960 -704 0
v -992 -704 0
v -992 -672 0
v -960 -672 0
v -992 -704 0
v -1024 -704 0
v -1024 -672 0
v -992 -672 0
v -96 -768 0
v -128 -768 0
v -128 -736 0
v -96 -736 0
v -384 -768 0
v -416 -768 0
v -416 -736 0
v -384 -736 0
v -96 -800 0
v -128 -800 0
v -128 -768 0
v -96 -768 0
v -384 -800 0
v -416 -800 0
v -416 -768 0
v -384 -768 0
v -544 -1216 0
v -576 -1216 0
v -576 -1184 0
v -544 -1184 0

# Texture cooridinates (Count = 19)
vt 0.15625 0.125
vt 0.1875 0.125
vt 0.1875 0.15625
vt 0.15625 0.15625
vt 0.125 0.125
vt 0.125 0.15625
vt 0.15625 0.09375
vt 0.1875 0.09375
vt 0.125 0.09375
vt 0.1875 0.5
vt 0.21875 0.5
vt 0.21875 0.53125
vt 0.1875 0.53125
vt 0.25 0.5
vt 0.25 0.53125
vt 0.21875 0.125
vt 0.25 0.125
vt 0.25 0.15625
vt 0.21875 0.15625

# Normal
vn 0 0 -1

# Mesh description
g Skola2k_mesh_0006

# Faces
f 1/1/1 2/2/1 3/3/1 4/4/1
f 5/5/1 6/1/1 7/4/1 8/6/1
f 9/7/1 10/8/1 11/2/1 12/1/1
f 13/9/1 14/7/1 15/1/1 16/5/1
f 17/10/1 18/11/1 19/12/1 20/13/1
f 21/11/1 22/14/1 23/15/1 24/12/1
f 25/1/1 26/2/1 27/3/1 28/4/1
f 29/5/1 30/1/1 31/4/1 32/6/1
f 33/7/1 34/8/1 35/2/1 36/1/1
f 37/9/1 38/7/1 39/1/1 40/5/1
f 41/16/1 42/17/1 43/18/1 44/19/1

