# Tiled2Unity generated file. Do not modify by hand.
# Wavefront file for 'Skola2k_mesh_0015.obj'

# Vertices (Count = 28)
v -864 -1216 0
v -896 -1216 0
v -896 -1184 0
v -864 -1184 0
v -896 -1216 0
v -928 -1216 0
v -928 -1184 0
v -896 -1184 0
v -960 -1248 0
v -992 -1248 0
v -992 -1216 0
v -960 -1216 0
v -928 -1280 0
v -960 -1280 0
v -960 -1248 0
v -928 -1248 0
v -960 -1280 0
v -992 -1280 0
v -992 -1248 0
v -960 -1248 0
v -768 -1312 0
v -800 -1312 0
v -800 -1280 0
v -768 -1280 0
v -768 -1344 0
v -800 -1344 0
v -800 -1312 0
v -768 -1312 0

# Texture cooridinates (Count = 10)
vt 0.4375 0.375
vt 0.5 0.375
vt 0.5 0.4375
vt 0.4375 0.4375
vt 0.125 0.4375
vt 0.1875 0.4375
vt 0.1875 0.5
vt 0.125 0.5
vt 0.125 0.375
vt 0.1875 0.375

# Normal
vn 0 0 -1

# Mesh description
g Skola2k_mesh_0015

# Faces
f 1/1/1 2/2/1 3/3/1 4/4/1
f 5/1/1 6/2/1 7/3/1 8/4/1
f 9/1/1 10/2/1 11/3/1 12/4/1
f 13/1/1 14/2/1 15/3/1 16/4/1
f 17/1/1 18/2/1 19/3/1 20/4/1
f 21/5/1 22/6/1 23/7/1 24/8/1
f 25/9/1 26/10/1 27/6/1 28/5/1

