# Tiled2Unity generated file. Do not modify by hand.
# Wavefront file for 'Skola2k_mesh_0004.obj'

# Vertices (Count = 216)
v -256 -288 0
v -288 -288 0
v -288 -256 0
v -256 -256 0
v -288 -288 0
v -320 -288 0
v -320 -256 0
v -288 -256 0
v -320 -288 0
v -352 -288 0
v -352 -256 0
v -320 -256 0
v -352 -288 0
v -384 -288 0
v -384 -256 0
v -352 -256 0
v -256 -320 0
v -288 -320 0
v -288 -288 0
v -256 -288 0
v -288 -320 0
v -320 -320 0
v -320 -288 0
v -288 -288 0
v -320 -320 0
v -352 -320 0
v -352 -288 0
v -320 -288 0
v -352 -320 0
v -384 -320 0
v -384 -288 0
v -352 -288 0
v -704 -352 0
v -736 -352 0
v -736 -320 0
v -704 -320 0
v -1184 -352 0
v -1216 -352 0
v -1216 -320 0
v -1184 -320 0
v -320 -704 0
v -352 -704 0
v -352 -672 0
v -320 -672 0
v -352 -704 0
v -384 -704 0
v -384 -672 0
v -352 -672 0
v -320 -736 0
v -352 -736 0
v -352 -704 0
v -320 -704 0
v -352 -736 0
v -384 -736 0
v -384 -704 0
v -352 -704 0
v -1376 -800 0
v -1408 -800 0
v -1408 -768 0
v -1376 -768 0
v -1408 -800 0
v -1440 -800 0
v -1440 -768 0
v -1408 -768 0
v -1440 -800 0
v -1472 -800 0
v -1472 -768 0
v -1440 -768 0
v -1376 -832 0
v -1408 -832 0
v -1408 -800 0
v -1376 -800 0
v -1408 -832 0
v -1440 -832 0
v -1440 -800 0
v -1408 -800 0
v -1440 -832 0
v -1472 -832 0
v -1472 -800 0
v -1440 -800 0
v -1312 -960 0
v -1344 -960 0
v -1344 -928 0
v -1312 -928 0
v -1344 -960 0
v -1376 -960 0
v -1376 -928 0
v -1344 -928 0
v -1312 -992 0
v -1344 -992 0
v -1344 -960 0
v -1312 -960 0
v -1344 -992 0
v -1376 -992 0
v -1376 -960 0
v -1344 -960 0
v -1344 -1024 0
v -1376 -1024 0
v -1376 -992 0
v -1344 -992 0
v -1376 -1088 0
v -1408 -1088 0
v -1408 -1056 0
v -1376 -1056 0
v -1408 -1088 0
v -1440 -1088 0
v -1440 -1056 0
v -1408 -1056 0
v -1440 -1088 0
v -1472 -1088 0
v -1472 -1056 0
v -1440 -1056 0
v -1376 -1120 0
v -1408 -1120 0
v -1408 -1088 0
v -1376 -1088 0
v -1408 -1120 0
v -1440 -1120 0
v -1440 -1088 0
v -1408 -1088 0
v -1440 -1120 0
v -1472 -1120 0
v -1472 -1088 0
v -1440 -1088 0
v -832 -1184 0
v -864 -1184 0
v -864 -1152 0
v -832 -1152 0
v -864 -1184 0
v -896 -1184 0
v -896 -1152 0
v -864 -1152 0
v -896 -1184 0
v -928 -1184 0
v -928 -1152 0
v -896 -1152 0
v -928 -1184 0
v -960 -1184 0
v -960 -1152 0
v -928 -1152 0
v -960 -1184 0
v -992 -1184 0
v -992 -1152 0
v -960 -1152 0
v -800 -1216 0
v -832 -1216 0
v -832 -1184 0
v -800 -1184 0
v -992 -1216 0
v -1024 -1216 0
v -1024 -1184 0
v -992 -1184 0
v -800 -1248 0
v -832 -1248 0
v -832 -1216 0
v -800 -1216 0
v -992 -1248 0
v -1024 -1248 0
v -1024 -1216 0
v -992 -1216 0
v -800 -1280 0
v -832 -1280 0
v -832 -1248 0
v -800 -1248 0
v -992 -1280 0
v -1024 -1280 0
v -1024 -1248 0
v -992 -1248 0
v -1312 -1280 0
v -1344 -1280 0
v -1344 -1248 0
v -1312 -1248 0
v -1344 -1280 0
v -1376 -1280 0
v -1376 -1248 0
v -1344 -1248 0
v -800 -1312 0
v -832 -1312 0
v -832 -1280 0
v -800 -1280 0
v -992 -1312 0
v -1024 -1312 0
v -1024 -1280 0
v -992 -1280 0
v -1312 -1312 0
v -1344 -1312 0
v -1344 -1280 0
v -1312 -1280 0
v -1344 -1312 0
v -1376 -1312 0
v -1376 -1280 0
v -1344 -1280 0
v -832 -1344 0
v -864 -1344 0
v -864 -1312 0
v -832 -1312 0
v -864 -1344 0
v -896 -1344 0
v -896 -1312 0
v -864 -1312 0
v -896 -1344 0
v -928 -1344 0
v -928 -1312 0
v -896 -1312 0
v -928 -1344 0
v -960 -1344 0
v -960 -1312 0
v -928 -1312 0
v -960 -1344 0
v -992 -1344 0
v -992 -1312 0
v -960 -1312 0
v -1344 -1344 0
v -1376 -1344 0
v -1376 -1312 0
v -1344 -1312 0

# Texture cooridinates (Count = 46)
vt 0.3125 0.0625
vt 0.375 0.0625
vt 0.375 0.125
vt 0.3125 0.125
vt 0.3125 0
vt 0.375 0
vt 0.625 0.1875
vt 0.6875 0.1875
vt 0.6875 0.25
vt 0.625 0.25
vt 0.25 0.5
vt 0.3125 0.5
vt 0.3125 0.5625
vt 0.25 0.5625
vt 0.375 0.5
vt 0.375 0.5625
vt 0.25 0.4375
vt 0.3125 0.4375
vt 0.375 0.4375
vt 0.3125 0.625
vt 0.375 0.625
vt 0.375 0.6875
vt 0.3125 0.6875
vt 0.0625 0.375
vt 0.125 0.375
vt 0.125 0.4375
vt 0.0625 0.4375
vt 0.1875 0.375
vt 0.1875 0.4375
vt 0.0625 0.3125
vt 0.125 0.3125
vt 0.1875 0.3125
vt 0.75 0.1875
vt 0.75 0.25
vt 0.4375 0.625
vt 0.4375 0.6875
vt 0.4375 0.5
vt 0.4375 0.5625
vt 0.5 0.5
vt 0.5 0.5625
vt 0.4375 0.4375
vt 0.5 0.4375
vt 0.8125 0.1875
vt 0.8125 0.25
vt 0.875 0.1875
vt 0.875 0.25

# Normal
vn 0 0 -1

# Mesh description
g Skola2k_mesh_0004

# Faces
f 1/1/1 2/2/1 3/3/1 4/4/1
f 5/1/1 6/2/1 7/3/1 8/4/1
f 9/1/1 10/2/1 11/3/1 12/4/1
f 13/1/1 14/2/1 15/3/1 16/4/1
f 17/5/1 18/6/1 19/2/1 20/1/1
f 21/5/1 22/6/1 23/2/1 24/1/1
f 25/5/1 26/6/1 27/2/1 28/1/1
f 29/5/1 30/6/1 31/2/1 32/1/1
f 33/7/1 34/8/1 35/9/1 36/10/1
f 37/7/1 38/8/1 39/9/1 40/10/1
f 41/11/1 42/12/1 43/13/1 44/14/1
f 45/12/1 46/15/1 47/16/1 48/13/1
f 49/17/1 50/18/1 51/12/1 52/11/1
f 53/18/1 54/19/1 55/15/1 56/12/1
f 57/20/1 58/21/1 59/22/1 60/23/1
f 61/11/1 62/12/1 63/13/1 64/14/1
f 65/12/1 66/15/1 67/16/1 68/13/1
f 69/13/1 70/16/1 71/21/1 72/20/1
f 73/17/1 74/18/1 75/12/1 76/11/1
f 77/18/1 78/19/1 79/15/1 80/12/1
f 81/24/1 82/25/1 83/26/1 84/27/1
f 85/25/1 86/28/1 87/29/1 88/26/1
f 89/30/1 90/31/1 91/25/1 92/24/1
f 93/31/1 94/32/1 95/28/1 96/25/1
f 97/8/1 98/33/1 99/34/1 100/9/1
f 101/21/1 102/35/1 103/36/1 104/22/1
f 105/15/1 106/37/1 107/38/1 108/16/1
f 109/37/1 110/39/1 111/40/1 112/38/1
f 113/16/1 114/38/1 115/35/1 116/21/1
f 117/19/1 118/41/1 119/37/1 120/15/1
f 121/41/1 122/42/1 123/39/1 124/37/1
f 125/7/1 126/8/1 127/9/1 128/10/1
f 129/7/1 130/8/1 131/9/1 132/10/1
f 133/7/1 134/8/1 135/9/1 136/10/1
f 137/7/1 138/8/1 139/9/1 140/10/1
f 141/7/1 142/8/1 143/9/1 144/10/1
f 145/33/1 146/43/1 147/44/1 148/34/1
f 149/43/1 150/45/1 151/46/1 152/44/1
f 153/33/1 154/43/1 155/44/1 156/34/1
f 157/43/1 158/45/1 159/46/1 160/44/1
f 161/33/1 162/43/1 163/44/1 164/34/1
f 165/43/1 166/45/1 167/46/1 168/44/1
f 169/24/1 170/25/1 171/26/1 172/27/1
f 173/25/1 174/28/1 175/29/1 176/26/1
f 177/33/1 178/43/1 179/44/1 180/34/1
f 181/43/1 182/45/1 183/46/1 184/44/1
f 185/30/1 186/31/1 187/25/1 188/24/1
f 189/31/1 190/32/1 191/28/1 192/25/1
f 193/8/1 194/33/1 195/34/1 196/9/1
f 197/8/1 198/33/1 199/34/1 200/9/1
f 201/8/1 202/33/1 203/34/1 204/9/1
f 205/8/1 206/33/1 207/34/1 208/9/1
f 209/8/1 210/33/1 211/34/1 212/9/1
f 213/8/1 214/33/1 215/34/1 216/9/1

