# Tiled2Unity generated file. Do not modify by hand.
# Wavefront file for 'Haus10k1_mesh_0005.obj'

# Vertices (Count = 16)
v -352 -352 0
v -384 -352 0
v -384 -320 0
v -352 -320 0
v -320 -352 0
v -352 -352 0
v -352 -320 0
v -320 -320 0
v -352 -384 0
v -384 -384 0
v -384 -352 0
v -352 -352 0
v -320 -384 0
v -352 -384 0
v -352 -352 0
v -320 -352 0

# Texture cooridinates (Count = 9)
vt 0.0625 0.5
vt 0.09375 0.5
vt 0.09375 0.53125
vt 0.0625 0.53125
vt 0.03125 0.5
vt 0.03125 0.53125
vt 0.0625 0.46875
vt 0.09375 0.46875
vt 0.03125 0.46875

# Normal
vn 0 0 -1

# Mesh description
g Haus10k1_mesh_0005

# Faces
f 1/1/1 2/2/1 3/3/1 4/4/1
f 5/5/1 6/1/1 7/4/1 8/6/1
f 9/7/1 10/8/1 11/2/1 12/1/1
f 13/9/1 14/7/1 15/1/1 16/5/1

