# Tiled2Unity generated file. Do not modify by hand.
# Wavefront file for 'Haus10k1_mesh_0006.obj'

# Vertices (Count = 56)
v -512 -224 0
v -544 -224 0
v -544 -192 0
v -512 -192 0
v -480 -224 0
v -512 -224 0
v -512 -192 0
v -480 -192 0
v -320 -224 0
v -352 -224 0
v -352 -192 0
v -320 -192 0
v -512 -256 0
v -544 -256 0
v -544 -224 0
v -512 -224 0
v -480 -256 0
v -512 -256 0
v -512 -224 0
v -480 -224 0
v -512 -288 0
v -544 -288 0
v -544 -256 0
v -512 -256 0
v -480 -288 0
v -512 -288 0
v -512 -256 0
v -480 -256 0
v -448 -288 0
v -480 -288 0
v -480 -256 0
v -448 -256 0
v -512 -320 0
v -544 -320 0
v -544 -288 0
v -512 -288 0
v -480 -320 0
v -512 -320 0
v -512 -288 0
v -480 -288 0
v -448 -320 0
v -480 -320 0
v -480 -288 0
v -448 -288 0
v -512 -352 0
v -544 -352 0
v -544 -320 0
v -512 -320 0
v -480 -352 0
v -512 -352 0
v -512 -320 0
v -480 -320 0
v -192 -384 0
v -224 -384 0
v -224 -352 0
v -192 -352 0

# Texture cooridinates (Count = 29)
vt 0.5 0.625
vt 0.53125 0.625
vt 0.53125 0.65625
vt 0.5 0.65625
vt 0.90625 0.75
vt 0.9375 0.75
vt 0.9375 0.78125
vt 0.90625 0.78125
vt 0.5 0.59375
vt 0.53125 0.59375
vt 0.59375 0.65625
vt 0.625 0.65625
vt 0.625 0.6875
vt 0.59375 0.6875
vt 0.59375 0.625
vt 0.625 0.625
vt 0.4375 0.6875
vt 0.46875 0.6875
vt 0.46875 0.71875
vt 0.4375 0.71875
vt 0.5625 0.625
vt 0.5625 0.65625
vt 0.4375 0.65625
vt 0.46875 0.65625
vt 0.5625 0.59375
vt 0.9375 0.6875
vt 0.96875 0.6875
vt 0.96875 0.71875
vt 0.9375 0.71875

# Normal
vn 0 0 -1

# Mesh description
g Haus10k1_mesh_0006

# Faces
f 1/1/1 2/2/1 3/3/1 4/4/1
f 5/1/1 6/2/1 7/3/1 8/4/1
f 9/5/1 10/6/1 11/7/1 12/8/1
f 13/9/1 14/10/1 15/2/1 16/1/1
f 17/9/1 18/10/1 19/2/1 20/1/1
f 21/11/1 22/12/1 23/13/1 24/14/1
f 25/15/1 26/16/1 27/12/1 28/11/1
f 29/17/1 30/18/1 31/19/1 32/20/1
f 33/2/1 34/21/1 35/22/1 36/3/1
f 37/2/1 38/21/1 39/22/1 40/3/1
f 41/23/1 42/24/1 43/18/1 44/17/1
f 45/10/1 46/25/1 47/21/1 48/2/1
f 49/10/1 50/25/1 51/21/1 52/2/1
f 53/26/1 54/27/1 55/28/1 56/29/1

