# Tiled2Unity generated file. Do not modify by hand.
# Wavefront file for 'Haus10k1_mesh_0003.obj'

# Vertices (Count = 24)
v -160 -160 0
v -192 -160 0
v -192 -128 0
v -160 -128 0
v -160 -192 0
v -192 -192 0
v -192 -160 0
v -160 -160 0
v -96 -192 0
v -128 -192 0
v -128 -160 0
v -96 -160 0
v -96 -224 0
v -128 -224 0
v -128 -192 0
v -96 -192 0
v -96 -352 0
v -128 -352 0
v -128 -320 0
v -96 -320 0
v -96 -384 0
v -128 -384 0
v -128 -352 0
v -96 -352 0

# Texture cooridinates (Count = 15)
vt 0.3125 0.0625
vt 0.375 0.0625
vt 0.375 0.125
vt 0.3125 0.125
vt 0.3125 0
vt 0.375 0
vt 0.25 0.0625
vt 0.25 0.125
vt 0.25 0
vt 0.125 0.0625
vt 0.1875 0.0625
vt 0.1875 0.125
vt 0.125 0.125
vt 0.125 0
vt 0.1875 0

# Normal
vn 0 0 -1

# Mesh description
g Haus10k1_mesh_0003

# Faces
f 1/1/1 2/2/1 3/3/1 4/4/1
f 5/5/1 6/6/1 7/2/1 8/1/1
f 9/7/1 10/1/1 11/4/1 12/8/1
f 13/9/1 14/5/1 15/1/1 16/7/1
f 17/10/1 18/11/1 19/12/1 20/13/1
f 21/14/1 22/15/1 23/11/1 24/10/1

