# Tiled2Unity generated file. Do not modify by hand.
# Wavefront file for 'Haus10k1_mesh_0004.obj'

# Vertices (Count = 60)
v -320 -160 0
v -352 -160 0
v -352 -128 0
v -320 -128 0
v -288 -160 0
v -320 -160 0
v -320 -128 0
v -288 -128 0
v -352 -192 0
v -384 -192 0
v -384 -160 0
v -352 -160 0
v -288 -192 0
v -320 -192 0
v -320 -160 0
v -288 -160 0
v -352 -224 0
v -384 -224 0
v -384 -192 0
v -352 -192 0
v -288 -224 0
v -320 -224 0
v -320 -192 0
v -288 -192 0
v -512 -256 0
v -544 -256 0
v -544 -224 0
v -512 -224 0
v -480 -256 0
v -512 -256 0
v -512 -224 0
v -480 -224 0
v -448 -256 0
v -480 -256 0
v -480 -224 0
v -448 -224 0
v -512 -288 0
v -544 -288 0
v -544 -256 0
v -512 -256 0
v -480 -288 0
v -512 -288 0
v -512 -256 0
v -480 -256 0
v -448 -288 0
v -480 -288 0
v -480 -256 0
v -448 -256 0
v -512 -320 0
v -544 -320 0
v -544 -288 0
v -512 -288 0
v -480 -320 0
v -512 -320 0
v -512 -288 0
v -480 -288 0
v -448 -320 0
v -480 -320 0
v -480 -288 0
v -448 -288 0

# Texture cooridinates (Count = 37)
vt 0.84375 0.71875
vt 0.875 0.71875
vt 0.875 0.75
vt 0.84375 0.75
vt 0.78125 0.71875
vt 0.8125 0.71875
vt 0.8125 0.75
vt 0.78125 0.75
vt 0.6875 0.78125
vt 0.71875 0.78125
vt 0.71875 0.8125
vt 0.6875 0.8125
vt 0.75 0.6875
vt 0.78125 0.6875
vt 0.75 0.71875
vt 0.6875 0.75
vt 0.71875 0.75
vt 0.84375 0.6875
vt 0.875 0.6875
vt 0.625 0.40625
vt 0.65625 0.40625
vt 0.65625 0.4375
vt 0.625 0.4375
vt 0.59375 0.40625
vt 0.59375 0.4375
vt 0.4375 0.6875
vt 0.46875 0.6875
vt 0.46875 0.71875
vt 0.4375 0.71875
vt 0.625 0.375
vt 0.65625 0.375
vt 0.59375 0.375
vt 0.4375 0.65625
vt 0.46875 0.65625
vt 0.625 0.34375
vt 0.65625 0.34375
vt 0.59375 0.34375

# Normal
vn 0 0 -1

# Mesh description
g Haus10k1_mesh_0004

# Faces
f 1/1/1 2/2/1 3/3/1 4/4/1
f 5/5/1 6/6/1 7/7/1 8/8/1
f 9/9/1 10/10/1 11/11/1 12/12/1
f 13/13/1 14/14/1 15/5/1 16/15/1
f 17/16/1 18/17/1 19/10/1 20/9/1
f 21/18/1 22/19/1 23/2/1 24/1/1
f 25/20/1 26/21/1 27/22/1 28/23/1
f 29/24/1 30/20/1 31/23/1 32/25/1
f 33/26/1 34/27/1 35/28/1 36/29/1
f 37/30/1 38/31/1 39/21/1 40/20/1
f 41/32/1 42/30/1 43/20/1 44/24/1
f 45/33/1 46/34/1 47/27/1 48/26/1
f 49/35/1 50/36/1 51/31/1 52/30/1
f 53/37/1 54/35/1 55/30/1 56/32/1
f 57/33/1 58/34/1 59/27/1 60/26/1

