# Tiled2Unity generated file. Do not modify by hand.
# Wavefront file for 'Haus10p_mesh_0002.obj'

# Vertices (Count = 44)
v -512 -192 0
v -544 -192 0
v -544 -160 0
v -512 -160 0
v -480 -192 0
v -512 -192 0
v -512 -160 0
v -480 -160 0
v -320 -192 0
v -352 -192 0
v -352 -160 0
v -320 -160 0
v -288 -192 0
v -320 -192 0
v -320 -160 0
v -288 -160 0
v -512 -224 0
v -544 -224 0
v -544 -192 0
v -512 -192 0
v -480 -224 0
v -512 -224 0
v -512 -192 0
v -480 -192 0
v -288 -224 0
v -320 -224 0
v -320 -192 0
v -288 -192 0
v -320 -288 0
v -352 -288 0
v -352 -256 0
v -320 -256 0
v -480 -352 0
v -512 -352 0
v -512 -320 0
v -480 -320 0
v -320 -384 0
v -352 -384 0
v -352 -352 0
v -320 -352 0
v -288 -384 0
v -320 -384 0
v -320 -352 0
v -288 -352 0

# Texture cooridinates (Count = 30)
vt 0.65625 0.3125
vt 0.6875 0.3125
vt 0.6875 0.34375
vt 0.65625 0.34375
vt 0.71875 0.3125
vt 0.71875 0.34375
vt 0.84375 0.75
vt 0.875 0.75
vt 0.875 0.78125
vt 0.84375 0.78125
vt 0.65625 0.28125
vt 0.6875 0.28125
vt 0.625 0.53125
vt 0.65625 0.53125
vt 0.65625 0.5625
vt 0.625 0.5625
vt 0.71875 0.28125
vt 0.75 0.28125
vt 0.75 0.3125
vt 0.78125 0.3125
vt 0.78125 0.34375
vt 0.75 0.34375
vt 0.6875 0.71875
vt 0.71875 0.71875
vt 0.71875 0.75
vt 0.6875 0.75
vt 0.9375 0.6875
vt 0.96875 0.6875
vt 0.96875 0.71875
vt 0.9375 0.71875

# Normal
vn 0 0 -1

# Mesh description
g Haus10p_mesh_0002

# Faces
f 1/1/1 2/2/1 3/3/1 4/4/1
f 5/2/1 6/5/1 7/6/1 8/3/1
f 9/7/1 10/8/1 11/9/1 12/10/1
f 13/2/1 14/5/1 15/6/1 16/3/1
f 17/11/1 18/12/1 19/2/1 20/1/1
f 21/13/1 22/14/1 23/15/1 24/16/1
f 25/17/1 26/18/1 27/19/1 28/5/1
f 29/19/1 30/20/1 31/21/1 32/22/1
f 33/12/1 34/17/1 35/5/1 36/2/1
f 37/23/1 38/24/1 39/25/1 40/26/1
f 41/27/1 42/28/1 43/29/1 44/30/1

