# Tiled2Unity generated file. Do not modify by hand.
# Wavefront file for 'Haus04_mesh_0003.obj'

# Vertices (Count = 112)
v -480 -192 0
v -512 -192 0
v -512 -160 0
v -480 -160 0
v -448 -192 0
v -480 -192 0
v -480 -160 0
v -448 -160 0
v -416 -192 0
v -448 -192 0
v -448 -160 0
v -416 -160 0
v -320 -192 0
v -352 -192 0
v -352 -160 0
v -320 -160 0
v -288 -192 0
v -320 -192 0
v -320 -160 0
v -288 -160 0
v -256 -192 0
v -288 -192 0
v -288 -160 0
v -256 -160 0
v -224 -192 0
v -256 -192 0
v -256 -160 0
v -224 -160 0
v -480 -224 0
v -512 -224 0
v -512 -192 0
v -480 -192 0
v -448 -224 0
v -480 -224 0
v -480 -192 0
v -448 -192 0
v -416 -224 0
v -448 -224 0
v -448 -192 0
v -416 -192 0
v -320 -224 0
v -352 -224 0
v -352 -192 0
v -320 -192 0
v -288 -224 0
v -320 -224 0
v -320 -192 0
v -288 -192 0
v -256 -224 0
v -288 -224 0
v -288 -192 0
v -256 -192 0
v -224 -224 0
v -256 -224 0
v -256 -192 0
v -224 -192 0
v -480 -320 0
v -512 -320 0
v -512 -288 0
v -480 -288 0
v -320 -320 0
v -352 -320 0
v -352 -288 0
v -320 -288 0
v -288 -320 0
v -320 -320 0
v -320 -288 0
v -288 -288 0
v -256 -320 0
v -288 -320 0
v -288 -288 0
v -256 -288 0
v -480 -352 0
v -512 -352 0
v -512 -320 0
v -480 -320 0
v -416 -352 0
v -448 -352 0
v -448 -320 0
v -416 -320 0
v -320 -352 0
v -352 -352 0
v -352 -320 0
v -320 -320 0
v -288 -352 0
v -320 -352 0
v -320 -320 0
v -288 -320 0
v -256 -352 0
v -288 -352 0
v -288 -320 0
v -256 -320 0
v -480 -384 0
v -512 -384 0
v -512 -352 0
v -480 -352 0
v -416 -384 0
v -448 -384 0
v -448 -352 0
v -416 -352 0
v -320 -384 0
v -352 -384 0
v -352 -352 0
v -320 -352 0
v -288 -384 0
v -320 -384 0
v -320 -352 0
v -288 -352 0
v -256 -384 0
v -288 -384 0
v -288 -352 0
v -256 -352 0

# Texture cooridinates (Count = 54)
vt 0.9375 0.1875
vt 1 0.1875
vt 1 0.25
vt 0.9375 0.25
vt 0.0625 0.5
vt 0.125 0.5
vt 0.125 0.5625
vt 0.0625 0.5625
vt 0 0.5
vt 0 0.5625
vt 0.1875 0.5
vt 0.1875 0.5625
vt 0.0625 0.125
vt 0.125 0.125
vt 0.125 0.1875
vt 0.0625 0.1875
vt 0.9375 0.125
vt 1 0.125
vt 0.0625 0.4375
vt 0.125 0.4375
vt 0 0.4375
vt 0.1875 0.4375
vt 0.0625 0.0625
vt 0.125 0.0625
vt 0.5 0.125
vt 0.5625 0.125
vt 0.5625 0.1875
vt 0.5 0.1875
vt 0.625 0.625
vt 0.6875 0.625
vt 0.6875 0.6875
vt 0.625 0.6875
vt 0.5625 0.625
vt 0.5625 0.6875
vt 0.5 0.625
vt 0.5 0.6875
vt 0.5 0.0625
vt 0.5625 0.0625
vt 0.875 0.4375
vt 0.9375 0.4375
vt 0.9375 0.5
vt 0.875 0.5
vt 0.625 0.5625
vt 0.6875 0.5625
vt 0.5625 0.5625
vt 0.5 0.5625
vt 0.5 0
vt 0.5625 0
vt 0.875 0.375
vt 0.9375 0.375
vt 0.625 0.5
vt 0.6875 0.5
vt 0.5625 0.5
vt 0.5 0.5

# Normal
vn 0 0 -1

# Mesh description
g Haus04_mesh_0003

# Faces
f 1/1/1 2/2/1 3/3/1 4/4/1
f 5/1/1 6/2/1 7/3/1 8/4/1
f 9/1/1 10/2/1 11/3/1 12/4/1
f 13/5/1 14/6/1 15/7/1 16/8/1
f 17/9/1 18/5/1 19/8/1 20/10/1
f 21/6/1 22/11/1 23/12/1 24/7/1
f 25/13/1 26/14/1 27/15/1 28/16/1
f 29/17/1 30/18/1 31/2/1 32/1/1
f 33/17/1 34/18/1 35/2/1 36/1/1
f 37/17/1 38/18/1 39/2/1 40/1/1
f 41/19/1 42/20/1 43/6/1 44/5/1
f 45/21/1 46/19/1 47/5/1 48/9/1
f 49/20/1 50/22/1 51/11/1 52/6/1
f 53/23/1 54/24/1 55/14/1 56/13/1
f 57/25/1 58/26/1 59/27/1 60/28/1
f 61/29/1 62/30/1 63/31/1 64/32/1
f 65/33/1 66/29/1 67/32/1 68/34/1
f 69/35/1 70/33/1 71/34/1 72/36/1
f 73/37/1 74/38/1 75/26/1 76/25/1
f 77/39/1 78/40/1 79/41/1 80/42/1
f 81/43/1 82/44/1 83/30/1 84/29/1
f 85/45/1 86/43/1 87/29/1 88/33/1
f 89/46/1 90/45/1 91/33/1 92/35/1
f 93/47/1 94/48/1 95/38/1 96/37/1
f 97/49/1 98/50/1 99/40/1 100/39/1
f 101/51/1 102/52/1 103/44/1 104/43/1
f 105/53/1 106/51/1 107/43/1 108/45/1
f 109/54/1 110/53/1 111/45/1 112/46/1

