# Tiled2Unity generated file. Do not modify by hand.
# Wavefront file for 'Haus04_mesh_0002.obj'

# Vertices (Count = 24)
v -160 -192 0
v -192 -192 0
v -192 -160 0
v -160 -160 0
v -128 -192 0
v -160 -192 0
v -160 -160 0
v -128 -160 0
v -160 -224 0
v -192 -224 0
v -192 -192 0
v -160 -192 0
v -128 -224 0
v -160 -224 0
v -160 -192 0
v -128 -192 0
v -160 -320 0
v -192 -320 0
v -192 -288 0
v -160 -288 0
v -128 -320 0
v -160 -320 0
v -160 -288 0
v -128 -288 0

# Texture cooridinates (Count = 15)
vt 0.0625 0.5
vt 0.125 0.5
vt 0.125 0.5625
vt 0.0625 0.5625
vt 0 0.5
vt 0 0.5625
vt 0.0625 0.4375
vt 0.125 0.4375
vt 0 0.4375
vt 0.0625 0
vt 0.125 0
vt 0.125 0.0625
vt 0.0625 0.0625
vt 0 0
vt 0 0.0625

# Normal
vn 0 0 -1

# Mesh description
g Haus04_mesh_0002

# Faces
f 1/1/1 2/2/1 3/3/1 4/4/1
f 5/5/1 6/1/1 7/4/1 8/6/1
f 9/7/1 10/8/1 11/2/1 12/1/1
f 13/9/1 14/7/1 15/1/1 16/5/1
f 17/10/1 18/11/1 19/12/1 20/13/1
f 21/14/1 22/10/1 23/13/1 24/15/1

