# Tiled2Unity generated file. Do not modify by hand.
# Wavefront file for 'Koliba02_mesh_0004.obj'

# Vertices (Count = 24)
v -192 -352 0
v -224 -352 0
v -224 -320 0
v -192 -320 0
v -224 -352 0
v -256 -352 0
v -256 -320 0
v -224 -320 0
v -256 -352 0
v -288 -352 0
v -288 -320 0
v -256 -320 0
v -288 -352 0
v -320 -352 0
v -320 -320 0
v -288 -320 0
v -320 -352 0
v -352 -352 0
v -352 -320 0
v -320 -320 0
v -352 -352 0
v -384 -352 0
v -384 -320 0
v -352 -320 0

# Texture cooridinates (Count = 8)
vt 0 0.375
vt 0.125 0.375
vt 0.125 0.40625
vt 0 0.40625
vt 0.25 0.375
vt 0.25 0.40625
vt 0.375 0.375
vt 0.375 0.40625

# Normal
vn 0 0 -1

# Mesh description
g Koliba02_mesh_0004

# Faces
f 1/1/1 2/2/1 3/3/1 4/4/1
f 5/2/1 6/5/1 7/6/1 8/3/1
f 9/2/1 10/5/1 11/6/1 12/3/1
f 13/2/1 14/5/1 15/6/1 16/3/1
f 17/2/1 18/5/1 19/6/1 20/3/1
f 21/5/1 22/7/1 23/8/1 24/6/1

