# Tiled2Unity generated file. Do not modify by hand.
# Wavefront file for 'Koliba02_mesh_0005.obj'

# Vertices (Count = 20)
v -384 -224 0
v -416 -224 0
v -416 -192 0
v -384 -192 0
v -192 -352 0
v -224 -352 0
v -224 -320 0
v -192 -320 0
v -224 -352 0
v -256 -352 0
v -256 -320 0
v -224 -320 0
v -256 -352 0
v -288 -352 0
v -288 -320 0
v -256 -320 0
v -288 -352 0
v -320 -352 0
v -320 -320 0
v -288 -320 0

# Texture cooridinates (Count = 16)
vt 0.25 0.53125
vt 0.375 0.53125
vt 0.375 0.5625
vt 0.25 0.5625
vt 0.875 0.46875
vt 1 0.46875
vt 1 0.5
vt 0.875 0.5
vt 0.75 0.46875
vt 0.75 0.5
vt 0.5 0.46875
vt 0.625 0.46875
vt 0.625 0.5
vt 0.5 0.5
vt 0.375 0.46875
vt 0.375 0.5

# Normal
vn 0 0 -1

# Mesh description
g Koliba02_mesh_0005

# Faces
f 1/1/1 2/2/1 3/3/1 4/4/1
f 5/5/1 6/6/1 7/7/1 8/8/1
f 9/9/1 10/5/1 11/8/1 12/10/1
f 13/11/1 14/12/1 15/13/1 16/14/1
f 17/15/1 18/11/1 19/14/1 20/16/1

