# Tiled2Unity generated file. Do not modify by hand.
# Wavefront file for 'Koliba01_mesh_0003.obj'

# Vertices (Count = 76)
v -416 -256 0
v -448 -256 0
v -448 -224 0
v -416 -224 0
v -384 -256 0
v -416 -256 0
v -416 -224 0
v -384 -224 0
v -352 -256 0
v -384 -256 0
v -384 -224 0
v -352 -224 0
v -320 -256 0
v -352 -256 0
v -352 -224 0
v -320 -224 0
v -288 -256 0
v -320 -256 0
v -320 -224 0
v -288 -224 0
v -416 -288 0
v -448 -288 0
v -448 -256 0
v -416 -256 0
v -384 -288 0
v -416 -288 0
v -416 -256 0
v -384 -256 0
v -352 -288 0
v -384 -288 0
v -384 -256 0
v -352 -256 0
v -320 -288 0
v -352 -288 0
v -352 -256 0
v -320 -256 0
v -288 -288 0
v -320 -288 0
v -320 -256 0
v -288 -256 0
v -256 -288 0
v -288 -288 0
v -288 -256 0
v -256 -256 0
v -224 -288 0
v -256 -288 0
v -256 -256 0
v -224 -256 0
v -416 -320 0
v -448 -320 0
v -448 -288 0
v -416 -288 0
v -384 -320 0
v -416 -320 0
v -416 -288 0
v -384 -288 0
v -256 -320 0
v -288 -320 0
v -288 -288 0
v -256 -288 0
v -224 -320 0
v -256 -320 0
v -256 -288 0
v -224 -288 0
v -416 -352 0
v -448 -352 0
v -448 -320 0
v -416 -320 0
v -256 -352 0
v -288 -352 0
v -288 -320 0
v -256 -320 0
v -224 -352 0
v -256 -352 0
v -256 -320 0
v -224 -320 0

# Texture cooridinates (Count = 45)
vt 0.6875 0.5
vt 0.71875 0.5
vt 0.71875 0.53125
vt 0.6875 0.53125
vt 0.65625 0.5
vt 0.65625 0.53125
vt 0.78125 0.6875
vt 0.8125 0.6875
vt 0.8125 0.71875
vt 0.78125 0.71875
vt 0.53125 0.78125
vt 0.5625 0.78125
vt 0.5625 0.8125
vt 0.53125 0.8125
vt 0.5 0.78125
vt 0.5 0.8125
vt 0.6875 0.46875
vt 0.71875 0.46875
vt 0.65625 0.46875
vt 0.84375 0.6875
vt 0.875 0.6875
vt 0.875 0.71875
vt 0.84375 0.71875
vt 0.53125 0.75
vt 0.5625 0.75
vt 0.5 0.75
vt 0.5 0.96875
vt 0.53125 0.96875
vt 0.53125 1
vt 0.5 1
vt 0.46875 0.96875
vt 0.46875 1
vt 0.6875 0.4375
vt 0.71875 0.4375
vt 0.65625 0.4375
vt 0.5 0.9375
vt 0.53125 0.9375
vt 0.46875 0.9375
vt 0.75 0.59375
vt 0.78125 0.59375
vt 0.78125 0.625
vt 0.75 0.625
vt 0.5 0.90625
vt 0.53125 0.90625
vt 0.46875 0.90625

# Normal
vn 0 0 -1

# Mesh description
g Koliba01_mesh_0003

# Faces
f 1/1/1 2/2/1 3/3/1 4/4/1
f 5/5/1 6/1/1 7/4/1 8/6/1
f 9/7/1 10/8/1 11/9/1 12/10/1
f 13/11/1 14/12/1 15/13/1 16/14/1
f 17/15/1 18/11/1 19/14/1 20/16/1
f 21/17/1 22/18/1 23/2/1 24/1/1
f 25/19/1 26/17/1 27/1/1 28/5/1
f 29/20/1 30/21/1 31/22/1 32/23/1
f 33/24/1 34/25/1 35/12/1 36/11/1
f 37/26/1 38/24/1 39/11/1 40/15/1
f 41/27/1 42/28/1 43/29/1 44/30/1
f 45/31/1 46/27/1 47/30/1 48/32/1
f 49/33/1 50/34/1 51/18/1 52/17/1
f 53/35/1 54/33/1 55/17/1 56/19/1
f 57/36/1 58/37/1 59/28/1 60/27/1
f 61/38/1 62/36/1 63/27/1 64/31/1
f 65/39/1 66/40/1 67/41/1 68/42/1
f 69/43/1 70/44/1 71/37/1 72/36/1
f 73/45/1 74/43/1 75/36/1 76/38/1

