# Tiled2Unity generated file. Do not modify by hand.
# Wavefront file for 'Haus08k1_mesh_0004.obj'

# Vertices (Count = 16)
v -448 -224 0
v -480 -224 0
v -480 -192 0
v -448 -192 0
v -416 -224 0
v -448 -224 0
v -448 -192 0
v -416 -192 0
v -448 -256 0
v -480 -256 0
v -480 -224 0
v -448 -224 0
v -416 -256 0
v -448 -256 0
v -448 -224 0
v -416 -224 0

# Texture cooridinates (Count = 9)
vt 0.78125 0.65625
vt 0.8125 0.65625
vt 0.8125 0.6875
vt 0.78125 0.6875
vt 0.75 0.65625
vt 0.75 0.6875
vt 0.78125 0.625
vt 0.8125 0.625
vt 0.75 0.625

# Normal
vn 0 0 -1

# Mesh description
g Haus08k1_mesh_0004

# Faces
f 1/1/1 2/2/1 3/3/1 4/4/1
f 5/5/1 6/1/1 7/4/1 8/6/1
f 9/7/1 10/8/1 11/2/1 12/1/1
f 13/9/1 14/7/1 15/1/1 16/5/1

