# Tiled2Unity generated file. Do not modify by hand.
# Wavefront file for 'Parti3k_mesh_0008.obj'

# Vertices (Count = 72)
v -800 -352 0
v -832 -352 0
v -832 -320 0
v -800 -320 0
v -768 -352 0
v -800 -352 0
v -800 -320 0
v -768 -320 0
v -800 -384 0
v -832 -384 0
v -832 -352 0
v -800 -352 0
v -768 -384 0
v -800 -384 0
v -800 -352 0
v -768 -352 0
v -800 -416 0
v -832 -416 0
v -832 -384 0
v -800 -384 0
v -768 -416 0
v -800 -416 0
v -800 -384 0
v -768 -384 0
v -800 -448 0
v -832 -448 0
v -832 -416 0
v -800 -416 0
v -768 -448 0
v -800 -448 0
v -800 -416 0
v -768 -416 0
v -800 -480 0
v -832 -480 0
v -832 -448 0
v -800 -448 0
v -768 -480 0
v -800 -480 0
v -800 -448 0
v -768 -448 0
v -800 -512 0
v -832 -512 0
v -832 -480 0
v -800 -480 0
v -768 -512 0
v -800 -512 0
v -800 -480 0
v -768 -480 0
v -800 -544 0
v -832 -544 0
v -832 -512 0
v -800 -512 0
v -768 -544 0
v -800 -544 0
v -800 -512 0
v -768 -512 0
v -800 -576 0
v -832 -576 0
v -832 -544 0
v -800 -544 0
v -768 -576 0
v -800 -576 0
v -800 -544 0
v -768 -544 0
v -800 -608 0
v -832 -608 0
v -832 -576 0
v -800 -576 0
v -768 -608 0
v -800 -608 0
v -800 -576 0
v -768 -576 0

# Texture cooridinates (Count = 15)
vt 0.0625 0.625
vt 0.125 0.625
vt 0.125 0.6875
vt 0.0625 0.6875
vt 0 0.625
vt 0 0.6875
vt 0.3125 0.6875
vt 0.375 0.6875
vt 0.375 0.75
vt 0.3125 0.75
vt 0.25 0.6875
vt 0.25 0.75
vt 0.0625 0.5625
vt 0.125 0.5625
vt 0 0.5625

# Normal
vn 0 0 -1

# Mesh description
g Parti3k_mesh_0008

# Faces
f 1/1/1 2/2/1 3/3/1 4/4/1
f 5/5/1 6/1/1 7/4/1 8/6/1
f 9/7/1 10/8/1 11/9/1 12/10/1
f 13/11/1 14/7/1 15/10/1 16/12/1
f 17/13/1 18/14/1 19/2/1 20/1/1
f 21/15/1 22/13/1 23/1/1 24/5/1
f 25/1/1 26/2/1 27/3/1 28/4/1
f 29/5/1 30/1/1 31/4/1 32/6/1
f 33/7/1 34/8/1 35/9/1 36/10/1
f 37/11/1 38/7/1 39/10/1 40/12/1
f 41/13/1 42/14/1 43/2/1 44/1/1
f 45/15/1 46/13/1 47/1/1 48/5/1
f 49/1/1 50/2/1 51/3/1 52/4/1
f 53/5/1 54/1/1 55/4/1 56/6/1
f 57/7/1 58/8/1 59/9/1 60/10/1
f 61/11/1 62/7/1 63/10/1 64/12/1
f 65/13/1 66/14/1 67/2/1 68/1/1
f 69/15/1 70/13/1 71/1/1 72/5/1

