# Tiled2Unity generated file. Do not modify by hand.
# Wavefront file for 'Vila2k_mesh_0007.obj'

# Vertices (Count = 84)
v -800 -448 0
v -832 -448 0
v -832 -416 0
v -800 -416 0
v -864 -448 0
v -896 -448 0
v -896 -416 0
v -864 -416 0
v -896 -448 0
v -928 -448 0
v -928 -416 0
v -896 -416 0
v -128 -480 0
v -160 -480 0
v -160 -448 0
v -128 -448 0
v -160 -480 0
v -192 -480 0
v -192 -448 0
v -160 -448 0
v -192 -480 0
v -224 -480 0
v -224 -448 0
v -192 -448 0
v -224 -480 0
v -256 -480 0
v -256 -448 0
v -224 -448 0
v -800 -480 0
v -832 -480 0
v -832 -448 0
v -800 -448 0
v -864 -480 0
v -896 -480 0
v -896 -448 0
v -864 -448 0
v -896 -480 0
v -928 -480 0
v -928 -448 0
v -896 -448 0
v -128 -512 0
v -160 -512 0
v -160 -480 0
v -128 -480 0
v -160 -512 0
v -192 -512 0
v -192 -480 0
v -160 -480 0
v -192 -512 0
v -224 -512 0
v -224 -480 0
v -192 -480 0
v -224 -512 0
v -256 -512 0
v -256 -480 0
v -224 -480 0
v -128 -576 0
v -160 -576 0
v -160 -544 0
v -128 -544 0
v -128 -608 0
v -160 -608 0
v -160 -576 0
v -128 -576 0
v -224 -608 0
v -256 -608 0
v -256 -576 0
v -224 -576 0
v -256 -608 0
v -288 -608 0
v -288 -576 0
v -256 -576 0
v -128 -640 0
v -160 -640 0
v -160 -608 0
v -128 -608 0
v -224 -640 0
v -256 -640 0
v -256 -608 0
v -224 -608 0
v -256 -640 0
v -288 -640 0
v -288 -608 0
v -256 -608 0

# Texture cooridinates (Count = 52)
vt 0.3125 0.625
vt 0.375 0.625
vt 0.375 0.6875
vt 0.3125 0.6875
vt 0.625 0.8125
vt 0.6875 0.8125
vt 0.6875 0.875
vt 0.625 0.875
vt 0.75 0.8125
vt 0.75 0.875
vt 0.5 0.5
vt 0.5625 0.5
vt 0.5625 0.5625
vt 0.5 0.5625
vt 0.625 0.5
vt 0.625 0.5625
vt 0.25 0.3125
vt 0.3125 0.3125
vt 0.3125 0.375
vt 0.25 0.375
vt 0.375 0.3125
vt 0.375 0.375
vt 0.3125 0.5625
vt 0.375 0.5625
vt 0.5 0.75
vt 0.5625 0.75
vt 0.5625 0.8125
vt 0.5 0.8125
vt 0.625 0.75
vt 0.5 0.4375
vt 0.5625 0.4375
vt 0.625 0.4375
vt 0.25 0.25
vt 0.3125 0.25
vt 0.375 0.25
vt 0.4375 0.3125
vt 0.5 0.3125
vt 0.5 0.375
vt 0.4375 0.375
vt 0.4375 0.25
vt 0.5 0.25
vt 0.75 0.5
vt 0.8125 0.5
vt 0.8125 0.5625
vt 0.75 0.5625
vt 0.875 0.5
vt 0.875 0.5625
vt 0.4375 0.1875
vt 0.5 0.1875
vt 0.75 0.4375
vt 0.8125 0.4375
vt 0.875 0.4375

# Normal
vn 0 0 -1

# Mesh description
g Vila2k_mesh_0007

# Faces
f 1/1/1 2/2/1 3/3/1 4/4/1
f 5/5/1 6/6/1 7/7/1 8/8/1
f 9/6/1 10/9/1 11/10/1 12/7/1
f 13/11/1 14/12/1 15/13/1 16/14/1
f 17/12/1 18/15/1 19/16/1 20/13/1
f 21/17/1 22/18/1 23/19/1 24/20/1
f 25/18/1 26/21/1 27/22/1 28/19/1
f 29/23/1 30/24/1 31/2/1 32/1/1
f 33/25/1 34/26/1 35/27/1 36/28/1
f 37/26/1 38/29/1 39/5/1 40/27/1
f 41/30/1 42/31/1 43/12/1 44/11/1
f 45/31/1 46/32/1 47/15/1 48/12/1
f 49/33/1 50/34/1 51/18/1 52/17/1
f 53/34/1 54/35/1 55/21/1 56/18/1
f 57/36/1 58/37/1 59/38/1 60/39/1
f 61/40/1 62/41/1 63/37/1 64/36/1
f 65/42/1 66/43/1 67/44/1 68/45/1
f 69/43/1 70/46/1 71/47/1 72/44/1
f 73/48/1 74/49/1 75/41/1 76/40/1
f 77/50/1 78/51/1 79/43/1 80/42/1
f 81/51/1 82/52/1 83/46/1 84/43/1

