# Tiled2Unity generated file. Do not modify by hand.
# Wavefront file for 'Vila2k_mesh_0003.obj'

# Vertices (Count = 192)
v -928 -288 0
v -960 -288 0
v -960 -256 0
v -928 -256 0
v -960 -288 0
v -992 -288 0
v -992 -256 0
v -960 -256 0
v -992 -288 0
v -1024 -288 0
v -1024 -256 0
v -992 -256 0
v -128 -320 0
v -160 -320 0
v -160 -288 0
v -128 -288 0
v -160 -320 0
v -192 -320 0
v -192 -288 0
v -160 -288 0
v -192 -320 0
v -224 -320 0
v -224 -288 0
v -192 -288 0
v -224 -320 0
v -256 -320 0
v -256 -288 0
v -224 -288 0
v -256 -320 0
v -288 -320 0
v -288 -288 0
v -256 -288 0
v -288 -320 0
v -320 -320 0
v -320 -288 0
v -288 -288 0
v -320 -320 0
v -352 -320 0
v -352 -288 0
v -320 -288 0
v -352 -320 0
v -384 -320 0
v -384 -288 0
v -352 -288 0
v -384 -320 0
v -416 -320 0
v -416 -288 0
v -384 -288 0
v -416 -320 0
v -448 -320 0
v -448 -288 0
v -416 -288 0
v -448 -320 0
v -480 -320 0
v -480 -288 0
v -448 -288 0
v -800 -320 0
v -832 -320 0
v -832 -288 0
v -800 -288 0
v -832 -320 0
v -864 -320 0
v -864 -288 0
v -832 -288 0
v -864 -320 0
v -896 -320 0
v -896 -288 0
v -864 -288 0
v -896 -320 0
v -928 -320 0
v -928 -288 0
v -896 -288 0
v -928 -320 0
v -960 -320 0
v -960 -288 0
v -928 -288 0
v -960 -320 0
v -992 -320 0
v -992 -288 0
v -960 -288 0
v -992 -320 0
v -1024 -320 0
v -1024 -288 0
v -992 -288 0
v -1024 -320 0
v -1056 -320 0
v -1056 -288 0
v -1024 -288 0
v -1056 -320 0
v -1088 -320 0
v -1088 -288 0
v -1056 -288 0
v -1088 -320 0
v -1120 -320 0
v -1120 -288 0
v -1088 -288 0
v -1120 -320 0
v -1152 -320 0
v -1152 -288 0
v -1120 -288 0
v -800 -352 0
v -832 -352 0
v -832 -320 0
v -800 -320 0
v -928 -352 0
v -960 -352 0
v -960 -320 0
v -928 -320 0
v -960 -352 0
v -992 -352 0
v -992 -320 0
v -960 -320 0
v -992 -352 0
v -1024 -352 0
v -1024 -320 0
v -992 -320 0
v -1120 -352 0
v -1152 -352 0
v -1152 -320 0
v -1120 -320 0
v -544 -416 0
v -576 -416 0
v -576 -384 0
v -544 -384 0
v -1088 -416 0
v -1120 -416 0
v -1120 -384 0
v -1088 -384 0
v -1120 -416 0
v -1152 -416 0
v -1152 -384 0
v -1120 -384 0
v -544 -448 0
v -576 -448 0
v -576 -416 0
v -544 -416 0
v -928 -448 0
v -960 -448 0
v -960 -416 0
v -928 -416 0
v -960 -448 0
v -992 -448 0
v -992 -416 0
v -960 -416 0
v -1120 -448 0
v -1152 -448 0
v -1152 -416 0
v -1120 -416 0
v -544 -480 0
v -576 -480 0
v -576 -448 0
v -544 -448 0
v -928 -480 0
v -960 -480 0
v -960 -448 0
v -928 -448 0
v -960 -480 0
v -992 -480 0
v -992 -448 0
v -960 -448 0
v -544 -512 0
v -576 -512 0
v -576 -480 0
v -544 -480 0
v -224 -544 0
v -256 -544 0
v -256 -512 0
v -224 -512 0
v -256 -544 0
v -288 -544 0
v -288 -512 0
v -256 -512 0
v -544 -544 0
v -576 -544 0
v -576 -512 0
v -544 -512 0
v -256 -576 0
v -288 -576 0
v -288 -544 0
v -256 -544 0
v -544 -576 0
v -576 -576 0
v -576 -544 0
v -544 -544 0
v -544 -608 0
v -576 -608 0
v -576 -576 0
v -544 -576 0
v -544 -640 0
v -576 -640 0
v -576 -608 0
v -544 -608 0

# Texture cooridinates (Count = 55)
vt 0 0.5
vt 0.0625 0.5
vt 0.0625 0.5625
vt 0 0.5625
vt 0.125 0.5
vt 0.125 0.5625
vt 0.1875 0.5
vt 0.1875 0.5625
vt 0.0625 0.875
vt 0.125 0.875
vt 0.125 0.9375
vt 0.0625 0.9375
vt 0.1875 0.875
vt 0.1875 0.9375
vt 0.25 0.9375
vt 0.3125 0.9375
vt 0.3125 1
vt 0.25 1
vt 0 0.75
vt 0.0625 0.75
vt 0.0625 0.8125
vt 0 0.8125
vt 0.125 0.75
vt 0.125 0.8125
vt 0 0.4375
vt 0.0625 0.4375
vt 0.125 0.4375
vt 0.1875 0.4375
vt 0.375 0.9375
vt 0.375 1
vt 0 0.6875
vt 0.0625 0.6875
vt 0 0.375
vt 0.0625 0.375
vt 0.125 0.375
vt 0.1875 0.375
vt 0.3125 0.875
vt 0.375 0.875
vt 0 0.875
vt 0 0.9375
vt 0.1875 0.75
vt 0.1875 0.8125
vt 0.375 0.75
vt 0.4375 0.75
vt 0.4375 0.8125
vt 0.375 0.8125
vt 0.125 0.3125
vt 0.1875 0.3125
vt 0.25 0.3125
vt 0.25 0.375
vt 0.375 0.6875
vt 0.4375 0.6875
vt 0.125 0.25
vt 0.1875 0.25
vt 0.25 0.25

# Normal
vn 0 0 -1

# Mesh description
g Vila2k_mesh_0003

# Faces
f 1/1/1 2/2/1 3/3/1 4/4/1
f 5/2/1 6/5/1 7/6/1 8/3/1
f 9/5/1 10/7/1 11/8/1 12/6/1
f 13/9/1 14/10/1 15/11/1 16/12/1
f 17/10/1 18/13/1 19/14/1 20/11/1
f 21/9/1 22/10/1 23/11/1 24/12/1
f 25/10/1 26/13/1 27/14/1 28/11/1
f 29/9/1 30/10/1 31/11/1 32/12/1
f 33/10/1 34/13/1 35/14/1 36/11/1
f 37/9/1 38/10/1 39/11/1 40/12/1
f 41/10/1 42/13/1 43/14/1 44/11/1
f 45/9/1 46/10/1 47/11/1 48/12/1
f 49/10/1 50/13/1 51/14/1 52/11/1
f 53/15/1 54/16/1 55/17/1 56/18/1
f 57/19/1 58/20/1 59/21/1 60/22/1
f 61/20/1 62/23/1 63/24/1 64/21/1
f 65/20/1 66/23/1 67/24/1 68/21/1
f 69/20/1 70/23/1 71/24/1 72/21/1
f 73/25/1 74/26/1 75/2/1 76/1/1
f 77/26/1 78/27/1 79/5/1 80/2/1
f 81/27/1 82/28/1 83/7/1 84/5/1
f 85/20/1 86/23/1 87/24/1 88/21/1
f 89/20/1 90/23/1 91/24/1 92/21/1
f 93/20/1 94/23/1 95/24/1 96/21/1
f 97/16/1 98/29/1 99/30/1 100/17/1
f 101/31/1 102/32/1 103/20/1 104/19/1
f 105/33/1 106/34/1 107/26/1 108/25/1
f 109/34/1 110/35/1 111/27/1 112/26/1
f 113/35/1 114/36/1 115/28/1 116/27/1
f 117/37/1 118/38/1 119/29/1 120/16/1
f 121/39/1 122/9/1 123/12/1 124/40/1
f 125/23/1 126/41/1 127/42/1 128/24/1
f 129/43/1 130/44/1 131/45/1 132/46/1
f 133/39/1 134/9/1 135/12/1 136/40/1
f 137/47/1 138/48/1 139/36/1 140/35/1
f 141/48/1 142/49/1 143/50/1 144/36/1
f 145/51/1 146/52/1 147/44/1 148/43/1
f 149/39/1 150/9/1 151/12/1 152/40/1
f 153/53/1 154/54/1 155/48/1 156/47/1
f 157/54/1 158/55/1 159/49/1 160/48/1
f 161/39/1 162/9/1 163/12/1 164/40/1
f 165/23/1 166/41/1 167/42/1 168/24/1
f 169/43/1 170/44/1 171/45/1 172/46/1
f 173/39/1 174/9/1 175/12/1 176/40/1
f 177/51/1 178/52/1 179/44/1 180/43/1
f 181/39/1 182/9/1 183/12/1 184/40/1
f 185/39/1 186/9/1 187/12/1 188/40/1
f 189/31/1 190/32/1 191/20/1 192/19/1

