# Tiled2Unity generated file. Do not modify by hand.
# Wavefront file for 'Skola1k_mesh_0011.obj'

# Vertices (Count = 208)
v -736 -288 0
v -768 -288 0
v -768 -256 0
v -736 -256 0
v -768 -288 0
v -800 -288 0
v -800 -256 0
v -768 -256 0
v -800 -288 0
v -832 -288 0
v -832 -256 0
v -800 -256 0
v -448 -320 0
v -480 -320 0
v -480 -288 0
v -448 -288 0
v -480 -320 0
v -512 -320 0
v -512 -288 0
v -480 -288 0
v -512 -320 0
v -544 -320 0
v -544 -288 0
v -512 -288 0
v -736 -320 0
v -768 -320 0
v -768 -288 0
v -736 -288 0
v -768 -320 0
v -800 -320 0
v -800 -288 0
v -768 -288 0
v -800 -320 0
v -832 -320 0
v -832 -288 0
v -800 -288 0
v -448 -352 0
v -480 -352 0
v -480 -320 0
v -448 -320 0
v -480 -352 0
v -512 -352 0
v -512 -320 0
v -480 -320 0
v -512 -352 0
v -544 -352 0
v -544 -320 0
v -512 -320 0
v -672 -384 0
v -704 -384 0
v -704 -352 0
v -672 -352 0
v -672 -448 0
v -704 -448 0
v -704 -416 0
v -672 -416 0
v -704 -448 0
v -736 -448 0
v -736 -416 0
v -704 -416 0
v -768 -448 0
v -800 -448 0
v -800 -416 0
v -768 -416 0
v -800 -448 0
v -832 -448 0
v -832 -416 0
v -800 -416 0
v -864 -448 0
v -896 -448 0
v -896 -416 0
v -864 -416 0
v -896 -448 0
v -928 -448 0
v -928 -416 0
v -896 -416 0
v -672 -480 0
v -704 -480 0
v -704 -448 0
v -672 -448 0
v -704 -480 0
v -736 -480 0
v -736 -448 0
v -704 -448 0
v -768 -480 0
v -800 -480 0
v -800 -448 0
v -768 -448 0
v -800 -480 0
v -832 -480 0
v -832 -448 0
v -800 -448 0
v -864 -480 0
v -896 -480 0
v -896 -448 0
v -864 -448 0
v -896 -480 0
v -928 -480 0
v -928 -448 0
v -896 -448 0
v -672 -544 0
v -704 -544 0
v -704 -512 0
v -672 -512 0
v -704 -544 0
v -736 -544 0
v -736 -512 0
v -704 -512 0
v -768 -544 0
v -800 -544 0
v -800 -512 0
v -768 -512 0
v -800 -544 0
v -832 -544 0
v -832 -512 0
v -800 -512 0
v -864 -544 0
v -896 -544 0
v -896 -512 0
v -864 -512 0
v -896 -544 0
v -928 -544 0
v -928 -512 0
v -896 -512 0
v -672 -576 0
v -704 -576 0
v -704 -544 0
v -672 -544 0
v -704 -576 0
v -736 -576 0
v -736 -544 0
v -704 -544 0
v -768 -576 0
v -800 -576 0
v -800 -544 0
v -768 -544 0
v -800 -576 0
v -832 -576 0
v -832 -544 0
v -800 -544 0
v -864 -576 0
v -896 -576 0
v -896 -544 0
v -864 -544 0
v -896 -576 0
v -928 -576 0
v -928 -544 0
v -896 -544 0
v -160 -672 0
v -192 -672 0
v -192 -640 0
v -160 -640 0
v -192 -672 0
v -224 -672 0
v -224 -640 0
v -192 -640 0
v -224 -672 0
v -256 -672 0
v -256 -640 0
v -224 -640 0
v -256 -672 0
v -288 -672 0
v -288 -640 0
v -256 -640 0
v -160 -704 0
v -192 -704 0
v -192 -672 0
v -160 -672 0
v -192 -704 0
v -224 -704 0
v -224 -672 0
v -192 -672 0
v -224 -704 0
v -256 -704 0
v -256 -672 0
v -224 -672 0
v -256 -704 0
v -288 -704 0
v -288 -672 0
v -256 -672 0
v -896 -1024 0
v -928 -1024 0
v -928 -992 0
v -896 -992 0
v -928 -1024 0
v -960 -1024 0
v -960 -992 0
v -928 -992 0
v -960 -1024 0
v -992 -1024 0
v -992 -992 0
v -960 -992 0
v -896 -1056 0
v -928 -1056 0
v -928 -1024 0
v -896 -1024 0
v -928 -1056 0
v -960 -1056 0
v -960 -1024 0
v -928 -1024 0
v -960 -1056 0
v -992 -1056 0
v -992 -1024 0
v -960 -1024 0
v -800 -1120 0
v -832 -1120 0
v -832 -1088 0
v -800 -1088 0

# Texture cooridinates (Count = 47)
vt 0.1875 0.6875
vt 0.25 0.6875
vt 0.25 0.75
vt 0.1875 0.75
vt 0.3125 0.6875
vt 0.3125 0.75
vt 0.375 0.6875
vt 0.375 0.75
vt 0.3125 0.0625
vt 0.375 0.0625
vt 0.375 0.125
vt 0.3125 0.125
vt 0.4375 0.0625
vt 0.4375 0.125
vt 0.5 0.0625
vt 0.5 0.125
vt 0.1875 0.625
vt 0.25 0.625
vt 0.3125 0.625
vt 0.375 0.625
vt 0.3125 0
vt 0.375 0
vt 0.4375 0
vt 0.5 0
vt 0.4375 0.375
vt 0.5 0.375
vt 0.5 0.4375
vt 0.4375 0.4375
vt 0.1875 0.5
vt 0.25 0.5
vt 0.25 0.5625
vt 0.1875 0.5625
vt 0.25 0.4375
vt 0.3125 0.4375
vt 0.3125 0.5
vt 0.9375 0.6875
vt 1 0.6875
vt 1 0.75
vt 0.9375 0.75
vt 0.8125 0.6875
vt 0.875 0.6875
vt 0.875 0.75
vt 0.8125 0.75
vt 0.9375 0.625
vt 1 0.625
vt 0.8125 0.625
vt 0.875 0.625

# Normal
vn 0 0 -1

# Mesh description
g Skola1k_mesh_0011

# Faces
f 1/1/1 2/2/1 3/3/1 4/4/1
f 5/2/1 6/5/1 7/6/1 8/3/1
f 9/5/1 10/7/1 11/8/1 12/6/1
f 13/9/1 14/10/1 15/11/1 16/12/1
f 17/10/1 18/13/1 19/14/1 20/11/1
f 21/13/1 22/15/1 23/16/1 24/14/1
f 25/17/1 26/18/1 27/2/1 28/1/1
f 29/18/1 30/19/1 31/5/1 32/2/1
f 33/19/1 34/20/1 35/7/1 36/5/1
f 37/21/1 38/22/1 39/10/1 40/9/1
f 41/22/1 42/23/1 43/13/1 44/10/1
f 45/23/1 46/24/1 47/15/1 48/13/1
f 49/25/1 50/26/1 51/27/1 52/28/1
f 53/29/1 54/30/1 55/31/1 56/32/1
f 57/29/1 58/30/1 59/31/1 60/32/1
f 61/29/1 62/30/1 63/31/1 64/32/1
f 65/29/1 66/30/1 67/31/1 68/32/1
f 69/29/1 70/30/1 71/31/1 72/32/1
f 73/29/1 74/30/1 75/31/1 76/32/1
f 77/33/1 78/34/1 79/35/1 80/30/1
f 81/33/1 82/34/1 83/35/1 84/30/1
f 85/33/1 86/34/1 87/35/1 88/30/1
f 89/33/1 90/34/1 91/35/1 92/30/1
f 93/33/1 94/34/1 95/35/1 96/30/1
f 97/33/1 98/34/1 99/35/1 100/30/1
f 101/29/1 102/30/1 103/31/1 104/32/1
f 105/29/1 106/30/1 107/31/1 108/32/1
f 109/29/1 110/30/1 111/31/1 112/32/1
f 113/29/1 114/30/1 115/31/1 116/32/1
f 117/29/1 118/30/1 119/31/1 120/32/1
f 121/29/1 122/30/1 123/31/1 124/32/1
f 125/33/1 126/34/1 127/35/1 128/30/1
f 129/33/1 130/34/1 131/35/1 132/30/1
f 133/33/1 134/34/1 135/35/1 136/30/1
f 137/33/1 138/34/1 139/35/1 140/30/1
f 141/33/1 142/34/1 143/35/1 144/30/1
f 145/33/1 146/34/1 147/35/1 148/30/1
f 149/36/1 150/37/1 151/38/1 152/39/1
f 153/40/1 154/41/1 155/42/1 156/43/1
f 157/40/1 158/41/1 159/42/1 160/43/1
f 161/40/1 162/41/1 163/42/1 164/43/1
f 165/44/1 166/45/1 167/37/1 168/36/1
f 169/46/1 170/47/1 171/41/1 172/40/1
f 173/46/1 174/47/1 175/41/1 176/40/1
f 177/46/1 178/47/1 179/41/1 180/40/1
f 181/1/1 182/2/1 183/3/1 184/4/1
f 185/2/1 186/5/1 187/6/1 188/3/1
f 189/5/1 190/7/1 191/8/1 192/6/1
f 193/17/1 194/18/1 195/2/1 196/1/1
f 197/18/1 198/19/1 199/5/1 200/2/1
f 201/19/1 202/20/1 203/7/1 204/5/1
f 205/25/1 206/26/1 207/27/1 208/28/1

