# Tiled2Unity generated file. Do not modify by hand.
# Wavefront file for 'Skola1k_mesh_0006.obj'

# Vertices (Count = 224)
v -1344 -320 0
v -1376 -320 0
v -1376 -288 0
v -1344 -288 0
v -1376 -320 0
v -1408 -320 0
v -1408 -288 0
v -1376 -288 0
v -1408 -320 0
v -1440 -320 0
v -1440 -288 0
v -1408 -288 0
v -1440 -320 0
v -1472 -320 0
v -1472 -288 0
v -1440 -288 0
v -1344 -352 0
v -1376 -352 0
v -1376 -320 0
v -1344 -320 0
v -1376 -352 0
v -1408 -352 0
v -1408 -320 0
v -1376 -320 0
v -1408 -352 0
v -1440 -352 0
v -1440 -320 0
v -1408 -320 0
v -1440 -352 0
v -1472 -352 0
v -1472 -320 0
v -1440 -320 0
v -128 -512 0
v -160 -512 0
v -160 -480 0
v -128 -480 0
v -160 -512 0
v -192 -512 0
v -192 -480 0
v -160 -480 0
v -192 -512 0
v -224 -512 0
v -224 -480 0
v -192 -480 0
v -224 -512 0
v -256 -512 0
v -256 -480 0
v -224 -480 0
v -256 -512 0
v -288 -512 0
v -288 -480 0
v -256 -480 0
v -288 -512 0
v -320 -512 0
v -320 -480 0
v -288 -480 0
v -320 -512 0
v -352 -512 0
v -352 -480 0
v -320 -480 0
v -352 -512 0
v -384 -512 0
v -384 -480 0
v -352 -480 0
v -128 -544 0
v -160 -544 0
v -160 -512 0
v -128 -512 0
v -160 -544 0
v -192 -544 0
v -192 -512 0
v -160 -512 0
v -192 -544 0
v -224 -544 0
v -224 -512 0
v -192 -512 0
v -224 -544 0
v -256 -544 0
v -256 -512 0
v -224 -512 0
v -256 -544 0
v -288 -544 0
v -288 -512 0
v -256 -512 0
v -288 -544 0
v -320 -544 0
v -320 -512 0
v -288 -512 0
v -320 -544 0
v -352 -544 0
v -352 -512 0
v -320 -512 0
v -352 -544 0
v -384 -544 0
v -384 -512 0
v -352 -512 0
v -128 -576 0
v -160 -576 0
v -160 -544 0
v -128 -544 0
v -160 -576 0
v -192 -576 0
v -192 -544 0
v -160 -544 0
v -192 -576 0
v -224 -576 0
v -224 -544 0
v -192 -544 0
v -224 -576 0
v -256 -576 0
v -256 -544 0
v -224 -544 0
v -256 -576 0
v -288 -576 0
v -288 -544 0
v -256 -544 0
v -288 -576 0
v -320 -576 0
v -320 -544 0
v -288 -544 0
v -320 -576 0
v -352 -576 0
v -352 -544 0
v -320 -544 0
v -352 -576 0
v -384 -576 0
v -384 -544 0
v -352 -544 0
v -128 -896 0
v -160 -896 0
v -160 -864 0
v -128 -864 0
v -160 -896 0
v -192 -896 0
v -192 -864 0
v -160 -864 0
v -192 -896 0
v -224 -896 0
v -224 -864 0
v -192 -864 0
v -224 -896 0
v -256 -896 0
v -256 -864 0
v -224 -864 0
v -256 -896 0
v -288 -896 0
v -288 -864 0
v -256 -864 0
v -288 -896 0
v -320 -896 0
v -320 -864 0
v -288 -864 0
v -320 -896 0
v -352 -896 0
v -352 -864 0
v -320 -864 0
v -352 -896 0
v -384 -896 0
v -384 -864 0
v -352 -864 0
v -128 -928 0
v -160 -928 0
v -160 -896 0
v -128 -896 0
v -160 -928 0
v -192 -928 0
v -192 -896 0
v -160 -896 0
v -192 -928 0
v -224 -928 0
v -224 -896 0
v -192 -896 0
v -224 -928 0
v -256 -928 0
v -256 -896 0
v -224 -896 0
v -256 -928 0
v -288 -928 0
v -288 -896 0
v -256 -896 0
v -288 -928 0
v -320 -928 0
v -320 -896 0
v -288 -896 0
v -320 -928 0
v -352 -928 0
v -352 -896 0
v -320 -896 0
v -352 -928 0
v -384 -928 0
v -384 -896 0
v -352 -896 0
v -128 -960 0
v -160 -960 0
v -160 -928 0
v -128 -928 0
v -160 -960 0
v -192 -960 0
v -192 -928 0
v -160 -928 0
v -192 -960 0
v -224 -960 0
v -224 -928 0
v -192 -928 0
v -224 -960 0
v -256 -960 0
v -256 -928 0
v -224 -928 0
v -256 -960 0
v -288 -960 0
v -288 -928 0
v -256 -928 0
v -288 -960 0
v -320 -960 0
v -320 -928 0
v -288 -928 0
v -320 -960 0
v -352 -960 0
v -352 -928 0
v -320 -928 0
v -352 -960 0
v -384 -960 0
v -384 -928 0
v -352 -928 0

# Texture cooridinates (Count = 21)
vt 0.375 0.5
vt 0.4375 0.5
vt 0.4375 0.5625
vt 0.375 0.5625
vt 0.5 0.5
vt 0.5 0.5625
vt 0.375 0.4375
vt 0.4375 0.4375
vt 0.5 0.4375
vt 0 0.875
vt 0.0625 0.875
vt 0.0625 0.9375
vt 0 0.9375
vt 0.125 0.875
vt 0.125 0.9375
vt 0 0.8125
vt 0.0625 0.8125
vt 0.125 0.8125
vt 0 0.75
vt 0.0625 0.75
vt 0.125 0.75

# Normal
vn 0 0 -1

# Mesh description
g Skola1k_mesh_0006

# Faces
f 1/1/1 2/2/1 3/3/1 4/4/1
f 5/2/1 6/5/1 7/6/1 8/3/1
f 9/1/1 10/2/1 11/3/1 12/4/1
f 13/2/1 14/5/1 15/6/1 16/3/1
f 17/7/1 18/8/1 19/2/1 20/1/1
f 21/8/1 22/9/1 23/5/1 24/2/1
f 25/7/1 26/8/1 27/2/1 28/1/1
f 29/8/1 30/9/1 31/5/1 32/2/1
f 33/10/1 34/11/1 35/12/1 36/13/1
f 37/11/1 38/14/1 39/15/1 40/12/1
f 41/10/1 42/11/1 43/12/1 44/13/1
f 45/11/1 46/14/1 47/15/1 48/12/1
f 49/10/1 50/11/1 51/12/1 52/13/1
f 53/11/1 54/14/1 55/15/1 56/12/1
f 57/10/1 58/11/1 59/12/1 60/13/1
f 61/11/1 62/14/1 63/15/1 64/12/1
f 65/16/1 66/17/1 67/11/1 68/10/1
f 69/17/1 70/18/1 71/14/1 72/11/1
f 73/16/1 74/17/1 75/11/1 76/10/1
f 77/17/1 78/18/1 79/14/1 80/11/1
f 81/16/1 82/17/1 83/11/1 84/10/1
f 85/17/1 86/18/1 87/14/1 88/11/1
f 89/16/1 90/17/1 91/11/1 92/10/1
f 93/17/1 94/18/1 95/14/1 96/11/1
f 97/19/1 98/20/1 99/17/1 100/16/1
f 101/20/1 102/21/1 103/18/1 104/17/1
f 105/19/1 106/20/1 107/17/1 108/16/1
f 109/20/1 110/21/1 111/18/1 112/17/1
f 113/19/1 114/20/1 115/17/1 116/16/1
f 117/20/1 118/21/1 119/18/1 120/17/1
f 121/19/1 122/20/1 123/17/1 124/16/1
f 125/20/1 126/21/1 127/18/1 128/17/1
f 129/10/1 130/11/1 131/12/1 132/13/1
f 133/11/1 134/14/1 135/15/1 136/12/1
f 137/10/1 138/11/1 139/12/1 140/13/1
f 141/11/1 142/14/1 143/15/1 144/12/1
f 145/10/1 146/11/1 147/12/1 148/13/1
f 149/11/1 150/14/1 151/15/1 152/12/1
f 153/10/1 154/11/1 155/12/1 156/13/1
f 157/11/1 158/14/1 159/15/1 160/12/1
f 161/16/1 162/17/1 163/11/1 164/10/1
f 165/17/1 166/18/1 167/14/1 168/11/1
f 169/16/1 170/17/1 171/11/1 172/10/1
f 173/17/1 174/18/1 175/14/1 176/11/1
f 177/16/1 178/17/1 179/11/1 180/10/1
f 181/17/1 182/18/1 183/14/1 184/11/1
f 185/16/1 186/17/1 187/11/1 188/10/1
f 189/17/1 190/18/1 191/14/1 192/11/1
f 193/19/1 194/20/1 195/17/1 196/16/1
f 197/20/1 198/21/1 199/18/1 200/17/1
f 201/19/1 202/20/1 203/17/1 204/16/1
f 205/20/1 206/21/1 207/18/1 208/17/1
f 209/19/1 210/20/1 211/17/1 212/16/1
f 213/20/1 214/21/1 215/18/1 216/17/1
f 217/19/1 218/20/1 219/17/1 220/16/1
f 221/20/1 222/21/1 223/18/1 224/17/1

