# Tiled2Unity generated file. Do not modify by hand.
# Wavefront file for 'Skola1k_mesh_0010.obj'

# Vertices (Count = 188)
v -128 -288 0
v -160 -288 0
v -160 -256 0
v -128 -256 0
v -160 -288 0
v -192 -288 0
v -192 -256 0
v -160 -256 0
v -192 -288 0
v -224 -288 0
v -224 -256 0
v -192 -256 0
v -224 -288 0
v -256 -288 0
v -256 -256 0
v -224 -256 0
v -128 -320 0
v -160 -320 0
v -160 -288 0
v -128 -288 0
v -160 -320 0
v -192 -320 0
v -192 -288 0
v -160 -288 0
v -192 -320 0
v -224 -320 0
v -224 -288 0
v -192 -288 0
v -224 -320 0
v -256 -320 0
v -256 -288 0
v -224 -288 0
v -704 -384 0
v -736 -384 0
v -736 -352 0
v -704 -352 0
v -128 -672 0
v -160 -672 0
v -160 -640 0
v -128 -640 0
v -128 -704 0
v -160 -704 0
v -160 -672 0
v -128 -672 0
v -1280 -800 0
v -1312 -800 0
v -1312 -768 0
v -1280 -768 0
v -1312 -800 0
v -1344 -800 0
v -1344 -768 0
v -1312 -768 0
v -1344 -800 0
v -1376 -800 0
v -1376 -768 0
v -1344 -768 0
v -1376 -800 0
v -1408 -800 0
v -1408 -768 0
v -1376 -768 0
v -1408 -800 0
v -1440 -800 0
v -1440 -768 0
v -1408 -768 0
v -1440 -800 0
v -1472 -800 0
v -1472 -768 0
v -1440 -768 0
v -1280 -832 0
v -1312 -832 0
v -1312 -800 0
v -1280 -800 0
v -1312 -832 0
v -1344 -832 0
v -1344 -800 0
v -1312 -800 0
v -1344 -832 0
v -1376 -832 0
v -1376 -800 0
v -1344 -800 0
v -1376 -832 0
v -1408 -832 0
v -1408 -800 0
v -1376 -800 0
v -1408 -832 0
v -1440 -832 0
v -1440 -800 0
v -1408 -800 0
v -1440 -832 0
v -1472 -832 0
v -1472 -800 0
v -1440 -800 0
v -1344 -896 0
v -1376 -896 0
v -1376 -864 0
v -1344 -864 0
v -1376 -896 0
v -1408 -896 0
v -1408 -864 0
v -1376 -864 0
v -1408 -896 0
v -1440 -896 0
v -1440 -864 0
v -1408 -864 0
v -1440 -896 0
v -1472 -896 0
v -1472 -864 0
v -1440 -864 0
v -1344 -928 0
v -1376 -928 0
v -1376 -896 0
v -1344 -896 0
v -1376 -928 0
v -1408 -928 0
v -1408 -896 0
v -1376 -896 0
v -1408 -928 0
v -1440 -928 0
v -1440 -896 0
v -1408 -896 0
v -1440 -928 0
v -1472 -928 0
v -1472 -896 0
v -1440 -896 0
v -1344 -992 0
v -1376 -992 0
v -1376 -960 0
v -1344 -960 0
v -1376 -992 0
v -1408 -992 0
v -1408 -960 0
v -1376 -960 0
v -1408 -992 0
v -1440 -992 0
v -1440 -960 0
v -1408 -960 0
v -1440 -992 0
v -1472 -992 0
v -1472 -960 0
v -1440 -960 0
v -1344 -1024 0
v -1376 -1024 0
v -1376 -992 0
v -1344 -992 0
v -1376 -1024 0
v -1408 -1024 0
v -1408 -992 0
v -1376 -992 0
v -1408 -1024 0
v -1440 -1024 0
v -1440 -992 0
v -1408 -992 0
v -1440 -1024 0
v -1472 -1024 0
v -1472 -992 0
v -1440 -992 0
v -1344 -1088 0
v -1376 -1088 0
v -1376 -1056 0
v -1344 -1056 0
v -1376 -1088 0
v -1408 -1088 0
v -1408 -1056 0
v -1376 -1056 0
v -1408 -1088 0
v -1440 -1088 0
v -1440 -1056 0
v -1408 -1056 0
v -1440 -1088 0
v -1472 -1088 0
v -1472 -1056 0
v -1440 -1056 0
v -1344 -1120 0
v -1376 -1120 0
v -1376 -1088 0
v -1344 -1088 0
v -1376 -1120 0
v -1408 -1120 0
v -1408 -1088 0
v -1376 -1088 0
v -1408 -1120 0
v -1440 -1120 0
v -1440 -1088 0
v -1408 -1088 0
v -1440 -1120 0
v -1472 -1120 0
v -1472 -1088 0
v -1440 -1088 0

# Texture cooridinates (Count = 19)
vt 0.3125 0.0625
vt 0.375 0.0625
vt 0.375 0.125
vt 0.3125 0.125
vt 0.3125 0
vt 0.375 0
vt 0.5625 0.0625
vt 0.625 0.0625
vt 0.625 0.125
vt 0.5625 0.125
vt 0.625 0.375
vt 0.6875 0.375
vt 0.6875 0.4375
vt 0.625 0.4375
vt 0.75 0.375
vt 0.75 0.4375
vt 0.625 0.3125
vt 0.6875 0.3125
vt 0.75 0.3125

# Normal
vn 0 0 -1

# Mesh description
g Skola1k_mesh_0010

# Faces
f 1/1/1 2/2/1 3/3/1 4/4/1
f 5/1/1 6/2/1 7/3/1 8/4/1
f 9/1/1 10/2/1 11/3/1 12/4/1
f 13/1/1 14/2/1 15/3/1 16/4/1
f 17/5/1 18/6/1 19/2/1 20/1/1
f 21/5/1 22/6/1 23/2/1 24/1/1
f 25/5/1 26/6/1 27/2/1 28/1/1
f 29/5/1 30/6/1 31/2/1 32/1/1
f 33/7/1 34/8/1 35/9/1 36/10/1
f 37/1/1 38/2/1 39/3/1 40/4/1
f 41/5/1 42/6/1 43/2/1 44/1/1
f 45/11/1 46/12/1 47/13/1 48/14/1
f 49/12/1 50/15/1 51/16/1 52/13/1
f 53/11/1 54/12/1 55/13/1 56/14/1
f 57/12/1 58/15/1 59/16/1 60/13/1
f 61/11/1 62/12/1 63/13/1 64/14/1
f 65/12/1 66/15/1 67/16/1 68/13/1
f 69/17/1 70/18/1 71/12/1 72/11/1
f 73/18/1 74/19/1 75/15/1 76/12/1
f 77/17/1 78/18/1 79/12/1 80/11/1
f 81/18/1 82/19/1 83/15/1 84/12/1
f 85/17/1 86/18/1 87/12/1 88/11/1
f 89/18/1 90/19/1 91/15/1 92/12/1
f 93/11/1 94/12/1 95/13/1 96/14/1
f 97/12/1 98/15/1 99/16/1 100/13/1
f 101/11/1 102/12/1 103/13/1 104/14/1
f 105/12/1 106/15/1 107/16/1 108/13/1
f 109/17/1 110/18/1 111/12/1 112/11/1
f 113/18/1 114/19/1 115/15/1 116/12/1
f 117/17/1 118/18/1 119/12/1 120/11/1
f 121/18/1 122/19/1 123/15/1 124/12/1
f 125/11/1 126/12/1 127/13/1 128/14/1
f 129/12/1 130/15/1 131/16/1 132/13/1
f 133/11/1 134/12/1 135/13/1 136/14/1
f 137/12/1 138/15/1 139/16/1 140/13/1
f 141/17/1 142/18/1 143/12/1 144/11/1
f 145/18/1 146/19/1 147/15/1 148/12/1
f 149/17/1 150/18/1 151/12/1 152/11/1
f 153/18/1 154/19/1 155/15/1 156/12/1
f 157/11/1 158/12/1 159/13/1 160/14/1
f 161/12/1 162/15/1 163/16/1 164/13/1
f 165/11/1 166/12/1 167/13/1 168/14/1
f 169/12/1 170/15/1 171/16/1 172/13/1
f 173/17/1 174/18/1 175/12/1 176/11/1
f 177/18/1 178/19/1 179/15/1 180/12/1
f 181/17/1 182/18/1 183/12/1 184/11/1
f 185/18/1 186/19/1 187/15/1 188/12/1

