# Tiled2Unity generated file. Do not modify by hand.
# Wavefront file for 'Skola1k_mesh_0008.obj'

# Vertices (Count = 24)
v -448 -544 0
v -480 -544 0
v -480 -512 0
v -448 -512 0
v -448 -576 0
v -480 -576 0
v -480 -544 0
v -448 -544 0
v -448 -608 0
v -480 -608 0
v -480 -576 0
v -448 -576 0
v -448 -736 0
v -480 -736 0
v -480 -704 0
v -448 -704 0
v -448 -768 0
v -480 -768 0
v -480 -736 0
v -448 -736 0
v -448 -800 0
v -480 -800 0
v -480 -768 0
v -448 -768 0

# Texture cooridinates (Count = 6)
vt 0.8125 0.5
vt 0.875 0.5
vt 0.875 0.5625
vt 0.8125 0.5625
vt 0.8125 0.4375
vt 0.875 0.4375

# Normal
vn 0 0 -1

# Mesh description
g Skola1k_mesh_0008

# Faces
f 1/1/1 2/2/1 3/3/1 4/4/1
f 5/1/1 6/2/1 7/3/1 8/4/1
f 9/5/1 10/6/1 11/2/1 12/1/1
f 13/1/1 14/2/1 15/3/1 16/4/1
f 17/1/1 18/2/1 19/3/1 20/4/1
f 21/5/1 22/6/1 23/2/1 24/1/1

