# Tiled2Unity generated file. Do not modify by hand.
# Wavefront file for 'Skola1k_mesh_0017.obj'

# Vertices (Count = 12)
v -448 -576 0
v -480 -576 0
v -480 -544 0
v -448 -544 0
v -448 -736 0
v -480 -736 0
v -480 -704 0
v -448 -704 0
v -448 -768 0
v -480 -768 0
v -480 -736 0
v -448 -736 0

# Texture cooridinates (Count = 6)
vt 0.8125 0.4375
vt 0.875 0.4375
vt 0.875 0.5
vt 0.8125 0.5
vt 0.875 0.5625
vt 0.8125 0.5625

# Normal
vn 0 0 -1

# Mesh description
g Skola1k_mesh_0017

# Faces
f 1/1/1 2/2/1 3/3/1 4/4/1
f 5/4/1 6/3/1 7/5/1 8/6/1
f 9/1/1 10/2/1 11/3/1 12/4/1

