# Tiled2Unity generated file. Do not modify by hand.
# Wavefront file for 'Skola1k_mesh_0003.obj'

# Vertices (Count = 208)
v -800 -288 0
v -832 -288 0
v -832 -256 0
v -800 -256 0
v -832 -288 0
v -864 -288 0
v -864 -256 0
v -832 -256 0
v -864 -288 0
v -896 -288 0
v -896 -256 0
v -864 -256 0
v -544 -320 0
v -576 -320 0
v -576 -288 0
v -544 -288 0
v -800 -320 0
v -832 -320 0
v -832 -288 0
v -800 -288 0
v -832 -320 0
v -864 -320 0
v -864 -288 0
v -832 -288 0
v -864 -320 0
v -896 -320 0
v -896 -288 0
v -864 -288 0
v -544 -352 0
v -576 -352 0
v -576 -320 0
v -544 -320 0
v -896 -352 0
v -928 -352 0
v -928 -320 0
v -896 -320 0
v -672 -384 0
v -704 -384 0
v -704 -352 0
v -672 -352 0
v -704 -384 0
v -736 -384 0
v -736 -352 0
v -704 -352 0
v -896 -384 0
v -928 -384 0
v -928 -352 0
v -896 -352 0
v -1216 -672 0
v -1248 -672 0
v -1248 -640 0
v -1216 -640 0
v -1248 -672 0
v -1280 -672 0
v -1280 -640 0
v -1248 -640 0
v -1280 -672 0
v -1312 -672 0
v -1312 -640 0
v -1280 -640 0
v -1312 -672 0
v -1344 -672 0
v -1344 -640 0
v -1312 -640 0
v -1440 -672 0
v -1472 -672 0
v -1472 -640 0
v -1440 -640 0
v -1216 -704 0
v -1248 -704 0
v -1248 -672 0
v -1216 -672 0
v -1248 -704 0
v -1280 -704 0
v -1280 -672 0
v -1248 -672 0
v -1280 -704 0
v -1312 -704 0
v -1312 -672 0
v -1280 -672 0
v -1312 -704 0
v -1344 -704 0
v -1344 -672 0
v -1312 -672 0
v -1440 -704 0
v -1472 -704 0
v -1472 -672 0
v -1440 -672 0
v -768 -1120 0
v -800 -1120 0
v -800 -1088 0
v -768 -1088 0
v -800 -1120 0
v -832 -1120 0
v -832 -1088 0
v -800 -1088 0
v -768 -1184 0
v -800 -1184 0
v -800 -1152 0
v -768 -1152 0
v -800 -1184 0
v -832 -1184 0
v -832 -1152 0
v -800 -1152 0
v -896 -1184 0
v -928 -1184 0
v -928 -1152 0
v -896 -1152 0
v -928 -1184 0
v -960 -1184 0
v -960 -1152 0
v -928 -1152 0
v -768 -1216 0
v -800 -1216 0
v -800 -1184 0
v -768 -1184 0
v -800 -1216 0
v -832 -1216 0
v -832 -1184 0
v -800 -1184 0
v -896 -1216 0
v -928 -1216 0
v -928 -1184 0
v -896 -1184 0
v -928 -1216 0
v -960 -1216 0
v -960 -1184 0
v -928 -1184 0
v -768 -1248 0
v -800 -1248 0
v -800 -1216 0
v -768 -1216 0
v -800 -1248 0
v -832 -1248 0
v -832 -1216 0
v -800 -1216 0
v -896 -1248 0
v -928 -1248 0
v -928 -1216 0
v -896 -1216 0
v -928 -1248 0
v -960 -1248 0
v -960 -1216 0
v -928 -1216 0
v -768 -1280 0
v -800 -1280 0
v -800 -1248 0
v -768 -1248 0
v -800 -1280 0
v -832 -1280 0
v -832 -1248 0
v -800 -1248 0
v -896 -1280 0
v -928 -1280 0
v -928 -1248 0
v -896 -1248 0
v -928 -1280 0
v -960 -1280 0
v -960 -1248 0
v -928 -1248 0
v -1440 -1280 0
v -1472 -1280 0
v -1472 -1248 0
v -1440 -1248 0
v -768 -1312 0
v -800 -1312 0
v -800 -1280 0
v -768 -1280 0
v -800 -1312 0
v -832 -1312 0
v -832 -1280 0
v -800 -1280 0
v -896 -1312 0
v -928 -1312 0
v -928 -1280 0
v -896 -1280 0
v -928 -1312 0
v -960 -1312 0
v -960 -1280 0
v -928 -1280 0
v -1440 -1312 0
v -1472 -1312 0
v -1472 -1280 0
v -1440 -1280 0
v -768 -1344 0
v -800 -1344 0
v -800 -1312 0
v -768 -1312 0
v -800 -1344 0
v -832 -1344 0
v -832 -1312 0
v -800 -1312 0
v -896 -1344 0
v -928 -1344 0
v -928 -1312 0
v -896 -1312 0
v -928 -1344 0
v -960 -1344 0
v -960 -1312 0
v -928 -1312 0
v -1056 -1344 0
v -1088 -1344 0
v -1088 -1312 0
v -1056 -1312 0
v -1440 -1344 0
v -1472 -1344 0
v -1472 -1312 0
v -1440 -1312 0

# Texture cooridinates (Count = 48)
vt 0.1875 0.6875
vt 0.25 0.6875
vt 0.25 0.75
vt 0.1875 0.75
vt 0.3125 0.6875
vt 0.3125 0.75
vt 0.375 0.6875
vt 0.375 0.75
vt 0.125 0.4375
vt 0.1875 0.4375
vt 0.1875 0.5
vt 0.125 0.5
vt 0.1875 0.625
vt 0.25 0.625
vt 0.3125 0.625
vt 0.375 0.625
vt 0.125 0.375
vt 0.1875 0.375
vt 0.375 0.4375
vt 0.4375 0.4375
vt 0.4375 0.5
vt 0.375 0.5
vt 0.4375 0.5625
vt 0.375 0.5625
vt 0.375 0.375
vt 0.4375 0.375
vt 0 0.5625
vt 0.0625 0.5625
vt 0.0625 0.625
vt 0 0.625
vt 0.125 0.5625
vt 0.125 0.625
vt 0.1875 0.5625
vt 0 0.5
vt 0.0625 0.5
vt 0.25 0.5
vt 0.25 0.5625
vt 0.25 0.4375
vt 0.3125 0.4375
vt 0.3125 0.5
vt 0.9375 0.9375
vt 1 0.9375
vt 1 1
vt 0.9375 1
vt 0.9375 0.875
vt 1 0.875
vt 0.9375 0.8125
vt 1 0.8125

# Normal
vn 0 0 -1

# Mesh description
g Skola1k_mesh_0003

# Faces
f 1/1/1 2/2/1 3/3/1 4/4/1
f 5/2/1 6/5/1 7/6/1 8/3/1
f 9/5/1 10/7/1 11/8/1 12/6/1
f 13/9/1 14/10/1 15/11/1 16/12/1
f 17/13/1 18/14/1 19/2/1 20/1/1
f 21/14/1 22/15/1 23/5/1 24/2/1
f 25/15/1 26/16/1 27/7/1 28/5/1
f 29/17/1 30/18/1 31/10/1 32/9/1
f 33/19/1 34/20/1 35/21/1 36/22/1
f 37/22/1 38/21/1 39/23/1 40/24/1
f 41/22/1 42/21/1 43/23/1 44/24/1
f 45/25/1 46/26/1 47/20/1 48/19/1
f 49/27/1 50/28/1 51/29/1 52/30/1
f 53/28/1 54/31/1 55/32/1 56/29/1
f 57/28/1 58/31/1 59/32/1 60/29/1
f 61/31/1 62/33/1 63/13/1 64/32/1
f 65/9/1 66/10/1 67/11/1 68/12/1
f 69/34/1 70/35/1 71/28/1 72/27/1
f 73/35/1 74/12/1 75/31/1 76/28/1
f 77/35/1 78/12/1 79/31/1 80/28/1
f 81/12/1 82/11/1 83/33/1 84/31/1
f 85/17/1 86/18/1 87/10/1 88/9/1
f 89/22/1 90/21/1 91/23/1 92/24/1
f 93/22/1 94/21/1 95/23/1 96/24/1
f 97/11/1 98/36/1 99/37/1 100/33/1
f 101/11/1 102/36/1 103/37/1 104/33/1
f 105/11/1 106/36/1 107/37/1 108/33/1
f 109/11/1 110/36/1 111/37/1 112/33/1
f 113/38/1 114/39/1 115/40/1 116/36/1
f 117/38/1 118/39/1 119/40/1 120/36/1
f 121/38/1 122/39/1 123/40/1 124/36/1
f 125/38/1 126/39/1 127/40/1 128/36/1
f 129/11/1 130/36/1 131/37/1 132/33/1
f 133/11/1 134/36/1 135/37/1 136/33/1
f 137/11/1 138/36/1 139/37/1 140/33/1
f 141/11/1 142/36/1 143/37/1 144/33/1
f 145/38/1 146/39/1 147/40/1 148/36/1
f 149/38/1 150/39/1 151/40/1 152/36/1
f 153/38/1 154/39/1 155/40/1 156/36/1
f 157/38/1 158/39/1 159/40/1 160/36/1
f 161/41/1 162/42/1 163/43/1 164/44/1
f 165/11/1 166/36/1 167/37/1 168/33/1
f 169/11/1 170/36/1 171/37/1 172/33/1
f 173/11/1 174/36/1 175/37/1 176/33/1
f 177/11/1 178/36/1 179/37/1 180/33/1
f 181/45/1 182/46/1 183/42/1 184/41/1
f 185/38/1 186/39/1 187/40/1 188/36/1
f 189/38/1 190/39/1 191/40/1 192/36/1
f 193/38/1 194/39/1 195/40/1 196/36/1
f 197/38/1 198/39/1 199/40/1 200/36/1
f 201/38/1 202/39/1 203/40/1 204/36/1
f 205/47/1 206/48/1 207/46/1 208/45/1

