# Tiled2Unity generated file. Do not modify by hand.
# Wavefront file for 'Skola1k_mesh_0009.obj'

# Vertices (Count = 28)
v -960 -672 0
v -992 -672 0
v -992 -640 0
v -960 -640 0
v -992 -672 0
v -1024 -672 0
v -1024 -640 0
v -992 -640 0
v -960 -704 0
v -992 -704 0
v -992 -672 0
v -960 -672 0
v -992 -704 0
v -1024 -704 0
v -1024 -672 0
v -992 -672 0
v -832 -1024 0
v -864 -1024 0
v -864 -992 0
v -832 -992 0
v -864 -1024 0
v -896 -1024 0
v -896 -992 0
v -864 -992 0
v -864 -1056 0
v -896 -1056 0
v -896 -1024 0
v -864 -1024 0

# Texture cooridinates (Count = 13)
vt 0 0.375
vt 0.03125 0.375
vt 0.03125 0.40625
vt 0 0.40625
vt 0.0625 0.375
vt 0.0625 0.40625
vt 0 0.34375
vt 0.03125 0.34375
vt 0.0625 0.34375
vt 0.03125 0.0625
vt 0.0625 0.0625
vt 0.0625 0.09375
vt 0.03125 0.09375

# Normal
vn 0 0 -1

# Mesh description
g Skola1k_mesh_0009

# Faces
f 1/1/1 2/2/1 3/3/1 4/4/1
f 5/2/1 6/5/1 7/6/1 8/3/1
f 9/7/1 10/8/1 11/2/1 12/1/1
f 13/8/1 14/9/1 15/5/1 16/2/1
f 17/10/1 18/11/1 19/12/1 20/13/1
f 21/10/1 22/11/1 23/12/1 24/13/1
f 25/10/1 26/11/1 27/12/1 28/13/1

