# Tiled2Unity generated file. Do not modify by hand.
# Wavefront file for 'Skola1k_mesh_0007.obj'

# Vertices (Count = 148)
v -704 -352 0
v -736 -352 0
v -736 -320 0
v -704 -320 0
v -1056 -384 0
v -1088 -384 0
v -1088 -352 0
v -1056 -352 0
v -1088 -384 0
v -1120 -384 0
v -1120 -352 0
v -1088 -352 0
v -1120 -384 0
v -1152 -384 0
v -1152 -352 0
v -1120 -352 0
v -1152 -384 0
v -1184 -384 0
v -1184 -352 0
v -1152 -352 0
v -1184 -384 0
v -1216 -384 0
v -1216 -352 0
v -1184 -352 0
v -1216 -384 0
v -1248 -384 0
v -1248 -352 0
v -1216 -352 0
v -1056 -448 0
v -1088 -448 0
v -1088 -416 0
v -1056 -416 0
v -1088 -448 0
v -1120 -448 0
v -1120 -416 0
v -1088 -416 0
v -1120 -448 0
v -1152 -448 0
v -1152 -416 0
v -1120 -416 0
v -1152 -448 0
v -1184 -448 0
v -1184 -416 0
v -1152 -416 0
v -1184 -448 0
v -1216 -448 0
v -1216 -416 0
v -1184 -416 0
v -1216 -448 0
v -1248 -448 0
v -1248 -416 0
v -1216 -416 0
v -1056 -512 0
v -1088 -512 0
v -1088 -480 0
v -1056 -480 0
v -1088 -512 0
v -1120 -512 0
v -1120 -480 0
v -1088 -480 0
v -1120 -512 0
v -1152 -512 0
v -1152 -480 0
v -1120 -480 0
v -1152 -512 0
v -1184 -512 0
v -1184 -480 0
v -1152 -480 0
v -1184 -512 0
v -1216 -512 0
v -1216 -480 0
v -1184 -480 0
v -1216 -512 0
v -1248 -512 0
v -1248 -480 0
v -1216 -480 0
v -1056 -576 0
v -1088 -576 0
v -1088 -544 0
v -1056 -544 0
v -1088 -576 0
v -1120 -576 0
v -1120 -544 0
v -1088 -544 0
v -1120 -576 0
v -1152 -576 0
v -1152 -544 0
v -1120 -544 0
v -1152 -576 0
v -1184 -576 0
v -1184 -544 0
v -1152 -544 0
v -1184 -576 0
v -1216 -576 0
v -1216 -544 0
v -1184 -544 0
v -1216 -576 0
v -1248 -576 0
v -1248 -544 0
v -1216 -544 0
v -800 -1088 0
v -832 -1088 0
v -832 -1056 0
v -800 -1056 0
v -1280 -1152 0
v -1312 -1152 0
v -1312 -1120 0
v -1280 -1120 0
v -1280 -1184 0
v -1312 -1184 0
v -1312 -1152 0
v -1280 -1152 0
v -1312 -1184 0
v -1344 -1184 0
v -1344 -1152 0
v -1312 -1152 0
v -1344 -1184 0
v -1376 -1184 0
v -1376 -1152 0
v -1344 -1152 0
v -1376 -1184 0
v -1408 -1184 0
v -1408 -1152 0
v -1376 -1152 0
v -1408 -1184 0
v -1440 -1184 0
v -1440 -1152 0
v -1408 -1152 0
v -1440 -1184 0
v -1472 -1184 0
v -1472 -1152 0
v -1440 -1152 0
v -1024 -1280 0
v -1056 -1280 0
v -1056 -1248 0
v -1024 -1248 0
v -1056 -1280 0
v -1088 -1280 0
v -1088 -1248 0
v -1056 -1248 0
v -1024 -1312 0
v -1056 -1312 0
v -1056 -1280 0
v -1024 -1280 0
v -1056 -1312 0
v -1088 -1312 0
v -1088 -1280 0
v -1056 -1280 0

# Texture cooridinates (Count = 31)
vt 0.625 0.1875
vt 0.6875 0.1875
vt 0.6875 0.25
vt 0.625 0.25
vt 0.5625 0.1875
vt 0.5625 0.25
vt 0.625 0.3125
vt 0.5625 0.3125
vt 0.875 0.375
vt 0.9375 0.375
vt 0.9375 0.4375
vt 0.875 0.4375
vt 0.875 0.3125
vt 0.9375 0.3125
vt 0.75 0
vt 0.8125 0
vt 0.8125 0.0625
vt 0.75 0.0625
vt 0.875 0
vt 0.875 0.0625
vt 0.9375 0
vt 0.9375 0.0625
vt 0.0625 0.375
vt 0.125 0.375
vt 0.125 0.4375
vt 0.0625 0.4375
vt 0.1875 0.375
vt 0.1875 0.4375
vt 0.0625 0.3125
vt 0.125 0.3125
vt 0.1875 0.3125

# Normal
vn 0 0 -1

# Mesh description
g Skola1k_mesh_0007

# Faces
f 1/1/1 2/2/1 3/3/1 4/4/1
f 5/5/1 6/1/1 7/4/1 8/6/1
f 9/5/1 10/1/1 11/4/1 12/6/1
f 13/5/1 14/1/1 15/4/1 16/6/1
f 17/5/1 18/1/1 19/4/1 20/6/1
f 21/5/1 22/1/1 23/4/1 24/6/1
f 25/5/1 26/1/1 27/4/1 28/6/1
f 29/6/1 30/4/1 31/7/1 32/8/1
f 33/6/1 34/4/1 35/7/1 36/8/1
f 37/6/1 38/4/1 39/7/1 40/8/1
f 41/6/1 42/4/1 43/7/1 44/8/1
f 45/6/1 46/4/1 47/7/1 48/8/1
f 49/6/1 50/4/1 51/7/1 52/8/1
f 53/5/1 54/1/1 55/4/1 56/6/1
f 57/5/1 58/1/1 59/4/1 60/6/1
f 61/5/1 62/1/1 63/4/1 64/6/1
f 65/5/1 66/1/1 67/4/1 68/6/1
f 69/5/1 70/1/1 71/4/1 72/6/1
f 73/5/1 74/1/1 75/4/1 76/6/1
f 77/6/1 78/4/1 79/7/1 80/8/1
f 81/6/1 82/4/1 83/7/1 84/8/1
f 85/6/1 86/4/1 87/7/1 88/8/1
f 89/6/1 90/4/1 91/7/1 92/8/1
f 93/6/1 94/4/1 95/7/1 96/8/1
f 97/6/1 98/4/1 99/7/1 100/8/1
f 101/1/1 102/2/1 103/3/1 104/4/1
f 105/9/1 106/10/1 107/11/1 108/12/1
f 109/13/1 110/14/1 111/10/1 112/9/1
f 113/15/1 114/16/1 115/17/1 116/18/1
f 117/15/1 118/16/1 119/17/1 120/18/1
f 121/15/1 122/16/1 123/17/1 124/18/1
f 125/16/1 126/19/1 127/20/1 128/17/1
f 129/19/1 130/21/1 131/22/1 132/20/1
f 133/23/1 134/24/1 135/25/1 136/26/1
f 137/24/1 138/27/1 139/28/1 140/25/1
f 141/29/1 142/30/1 143/24/1 144/23/1
f 145/30/1 146/31/1 147/27/1 148/24/1

