# Tiled2Unity generated file. Do not modify by hand.
# Wavefront file for 'Skola1k_mesh_0019.obj'

# Vertices (Count = 24)
v -640 -704 0
v -672 -704 0
v -672 -672 0
v -640 -672 0
v -672 -704 0
v -704 -704 0
v -704 -672 0
v -672 -672 0
v -640 -960 0
v -672 -960 0
v -672 -928 0
v -640 -928 0
v -672 -960 0
v -704 -960 0
v -704 -928 0
v -672 -928 0
v -1280 -1280 0
v -1312 -1280 0
v -1312 -1248 0
v -1280 -1248 0
v -1312 -1280 0
v -1344 -1280 0
v -1344 -1248 0
v -1312 -1248 0

# Texture cooridinates (Count = 6)
vt 0.625 0.5
vt 0.6875 0.5
vt 0.6875 0.5625
vt 0.625 0.5625
vt 0.75 0.5
vt 0.75 0.5625

# Normal
vn 0 0 -1

# Mesh description
g Skola1k_mesh_0019

# Faces
f 1/1/1 2/2/1 3/3/1 4/4/1
f 5/1/1 6/2/1 7/3/1 8/4/1
f 9/2/1 10/5/1 11/6/1 12/3/1
f 13/2/1 14/5/1 15/6/1 16/3/1
f 17/1/1 18/2/1 19/3/1 20/4/1
f 21/1/1 22/2/1 23/3/1 24/4/1

