# Tiled2Unity generated file. Do not modify by hand.
# Wavefront file for 'Skola1k_mesh_0012.obj'

# Vertices (Count = 100)
v -256 -320 0
v -288 -320 0
v -288 -288 0
v -256 -288 0
v -288 -320 0
v -320 -320 0
v -320 -288 0
v -288 -288 0
v -320 -320 0
v -352 -320 0
v -352 -288 0
v -320 -288 0
v -352 -320 0
v -384 -320 0
v -384 -288 0
v -352 -288 0
v -256 -352 0
v -288 -352 0
v -288 -320 0
v -256 -320 0
v -288 -352 0
v -320 -352 0
v -320 -320 0
v -288 -320 0
v -320 -352 0
v -352 -352 0
v -352 -320 0
v -320 -320 0
v -352 -352 0
v -384 -352 0
v -384 -320 0
v -352 -320 0
v -256 -384 0
v -288 -384 0
v -288 -352 0
v -256 -352 0
v -288 -384 0
v -320 -384 0
v -320 -352 0
v -288 -352 0
v -320 -384 0
v -352 -384 0
v -352 -352 0
v -320 -352 0
v -352 -384 0
v -384 -384 0
v -384 -352 0
v -352 -352 0
v -576 -672 0
v -608 -672 0
v -608 -640 0
v -576 -640 0
v -608 -672 0
v -640 -672 0
v -640 -640 0
v -608 -640 0
v -288 -704 0
v -320 -704 0
v -320 -672 0
v -288 -672 0
v -320 -704 0
v -352 -704 0
v -352 -672 0
v -320 -672 0
v -352 -704 0
v -384 -704 0
v -384 -672 0
v -352 -672 0
v -576 -704 0
v -608 -704 0
v -608 -672 0
v -576 -672 0
v -608 -704 0
v -640 -704 0
v -640 -672 0
v -608 -672 0
v -288 -736 0
v -320 -736 0
v -320 -704 0
v -288 -704 0
v -320 -736 0
v -352 -736 0
v -352 -704 0
v -320 -704 0
v -352 -736 0
v -384 -736 0
v -384 -704 0
v -352 -704 0
v -288 -768 0
v -320 -768 0
v -320 -736 0
v -288 -736 0
v -320 -768 0
v -352 -768 0
v -352 -736 0
v -320 -736 0
v -352 -768 0
v -384 -768 0
v -384 -736 0
v -352 -736 0

# Texture cooridinates (Count = 32)
vt 0.625 0.71875
vt 0.65625 0.71875
vt 0.65625 0.75
vt 0.625 0.75
vt 0.6875 0.71875
vt 0.6875 0.75
vt 0.65625 0.625
vt 0.6875 0.625
vt 0.6875 0.65625
vt 0.65625 0.65625
vt 0.71875 0.625
vt 0.71875 0.65625
vt 0.625 0.6875
vt 0.65625 0.6875
vt 0.6875 0.6875
vt 0.65625 0.59375
vt 0.6875 0.59375
vt 0.71875 0.59375
vt 0.625 0.65625
vt 0.65625 0.5625
vt 0.6875 0.5625
vt 0.71875 0.5625
vt 0.625 0.53125
vt 0.65625 0.53125
vt 0.625 0.5625
vt 0.6875 0.53125
vt 0.71875 0.71875
vt 0.71875 0.75
vt 0.625 0.5
vt 0.65625 0.5
vt 0.6875 0.5
vt 0.71875 0.6875

# Normal
vn 0 0 -1

# Mesh description
g Skola1k_mesh_0012

# Faces
f 1/1/1 2/2/1 3/3/1 4/4/1
f 5/2/1 6/5/1 7/6/1 8/3/1
f 9/7/1 10/8/1 11/9/1 12/10/1
f 13/8/1 14/11/1 15/12/1 16/9/1
f 17/13/1 18/14/1 19/2/1 20/1/1
f 21/14/1 22/15/1 23/5/1 24/2/1
f 25/16/1 26/17/1 27/8/1 28/7/1
f 29/17/1 30/18/1 31/11/1 32/8/1
f 33/19/1 34/10/1 35/14/1 36/13/1
f 37/10/1 38/9/1 39/15/1 40/14/1
f 41/20/1 42/21/1 43/17/1 44/16/1
f 45/21/1 46/22/1 47/18/1 48/17/1
f 49/23/1 50/24/1 51/20/1 52/25/1
f 53/24/1 54/26/1 55/21/1 56/20/1
f 57/1/1 58/2/1 59/3/1 60/4/1
f 61/7/1 62/8/1 63/9/1 64/10/1
f 65/5/1 66/27/1 67/28/1 68/6/1
f 69/29/1 70/30/1 71/24/1 72/23/1
f 73/30/1 74/31/1 75/26/1 76/24/1
f 77/13/1 78/14/1 79/2/1 80/1/1
f 81/16/1 82/17/1 83/8/1 84/7/1
f 85/15/1 86/32/1 87/27/1 88/5/1
f 89/19/1 90/10/1 91/14/1 92/13/1
f 93/20/1 94/21/1 95/17/1 96/16/1
f 97/9/1 98/12/1 99/32/1 100/15/1

