# Tiled2Unity generated file. Do not modify by hand.
# Wavefront file for 'Skola1k_mesh_0013.obj'

# Vertices (Count = 16)
v -1376 -320 0
v -1408 -320 0
v -1408 -288 0
v -1376 -288 0
v -1408 -320 0
v -1440 -320 0
v -1440 -288 0
v -1408 -288 0
v -1376 -352 0
v -1408 -352 0
v -1408 -320 0
v -1376 -320 0
v -1408 -352 0
v -1440 -352 0
v -1440 -320 0
v -1408 -320 0

# Texture cooridinates (Count = 9)
vt 0.375 0.5
vt 0.4375 0.5
vt 0.4375 0.5625
vt 0.375 0.5625
vt 0.5 0.5
vt 0.5 0.5625
vt 0.375 0.4375
vt 0.4375 0.4375
vt 0.5 0.4375

# Normal
vn 0 0 -1

# Mesh description
g Skola1k_mesh_0013

# Faces
f 1/1/1 2/2/1 3/3/1 4/4/1
f 5/2/1 6/5/1 7/6/1 8/3/1
f 9/7/1 10/8/1 11/2/1 12/1/1
f 13/8/1 14/9/1 15/5/1 16/2/1

