# Tiled2Unity generated file. Do not modify by hand.
# Wavefront file for 'Parti2k_mesh_0005.obj'

# Vertices (Count = 164)
v -800 -128 0
v -832 -128 0
v -832 -96 0
v -800 -96 0
v -768 -128 0
v -800 -128 0
v -800 -96 0
v -768 -96 0
v -736 -128 0
v -768 -128 0
v -768 -96 0
v -736 -96 0
v -704 -128 0
v -736 -128 0
v -736 -96 0
v -704 -96 0
v -672 -128 0
v -704 -128 0
v -704 -96 0
v -672 -96 0
v -640 -128 0
v -672 -128 0
v -672 -96 0
v -640 -96 0
v -608 -128 0
v -640 -128 0
v -640 -96 0
v -608 -96 0
v -576 -128 0
v -608 -128 0
v -608 -96 0
v -576 -96 0
v -544 -128 0
v -576 -128 0
v -576 -96 0
v -544 -96 0
v -512 -128 0
v -544 -128 0
v -544 -96 0
v -512 -96 0
v -480 -128 0
v -512 -128 0
v -512 -96 0
v -480 -96 0
v -800 -160 0
v -832 -160 0
v -832 -128 0
v -800 -128 0
v -768 -160 0
v -800 -160 0
v -800 -128 0
v -768 -128 0
v -736 -160 0
v -768 -160 0
v -768 -128 0
v -736 -128 0
v -704 -160 0
v -736 -160 0
v -736 -128 0
v -704 -128 0
v -672 -160 0
v -704 -160 0
v -704 -128 0
v -672 -128 0
v -640 -160 0
v -672 -160 0
v -672 -128 0
v -640 -128 0
v -608 -160 0
v -640 -160 0
v -640 -128 0
v -608 -128 0
v -576 -160 0
v -608 -160 0
v -608 -128 0
v -576 -128 0
v -544 -160 0
v -576 -160 0
v -576 -128 0
v -544 -128 0
v -512 -160 0
v -544 -160 0
v -544 -128 0
v -512 -128 0
v -480 -160 0
v -512 -160 0
v -512 -128 0
v -480 -128 0
v -800 -192 0
v -832 -192 0
v -832 -160 0
v -800 -160 0
v -768 -192 0
v -800 -192 0
v -800 -160 0
v -768 -160 0
v -736 -192 0
v -768 -192 0
v -768 -160 0
v -736 -160 0
v -704 -192 0
v -736 -192 0
v -736 -160 0
v -704 -160 0
v -672 -192 0
v -704 -192 0
v -704 -160 0
v -672 -160 0
v -640 -192 0
v -672 -192 0
v -672 -160 0
v -640 -160 0
v -608 -192 0
v -640 -192 0
v -640 -160 0
v -608 -160 0
v -576 -192 0
v -608 -192 0
v -608 -160 0
v -576 -160 0
v -544 -192 0
v -576 -192 0
v -576 -160 0
v -544 -160 0
v -512 -192 0
v -544 -192 0
v -544 -160 0
v -512 -160 0
v -480 -192 0
v -512 -192 0
v -512 -160 0
v -480 -160 0
v -160 -224 0
v -192 -224 0
v -192 -192 0
v -160 -192 0
v -128 -224 0
v -160 -224 0
v -160 -192 0
v -128 -192 0
v -160 -256 0
v -192 -256 0
v -192 -224 0
v -160 -224 0
v -128 -256 0
v -160 -256 0
v -160 -224 0
v -128 -224 0
v -512 -320 0
v -544 -320 0
v -544 -288 0
v -512 -288 0
v -480 -320 0
v -512 -320 0
v -512 -288 0
v -480 -288 0
v -512 -352 0
v -544 -352 0
v -544 -320 0
v -512 -320 0
v -480 -352 0
v -512 -352 0
v -512 -320 0
v -480 -320 0

# Texture cooridinates (Count = 47)
vt 0.6875 0.71875
vt 0.71875 0.71875
vt 0.71875 0.75
vt 0.6875 0.75
vt 0.71875 0.625
vt 0.75 0.625
vt 0.75 0.65625
vt 0.71875 0.65625
vt 0.6875 0.625
vt 0.6875 0.65625
vt 0.65625 0.71875
vt 0.65625 0.75
vt 0.65625 0.625
vt 0.65625 0.65625
vt 0.625 0.625
vt 0.625 0.65625
vt 0.625 0.71875
vt 0.625 0.75
vt 0.6875 0.6875
vt 0.71875 0.6875
vt 0.71875 0.59375
vt 0.75 0.59375
vt 0.6875 0.59375
vt 0.65625 0.6875
vt 0.65625 0.59375
vt 0.625 0.59375
vt 0.625 0.6875
vt 0.71875 0.5625
vt 0.75 0.5625
vt 0.6875 0.5625
vt 0.65625 0.5625
vt 0.625 0.5625
vt 0.65625 0.53125
vt 0.6875 0.53125
vt 0.625 0.53125
vt 0.65625 0.5
vt 0.6875 0.5
vt 0.625 0.5
vt 0.78125 0.71875
vt 0.8125 0.71875
vt 0.8125 0.75
vt 0.78125 0.75
vt 0.75 0.71875
vt 0.75 0.75
vt 0.78125 0.6875
vt 0.8125 0.6875
vt 0.75 0.6875

# Normal
vn 0 0 -1

# Mesh description
g Parti2k_mesh_0005

# Faces
f 1/1/1 2/2/1 3/3/1 4/4/1
f 5/5/1 6/6/1 7/7/1 8/8/1
f 9/9/1 10/5/1 11/8/1 12/10/1
f 13/11/1 14/1/1 15/4/1 16/12/1
f 17/11/1 18/1/1 19/4/1 20/12/1
f 21/11/1 22/1/1 23/4/1 24/12/1
f 25/11/1 26/1/1 27/4/1 28/12/1
f 29/13/1 30/9/1 31/10/1 32/14/1
f 33/11/1 34/1/1 35/4/1 36/12/1
f 37/15/1 38/13/1 39/14/1 40/16/1
f 41/17/1 42/11/1 43/12/1 44/18/1
f 45/19/1 46/20/1 47/2/1 48/1/1
f 49/21/1 50/22/1 51/6/1 52/5/1
f 53/23/1 54/21/1 55/5/1 56/9/1
f 57/24/1 58/19/1 59/1/1 60/11/1
f 61/24/1 62/19/1 63/1/1 64/11/1
f 65/24/1 66/19/1 67/1/1 68/11/1
f 69/24/1 70/19/1 71/1/1 72/11/1
f 73/25/1 74/23/1 75/9/1 76/13/1
f 77/24/1 78/19/1 79/1/1 80/11/1
f 81/26/1 82/25/1 83/13/1 84/15/1
f 85/27/1 86/24/1 87/11/1 88/17/1
f 89/10/1 90/8/1 91/20/1 92/19/1
f 93/28/1 94/29/1 95/22/1 96/21/1
f 97/30/1 98/28/1 99/21/1 100/23/1
f 101/14/1 102/10/1 103/19/1 104/24/1
f 105/14/1 106/10/1 107/19/1 108/24/1
f 109/14/1 110/10/1 111/19/1 112/24/1
f 113/14/1 114/10/1 115/19/1 116/24/1
f 117/31/1 118/30/1 119/23/1 120/25/1
f 121/14/1 122/10/1 123/19/1 124/24/1
f 125/32/1 126/31/1 127/25/1 128/26/1
f 129/16/1 130/14/1 131/24/1 132/27/1
f 133/33/1 134/34/1 135/30/1 136/31/1
f 137/35/1 138/33/1 139/31/1 140/32/1
f 141/36/1 142/37/1 143/34/1 144/33/1
f 145/38/1 146/36/1 147/33/1 148/35/1
f 149/39/1 150/40/1 151/41/1 152/42/1
f 153/43/1 154/39/1 155/42/1 156/44/1
f 157/45/1 158/46/1 159/40/1 160/39/1
f 161/47/1 162/45/1 163/39/1 164/43/1

