# Tiled2Unity generated file. Do not modify by hand.
# Wavefront file for 'Parti2k_mesh_0009.obj'

# Vertices (Count = 108)
v -800 -352 0
v -832 -352 0
v -832 -320 0
v -800 -320 0
v -768 -352 0
v -800 -352 0
v -800 -320 0
v -768 -320 0
v -736 -352 0
v -768 -352 0
v -768 -320 0
v -736 -320 0
v -704 -352 0
v -736 -352 0
v -736 -320 0
v -704 -320 0
v -672 -352 0
v -704 -352 0
v -704 -320 0
v -672 -320 0
v -640 -352 0
v -672 -352 0
v -672 -320 0
v -640 -320 0
v -608 -352 0
v -640 -352 0
v -640 -320 0
v -608 -320 0
v -576 -352 0
v -608 -352 0
v -608 -320 0
v -576 -320 0
v -480 -608 0
v -512 -608 0
v -512 -576 0
v -480 -576 0
v -384 -608 0
v -416 -608 0
v -416 -576 0
v -384 -576 0
v -352 -608 0
v -384 -608 0
v -384 -576 0
v -352 -576 0
v -192 -608 0
v -224 -608 0
v -224 -576 0
v -192 -576 0
v -576 -704 0
v -608 -704 0
v -608 -672 0
v -576 -672 0
v -544 -704 0
v -576 -704 0
v -576 -672 0
v -544 -672 0
v -512 -704 0
v -544 -704 0
v -544 -672 0
v -512 -672 0
v -480 -704 0
v -512 -704 0
v -512 -672 0
v -480 -672 0
v -448 -704 0
v -480 -704 0
v -480 -672 0
v -448 -672 0
v -416 -704 0
v -448 -704 0
v -448 -672 0
v -416 -672 0
v -384 -704 0
v -416 -704 0
v -416 -672 0
v -384 -672 0
v -352 -704 0
v -384 -704 0
v -384 -672 0
v -352 -672 0
v -320 -704 0
v -352 -704 0
v -352 -672 0
v -320 -672 0
v -288 -704 0
v -320 -704 0
v -320 -672 0
v -288 -672 0
v -256 -704 0
v -288 -704 0
v -288 -672 0
v -256 -672 0
v -224 -704 0
v -256 -704 0
v -256 -672 0
v -224 -672 0
v -192 -704 0
v -224 -704 0
v -224 -672 0
v -192 -672 0
v -160 -704 0
v -192 -704 0
v -192 -672 0
v -160 -672 0
v -128 -704 0
v -160 -704 0
v -160 -672 0
v -128 -672 0

# Texture cooridinates (Count = 27)
vt 0.125 0.40625
vt 0 0.40625
vt 0 0.375
vt 0.125 0.375
vt 0.25 0.40625
vt 0.25 0.375
vt 0.375 0.40625
vt 0.375 0.375
vt 0.875 0.4375
vt 1 0.4375
vt 1 0.46875
vt 0.875 0.46875
vt 0.75 0.4375
vt 0.75 0.46875
vt 0.5 0.53125
vt 0.625 0.53125
vt 0.625 0.5625
vt 0.5 0.5625
vt 0.5 0.5
vt 0.625 0.5
vt 0.75 0.40625
vt 0.875 0.40625
vt 1 0.40625
vt 0.5 0.46875
vt 0.625 0.46875
vt 0.75 0.5
vt 0.875 0.5

# Normal
vn 0 0 -1

# Mesh description
g Parti2k_mesh_0009

# Faces
f 1/1/1 2/2/1 3/3/1 4/4/1
f 5/5/1 6/1/1 7/4/1 8/6/1
f 9/5/1 10/1/1 11/4/1 12/6/1
f 13/5/1 14/1/1 15/4/1 16/6/1
f 17/5/1 18/1/1 19/4/1 20/6/1
f 21/5/1 22/1/1 23/4/1 24/6/1
f 25/5/1 26/1/1 27/4/1 28/6/1
f 29/7/1 30/5/1 31/6/1 32/8/1
f 33/9/1 34/10/1 35/11/1 36/12/1
f 37/13/1 38/9/1 39/12/1 40/14/1
f 41/15/1 42/16/1 43/17/1 44/18/1
f 45/19/1 46/20/1 47/16/1 48/15/1
f 49/21/1 50/22/1 51/9/1 52/13/1
f 53/21/1 54/22/1 55/9/1 56/13/1
f 57/21/1 58/22/1 59/9/1 60/13/1
f 61/22/1 62/23/1 63/10/1 64/9/1
f 65/22/1 66/23/1 67/10/1 68/9/1
f 69/22/1 70/23/1 71/10/1 72/9/1
f 73/22/1 74/23/1 75/10/1 76/9/1
f 77/22/1 78/23/1 79/10/1 80/9/1
f 81/22/1 82/23/1 83/10/1 84/9/1
f 85/24/1 86/25/1 87/20/1 88/19/1
f 89/25/1 90/14/1 91/26/1 92/20/1
f 93/14/1 94/12/1 95/27/1 96/26/1
f 97/24/1 98/25/1 99/20/1 100/19/1
f 101/25/1 102/14/1 103/26/1 104/20/1
f 105/14/1 106/12/1 107/27/1 108/26/1

