# Tiled2Unity generated file. Do not modify by hand.
# Wavefront file for 'Haus07_mesh_0002.obj'

# Vertices (Count = 80)
v -448 -224 0
v -480 -224 0
v -480 -192 0
v -448 -192 0
v -416 -224 0
v -448 -224 0
v -448 -192 0
v -416 -192 0
v -384 -224 0
v -416 -224 0
v -416 -192 0
v -384 -192 0
v -352 -224 0
v -384 -224 0
v -384 -192 0
v -352 -192 0
v -320 -224 0
v -352 -224 0
v -352 -192 0
v -320 -192 0
v -288 -224 0
v -320 -224 0
v -320 -192 0
v -288 -192 0
v -448 -256 0
v -480 -256 0
v -480 -224 0
v -448 -224 0
v -416 -256 0
v -448 -256 0
v -448 -224 0
v -416 -224 0
v -384 -256 0
v -416 -256 0
v -416 -224 0
v -384 -224 0
v -352 -256 0
v -384 -256 0
v -384 -224 0
v -352 -224 0
v -320 -256 0
v -352 -256 0
v -352 -224 0
v -320 -224 0
v -288 -256 0
v -320 -256 0
v -320 -224 0
v -288 -224 0
v -224 -256 0
v -256 -256 0
v -256 -224 0
v -224 -224 0
v -224 -288 0
v -256 -288 0
v -256 -256 0
v -224 -256 0
v -448 -320 0
v -480 -320 0
v -480 -288 0
v -448 -288 0
v -416 -320 0
v -448 -320 0
v -448 -288 0
v -416 -288 0
v -384 -320 0
v -416 -320 0
v -416 -288 0
v -384 -288 0
v -224 -320 0
v -256 -320 0
v -256 -288 0
v -224 -288 0
v -288 -352 0
v -320 -352 0
v -320 -320 0
v -288 -320 0
v -224 -352 0
v -256 -352 0
v -256 -320 0
v -224 -320 0

# Texture cooridinates (Count = 47)
vt 0.71875 0.78125
vt 0.75 0.78125
vt 0.75 0.8125
vt 0.71875 0.8125
vt 0.6875 0.78125
vt 0.6875 0.8125
vt 0.625 0.78125
vt 0.65625 0.78125
vt 0.65625 0.8125
vt 0.625 0.8125
vt 0.875 0.875
vt 0.90625 0.875
vt 0.90625 0.90625
vt 0.875 0.90625
vt 0.84375 0.875
vt 0.84375 0.90625
vt 0.8125 0.875
vt 0.8125 0.90625
vt 0.71875 0.75
vt 0.75 0.75
vt 0.6875 0.75
vt 0.625 0.75
vt 0.65625 0.75
vt 0.875 0.84375
vt 0.90625 0.84375
vt 0.84375 0.84375
vt 0.8125 0.84375
vt 0.96875 0.6875
vt 1 0.6875
vt 1 0.71875
vt 0.96875 0.71875
vt 0.6875 0.96875
vt 0.71875 0.96875
vt 0.71875 1
vt 0.6875 1
vt 0.71875 0.5625
vt 0.75 0.5625
vt 0.75 0.59375
vt 0.71875 0.59375
vt 0.6875 0.9375
vt 0.71875 0.9375
vt 0.53125 0.53125
vt 0.5625 0.53125
vt 0.5625 0.5625
vt 0.53125 0.5625
vt 0.6875 0.90625
vt 0.71875 0.90625

# Normal
vn 0 0 -1

# Mesh description
g Haus07_mesh_0002

# Faces
f 1/1/1 2/2/1 3/3/1 4/4/1
f 5/5/1 6/1/1 7/4/1 8/6/1
f 9/7/1 10/8/1 11/9/1 12/10/1
f 13/11/1 14/12/1 15/13/1 16/14/1
f 17/15/1 18/11/1 19/14/1 20/16/1
f 21/17/1 22/15/1 23/16/1 24/18/1
f 25/19/1 26/20/1 27/2/1 28/1/1
f 29/21/1 30/19/1 31/1/1 32/5/1
f 33/22/1 34/23/1 35/8/1 36/7/1
f 37/24/1 38/25/1 39/12/1 40/11/1
f 41/26/1 42/24/1 43/11/1 44/15/1
f 45/27/1 46/26/1 47/15/1 48/17/1
f 49/28/1 50/29/1 51/30/1 52/31/1
f 53/32/1 54/33/1 55/34/1 56/35/1
f 57/36/1 58/37/1 59/38/1 60/39/1
f 61/36/1 62/37/1 63/38/1 64/39/1
f 65/36/1 66/37/1 67/38/1 68/39/1
f 69/40/1 70/41/1 71/33/1 72/32/1
f 73/42/1 74/43/1 75/44/1 76/45/1
f 77/46/1 78/47/1 79/41/1 80/40/1

