# Tiled2Unity generated file. Do not modify by hand.
# Wavefront file for 'Pub2k_mesh_0004.obj'

# Vertices (Count = 112)
v -608 -64 0
v -640 -64 0
v -640 -32 0
v -608 -32 0
v -576 -64 0
v -608 -64 0
v -608 -32 0
v -576 -32 0
v -544 -64 0
v -576 -64 0
v -576 -32 0
v -544 -32 0
v -512 -64 0
v -544 -64 0
v -544 -32 0
v -512 -32 0
v -480 -64 0
v -512 -64 0
v -512 -32 0
v -480 -32 0
v -448 -64 0
v -480 -64 0
v -480 -32 0
v -448 -32 0
v -416 -64 0
v -448 -64 0
v -448 -32 0
v -416 -32 0
v -384 -64 0
v -416 -64 0
v -416 -32 0
v -384 -32 0
v -608 -96 0
v -640 -96 0
v -640 -64 0
v -608 -64 0
v -576 -96 0
v -608 -96 0
v -608 -64 0
v -576 -64 0
v -544 -96 0
v -576 -96 0
v -576 -64 0
v -544 -64 0
v -512 -96 0
v -544 -96 0
v -544 -64 0
v -512 -64 0
v -480 -96 0
v -512 -96 0
v -512 -64 0
v -480 -64 0
v -448 -96 0
v -480 -96 0
v -480 -64 0
v -448 -64 0
v -416 -96 0
v -448 -96 0
v -448 -64 0
v -416 -64 0
v -384 -96 0
v -416 -96 0
v -416 -64 0
v -384 -64 0
v -608 -128 0
v -640 -128 0
v -640 -96 0
v -608 -96 0
v -576 -128 0
v -608 -128 0
v -608 -96 0
v -576 -96 0
v -544 -128 0
v -576 -128 0
v -576 -96 0
v -544 -96 0
v -512 -128 0
v -544 -128 0
v -544 -96 0
v -512 -96 0
v -480 -128 0
v -512 -128 0
v -512 -96 0
v -480 -96 0
v -448 -128 0
v -480 -128 0
v -480 -96 0
v -448 -96 0
v -416 -128 0
v -448 -128 0
v -448 -96 0
v -416 -96 0
v -384 -128 0
v -416 -128 0
v -416 -96 0
v -384 -96 0
v -320 -416 0
v -352 -416 0
v -352 -384 0
v -320 -384 0
v -288 -416 0
v -320 -416 0
v -320 -384 0
v -288 -384 0
v -320 -448 0
v -352 -448 0
v -352 -416 0
v -320 -416 0
v -288 -448 0
v -320 -448 0
v -320 -416 0
v -288 -416 0

# Texture cooridinates (Count = 41)
vt 0.6875 0.625
vt 0.71875 0.625
vt 0.71875 0.65625
vt 0.6875 0.65625
vt 0.65625 0.625
vt 0.65625 0.65625
vt 0.65625 0.71875
vt 0.6875 0.71875
vt 0.6875 0.75
vt 0.65625 0.75
vt 0.71875 0.71875
vt 0.75 0.71875
vt 0.75 0.75
vt 0.71875 0.75
vt 0.625 0.625
vt 0.625 0.65625
vt 0.625 0.71875
vt 0.625 0.75
vt 0.6875 0.59375
vt 0.71875 0.59375
vt 0.65625 0.59375
vt 0.65625 0.6875
vt 0.6875 0.6875
vt 0.71875 0.6875
vt 0.75 0.6875
vt 0.625 0.59375
vt 0.625 0.6875
vt 0.6875 0.5625
vt 0.71875 0.5625
vt 0.65625 0.5625
vt 0.75 0.65625
vt 0.625 0.5625
vt 0.78125 0.125
vt 0.8125 0.125
vt 0.8125 0.15625
vt 0.78125 0.15625
vt 0.75 0.125
vt 0.75 0.15625
vt 0.78125 0.09375
vt 0.8125 0.09375
vt 0.75 0.09375

# Normal
vn 0 0 -1

# Mesh description
g Pub2k_mesh_0004

# Faces
f 1/1/1 2/2/1 3/3/1 4/4/1
f 5/5/1 6/1/1 7/4/1 8/6/1
f 9/7/1 10/8/1 11/9/1 12/10/1
f 13/11/1 14/12/1 15/13/1 16/14/1
f 17/11/1 18/12/1 19/13/1 20/14/1
f 21/15/1 22/5/1 23/6/1 24/16/1
f 25/7/1 26/8/1 27/9/1 28/10/1
f 29/17/1 30/7/1 31/10/1 32/18/1
f 33/19/1 34/20/1 35/2/1 36/1/1
f 37/21/1 38/19/1 39/1/1 40/5/1
f 41/22/1 42/23/1 43/8/1 44/7/1
f 45/24/1 46/25/1 47/12/1 48/11/1
f 49/24/1 50/25/1 51/12/1 52/11/1
f 53/26/1 54/21/1 55/5/1 56/15/1
f 57/22/1 58/23/1 59/8/1 60/7/1
f 61/27/1 62/22/1 63/7/1 64/17/1
f 65/28/1 66/29/1 67/20/1 68/19/1
f 69/30/1 70/28/1 71/19/1 72/21/1
f 73/6/1 74/4/1 75/23/1 76/22/1
f 77/3/1 78/31/1 79/25/1 80/24/1
f 81/3/1 82/31/1 83/25/1 84/24/1
f 85/32/1 86/30/1 87/21/1 88/26/1
f 89/6/1 90/4/1 91/23/1 92/22/1
f 93/16/1 94/6/1 95/22/1 96/27/1
f 97/33/1 98/34/1 99/35/1 100/36/1
f 101/37/1 102/33/1 103/36/1 104/38/1
f 105/39/1 106/40/1 107/34/1 108/33/1
f 109/41/1 110/39/1 111/33/1 112/37/1

