# Tiled2Unity generated file. Do not modify by hand.
# Wavefront file for 'Pub2k_mesh_0006.obj'

# Vertices (Count = 16)
v -608 -416 0
v -640 -416 0
v -640 -384 0
v -608 -384 0
v -576 -416 0
v -608 -416 0
v -608 -384 0
v -576 -384 0
v -608 -448 0
v -640 -448 0
v -640 -416 0
v -608 -416 0
v -576 -448 0
v -608 -448 0
v -608 -416 0
v -576 -416 0

# Texture cooridinates (Count = 9)
vt 0.6875 0.8125
vt 0.75 0.8125
vt 0.75 0.875
vt 0.6875 0.875
vt 0.625 0.8125
vt 0.625 0.875
vt 0.6875 0.75
vt 0.75 0.75
vt 0.625 0.75

# Normal
vn 0 0 -1

# Mesh description
g Pub2k_mesh_0006

# Faces
f 1/1/1 2/2/1 3/3/1 4/4/1
f 5/5/1 6/1/1 7/4/1 8/6/1
f 9/7/1 10/8/1 11/2/1 12/1/1
f 13/9/1 14/7/1 15/1/1 16/5/1

