# Tiled2Unity generated file. Do not modify by hand.
# Wavefront file for 'Casino3k_mesh_0004.obj'

# Vertices (Count = 128)
v -640 -448 0
v -672 -448 0
v -672 -416 0
v -640 -416 0
v -608 -448 0
v -640 -448 0
v -640 -416 0
v -608 -416 0
v -576 -448 0
v -608 -448 0
v -608 -416 0
v -576 -416 0
v -672 -512 0
v -704 -512 0
v -704 -480 0
v -672 -480 0
v -544 -512 0
v -576 -512 0
v -576 -480 0
v -544 -480 0
v -640 -576 0
v -672 -576 0
v -672 -544 0
v -640 -544 0
v -608 -576 0
v -640 -576 0
v -640 -544 0
v -608 -544 0
v -576 -576 0
v -608 -576 0
v -608 -544 0
v -576 -544 0
v -640 -608 0
v -672 -608 0
v -672 -576 0
v -640 -576 0
v -608 -608 0
v -640 -608 0
v -640 -576 0
v -608 -576 0
v -576 -608 0
v -608 -608 0
v -608 -576 0
v -576 -576 0
v -480 -608 0
v -512 -608 0
v -512 -576 0
v -480 -576 0
v -448 -608 0
v -480 -608 0
v -480 -576 0
v -448 -576 0
v -416 -608 0
v -448 -608 0
v -448 -576 0
v -416 -576 0
v -288 -608 0
v -320 -608 0
v -320 -576 0
v -288 -576 0
v -256 -608 0
v -288 -608 0
v -288 -576 0
v -256 -576 0
v -224 -608 0
v -256 -608 0
v -256 -576 0
v -224 -576 0
v -672 -672 0
v -704 -672 0
v -704 -640 0
v -672 -640 0
v -544 -672 0
v -576 -672 0
v -576 -640 0
v -544 -640 0
v -512 -672 0
v -544 -672 0
v -544 -640 0
v -512 -640 0
v -384 -672 0
v -416 -672 0
v -416 -640 0
v -384 -640 0
v -320 -672 0
v -352 -672 0
v -352 -640 0
v -320 -640 0
v -192 -672 0
v -224 -672 0
v -224 -640 0
v -192 -640 0
v -640 -736 0
v -672 -736 0
v -672 -704 0
v -640 -704 0
v -608 -736 0
v -640 -736 0
v -640 -704 0
v -608 -704 0
v -576 -736 0
v -608 -736 0
v -608 -704 0
v -576 -704 0
v -480 -736 0
v -512 -736 0
v -512 -704 0
v -480 -704 0
v -448 -736 0
v -480 -736 0
v -480 -704 0
v -448 -704 0
v -416 -736 0
v -448 -736 0
v -448 -704 0
v -416 -704 0
v -288 -736 0
v -320 -736 0
v -320 -704 0
v -288 -704 0
v -256 -736 0
v -288 -736 0
v -288 -704 0
v -256 -704 0
v -224 -736 0
v -256 -736 0
v -256 -704 0
v -224 -704 0

# Texture cooridinates (Count = 10)
vt 0.5 0.5625
vt 0.5625 0.5625
vt 0.5625 0.625
vt 0.5 0.625
vt 0.6875 0.5625
vt 0.75 0.5625
vt 0.75 0.625
vt 0.6875 0.625
vt 0.625 0.5625
vt 0.625 0.625

# Normal
vn 0 0 -1

# Mesh description
g Casino3k_mesh_0004

# Faces
f 1/1/1 2/2/1 3/3/1 4/4/1
f 5/1/1 6/2/1 7/3/1 8/4/1
f 9/1/1 10/2/1 11/3/1 12/4/1
f 13/5/1 14/6/1 15/7/1 16/8/1
f 17/9/1 18/5/1 19/8/1 20/10/1
f 21/2/1 22/9/1 23/10/1 24/3/1
f 25/2/1 26/9/1 27/10/1 28/3/1
f 29/2/1 30/9/1 31/10/1 32/3/1
f 33/1/1 34/2/1 35/3/1 36/4/1
f 37/1/1 38/2/1 39/3/1 40/4/1
f 41/1/1 42/2/1 43/3/1 44/4/1
f 45/1/1 46/2/1 47/3/1 48/4/1
f 49/1/1 50/2/1 51/3/1 52/4/1
f 53/1/1 54/2/1 55/3/1 56/4/1
f 57/1/1 58/2/1 59/3/1 60/4/1
f 61/1/1 62/2/1 63/3/1 64/4/1
f 65/1/1 66/2/1 67/3/1 68/4/1
f 69/5/1 70/6/1 71/7/1 72/8/1
f 73/9/1 74/5/1 75/8/1 76/10/1
f 77/5/1 78/6/1 79/7/1 80/8/1
f 81/9/1 82/5/1 83/8/1 84/10/1
f 85/5/1 86/6/1 87/7/1 88/8/1
f 89/9/1 90/5/1 91/8/1 92/10/1
f 93/2/1 94/9/1 95/10/1 96/3/1
f 97/2/1 98/9/1 99/10/1 100/3/1
f 101/2/1 102/9/1 103/10/1 104/3/1
f 105/2/1 106/9/1 107/10/1 108/3/1
f 109/2/1 110/9/1 111/10/1 112/3/1
f 113/2/1 114/9/1 115/10/1 116/3/1
f 117/2/1 118/9/1 119/10/1 120/3/1
f 121/2/1 122/9/1 123/10/1 124/3/1
f 125/2/1 126/9/1 127/10/1 128/3/1

