# Tiled2Unity generated file. Do not modify by hand.
# Wavefront file for 'Casino3k_mesh_0003.obj'

# Vertices (Count = 180)
v -192 -448 0
v -224 -448 0
v -224 -416 0
v -192 -416 0
v -160 -448 0
v -192 -448 0
v -192 -416 0
v -160 -416 0
v -640 -480 0
v -672 -480 0
v -672 -448 0
v -640 -448 0
v -608 -480 0
v -640 -480 0
v -640 -448 0
v -608 -448 0
v -576 -480 0
v -608 -480 0
v -608 -448 0
v -576 -448 0
v -192 -480 0
v -224 -480 0
v -224 -448 0
v -192 -448 0
v -160 -480 0
v -192 -480 0
v -192 -448 0
v -160 -448 0
v -640 -512 0
v -672 -512 0
v -672 -480 0
v -640 -480 0
v -608 -512 0
v -640 -512 0
v -640 -480 0
v -608 -480 0
v -576 -512 0
v -608 -512 0
v -608 -480 0
v -576 -480 0
v -192 -512 0
v -224 -512 0
v -224 -480 0
v -192 -480 0
v -640 -544 0
v -672 -544 0
v -672 -512 0
v -640 -512 0
v -608 -544 0
v -640 -544 0
v -640 -512 0
v -608 -512 0
v -576 -544 0
v -608 -544 0
v -608 -512 0
v -576 -512 0
v -192 -544 0
v -224 -544 0
v -224 -512 0
v -192 -512 0
v -160 -544 0
v -192 -544 0
v -192 -512 0
v -160 -512 0
v -192 -576 0
v -224 -576 0
v -224 -544 0
v -192 -544 0
v -160 -576 0
v -192 -576 0
v -192 -544 0
v -160 -544 0
v -640 -640 0
v -672 -640 0
v -672 -608 0
v -640 -608 0
v -608 -640 0
v -640 -640 0
v -640 -608 0
v -608 -608 0
v -576 -640 0
v -608 -640 0
v -608 -608 0
v -576 -608 0
v -480 -640 0
v -512 -640 0
v -512 -608 0
v -480 -608 0
v -448 -640 0
v -480 -640 0
v -480 -608 0
v -448 -608 0
v -416 -640 0
v -448 -640 0
v -448 -608 0
v -416 -608 0
v -288 -640 0
v -320 -640 0
v -320 -608 0
v -288 -608 0
v -256 -640 0
v -288 -640 0
v -288 -608 0
v -256 -608 0
v -224 -640 0
v -256 -640 0
v -256 -608 0
v -224 -608 0
v -640 -672 0
v -672 -672 0
v -672 -640 0
v -640 -640 0
v -608 -672 0
v -640 -672 0
v -640 -640 0
v -608 -640 0
v -576 -672 0
v -608 -672 0
v -608 -640 0
v -576 -640 0
v -480 -672 0
v -512 -672 0
v -512 -640 0
v -480 -640 0
v -448 -672 0
v -480 -672 0
v -480 -640 0
v -448 -640 0
v -416 -672 0
v -448 -672 0
v -448 -640 0
v -416 -640 0
v -288 -672 0
v -320 -672 0
v -320 -640 0
v -288 -640 0
v -256 -672 0
v -288 -672 0
v -288 -640 0
v -256 -640 0
v -224 -672 0
v -256 -672 0
v -256 -640 0
v -224 -640 0
v -640 -704 0
v -672 -704 0
v -672 -672 0
v -640 -672 0
v -608 -704 0
v -640 -704 0
v -640 -672 0
v -608 -672 0
v -576 -704 0
v -608 -704 0
v -608 -672 0
v -576 -672 0
v -480 -704 0
v -512 -704 0
v -512 -672 0
v -480 -672 0
v -448 -704 0
v -480 -704 0
v -480 -672 0
v -448 -672 0
v -416 -704 0
v -448 -704 0
v -448 -672 0
v -416 -672 0
v -288 -704 0
v -320 -704 0
v -320 -672 0
v -288 -672 0
v -256 -704 0
v -288 -704 0
v -288 -672 0
v -256 -672 0
v -224 -704 0
v -256 -704 0
v -256 -672 0
v -224 -672 0

# Texture cooridinates (Count = 36)
vt 0.75 0.375
vt 0.875 0.375
vt 0.875 0.40625
vt 0.75 0.40625
vt 0.625 0.375
vt 0.625 0.40625
vt 0.25 0.625
vt 0.375 0.625
vt 0.375 0.65625
vt 0.25 0.65625
vt 0.125 0.625
vt 0.125 0.65625
vt 0 0.625
vt 0 0.65625
vt 0.75 0.34375
vt 0.875 0.34375
vt 0 0.3125
vt 0.125 0.3125
vt 0.125 0.34375
vt 0 0.34375
vt 0.25 0.59375
vt 0.375 0.59375
vt 0.125 0.59375
vt 0 0.59375
vt 0.5 0.375
vt 0.5 0.40625
vt 0.25 0.5625
vt 0.375 0.5625
vt 0.125 0.5625
vt 0 0.5625
vt 0.5 0.34375
vt 0.625 0.34375
vt 0.5 0.3125
vt 0.625 0.3125
vt 0.375 0.3125
vt 0.375 0.34375

# Normal
vn 0 0 -1

# Mesh description
g Casino3k_mesh_0003

# Faces
f 1/1/1 2/2/1 3/3/1 4/4/1
f 5/5/1 6/1/1 7/4/1 8/6/1
f 9/7/1 10/8/1 11/9/1 12/10/1
f 13/11/1 14/7/1 15/10/1 16/12/1
f 17/13/1 18/11/1 19/12/1 20/14/1
f 21/15/1 22/16/1 23/2/1 24/1/1
f 25/17/1 26/18/1 27/19/1 28/20/1
f 29/21/1 30/22/1 31/8/1 32/7/1
f 33/23/1 34/21/1 35/7/1 36/11/1
f 37/24/1 38/23/1 39/11/1 40/13/1
f 41/25/1 42/5/1 43/6/1 44/26/1
f 45/27/1 46/28/1 47/22/1 48/21/1
f 49/29/1 50/27/1 51/21/1 52/23/1
f 53/30/1 54/29/1 55/23/1 56/24/1
f 57/31/1 58/32/1 59/5/1 60/25/1
f 61/5/1 62/1/1 63/4/1 64/6/1
f 65/33/1 66/34/1 67/32/1 68/31/1
f 69/35/1 70/33/1 71/31/1 72/36/1
f 73/7/1 74/8/1 75/9/1 76/10/1
f 77/11/1 78/7/1 79/10/1 80/12/1
f 81/13/1 82/11/1 83/12/1 84/14/1
f 85/7/1 86/8/1 87/9/1 88/10/1
f 89/11/1 90/7/1 91/10/1 92/12/1
f 93/13/1 94/11/1 95/12/1 96/14/1
f 97/7/1 98/8/1 99/9/1 100/10/1
f 101/11/1 102/7/1 103/10/1 104/12/1
f 105/13/1 106/11/1 107/12/1 108/14/1
f 109/21/1 110/22/1 111/8/1 112/7/1
f 113/23/1 114/21/1 115/7/1 116/11/1
f 117/24/1 118/23/1 119/11/1 120/13/1
f 121/21/1 122/22/1 123/8/1 124/7/1
f 125/23/1 126/21/1 127/7/1 128/11/1
f 129/24/1 130/23/1 131/11/1 132/13/1
f 133/21/1 134/22/1 135/8/1 136/7/1
f 137/23/1 138/21/1 139/7/1 140/11/1
f 141/24/1 142/23/1 143/11/1 144/13/1
f 145/27/1 146/28/1 147/22/1 148/21/1
f 149/29/1 150/27/1 151/21/1 152/23/1
f 153/30/1 154/29/1 155/23/1 156/24/1
f 157/27/1 158/28/1 159/22/1 160/21/1
f 161/29/1 162/27/1 163/21/1 164/23/1
f 165/30/1 166/29/1 167/23/1 168/24/1
f 169/27/1 170/28/1 171/22/1 172/21/1
f 173/29/1 174/27/1 175/21/1 176/23/1
f 177/30/1 178/29/1 179/23/1 180/24/1

