# Tiled2Unity generated file. Do not modify by hand.
# Wavefront file for 'Casino3k_mesh_0008.obj'

# Vertices (Count = 100)
v -160 -448 0
v -192 -448 0
v -192 -416 0
v -160 -416 0
v -640 -480 0
v -672 -480 0
v -672 -448 0
v -640 -448 0
v -608 -480 0
v -640 -480 0
v -640 -448 0
v -608 -448 0
v -576 -480 0
v -608 -480 0
v -608 -448 0
v -576 -448 0
v -640 -512 0
v -672 -512 0
v -672 -480 0
v -640 -480 0
v -608 -512 0
v -640 -512 0
v -640 -480 0
v -608 -480 0
v -576 -512 0
v -608 -512 0
v -608 -480 0
v -576 -480 0
v -192 -544 0
v -224 -544 0
v -224 -512 0
v -192 -512 0
v -160 -544 0
v -192 -544 0
v -192 -512 0
v -160 -512 0
v -640 -640 0
v -672 -640 0
v -672 -608 0
v -640 -608 0
v -608 -640 0
v -640 -640 0
v -640 -608 0
v -608 -608 0
v -576 -640 0
v -608 -640 0
v -608 -608 0
v -576 -608 0
v -480 -640 0
v -512 -640 0
v -512 -608 0
v -480 -608 0
v -288 -640 0
v -320 -640 0
v -320 -608 0
v -288 -608 0
v -256 -640 0
v -288 -640 0
v -288 -608 0
v -256 -608 0
v -224 -640 0
v -256 -640 0
v -256 -608 0
v -224 -608 0
v -640 -672 0
v -672 -672 0
v -672 -640 0
v -640 -640 0
v -608 -672 0
v -640 -672 0
v -640 -640 0
v -608 -640 0
v -576 -672 0
v -608 -672 0
v -608 -640 0
v -576 -640 0
v -480 -672 0
v -512 -672 0
v -512 -640 0
v -480 -640 0
v -448 -672 0
v -480 -672 0
v -480 -640 0
v -448 -640 0
v -416 -672 0
v -448 -672 0
v -448 -640 0
v -416 -640 0
v -288 -672 0
v -320 -672 0
v -320 -640 0
v -288 -640 0
v -256 -672 0
v -288 -672 0
v -288 -640 0
v -256 -640 0
v -224 -672 0
v -256 -672 0
v -256 -640 0
v -224 -640 0

# Texture cooridinates (Count = 13)
vt 0.5 0.5
vt 0.625 0.5
vt 0.625 0.53125
vt 0.5 0.53125
vt 0.5 0.59375
vt 0.625 0.59375
vt 0.625 0.625
vt 0.5 0.625
vt 0.5 0.5625
vt 0.625 0.5625
vt 0.75 0.5625
vt 0.75 0.59375
vt 0.75 0.625

# Normal
vn 0 0 -1

# Mesh description
g Casino3k_mesh_0008

# Faces
f 1/1/1 2/2/1 3/3/1 4/4/1
f 5/5/1 6/6/1 7/7/1 8/8/1
f 9/5/1 10/6/1 11/7/1 12/8/1
f 13/5/1 14/6/1 15/7/1 16/8/1
f 17/9/1 18/10/1 19/6/1 20/5/1
f 21/10/1 22/11/1 23/12/1 24/6/1
f 25/5/1 26/6/1 27/7/1 28/8/1
f 29/6/1 30/12/1 31/13/1 32/7/1
f 33/4/1 34/3/1 35/10/1 36/9/1
f 37/5/1 38/6/1 39/7/1 40/8/1
f 41/6/1 42/12/1 43/13/1 44/7/1
f 45/5/1 46/6/1 47/7/1 48/8/1
f 49/5/1 50/6/1 51/7/1 52/8/1
f 53/5/1 54/6/1 55/7/1 56/8/1
f 57/5/1 58/6/1 59/7/1 60/8/1
f 61/5/1 62/6/1 63/7/1 64/8/1
f 65/9/1 66/10/1 67/6/1 68/5/1
f 69/10/1 70/11/1 71/12/1 72/6/1
f 73/5/1 74/6/1 75/7/1 76/8/1
f 77/9/1 78/10/1 79/6/1 80/5/1
f 81/10/1 82/11/1 83/12/1 84/6/1
f 85/5/1 86/6/1 87/7/1 88/8/1
f 89/9/1 90/10/1 91/6/1 92/5/1
f 93/10/1 94/11/1 95/12/1 96/6/1
f 97/5/1 98/6/1 99/7/1 100/8/1

