# Tiled2Unity generated file. Do not modify by hand.
# Wavefront file for 'Haus10k2_mesh_0004.obj'

# Vertices (Count = 76)
v -96 -160 0
v -128 -160 0
v -128 -128 0
v -96 -128 0
v -192 -192 0
v -224 -192 0
v -224 -160 0
v -192 -160 0
v -160 -192 0
v -192 -192 0
v -192 -160 0
v -160 -160 0
v -128 -192 0
v -160 -192 0
v -160 -160 0
v -128 -160 0
v -96 -192 0
v -128 -192 0
v -128 -160 0
v -96 -160 0
v -192 -224 0
v -224 -224 0
v -224 -192 0
v -192 -192 0
v -160 -224 0
v -192 -224 0
v -192 -192 0
v -160 -192 0
v -128 -224 0
v -160 -224 0
v -160 -192 0
v -128 -192 0
v -96 -224 0
v -128 -224 0
v -128 -192 0
v -96 -192 0
v -192 -256 0
v -224 -256 0
v -224 -224 0
v -192 -224 0
v -512 -288 0
v -544 -288 0
v -544 -256 0
v -512 -256 0
v -128 -320 0
v -160 -320 0
v -160 -288 0
v -128 -288 0
v -96 -320 0
v -128 -320 0
v -128 -288 0
v -96 -288 0
v -128 -352 0
v -160 -352 0
v -160 -320 0
v -128 -320 0
v -96 -352 0
v -128 -352 0
v -128 -320 0
v -96 -320 0
v -480 -384 0
v -512 -384 0
v -512 -352 0
v -480 -352 0
v -160 -384 0
v -192 -384 0
v -192 -352 0
v -160 -352 0
v -128 -384 0
v -160 -384 0
v -160 -352 0
v -128 -352 0
v -96 -384 0
v -128 -384 0
v -128 -352 0
v -96 -352 0

# Texture cooridinates (Count = 49)
vt 0.5625 0.3125
vt 0.59375 0.3125
vt 0.59375 0.34375
vt 0.5625 0.34375
vt 0.5625 0.71875
vt 0.59375 0.71875
vt 0.59375 0.75
vt 0.5625 0.75
vt 0.71875 0.78125
vt 0.75 0.78125
vt 0.75 0.8125
vt 0.71875 0.8125
vt 0.625 0.78125
vt 0.65625 0.78125
vt 0.65625 0.8125
vt 0.625 0.8125
vt 0.5625 0.28125
vt 0.59375 0.28125
vt 0.5625 0.6875
vt 0.59375 0.6875
vt 0.71875 0.75
vt 0.75 0.75
vt 0.625 0.75
vt 0.65625 0.75
vt 0.5625 0.25
vt 0.59375 0.25
vt 0.5625 0.65625
vt 0.59375 0.65625
vt 0.59375 0.625
vt 0.625 0.625
vt 0.625 0.65625
vt 0.625 0.96875
vt 0.65625 0.96875
vt 0.65625 1
vt 0.625 1
vt 0.59375 0.96875
vt 0.59375 1
vt 0.625 0.9375
vt 0.65625 0.9375
vt 0.59375 0.9375
vt 0.65625 0.625
vt 0.6875 0.625
vt 0.6875 0.65625
vt 0.65625 0.65625
vt 0.6875 0.6875
vt 0.65625 0.6875
vt 0.625 0.90625
vt 0.65625 0.90625
vt 0.59375 0.90625

# Normal
vn 0 0 -1

# Mesh description
g Haus10k2_mesh_0004

# Faces
f 1/1/1 2/2/1 3/3/1 4/4/1
f 5/5/1 6/6/1 7/7/1 8/8/1
f 9/9/1 10/10/1 11/11/1 12/12/1
f 13/13/1 14/14/1 15/15/1 16/16/1
f 17/17/1 18/18/1 19/2/1 20/1/1
f 21/19/1 22/20/1 23/6/1 24/5/1
f 25/21/1 26/22/1 27/10/1 28/9/1
f 29/23/1 30/24/1 31/14/1 32/13/1
f 33/25/1 34/26/1 35/18/1 36/17/1
f 37/27/1 38/28/1 39/20/1 40/19/1
f 41/29/1 42/30/1 43/31/1 44/28/1
f 45/32/1 46/33/1 47/34/1 48/35/1
f 49/36/1 50/32/1 51/35/1 52/37/1
f 53/38/1 54/39/1 55/33/1 56/32/1
f 57/40/1 58/38/1 59/32/1 60/36/1
f 61/41/1 62/42/1 63/43/1 64/44/1
f 65/44/1 66/43/1 67/45/1 68/46/1
f 69/47/1 70/48/1 71/39/1 72/38/1
f 73/49/1 74/47/1 75/38/1 76/40/1

