# Tiled2Unity generated file. Do not modify by hand.
# Wavefront file for 'Haus11k1_mesh_0005.obj'

# Vertices (Count = 64)
v -288 -256 0
v -320 -256 0
v -320 -224 0
v -288 -224 0
v -320 -256 0
v -352 -256 0
v -352 -224 0
v -320 -224 0
v -288 -288 0
v -320 -288 0
v -320 -256 0
v -288 -256 0
v -320 -288 0
v -352 -288 0
v -352 -256 0
v -320 -256 0
v -128 -352 0
v -160 -352 0
v -160 -320 0
v -128 -320 0
v -160 -352 0
v -192 -352 0
v -192 -320 0
v -160 -320 0
v -192 -352 0
v -224 -352 0
v -224 -320 0
v -192 -320 0
v -512 -352 0
v -544 -352 0
v -544 -320 0
v -512 -320 0
v -128 -384 0
v -160 -384 0
v -160 -352 0
v -128 -352 0
v -160 -384 0
v -192 -384 0
v -192 -352 0
v -160 -352 0
v -192 -384 0
v -224 -384 0
v -224 -352 0
v -192 -352 0
v -128 -416 0
v -160 -416 0
v -160 -384 0
v -128 -384 0
v -160 -416 0
v -192 -416 0
v -192 -384 0
v -160 -384 0
v -192 -416 0
v -224 -416 0
v -224 -384 0
v -192 -384 0
v -448 -416 0
v -480 -416 0
v -480 -384 0
v -448 -384 0
v -448 -448 0
v -480 -448 0
v -480 -416 0
v -448 -416 0

# Texture cooridinates (Count = 33)
vt 0.375 0.5
vt 0.4375 0.5
vt 0.4375 0.5625
vt 0.375 0.5625
vt 0.5 0.5
vt 0.5 0.5625
vt 0.375 0.4375
vt 0.4375 0.4375
vt 0.5 0.4375
vt 0.5 0.625
vt 0.5625 0.625
vt 0.5625 0.6875
vt 0.5 0.6875
vt 0.625 0.625
vt 0.625 0.6875
vt 0.6875 0.625
vt 0.6875 0.6875
vt 0.6875 0.9375
vt 0.75 0.9375
vt 0.75 1
vt 0.6875 1
vt 0.5625 0.5625
vt 0.625 0.5625
vt 0.6875 0.5625
vt 0.5625 0.5
vt 0.625 0.5
vt 0.6875 0.5
vt 0.1875 0.5
vt 0.25 0.5
vt 0.25 0.5625
vt 0.1875 0.5625
vt 0.1875 0.4375
vt 0.25 0.4375

# Normal
vn 0 0 -1

# Mesh description
g Haus11k1_mesh_0005

# Faces
f 1/1/1 2/2/1 3/3/1 4/4/1
f 5/2/1 6/5/1 7/6/1 8/3/1
f 9/7/1 10/8/1 11/2/1 12/1/1
f 13/8/1 14/9/1 15/5/1 16/2/1
f 17/10/1 18/11/1 19/12/1 20/13/1
f 21/11/1 22/14/1 23/15/1 24/12/1
f 25/14/1 26/16/1 27/17/1 28/15/1
f 29/18/1 30/19/1 31/20/1 32/21/1
f 33/6/1 34/22/1 35/11/1 36/10/1
f 37/22/1 38/23/1 39/14/1 40/11/1
f 41/23/1 42/24/1 43/16/1 44/14/1
f 45/5/1 46/25/1 47/22/1 48/6/1
f 49/25/1 50/26/1 51/23/1 52/22/1
f 53/26/1 54/27/1 55/24/1 56/23/1
f 57/28/1 58/29/1 59/30/1 60/31/1
f 61/32/1 62/33/1 63/29/1 64/28/1

