# Tiled2Unity generated file. Do not modify by hand.
# Wavefront file for 'Haus11k1_mesh_0007.obj'

# Vertices (Count = 16)
v -320 -416 0
v -352 -416 0
v -352 -384 0
v -320 -384 0
v -352 -416 0
v -384 -416 0
v -384 -384 0
v -352 -384 0
v -320 -448 0
v -352 -448 0
v -352 -416 0
v -320 -416 0
v -352 -448 0
v -384 -448 0
v -384 -416 0
v -352 -416 0

# Texture cooridinates (Count = 9)
vt 0.5 0.8125
vt 0.5625 0.8125
vt 0.5625 0.875
vt 0.5 0.875
vt 0.625 0.8125
vt 0.625 0.875
vt 0.5 0.75
vt 0.5625 0.75
vt 0.625 0.75

# Normal
vn 0 0 -1

# Mesh description
g Haus11k1_mesh_0007

# Faces
f 1/1/1 2/2/1 3/3/1 4/4/1
f 5/2/1 6/5/1 7/6/1 8/3/1
f 9/7/1 10/8/1 11/2/1 12/1/1
f 13/8/1 14/9/1 15/5/1 16/2/1

