# Tiled2Unity generated file. Do not modify by hand.
# Wavefront file for 'Haus11k1_mesh_0003.obj'

# Vertices (Count = 36)
v -512 -224 0
v -544 -224 0
v -544 -192 0
v -512 -192 0
v -448 -256 0
v -480 -256 0
v -480 -224 0
v -448 -224 0
v -480 -256 0
v -512 -256 0
v -512 -224 0
v -480 -224 0
v -512 -256 0
v -544 -256 0
v -544 -224 0
v -512 -224 0
v -448 -288 0
v -480 -288 0
v -480 -256 0
v -448 -256 0
v -480 -288 0
v -512 -288 0
v -512 -256 0
v -480 -256 0
v -512 -288 0
v -544 -288 0
v -544 -256 0
v -512 -256 0
v -512 -416 0
v -544 -416 0
v -544 -384 0
v -512 -384 0
v -512 -448 0
v -544 -448 0
v -544 -416 0
v -512 -416 0

# Texture cooridinates (Count = 24)
vt 0.375 0.25
vt 0.4375 0.25
vt 0.4375 0.3125
vt 0.375 0.3125
vt 0.25 0.0625
vt 0.3125 0.0625
vt 0.3125 0.125
vt 0.25 0.125
vt 0.375 0.0625
vt 0.4375 0.0625
vt 0.4375 0.125
vt 0.375 0.125
vt 0.375 0.1875
vt 0.4375 0.1875
vt 0.25 0
vt 0.3125 0
vt 0.375 0
vt 0.4375 0
vt 0.125 0.0625
vt 0.1875 0.0625
vt 0.1875 0.125
vt 0.125 0.125
vt 0.125 0
vt 0.1875 0

# Normal
vn 0 0 -1

# Mesh description
g Haus11k1_mesh_0003

# Faces
f 1/1/1 2/2/1 3/3/1 4/4/1
f 5/5/1 6/6/1 7/7/1 8/8/1
f 9/9/1 10/10/1 11/11/1 12/12/1
f 13/13/1 14/14/1 15/2/1 16/1/1
f 17/15/1 18/16/1 19/6/1 20/5/1
f 21/17/1 22/18/1 23/10/1 24/9/1
f 25/12/1 26/11/1 27/14/1 28/13/1
f 29/19/1 30/20/1 31/21/1 32/22/1
f 33/23/1 34/24/1 35/20/1 36/19/1

