# Tiled2Unity generated file. Do not modify by hand.
# Wavefront file for 'Parti1k_mesh_0006.obj'

# Vertices (Count = 80)
v -160 -416 0
v -192 -416 0
v -192 -384 0
v -160 -384 0
v -128 -416 0
v -160 -416 0
v -160 -384 0
v -128 -384 0
v -160 -448 0
v -192 -448 0
v -192 -416 0
v -160 -416 0
v -128 -448 0
v -160 -448 0
v -160 -416 0
v -128 -416 0
v -160 -480 0
v -192 -480 0
v -192 -448 0
v -160 -448 0
v -128 -480 0
v -160 -480 0
v -160 -448 0
v -128 -448 0
v -160 -512 0
v -192 -512 0
v -192 -480 0
v -160 -480 0
v -128 -512 0
v -160 -512 0
v -160 -480 0
v -128 -480 0
v -160 -544 0
v -192 -544 0
v -192 -512 0
v -160 -512 0
v -128 -544 0
v -160 -544 0
v -160 -512 0
v -128 -512 0
v -160 -576 0
v -192 -576 0
v -192 -544 0
v -160 -544 0
v -128 -576 0
v -160 -576 0
v -160 -544 0
v -128 -544 0
v -160 -608 0
v -192 -608 0
v -192 -576 0
v -160 -576 0
v -128 -608 0
v -160 -608 0
v -160 -576 0
v -128 -576 0
v -160 -640 0
v -192 -640 0
v -192 -608 0
v -160 -608 0
v -128 -640 0
v -160 -640 0
v -160 -608 0
v -128 -608 0
v -160 -672 0
v -192 -672 0
v -192 -640 0
v -160 -640 0
v -128 -672 0
v -160 -672 0
v -160 -640 0
v -128 -640 0
v -160 -704 0
v -192 -704 0
v -192 -672 0
v -160 -672 0
v -128 -704 0
v -160 -704 0
v -160 -672 0
v -128 -672 0

# Texture cooridinates (Count = 18)
vt 0.75 0.4375
vt 0.8125 0.4375
vt 0.8125 0.5
vt 0.75 0.5
vt 0.6875 0.4375
vt 0.6875 0.5
vt 0.75 0.375
vt 0.8125 0.375
vt 0.6875 0.375
vt 0.9375 0.3125
vt 1 0.3125
vt 1 0.375
vt 0.9375 0.375
vt 0.875 0.3125
vt 0.875 0.375
vt 0.75 0.3125
vt 0.8125 0.3125
vt 0.6875 0.3125

# Normal
vn 0 0 -1

# Mesh description
g Parti1k_mesh_0006

# Faces
f 1/1/1 2/2/1 3/3/1 4/4/1
f 5/5/1 6/1/1 7/4/1 8/6/1
f 9/7/1 10/8/1 11/2/1 12/1/1
f 13/9/1 14/7/1 15/1/1 16/5/1
f 17/10/1 18/11/1 19/12/1 20/13/1
f 21/14/1 22/10/1 23/13/1 24/15/1
f 25/16/1 26/17/1 27/8/1 28/7/1
f 29/18/1 30/16/1 31/7/1 32/9/1
f 33/7/1 34/8/1 35/2/1 36/1/1
f 37/9/1 38/7/1 39/1/1 40/5/1
f 41/10/1 42/11/1 43/12/1 44/13/1
f 45/14/1 46/10/1 47/13/1 48/15/1
f 49/16/1 50/17/1 51/8/1 52/7/1
f 53/18/1 54/16/1 55/7/1 56/9/1
f 57/7/1 58/8/1 59/2/1 60/1/1
f 61/9/1 62/7/1 63/1/1 64/5/1
f 65/10/1 66/11/1 67/12/1 68/13/1
f 69/14/1 70/10/1 71/13/1 72/15/1
f 73/16/1 74/17/1 75/8/1 76/7/1
f 77/18/1 78/16/1 79/7/1 80/9/1

