# Tiled2Unity generated file. Do not modify by hand.
# Wavefront file for 'Kasino01_mesh_0003.obj'

# Vertices (Count = 352)
v -464 -240 0
v -480 -240 0
v -480 -224 0
v -464 -224 0
v -448 -240 0
v -464 -240 0
v -464 -224 0
v -448 -224 0
v -432 -240 0
v -448 -240 0
v -448 -224 0
v -432 -224 0
v -416 -240 0
v -432 -240 0
v -432 -224 0
v -416 -224 0
v -400 -240 0
v -416 -240 0
v -416 -224 0
v -400 -224 0
v -384 -240 0
v -400 -240 0
v -400 -224 0
v -384 -224 0
v -368 -240 0
v -384 -240 0
v -384 -224 0
v -368 -224 0
v -352 -240 0
v -368 -240 0
v -368 -224 0
v -352 -224 0
v -336 -240 0
v -352 -240 0
v -352 -224 0
v -336 -224 0
v -320 -240 0
v -336 -240 0
v -336 -224 0
v -320 -224 0
v -304 -240 0
v -320 -240 0
v -320 -224 0
v -304 -224 0
v -288 -240 0
v -304 -240 0
v -304 -224 0
v -288 -224 0
v -272 -240 0
v -288 -240 0
v -288 -224 0
v -272 -224 0
v -256 -240 0
v -272 -240 0
v -272 -224 0
v -256 -224 0
v -240 -240 0
v -256 -240 0
v -256 -224 0
v -240 -224 0
v -224 -240 0
v -240 -240 0
v -240 -224 0
v -224 -224 0
v -208 -240 0
v -224 -240 0
v -224 -224 0
v -208 -224 0
v -192 -240 0
v -208 -240 0
v -208 -224 0
v -192 -224 0
v -432 -256 0
v -448 -256 0
v -448 -240 0
v -432 -240 0
v -416 -256 0
v -432 -256 0
v -432 -240 0
v -416 -240 0
v -320 -256 0
v -336 -256 0
v -336 -240 0
v -320 -240 0
v -448 -272 0
v -464 -272 0
v -464 -256 0
v -448 -256 0
v -432 -272 0
v -448 -272 0
v -448 -256 0
v -432 -256 0
v -416 -272 0
v -432 -272 0
v -432 -256 0
v -416 -256 0
v -400 -272 0
v -416 -272 0
v -416 -256 0
v -400 -256 0
v -384 -272 0
v -400 -272 0
v -400 -256 0
v -384 -256 0
v -368 -272 0
v -384 -272 0
v -384 -256 0
v -368 -256 0
v -352 -272 0
v -368 -272 0
v -368 -256 0
v -352 -256 0
v -320 -272 0
v -336 -272 0
v -336 -256 0
v -320 -256 0
v -304 -272 0
v -320 -272 0
v -320 -256 0
v -304 -256 0
v -272 -272 0
v -288 -272 0
v -288 -256 0
v -272 -256 0
v -256 -272 0
v -272 -272 0
v -272 -256 0
v -256 -256 0
v -240 -272 0
v -256 -272 0
v -256 -256 0
v -240 -256 0
v -224 -272 0
v -240 -272 0
v -240 -256 0
v -224 -256 0
v -208 -272 0
v -224 -272 0
v -224 -256 0
v -208 -256 0
v -432 -288 0
v -448 -288 0
v -448 -272 0
v -432 -272 0
v -416 -288 0
v -432 -288 0
v -432 -272 0
v -416 -272 0
v -384 -288 0
v -400 -288 0
v -400 -272 0
v -384 -272 0
v -368 -288 0
v -384 -288 0
v -384 -272 0
v -368 -272 0
v -352 -288 0
v -368 -288 0
v -368 -272 0
v -352 -272 0
v -320 -288 0
v -336 -288 0
v -336 -272 0
v -320 -272 0
v -304 -288 0
v -320 -288 0
v -320 -272 0
v -304 -272 0
v -448 -304 0
v -464 -304 0
v -464 -288 0
v -448 -288 0
v -432 -304 0
v -448 -304 0
v -448 -288 0
v -432 -288 0
v -416 -304 0
v -432 -304 0
v -432 -288 0
v -416 -288 0
v -400 -304 0
v -416 -304 0
v -416 -288 0
v -400 -288 0
v -384 -304 0
v -400 -304 0
v -400 -288 0
v -384 -288 0
v -368 -304 0
v -384 -304 0
v -384 -288 0
v -368 -288 0
v -352 -304 0
v -368 -304 0
v -368 -288 0
v -352 -288 0
v -320 -304 0
v -336 -304 0
v -336 -288 0
v -320 -288 0
v -432 -320 0
v -448 -320 0
v -448 -304 0
v -432 -304 0
v -416 -320 0
v -432 -320 0
v -432 -304 0
v -416 -304 0
v -368 -320 0
v -384 -320 0
v -384 -304 0
v -368 -304 0
v -272 -320 0
v -288 -320 0
v -288 -304 0
v -272 -304 0
v -256 -320 0
v -272 -320 0
v -272 -304 0
v -256 -304 0
v -240 -320 0
v -256 -320 0
v -256 -304 0
v -240 -304 0
v -224 -320 0
v -240 -320 0
v -240 -304 0
v -224 -304 0
v -208 -320 0
v -224 -320 0
v -224 -304 0
v -208 -304 0
v -448 -352 0
v -464 -352 0
v -464 -336 0
v -448 -336 0
v -432 -352 0
v -448 -352 0
v -448 -336 0
v -432 -336 0
v -416 -352 0
v -432 -352 0
v -432 -336 0
v -416 -336 0
v -400 -352 0
v -416 -352 0
v -416 -336 0
v -400 -336 0
v -272 -352 0
v -288 -352 0
v -288 -336 0
v -272 -336 0
v -256 -352 0
v -272 -352 0
v -272 -336 0
v -256 -336 0
v -240 -352 0
v -256 -352 0
v -256 -336 0
v -240 -336 0
v -224 -352 0
v -240 -352 0
v -240 -336 0
v -224 -336 0
v -208 -352 0
v -224 -352 0
v -224 -336 0
v -208 -336 0
v -448 -384 0
v -464 -384 0
v -464 -368 0
v -448 -368 0
v -432 -384 0
v -448 -384 0
v -448 -368 0
v -432 -368 0
v -416 -384 0
v -432 -384 0
v -432 -368 0
v -416 -368 0
v -400 -384 0
v -416 -384 0
v -416 -368 0
v -400 -368 0
v -272 -384 0
v -288 -384 0
v -288 -368 0
v -272 -368 0
v -256 -384 0
v -272 -384 0
v -272 -368 0
v -256 -368 0
v -240 -384 0
v -256 -384 0
v -256 -368 0
v -240 -368 0
v -224 -384 0
v -240 -384 0
v -240 -368 0
v -224 -368 0
v -208 -384 0
v -224 -384 0
v -224 -368 0
v -208 -368 0
v -368 -400 0
v -384 -400 0
v -384 -384 0
v -368 -384 0
v -352 -400 0
v -368 -400 0
v -368 -384 0
v -352 -384 0
v -448 -416 0
v -464 -416 0
v -464 -400 0
v -448 -400 0
v -432 -416 0
v -448 -416 0
v -448 -400 0
v -432 -400 0
v -416 -416 0
v -432 -416 0
v -432 -400 0
v -416 -400 0
v -400 -416 0
v -416 -416 0
v -416 -400 0
v -400 -400 0
v -352 -416 0
v -368 -416 0
v -368 -400 0
v -352 -400 0
v -272 -416 0
v -288 -416 0
v -288 -400 0
v -272 -400 0
v -256 -416 0
v -272 -416 0
v -272 -400 0
v -256 -400 0
v -240 -416 0
v -256 -416 0
v -256 -400 0
v -240 -400 0
v -224 -416 0
v -240 -416 0
v -240 -400 0
v -224 -400 0
v -208 -416 0
v -224 -416 0
v -224 -400 0
v -208 -400 0

# Texture cooridinates (Count = 56)
vt 0.03719912 0.5016394
vt 0.07221007 0.5016394
vt 0.07221007 0.5540984
vt 0.03719912 0.5540984
vt 0 0.5016394
vt 0.03501094 0.5016394
vt 0.03501094 0.5540984
vt 0 0.5540984
vt 0.1115974 0.5016394
vt 0.1466083 0.5016394
vt 0.1466083 0.5540984
vt 0.1115974 0.5540984
vt 0.4091904 0.390164
vt 0.4442013 0.390164
vt 0.4442013 0.442623
vt 0.4091904 0.442623
vt 0.3719912 0.390164
vt 0.4070022 0.390164
vt 0.4070022 0.442623
vt 0.3719912 0.442623
vt 0.07439825 0.5016394
vt 0.1094092 0.5016394
vt 0.1094092 0.5540984
vt 0.07439825 0.5540984
vt 0.4463895 0.4459016
vt 0.4814004 0.4459016
vt 0.4814004 0.4983606
vt 0.4463895 0.4983606
vt 0.2231947 0.4459016
vt 0.2582057 0.4459016
vt 0.2582057 0.4983606
vt 0.2231947 0.4983606
vt 0.4463895 0.390164
vt 0.4814004 0.390164
vt 0.4814004 0.442623
vt 0.4463895 0.442623
vt 0.2231947 0.390164
vt 0.2582057 0.390164
vt 0.2582057 0.442623
vt 0.2231947 0.442623
vt 0.4835886 0.3344262
vt 0.5185996 0.3344262
vt 0.5185996 0.3868852
vt 0.4835886 0.3868852
vt 0.4091904 0.2786885
vt 0.4442013 0.2786885
vt 0.4442013 0.3311476
vt 0.4091904 0.3311476
vt 0.3719912 0.2786885
vt 0.4070022 0.2786885
vt 0.4070022 0.3311476
vt 0.3719912 0.3311476
vt 0.3719912 0.2229508
vt 0.4070022 0.2229508
vt 0.4070022 0.2754098
vt 0.3719912 0.2754098

# Normal
vn 0 0 -1

# Mesh description
g Kasino01_mesh_0003

# Faces
f 1/1/1 2/2/1 3/3/1 4/4/1
f 5/1/1 6/2/1 7/3/1 8/4/1
f 9/1/1 10/2/1 11/3/1 12/4/1
f 13/1/1 14/2/1 15/3/1 16/4/1
f 17/1/1 18/2/1 19/3/1 20/4/1
f 21/1/1 22/2/1 23/3/1 24/4/1
f 25/1/1 26/2/1 27/3/1 28/4/1
f 29/1/1 30/2/1 31/3/1 32/4/1
f 33/1/1 34/2/1 35/3/1 36/4/1
f 37/1/1 38/2/1 39/3/1 40/4/1
f 41/1/1 42/2/1 43/3/1 44/4/1
f 45/1/1 46/2/1 47/3/1 48/4/1
f 49/1/1 50/2/1 51/3/1 52/4/1
f 53/1/1 54/2/1 55/3/1 56/4/1
f 57/1/1 58/2/1 59/3/1 60/4/1
f 61/1/1 62/2/1 63/3/1 64/4/1
f 65/1/1 66/2/1 67/3/1 68/4/1
f 69/1/1 70/2/1 71/3/1 72/4/1
f 73/5/1 74/6/1 75/7/1 76/8/1
f 77/5/1 78/6/1 79/7/1 80/8/1
f 81/5/1 82/6/1 83/7/1 84/8/1
f 85/9/1 86/10/1 87/11/1 88/12/1
f 89/13/1 90/14/1 91/15/1 92/16/1
f 93/17/1 94/18/1 95/19/1 96/20/1
f 97/21/1 98/22/1 99/23/1 100/24/1
f 101/9/1 102/10/1 103/11/1 104/12/1
f 105/25/1 106/26/1 107/27/1 108/28/1
f 109/21/1 110/22/1 111/23/1 112/24/1
f 113/29/1 114/30/1 115/31/1 116/32/1
f 117/21/1 118/22/1 119/23/1 120/24/1
f 121/1/1 122/2/1 123/3/1 124/4/1
f 125/1/1 126/2/1 127/3/1 128/4/1
f 129/1/1 130/2/1 131/3/1 132/4/1
f 133/1/1 134/2/1 135/3/1 136/4/1
f 137/1/1 138/2/1 139/3/1 140/4/1
f 141/1/1 142/2/1 143/3/1 144/4/1
f 145/1/1 146/2/1 147/3/1 148/4/1
f 149/9/1 150/10/1 151/11/1 152/12/1
f 153/33/1 154/34/1 155/35/1 156/36/1
f 157/21/1 158/22/1 159/23/1 160/24/1
f 161/37/1 162/38/1 163/39/1 164/40/1
f 165/21/1 166/22/1 167/23/1 168/24/1
f 169/9/1 170/10/1 171/11/1 172/12/1
f 173/13/1 174/14/1 175/15/1 176/16/1
f 177/17/1 178/18/1 179/19/1 180/20/1
f 181/21/1 182/22/1 183/23/1 184/24/1
f 185/9/1 186/10/1 187/11/1 188/12/1
f 189/41/1 190/42/1 191/43/1 192/44/1
f 193/21/1 194/22/1 195/23/1 196/24/1
f 197/1/1 198/2/1 199/3/1 200/4/1
f 201/1/1 202/2/1 203/3/1 204/4/1
f 205/1/1 206/2/1 207/3/1 208/4/1
f 209/1/1 210/2/1 211/3/1 212/4/1
f 213/1/1 214/2/1 215/3/1 216/4/1
f 217/1/1 218/2/1 219/3/1 220/4/1
f 221/1/1 222/2/1 223/3/1 224/4/1
f 225/1/1 226/2/1 227/3/1 228/4/1
f 229/1/1 230/2/1 231/3/1 232/4/1
f 233/1/1 234/2/1 235/3/1 236/4/1
f 237/1/1 238/2/1 239/3/1 240/4/1
f 241/1/1 242/2/1 243/3/1 244/4/1
f 245/1/1 246/2/1 247/3/1 248/4/1
f 249/1/1 250/2/1 251/3/1 252/4/1
f 253/1/1 254/2/1 255/3/1 256/4/1
f 257/1/1 258/2/1 259/3/1 260/4/1
f 261/1/1 262/2/1 263/3/1 264/4/1
f 265/1/1 266/2/1 267/3/1 268/4/1
f 269/1/1 270/2/1 271/3/1 272/4/1
f 273/1/1 274/2/1 275/3/1 276/4/1
f 277/1/1 278/2/1 279/3/1 280/4/1
f 281/1/1 282/2/1 283/3/1 284/4/1
f 285/1/1 286/2/1 287/3/1 288/4/1
f 289/1/1 290/2/1 291/3/1 292/4/1
f 293/1/1 294/2/1 295/3/1 296/4/1
f 297/1/1 298/2/1 299/3/1 300/4/1
f 301/1/1 302/2/1 303/3/1 304/4/1
f 305/45/1 306/46/1 307/47/1 308/48/1
f 309/49/1 310/50/1 311/51/1 312/52/1
f 313/1/1 314/2/1 315/3/1 316/4/1
f 317/1/1 318/2/1 319/3/1 320/4/1
f 321/1/1 322/2/1 323/3/1 324/4/1
f 325/1/1 326/2/1 327/3/1 328/4/1
f 329/53/1 330/54/1 331/55/1 332/56/1
f 333/1/1 334/2/1 335/3/1 336/4/1
f 337/1/1 338/2/1 339/3/1 340/4/1
f 341/1/1 342/2/1 343/3/1 344/4/1
f 345/1/1 346/2/1 347/3/1 348/4/1
f 349/1/1 350/2/1 351/3/1 352/4/1

