# Tiled2Unity generated file. Do not modify by hand.
# Wavefront file for 'Kuca03_mesh_0002.obj'

# Vertices (Count = 64)
v -368 -256 0
v -384 -256 0
v -384 -240 0
v -368 -240 0
v -352 -256 0
v -368 -256 0
v -368 -240 0
v -352 -240 0
v -320 -256 0
v -336 -256 0
v -336 -240 0
v -320 -240 0
v -304 -256 0
v -320 -256 0
v -320 -240 0
v -304 -240 0
v -256 -256 0
v -272 -256 0
v -272 -240 0
v -256 -240 0
v -240 -256 0
v -256 -256 0
v -256 -240 0
v -240 -240 0
v -352 -288 0
v -368 -288 0
v -368 -272 0
v -352 -272 0
v -336 -288 0
v -352 -288 0
v -352 -272 0
v -336 -272 0
v -368 -304 0
v -384 -304 0
v -384 -288 0
v -368 -288 0
v -352 -304 0
v -368 -304 0
v -368 -288 0
v -352 -288 0
v -336 -304 0
v -352 -304 0
v -352 -288 0
v -336 -288 0
v -320 -304 0
v -336 -304 0
v -336 -288 0
v -320 -288 0
v -352 -320 0
v -368 -320 0
v -368 -304 0
v -352 -304 0
v -336 -320 0
v -352 -320 0
v -352 -304 0
v -336 -304 0
v -256 -320 0
v -272 -320 0
v -272 -304 0
v -256 -304 0
v -240 -320 0
v -256 -320 0
v -256 -304 0
v -240 -304 0

# Texture cooridinates (Count = 56)
vt 0.5207878 0
vt 0.5557987 0
vt 0.5557987 0.052459
vt 0.5207878 0.052459
vt 0.4463895 0
vt 0.4814004 0
vt 0.4814004 0.052459
vt 0.4463895 0.052459
vt 0.297593 0
vt 0.3326039 0
vt 0.3326039 0.052459
vt 0.297593 0.052459
vt 0 0
vt 0.03501094 0
vt 0.03501094 0.052459
vt 0 0.052459
vt 0.4835886 0.8360656
vt 0.5185996 0.8360656
vt 0.5185996 0.8885246
vt 0.4835886 0.8885246
vt 0.4463895 0.8360656
vt 0.4814004 0.8360656
vt 0.4814004 0.8885246
vt 0.4463895 0.8885246
vt 0 0.8360656
vt 0.03501094 0.8360656
vt 0.03501094 0.8885246
vt 0 0.8885246
vt 0.1115974 0.8360656
vt 0.1466083 0.8360656
vt 0.1466083 0.8885246
vt 0.1115974 0.8885246
vt 0.1487965 0.8918033
vt 0.1838074 0.8918033
vt 0.1838074 0.9442623
vt 0.1487965 0.9442623
vt 0.1115974 0.8918033
vt 0.1466083 0.8918033
vt 0.1466083 0.9442623
vt 0.1115974 0.9442623
vt 0.07439825 0.8360656
vt 0.1094092 0.8360656
vt 0.1094092 0.8885246
vt 0.07439825 0.8885246
vt 0.03719912 0.7245902
vt 0.07221007 0.7245902
vt 0.07221007 0.7770492
vt 0.03719912 0.7770492
vt 0.3347921 0.7803279
vt 0.3698031 0.7803279
vt 0.3698031 0.8327869
vt 0.3347921 0.8327869
vt 0.297593 0.7803279
vt 0.3326039 0.7803279
vt 0.3326039 0.8327869
vt 0.297593 0.8327869

# Normal
vn 0 0 -1

# Mesh description
g Kuca03_mesh_0002

# Faces
f 1/1/1 2/2/1 3/3/1 4/4/1
f 5/5/1 6/6/1 7/7/1 8/8/1
f 9/9/1 10/10/1 11/11/1 12/12/1
f 13/13/1 14/14/1 15/15/1 16/16/1
f 17/17/1 18/18/1 19/19/1 20/20/1
f 21/21/1 22/22/1 23/23/1 24/24/1
f 25/25/1 26/26/1 27/27/1 28/28/1
f 29/25/1 30/26/1 31/27/1 32/28/1
f 33/29/1 34/30/1 35/31/1 36/32/1
f 37/33/1 38/34/1 39/35/1 40/36/1
f 41/37/1 42/38/1 43/39/1 44/40/1
f 45/41/1 46/42/1 47/43/1 48/44/1
f 49/45/1 50/46/1 51/47/1 52/48/1
f 53/45/1 54/46/1 55/47/1 56/48/1
f 57/49/1 58/50/1 59/51/1 60/52/1
f 61/53/1 62/54/1 63/55/1 64/56/1

