# Tiled2Unity generated file. Do not modify by hand.
# Wavefront file for 'Inn1k_mesh_0005.obj'

# Vertices (Count = 24)
v -160 -352 0
v -192 -352 0
v -192 -320 0
v -160 -320 0
v -128 -352 0
v -160 -352 0
v -160 -320 0
v -128 -320 0
v -96 -352 0
v -128 -352 0
v -128 -320 0
v -96 -320 0
v -160 -384 0
v -192 -384 0
v -192 -352 0
v -160 -352 0
v -128 -384 0
v -160 -384 0
v -160 -352 0
v -128 -352 0
v -96 -384 0
v -128 -384 0
v -128 -352 0
v -96 -352 0

# Texture cooridinates (Count = 13)
vt 0.3333333 0.375
vt 0.6666667 0.375
vt 0.6666667 0.5
vt 0.3333333 0.5
vt 0.3333333 0.125
vt 0.6666667 0.125
vt 0.6666667 0.25
vt 0.3333333 0.25
vt 0 0.125
vt 0 0.25
vt 0.3333333 0
vt 0.6666667 0
vt 0 0

# Normal
vn 0 0 -1

# Mesh description
g Inn1k_mesh_0005

# Faces
f 1/1/1 2/2/1 3/3/1 4/4/1
f 5/5/1 6/6/1 7/7/1 8/8/1
f 9/9/1 10/5/1 11/8/1 12/10/1
f 13/8/1 14/7/1 15/2/1 16/1/1
f 17/11/1 18/12/1 19/6/1 20/5/1
f 21/13/1 22/11/1 23/5/1 24/9/1

