# Tiled2Unity generated file. Do not modify by hand.
# Wavefront file for 'Inn1k_mesh_0006.obj'

# Vertices (Count = 16)
v -416 -448 0
v -448 -448 0
v -448 -416 0
v -416 -416 0
v -384 -448 0
v -416 -448 0
v -416 -416 0
v -384 -416 0
v -416 -480 0
v -448 -480 0
v -448 -448 0
v -416 -448 0
v -384 -480 0
v -416 -480 0
v -416 -448 0
v -384 -448 0

# Texture cooridinates (Count = 9)
vt 0.78125 0.34375
vt 0.8125 0.34375
vt 0.8125 0.375
vt 0.78125 0.375
vt 0.75 0.34375
vt 0.75 0.375
vt 0.78125 0.3125
vt 0.8125 0.3125
vt 0.75 0.3125

# Normal
vn 0 0 -1

# Mesh description
g Inn1k_mesh_0006

# Faces
f 1/1/1 2/2/1 3/3/1 4/4/1
f 5/5/1 6/1/1 7/4/1 8/6/1
f 9/7/1 10/8/1 11/2/1 12/1/1
f 13/9/1 14/7/1 15/1/1 16/5/1

