# Tiled2Unity generated file. Do not modify by hand.
# Wavefront file for 'Inn1k_mesh_0009.obj'

# Vertices (Count = 48)
v -576 -160 0
v -608 -160 0
v -608 -128 0
v -576 -128 0
v -544 -160 0
v -576 -160 0
v -576 -128 0
v -544 -128 0
v -576 -192 0
v -608 -192 0
v -608 -160 0
v -576 -160 0
v -544 -192 0
v -576 -192 0
v -576 -160 0
v -544 -160 0
v -576 -256 0
v -608 -256 0
v -608 -224 0
v -576 -224 0
v -544 -256 0
v -576 -256 0
v -576 -224 0
v -544 -224 0
v -576 -288 0
v -608 -288 0
v -608 -256 0
v -576 -256 0
v -544 -288 0
v -576 -288 0
v -576 -256 0
v -544 -256 0
v -416 -288 0
v -448 -288 0
v -448 -256 0
v -416 -256 0
v -384 -288 0
v -416 -288 0
v -416 -256 0
v -384 -256 0
v -416 -320 0
v -448 -320 0
v -448 -288 0
v -416 -288 0
v -384 -320 0
v -416 -320 0
v -416 -288 0
v -384 -288 0

# Texture cooridinates (Count = 9)
vt 0.75 0.4375
vt 0.8125 0.4375
vt 0.8125 0.5
vt 0.75 0.5
vt 0.6875 0.4375
vt 0.6875 0.5
vt 0.75 0.375
vt 0.8125 0.375
vt 0.6875 0.375

# Normal
vn 0 0 -1

# Mesh description
g Inn1k_mesh_0009

# Faces
f 1/1/1 2/2/1 3/3/1 4/4/1
f 5/5/1 6/1/1 7/4/1 8/6/1
f 9/7/1 10/8/1 11/2/1 12/1/1
f 13/9/1 14/7/1 15/1/1 16/5/1
f 17/1/1 18/2/1 19/3/1 20/4/1
f 21/5/1 22/1/1 23/4/1 24/6/1
f 25/7/1 26/8/1 27/2/1 28/1/1
f 29/9/1 30/7/1 31/1/1 32/5/1
f 33/1/1 34/2/1 35/3/1 36/4/1
f 37/5/1 38/1/1 39/4/1 40/6/1
f 41/7/1 42/8/1 43/2/1 44/1/1
f 45/9/1 46/7/1 47/1/1 48/5/1

