# Tiled2Unity generated file. Do not modify by hand.
# Wavefront file for 'Inn1k_mesh_0003.obj'

# Vertices (Count = 112)
v -288 -64 0
v -320 -64 0
v -320 -32 0
v -288 -32 0
v -256 -64 0
v -288 -64 0
v -288 -32 0
v -256 -32 0
v -224 -64 0
v -256 -64 0
v -256 -32 0
v -224 -32 0
v -192 -64 0
v -224 -64 0
v -224 -32 0
v -192 -32 0
v -288 -96 0
v -320 -96 0
v -320 -64 0
v -288 -64 0
v -256 -96 0
v -288 -96 0
v -288 -64 0
v -256 -64 0
v -224 -96 0
v -256 -96 0
v -256 -64 0
v -224 -64 0
v -192 -96 0
v -224 -96 0
v -224 -64 0
v -192 -64 0
v -128 -192 0
v -160 -192 0
v -160 -160 0
v -128 -160 0
v -96 -192 0
v -128 -192 0
v -128 -160 0
v -96 -160 0
v -128 -224 0
v -160 -224 0
v -160 -192 0
v -128 -192 0
v -96 -224 0
v -128 -224 0
v -128 -192 0
v -96 -192 0
v -288 -256 0
v -320 -256 0
v -320 -224 0
v -288 -224 0
v -256 -256 0
v -288 -256 0
v -288 -224 0
v -256 -224 0
v -128 -256 0
v -160 -256 0
v -160 -224 0
v -128 -224 0
v -96 -256 0
v -128 -256 0
v -128 -224 0
v -96 -224 0
v -288 -288 0
v -320 -288 0
v -320 -256 0
v -288 -256 0
v -256 -288 0
v -288 -288 0
v -288 -256 0
v -256 -256 0
v -128 -288 0
v -160 -288 0
v -160 -256 0
v -128 -256 0
v -96 -288 0
v -128 -288 0
v -128 -256 0
v -96 -256 0
v -288 -320 0
v -320 -320 0
v -320 -288 0
v -288 -288 0
v -256 -320 0
v -288 -320 0
v -288 -288 0
v -256 -288 0
v -128 -320 0
v -160 -320 0
v -160 -288 0
v -128 -288 0
v -96 -320 0
v -128 -320 0
v -128 -288 0
v -96 -288 0
v -288 -352 0
v -320 -352 0
v -320 -320 0
v -288 -320 0
v -256 -352 0
v -288 -352 0
v -288 -320 0
v -256 -320 0
v -288 -384 0
v -320 -384 0
v -320 -352 0
v -288 -352 0
v -256 -384 0
v -288 -384 0
v -288 -352 0
v -256 -352 0

# Texture cooridinates (Count = 24)
vt 0.8125 0.875
vt 0.84375 0.875
vt 0.84375 0.90625
vt 0.8125 0.90625
vt 0.875 0.875
vt 0.90625 0.875
vt 0.90625 0.90625
vt 0.875 0.90625
vt 0.8125 0.84375
vt 0.84375 0.84375
vt 0.875 0.84375
vt 0.90625 0.84375
vt 0.46875 0.78125
vt 0.5 0.78125
vt 0.5 0.8125
vt 0.46875 0.8125
vt 0.4375 0.78125
vt 0.4375 0.8125
vt 0.46875 0.75
vt 0.5 0.75
vt 0.4375 0.75
vt 0.46875 0.71875
vt 0.5 0.71875
vt 0.4375 0.71875

# Normal
vn 0 0 -1

# Mesh description
g Inn1k_mesh_0003

# Faces
f 1/1/1 2/2/1 3/3/1 4/4/1
f 5/1/1 6/2/1 7/3/1 8/4/1
f 9/1/1 10/2/1 11/3/1 12/4/1
f 13/5/1 14/6/1 15/7/1 16/8/1
f 17/9/1 18/10/1 19/2/1 20/1/1
f 21/9/1 22/10/1 23/2/1 24/1/1
f 25/9/1 26/10/1 27/2/1 28/1/1
f 29/11/1 30/12/1 31/6/1 32/5/1
f 33/13/1 34/14/1 35/15/1 36/16/1
f 37/17/1 38/13/1 39/16/1 40/18/1
f 41/19/1 42/20/1 43/14/1 44/13/1
f 45/21/1 46/19/1 47/13/1 48/17/1
f 49/13/1 50/14/1 51/15/1 52/16/1
f 53/17/1 54/13/1 55/16/1 56/18/1
f 57/13/1 58/14/1 59/15/1 60/16/1
f 61/17/1 62/13/1 63/16/1 64/18/1
f 65/19/1 66/20/1 67/14/1 68/13/1
f 69/21/1 70/19/1 71/13/1 72/17/1
f 73/19/1 74/20/1 75/14/1 76/13/1
f 77/21/1 78/19/1 79/13/1 80/17/1
f 81/13/1 82/14/1 83/15/1 84/16/1
f 85/17/1 86/13/1 87/16/1 88/18/1
f 89/22/1 90/23/1 91/20/1 92/19/1
f 93/24/1 94/22/1 95/19/1 96/21/1
f 97/19/1 98/20/1 99/14/1 100/13/1
f 101/21/1 102/19/1 103/13/1 104/17/1
f 105/22/1 106/23/1 107/20/1 108/19/1
f 109/24/1 110/22/1 111/19/1 112/21/1

