# Tiled2Unity generated file. Do not modify by hand.
# Wavefront file for 'Vila3k_mesh_0002.obj'

# Vertices (Count = 84)
v -544 -320 0
v -576 -320 0
v -576 -288 0
v -544 -288 0
v -576 -320 0
v -608 -320 0
v -608 -288 0
v -576 -288 0
v -608 -320 0
v -640 -320 0
v -640 -288 0
v -608 -288 0
v -640 -320 0
v -672 -320 0
v -672 -288 0
v -640 -288 0
v -608 -352 0
v -640 -352 0
v -640 -320 0
v -608 -320 0
v -640 -352 0
v -672 -352 0
v -672 -320 0
v -640 -320 0
v -704 -352 0
v -736 -352 0
v -736 -320 0
v -704 -320 0
v -704 -384 0
v -736 -384 0
v -736 -352 0
v -704 -352 0
v -672 -480 0
v -704 -480 0
v -704 -448 0
v -672 -448 0
v -704 -480 0
v -736 -480 0
v -736 -448 0
v -704 -448 0
v -544 -512 0
v -576 -512 0
v -576 -480 0
v -544 -480 0
v -704 -512 0
v -736 -512 0
v -736 -480 0
v -704 -480 0
v -544 -544 0
v -576 -544 0
v -576 -512 0
v -544 -512 0
v -544 -608 0
v -576 -608 0
v -576 -576 0
v -544 -576 0
v -672 -608 0
v -704 -608 0
v -704 -576 0
v -672 -576 0
v -704 -608 0
v -736 -608 0
v -736 -576 0
v -704 -576 0
v -544 -640 0
v -576 -640 0
v -576 -608 0
v -544 -608 0
v -672 -640 0
v -704 -640 0
v -704 -608 0
v -672 -608 0
v -704 -640 0
v -736 -640 0
v -736 -608 0
v -704 -608 0
v -544 -672 0
v -576 -672 0
v -576 -640 0
v -544 -640 0
v -544 -704 0
v -576 -704 0
v -576 -672 0
v -544 -672 0

# Texture cooridinates (Count = 47)
vt 0.0625 0.8125
vt 0.125 0.8125
vt 0.125 0.875
vt 0.0625 0.875
vt 0.1875 0.8125
vt 0.1875 0.875
vt 0.5 0.5
vt 0.5625 0.5
vt 0.5625 0.5625
vt 0.5 0.5625
vt 0.625 0.5
vt 0.625 0.5625
vt 0.5 0.4375
vt 0.5625 0.4375
vt 0.625 0.4375
vt 0.4375 0.4375
vt 0.4375 0.5
vt 0.4375 0.375
vt 0.5 0.375
vt 0.125 0.75
vt 0.1875 0.75
vt 0.375 0.75
vt 0.4375 0.75
vt 0.4375 0.8125
vt 0.375 0.8125
vt 0.3125 0.625
vt 0.375 0.625
vt 0.375 0.6875
vt 0.3125 0.6875
vt 0.4375 0.6875
vt 0.3125 0.5625
vt 0.375 0.5625
vt 0.625 0.8125
vt 0.6875 0.8125
vt 0.6875 0.875
vt 0.625 0.875
vt 0.75 0.8125
vt 0.75 0.875
vt 0.625 0.75
vt 0.6875 0.75
vt 0.75 0.75
vt 0.125 0.625
vt 0.1875 0.625
vt 0.1875 0.6875
vt 0.125 0.6875
vt 0.125 0.5625
vt 0.1875 0.5625

# Normal
vn 0 0 -1

# Mesh description
g Vila3k_mesh_0002

# Faces
f 1/1/1 2/2/1 3/3/1 4/4/1
f 5/2/1 6/5/1 7/6/1 8/3/1
f 9/7/1 10/8/1 11/9/1 12/10/1
f 13/8/1 14/11/1 15/12/1 16/9/1
f 17/13/1 18/14/1 19/8/1 20/7/1
f 21/14/1 22/15/1 23/11/1 24/8/1
f 25/16/1 26/13/1 27/7/1 28/17/1
f 29/18/1 30/19/1 31/13/1 32/16/1
f 33/20/1 34/21/1 35/5/1 36/2/1
f 37/22/1 38/23/1 39/24/1 40/25/1
f 41/26/1 42/27/1 43/28/1 44/29/1
f 45/28/1 46/30/1 47/23/1 48/22/1
f 49/31/1 50/32/1 51/27/1 52/26/1
f 53/26/1 54/27/1 55/28/1 56/29/1
f 57/33/1 58/34/1 59/35/1 60/36/1
f 61/34/1 62/37/1 63/38/1 64/35/1
f 65/31/1 66/32/1 67/27/1 68/26/1
f 69/39/1 70/40/1 71/34/1 72/33/1
f 73/40/1 74/41/1 75/37/1 76/34/1
f 77/42/1 78/43/1 79/44/1 80/45/1
f 81/46/1 82/47/1 83/43/1 84/42/1

