# Tiled2Unity generated file. Do not modify by hand.
# Wavefront file for 'Vila3k_mesh_0004.obj'

# Vertices (Count = 16)
v -608 -736 0
v -640 -736 0
v -640 -704 0
v -608 -704 0
v -640 -736 0
v -672 -736 0
v -672 -704 0
v -640 -704 0
v -608 -768 0
v -640 -768 0
v -640 -736 0
v -608 -736 0
v -640 -768 0
v -672 -768 0
v -672 -736 0
v -640 -736 0

# Texture cooridinates (Count = 9)
vt 0.1875 0.3125
vt 0.21875 0.3125
vt 0.21875 0.34375
vt 0.1875 0.34375
vt 0.25 0.3125
vt 0.25 0.34375
vt 0.1875 0.28125
vt 0.21875 0.28125
vt 0.25 0.28125

# Normal
vn 0 0 -1

# Mesh description
g Vila3k_mesh_0004

# Faces
f 1/1/1 2/2/1 3/3/1 4/4/1
f 5/2/1 6/5/1 7/6/1 8/3/1
f 9/7/1 10/8/1 11/2/1 12/1/1
f 13/8/1 14/9/1 15/5/1 16/2/1

