# Tiled2Unity generated file. Do not modify by hand.
# Wavefront file for 'Kuca01_mesh_0003.obj'

# Vertices (Count = 40)
v -352 -288 0
v -368 -288 0
v -368 -272 0
v -352 -272 0
v -336 -288 0
v -352 -288 0
v -352 -272 0
v -336 -272 0
v -320 -288 0
v -336 -288 0
v -336 -272 0
v -320 -272 0
v -288 -288 0
v -304 -288 0
v -304 -272 0
v -288 -272 0
v -272 -304 0
v -288 -304 0
v -288 -288 0
v -272 -288 0
v -336 -320 0
v -352 -320 0
v -352 -304 0
v -336 -304 0
v -352 -336 0
v -368 -336 0
v -368 -320 0
v -352 -320 0
v -336 -336 0
v -352 -336 0
v -352 -320 0
v -336 -320 0
v -320 -336 0
v -336 -336 0
v -336 -320 0
v -320 -320 0
v -336 -352 0
v -352 -352 0
v -352 -336 0
v -336 -336 0

# Texture cooridinates (Count = 40)
vt 0.4835886 0
vt 0.5185996 0
vt 0.5185996 0.052459
vt 0.4835886 0.052459
vt 0.5579869 0.1672131
vt 0.5929978 0.1672131
vt 0.5929978 0.2196721
vt 0.5579869 0.2196721
vt 0.4463895 0
vt 0.4814004 0
vt 0.4814004 0.052459
vt 0.4463895 0.052459
vt 0 0
vt 0.03501094 0
vt 0.03501094 0.052459
vt 0 0.052459
vt 0.3347921 0.947541
vt 0.3698031 0.947541
vt 0.3698031 1
vt 0.3347921 1
vt 0 0.7245902
vt 0.03501094 0.7245902
vt 0.03501094 0.7770492
vt 0 0.7770492
vt 0.1115974 0.7245902
vt 0.1466083 0.7245902
vt 0.1466083 0.7770492
vt 0.1115974 0.7770492
vt 0.1487965 0.7803279
vt 0.1838074 0.7803279
vt 0.1838074 0.8327869
vt 0.1487965 0.8327869
vt 0.07439825 0.7245902
vt 0.1094092 0.7245902
vt 0.1094092 0.7770492
vt 0.07439825 0.7770492
vt 0.03719912 0.6688524
vt 0.07221007 0.6688524
vt 0.07221007 0.7213115
vt 0.03719912 0.7213115

# Normal
vn 0 0 -1

# Mesh description
g Kuca01_mesh_0003

# Faces
f 1/1/1 2/2/1 3/3/1 4/4/1
f 5/5/1 6/6/1 7/7/1 8/8/1
f 9/9/1 10/10/1 11/11/1 12/12/1
f 13/13/1 14/14/1 15/15/1 16/16/1
f 17/17/1 18/18/1 19/19/1 20/20/1
f 21/21/1 22/22/1 23/23/1 24/24/1
f 25/25/1 26/26/1 27/27/1 28/28/1
f 29/29/1 30/30/1 31/31/1 32/32/1
f 33/33/1 34/34/1 35/35/1 36/36/1
f 37/37/1 38/38/1 39/39/1 40/40/1

