# Tiled2Unity generated file. Do not modify by hand.
# Wavefront file for 'Kuca01_mesh_0002.obj'

# Vertices (Count = 40)
v -304 -288 0
v -320 -288 0
v -320 -272 0
v -304 -272 0
v -272 -288 0
v -288 -288 0
v -288 -272 0
v -272 -272 0
v -256 -288 0
v -272 -288 0
v -272 -272 0
v -256 -272 0
v -256 -304 0
v -272 -304 0
v -272 -288 0
v -256 -288 0
v -352 -320 0
v -368 -320 0
v -368 -304 0
v -352 -304 0
v -320 -320 0
v -336 -320 0
v -336 -304 0
v -320 -304 0
v -272 -336 0
v -288 -336 0
v -288 -320 0
v -272 -320 0
v -352 -352 0
v -368 -352 0
v -368 -336 0
v -352 -336 0
v -272 -352 0
v -288 -352 0
v -288 -336 0
v -272 -336 0
v -256 -352 0
v -272 -352 0
v -272 -336 0
v -256 -336 0

# Texture cooridinates (Count = 32)
vt 0.5092975 0.904943
vt 0.5258265 0.904943
vt 0.5258265 0.9353612
vt 0.5092975 0.9353612
vt 0.7200413 0.6140684
vt 0.7365702 0.6140684
vt 0.7365702 0.6444867
vt 0.7200413 0.6444867
vt 0.7727273 0.6140684
vt 0.7892562 0.6140684
vt 0.7892562 0.6444867
vt 0.7727273 0.6444867
vt 0.7727273 0.6463878
vt 0.7892562 0.6463878
vt 0.7892562 0.6768061
vt 0.7727273 0.6768061
vt 0.9483471 0.6140684
vt 0.9648761 0.6140684
vt 0.9648761 0.6444867
vt 0.9483471 0.6444867
vt 0.1931818 0.8403042
vt 0.2097107 0.8403042
vt 0.2097107 0.8707224
vt 0.1931818 0.8707224
vt 0.7727273 0.2262357
vt 0.7892562 0.2262357
vt 0.7892562 0.256654
vt 0.7727273 0.256654
vt 0.7727273 0.1939163
vt 0.7892562 0.1939163
vt 0.7892562 0.2243346
vt 0.7727273 0.2243346

# Normal
vn 0 0 -1

# Mesh description
g Kuca01_mesh_0002

# Faces
f 1/1/1 2/2/1 3/3/1 4/4/1
f 5/5/1 6/6/1 7/7/1 8/8/1
f 9/9/1 10/10/1 11/11/1 12/12/1
f 13/13/1 14/14/1 15/15/1 16/16/1
f 17/17/1 18/18/1 19/19/1 20/20/1
f 21/17/1 22/18/1 23/19/1 24/20/1
f 25/21/1 26/22/1 27/23/1 28/24/1
f 29/17/1 30/18/1 31/19/1 32/20/1
f 33/25/1 34/26/1 35/27/1 36/28/1
f 37/29/1 38/30/1 39/31/1 40/32/1

