# Tiled2Unity generated file. Do not modify by hand.
# Wavefront file for 'Casino1k_mesh_0008.obj'

# Vertices (Count = 44)
v -704 -416 0
v -736 -416 0
v -736 -384 0
v -704 -384 0
v -672 -416 0
v -704 -416 0
v -704 -384 0
v -672 -384 0
v -640 -416 0
v -672 -416 0
v -672 -384 0
v -640 -384 0
v -608 -416 0
v -640 -416 0
v -640 -384 0
v -608 -384 0
v -576 -416 0
v -608 -416 0
v -608 -384 0
v -576 -384 0
v -544 -416 0
v -576 -416 0
v -576 -384 0
v -544 -384 0
v -512 -416 0
v -544 -416 0
v -544 -384 0
v -512 -384 0
v -480 -416 0
v -512 -416 0
v -512 -384 0
v -480 -384 0
v -448 -416 0
v -480 -416 0
v -480 -384 0
v -448 -384 0
v -416 -416 0
v -448 -416 0
v -448 -384 0
v -416 -384 0
v -384 -416 0
v -416 -416 0
v -416 -384 0
v -384 -384 0

# Texture cooridinates (Count = 10)
vt 0 0
vt 0.25 0
vt 0.25 1
vt 0 1
vt 0.5 0
vt 0.5 1
vt 0.75 0
vt 0.75 1
vt 1 0
vt 1 1

# Normal
vn 0 0 -1

# Mesh description
g Casino1k_mesh_0008

# Faces
f 1/1/1 2/2/1 3/3/1 4/4/1
f 5/2/1 6/5/1 7/6/1 8/3/1
f 9/2/1 10/5/1 11/6/1 12/3/1
f 13/1/1 14/2/1 15/3/1 16/4/1
f 17/2/1 18/5/1 19/6/1 20/3/1
f 21/2/1 22/5/1 23/6/1 24/3/1
f 25/5/1 26/7/1 27/8/1 28/6/1
f 29/7/1 30/9/1 31/10/1 32/8/1
f 33/5/1 34/7/1 35/8/1 36/6/1
f 37/1/1 38/2/1 39/3/1 40/4/1
f 41/1/1 42/2/1 43/3/1 44/4/1

