# Tiled2Unity generated file. Do not modify by hand.
# Wavefront file for 'Casino1k_mesh_0007.obj'

# Vertices (Count = 72)
v -192 -416 0
v -224 -416 0
v -224 -384 0
v -192 -384 0
v -160 -416 0
v -192 -416 0
v -192 -384 0
v -160 -384 0
v -256 -544 0
v -288 -544 0
v -288 -512 0
v -256 -512 0
v -224 -544 0
v -256 -544 0
v -256 -512 0
v -224 -512 0
v -640 -576 0
v -672 -576 0
v -672 -544 0
v -640 -544 0
v -448 -576 0
v -480 -576 0
v -480 -544 0
v -448 -544 0
v -256 -640 0
v -288 -640 0
v -288 -608 0
v -256 -608 0
v -224 -640 0
v -256 -640 0
v -256 -608 0
v -224 -608 0
v -704 -672 0
v -736 -672 0
v -736 -640 0
v -704 -640 0
v -640 -672 0
v -672 -672 0
v -672 -640 0
v -640 -640 0
v -608 -672 0
v -640 -672 0
v -640 -640 0
v -608 -640 0
v -544 -672 0
v -576 -672 0
v -576 -640 0
v -544 -640 0
v -512 -672 0
v -544 -672 0
v -544 -640 0
v -512 -640 0
v -480 -672 0
v -512 -672 0
v -512 -640 0
v -480 -640 0
v -704 -736 0
v -736 -736 0
v -736 -704 0
v -704 -704 0
v -672 -736 0
v -704 -736 0
v -704 -704 0
v -672 -704 0
v -640 -736 0
v -672 -736 0
v -672 -704 0
v -640 -704 0
v -608 -736 0
v -640 -736 0
v -640 -704 0
v -608 -704 0

# Texture cooridinates (Count = 26)
vt 0.125 0.1875
vt 0.25 0.1875
vt 0.25 0.21875
vt 0.125 0.21875
vt 0.5 0.59375
vt 0.625 0.59375
vt 0.625 0.625
vt 0.5 0.625
vt 0.5 0.5625
vt 0.625 0.5625
vt 0.5 0.5
vt 0.625 0.5
vt 0.625 0.53125
vt 0.5 0.53125
vt 0.375 0.5
vt 0.375 0.53125
vt 0.75 0.59375
vt 0.75 0.625
vt 0.75 0.5
vt 0.75 0.53125
vt 0.625 0.46875
vt 0.75 0.46875
vt 0.875 0.46875
vt 0.875 0.5
vt 0.5 0.46875
vt 0.375 0.46875

# Normal
vn 0 0 -1

# Mesh description
g Casino1k_mesh_0007

# Faces
f 1/1/1 2/2/1 3/3/1 4/4/1
f 5/1/1 6/2/1 7/3/1 8/4/1
f 9/5/1 10/6/1 11/7/1 12/8/1
f 13/5/1 14/6/1 15/7/1 16/8/1
f 17/9/1 18/10/1 19/6/1 20/5/1
f 21/9/1 22/10/1 23/6/1 24/5/1
f 25/5/1 26/6/1 27/7/1 28/8/1
f 29/5/1 30/6/1 31/7/1 32/8/1
f 33/11/1 34/12/1 35/13/1 36/14/1
f 37/15/1 38/11/1 39/14/1 40/16/1
f 41/6/1 42/17/1 43/18/1 44/7/1
f 45/12/1 46/19/1 47/20/1 48/13/1
f 49/14/1 50/13/1 51/10/1 52/9/1
f 53/6/1 54/17/1 55/18/1 56/7/1
f 57/21/1 58/22/1 59/19/1 60/12/1
f 61/22/1 62/23/1 63/24/1 64/19/1
f 65/25/1 66/21/1 67/12/1 68/11/1
f 69/26/1 70/25/1 71/11/1 72/15/1

