# Tiled2Unity generated file. Do not modify by hand.
# Wavefront file for 'Casino1k_mesh_0003.obj'

# Vertices (Count = 48)
v -480 -192 0
v -512 -192 0
v -512 -160 0
v -480 -160 0
v -448 -192 0
v -480 -192 0
v -480 -160 0
v -448 -160 0
v -416 -192 0
v -448 -192 0
v -448 -160 0
v -416 -160 0
v -384 -192 0
v -416 -192 0
v -416 -160 0
v -384 -160 0
v -352 -192 0
v -384 -192 0
v -384 -160 0
v -352 -160 0
v -320 -192 0
v -352 -192 0
v -352 -160 0
v -320 -160 0
v -480 -224 0
v -512 -224 0
v -512 -192 0
v -480 -192 0
v -448 -224 0
v -480 -224 0
v -480 -192 0
v -448 -192 0
v -416 -224 0
v -448 -224 0
v -448 -192 0
v -416 -192 0
v -384 -224 0
v -416 -224 0
v -416 -192 0
v -384 -192 0
v -352 -224 0
v -384 -224 0
v -384 -192 0
v -352 -192 0
v -320 -224 0
v -352 -224 0
v -352 -192 0
v -320 -192 0

# Texture cooridinates (Count = 6)
vt 0.8125 0.6875
vt 0.875 0.6875
vt 0.875 0.75
vt 0.8125 0.75
vt 0.8125 0.625
vt 0.875 0.625

# Normal
vn 0 0 -1

# Mesh description
g Casino1k_mesh_0003

# Faces
f 1/1/1 2/2/1 3/3/1 4/4/1
f 5/1/1 6/2/1 7/3/1 8/4/1
f 9/1/1 10/2/1 11/3/1 12/4/1
f 13/1/1 14/2/1 15/3/1 16/4/1
f 17/1/1 18/2/1 19/3/1 20/4/1
f 21/1/1 22/2/1 23/3/1 24/4/1
f 25/5/1 26/6/1 27/2/1 28/1/1
f 29/5/1 30/6/1 31/2/1 32/1/1
f 33/5/1 34/6/1 35/2/1 36/1/1
f 37/5/1 38/6/1 39/2/1 40/1/1
f 41/5/1 42/6/1 43/2/1 44/1/1
f 45/5/1 46/6/1 47/2/1 48/1/1

