# Tiled2Unity generated file. Do not modify by hand.
# Wavefront file for 'Haus11k2_mesh_0006.obj'

# Vertices (Count = 28)
v -448 -256 0
v -480 -256 0
v -480 -224 0
v -448 -224 0
v -256 -288 0
v -288 -288 0
v -288 -256 0
v -256 -256 0
v -288 -288 0
v -320 -288 0
v -320 -256 0
v -288 -256 0
v -448 -288 0
v -480 -288 0
v -480 -256 0
v -448 -256 0
v -256 -320 0
v -288 -320 0
v -288 -288 0
v -256 -288 0
v -288 -320 0
v -320 -320 0
v -320 -288 0
v -288 -288 0
v -480 -448 0
v -512 -448 0
v -512 -416 0
v -480 -416 0

# Texture cooridinates (Count = 18)
vt 0.9375 0.4375
vt 1 0.4375
vt 1 0.5
vt 0.9375 0.5
vt 0.6875 0.5
vt 0.75 0.5
vt 0.75 0.5625
vt 0.6875 0.5625
vt 0.8125 0.5
vt 0.8125 0.5625
vt 0.9375 0.375
vt 1 0.375
vt 0.6875 0.375
vt 0.75 0.375
vt 0.75 0.4375
vt 0.6875 0.4375
vt 0.8125 0.375
vt 0.8125 0.4375

# Normal
vn 0 0 -1

# Mesh description
g Haus11k2_mesh_0006

# Faces
f 1/1/1 2/2/1 3/3/1 4/4/1
f 5/5/1 6/6/1 7/7/1 8/8/1
f 9/6/1 10/9/1 11/10/1 12/7/1
f 13/11/1 14/12/1 15/2/1 16/1/1
f 17/13/1 18/14/1 19/15/1 20/16/1
f 21/14/1 22/17/1 23/18/1 24/15/1
f 25/5/1 26/6/1 27/7/1 28/8/1

