# Tiled2Unity generated file. Do not modify by hand.
# Wavefront file for 'Haus11k2_mesh_0003.obj'

# Vertices (Count = 72)
v -256 -224 0
v -288 -224 0
v -288 -192 0
v -256 -192 0
v -288 -224 0
v -320 -224 0
v -320 -192 0
v -288 -192 0
v -256 -256 0
v -288 -256 0
v -288 -224 0
v -256 -224 0
v -288 -256 0
v -320 -256 0
v -320 -224 0
v -288 -224 0
v -480 -288 0
v -512 -288 0
v -512 -256 0
v -480 -256 0
v -512 -288 0
v -544 -288 0
v -544 -256 0
v -512 -256 0
v -480 -320 0
v -512 -320 0
v -512 -288 0
v -480 -288 0
v -512 -320 0
v -544 -320 0
v -544 -288 0
v -512 -288 0
v -128 -416 0
v -160 -416 0
v -160 -384 0
v -128 -384 0
v -160 -416 0
v -192 -416 0
v -192 -384 0
v -160 -384 0
v -320 -416 0
v -352 -416 0
v -352 -384 0
v -320 -384 0
v -352 -416 0
v -384 -416 0
v -384 -384 0
v -352 -384 0
v -128 -448 0
v -160 -448 0
v -160 -416 0
v -128 -416 0
v -160 -448 0
v -192 -448 0
v -192 -416 0
v -160 -416 0
v -320 -448 0
v -352 -448 0
v -352 -416 0
v -320 -416 0
v -352 -448 0
v -384 -448 0
v -384 -416 0
v -352 -416 0
v -480 -448 0
v -512 -448 0
v -512 -416 0
v -480 -416 0
v -512 -448 0
v -544 -448 0
v -544 -416 0
v -512 -416 0

# Texture cooridinates (Count = 36)
vt 0.875 0.8125
vt 0.9375 0.8125
vt 0.9375 0.875
vt 0.875 0.875
vt 1 0.8125
vt 1 0.875
vt 0.875 0.75
vt 0.9375 0.75
vt 1 0.75
vt 0.5 0.5
vt 0.5625 0.5
vt 0.5625 0.5625
vt 0.5 0.5625
vt 0.625 0.5
vt 0.625 0.5625
vt 0.5 0.4375
vt 0.5625 0.4375
vt 0.625 0.4375
vt 0.6875 0.5
vt 0.6875 0.5625
vt 0.75 0.5
vt 0.75 0.5625
vt 0.8125 0.5
vt 0.8125 0.5625
vt 0.875 0.5
vt 0.875 0.5625
vt 0.6875 0.4375
vt 0.75 0.4375
vt 0.8125 0.4375
vt 0.875 0.4375
vt 0.625 0.6875
vt 0.6875 0.6875
vt 0.6875 0.75
vt 0.625 0.75
vt 0.75 0.6875
vt 0.75 0.75

# Normal
vn 0 0 -1

# Mesh description
g Haus11k2_mesh_0003

# Faces
f 1/1/1 2/2/1 3/3/1 4/4/1
f 5/2/1 6/5/1 7/6/1 8/3/1
f 9/7/1 10/8/1 11/2/1 12/1/1
f 13/8/1 14/9/1 15/5/1 16/2/1
f 17/10/1 18/11/1 19/12/1 20/13/1
f 21/11/1 22/14/1 23/15/1 24/12/1
f 25/16/1 26/17/1 27/11/1 28/10/1
f 29/17/1 30/18/1 31/14/1 32/11/1
f 33/14/1 34/19/1 35/20/1 36/15/1
f 37/19/1 38/21/1 39/22/1 40/20/1
f 41/21/1 42/23/1 43/24/1 44/22/1
f 45/23/1 46/25/1 47/26/1 48/24/1
f 49/18/1 50/27/1 51/19/1 52/14/1
f 53/27/1 54/28/1 55/21/1 56/19/1
f 57/28/1 58/29/1 59/23/1 60/21/1
f 61/29/1 62/30/1 63/25/1 64/23/1
f 65/31/1 66/32/1 67/33/1 68/34/1
f 69/32/1 70/35/1 71/36/1 72/33/1

