# Tiled2Unity generated file. Do not modify by hand.
# Wavefront file for 'Haus05k1_mesh_0004.obj'

# Vertices (Count = 92)
v -192 -96 0
v -224 -96 0
v -224 -64 0
v -192 -64 0
v -160 -96 0
v -192 -96 0
v -192 -64 0
v -160 -64 0
v -128 -96 0
v -160 -96 0
v -160 -64 0
v -128 -64 0
v -192 -128 0
v -224 -128 0
v -224 -96 0
v -192 -96 0
v -160 -128 0
v -192 -128 0
v -192 -96 0
v -160 -96 0
v -128 -128 0
v -160 -128 0
v -160 -96 0
v -128 -96 0
v -480 -160 0
v -512 -160 0
v -512 -128 0
v -480 -128 0
v -448 -160 0
v -480 -160 0
v -480 -128 0
v -448 -128 0
v -192 -160 0
v -224 -160 0
v -224 -128 0
v -192 -128 0
v -160 -160 0
v -192 -160 0
v -192 -128 0
v -160 -128 0
v -128 -160 0
v -160 -160 0
v -160 -128 0
v -128 -128 0
v -192 -192 0
v -224 -192 0
v -224 -160 0
v -192 -160 0
v -160 -192 0
v -192 -192 0
v -192 -160 0
v -160 -160 0
v -128 -192 0
v -160 -192 0
v -160 -160 0
v -128 -160 0
v -192 -256 0
v -224 -256 0
v -224 -224 0
v -192 -224 0
v -160 -256 0
v -192 -256 0
v -192 -224 0
v -160 -224 0
v -224 -288 0
v -256 -288 0
v -256 -256 0
v -224 -256 0
v -192 -288 0
v -224 -288 0
v -224 -256 0
v -192 -256 0
v -160 -288 0
v -192 -288 0
v -192 -256 0
v -160 -256 0
v -128 -288 0
v -160 -288 0
v -160 -256 0
v -128 -256 0
v -192 -320 0
v -224 -320 0
v -224 -288 0
v -192 -288 0
v -160 -320 0
v -192 -320 0
v -192 -288 0
v -160 -288 0
v -512 -384 0
v -544 -384 0
v -544 -352 0
v -512 -352 0

# Texture cooridinates (Count = 50)
vt 0.125 0.25
vt 0.1875 0.25
vt 0.1875 0.3125
vt 0.125 0.3125
vt 0.0625 0.25
vt 0.0625 0.3125
vt 0 0.25
vt 0 0.3125
vt 0.125 0.1875
vt 0.1875 0.1875
vt 0.0625 0.1875
vt 0 0.1875
vt 0.3125 0.75
vt 0.375 0.75
vt 0.375 0.8125
vt 0.3125 0.8125
vt 0.25 0.75
vt 0.25 0.8125
vt 0.3125 0
vt 0.375 0
vt 0.375 0.0625
vt 0.3125 0.0625
vt 0.25 0
vt 0.25 0.0625
vt 0.125 0
vt 0.1875 0
vt 0.1875 0.0625
vt 0.125 0.0625
vt 0.0625 0.0625
vt 0.125 0.125
vt 0.0625 0.125
vt 0.5625 0.4375
vt 0.625 0.4375
vt 0.625 0.5
vt 0.5625 0.5
vt 0.5 0.4375
vt 0.5 0.5
vt 0.4375 0
vt 0.4375 0.0625
vt 0.5625 0.375
vt 0.625 0.375
vt 0.5 0.375
vt 0.5 0
vt 0.5 0.0625
vt 0.5 0.125
vt 0.4375 0.125
vt 0.125 0.9375
vt 0.1875 0.9375
vt 0.1875 1
vt 0.125 1

# Normal
vn 0 0 -1

# Mesh description
g Haus05k1_mesh_0004

# Faces
f 1/1/1 2/2/1 3/3/1 4/4/1
f 5/5/1 6/1/1 7/4/1 8/6/1
f 9/7/1 10/5/1 11/6/1 12/8/1
f 13/9/1 14/10/1 15/2/1 16/1/1
f 17/11/1 18/9/1 19/1/1 20/5/1
f 21/12/1 22/11/1 23/5/1 24/7/1
f 25/13/1 26/14/1 27/15/1 28/16/1
f 29/17/1 30/13/1 31/16/1 32/18/1
f 33/19/1 34/20/1 35/21/1 36/22/1
f 37/23/1 38/19/1 39/22/1 40/24/1
f 41/25/1 42/26/1 43/27/1 44/28/1
f 45/29/1 46/28/1 47/30/1 48/31/1
f 49/29/1 50/28/1 51/30/1 52/31/1
f 53/29/1 54/28/1 55/30/1 56/31/1
f 57/32/1 58/33/1 59/34/1 60/35/1
f 61/36/1 62/32/1 63/35/1 64/37/1
f 65/20/1 66/38/1 67/39/1 68/21/1
f 69/40/1 70/41/1 71/33/1 72/32/1
f 73/42/1 74/40/1 75/32/1 76/36/1
f 77/38/1 78/43/1 79/44/1 80/39/1
f 81/39/1 82/44/1 83/45/1 84/46/1
f 85/39/1 86/44/1 87/45/1 88/46/1
f 89/47/1 90/48/1 91/49/1 92/50/1

