# Tiled2Unity generated file. Do not modify by hand.
# Wavefront file for 'Casino4k_mesh_0002.obj'

# Vertices (Count = 16)
v -640 -448 0
v -672 -448 0
v -672 -416 0
v -640 -416 0
v -704 -512 0
v -736 -512 0
v -736 -480 0
v -704 -480 0
v -576 -512 0
v -608 -512 0
v -608 -480 0
v -576 -480 0
v -640 -576 0
v -672 -576 0
v -672 -544 0
v -640 -544 0

# Texture cooridinates (Count = 10)
vt 0.5 0.5625
vt 0.5625 0.5625
vt 0.5625 0.625
vt 0.5 0.625
vt 0.6875 0.5625
vt 0.75 0.5625
vt 0.75 0.625
vt 0.6875 0.625
vt 0.625 0.5625
vt 0.625 0.625

# Normal
vn 0 0 -1

# Mesh description
g Casino4k_mesh_0002

# Faces
f 1/1/1 2/2/1 3/3/1 4/4/1
f 5/5/1 6/6/1 7/7/1 8/8/1
f 9/9/1 10/5/1 11/8/1 12/10/1
f 13/2/1 14/9/1 15/10/1 16/3/1

