# Tiled2Unity generated file. Do not modify by hand.
# Wavefront file for 'Casino4k_mesh_0003.obj'

# Vertices (Count = 264)
v -672 -480 0
v -704 -480 0
v -704 -448 0
v -672 -448 0
v -640 -480 0
v -672 -480 0
v -672 -448 0
v -640 -448 0
v -608 -480 0
v -640 -480 0
v -640 -448 0
v -608 -448 0
v -672 -512 0
v -704 -512 0
v -704 -480 0
v -672 -480 0
v -640 -512 0
v -672 -512 0
v -672 -480 0
v -640 -480 0
v -608 -512 0
v -640 -512 0
v -640 -480 0
v -608 -480 0
v -480 -512 0
v -512 -512 0
v -512 -480 0
v -480 -480 0
v -448 -512 0
v -480 -512 0
v -480 -480 0
v -448 -480 0
v -416 -512 0
v -448 -512 0
v -448 -480 0
v -416 -480 0
v -256 -512 0
v -288 -512 0
v -288 -480 0
v -256 -480 0
v -224 -512 0
v -256 -512 0
v -256 -480 0
v -224 -480 0
v -192 -512 0
v -224 -512 0
v -224 -480 0
v -192 -480 0
v -672 -544 0
v -704 -544 0
v -704 -512 0
v -672 -512 0
v -640 -544 0
v -672 -544 0
v -672 -512 0
v -640 -512 0
v -608 -544 0
v -640 -544 0
v -640 -512 0
v -608 -512 0
v -480 -544 0
v -512 -544 0
v -512 -512 0
v -480 -512 0
v -448 -544 0
v -480 -544 0
v -480 -512 0
v -448 -512 0
v -416 -544 0
v -448 -544 0
v -448 -512 0
v -416 -512 0
v -256 -544 0
v -288 -544 0
v -288 -512 0
v -256 -512 0
v -224 -544 0
v -256 -544 0
v -256 -512 0
v -224 -512 0
v -192 -544 0
v -224 -544 0
v -224 -512 0
v -192 -512 0
v -544 -640 0
v -576 -640 0
v -576 -608 0
v -544 -608 0
v -512 -640 0
v -544 -640 0
v -544 -608 0
v -512 -608 0
v -480 -640 0
v -512 -640 0
v -512 -608 0
v -480 -608 0
v -448 -640 0
v -480 -640 0
v -480 -608 0
v -448 -608 0
v -416 -640 0
v -448 -640 0
v -448 -608 0
v -416 -608 0
v -384 -640 0
v -416 -640 0
v -416 -608 0
v -384 -608 0
v -352 -640 0
v -384 -640 0
v -384 -608 0
v -352 -608 0
v -320 -640 0
v -352 -640 0
v -352 -608 0
v -320 -608 0
v -288 -640 0
v -320 -640 0
v -320 -608 0
v -288 -608 0
v -256 -640 0
v -288 -640 0
v -288 -608 0
v -256 -608 0
v -224 -640 0
v -256 -640 0
v -256 -608 0
v -224 -608 0
v -192 -640 0
v -224 -640 0
v -224 -608 0
v -192 -608 0
v -160 -640 0
v -192 -640 0
v -192 -608 0
v -160 -608 0
v -672 -672 0
v -704 -672 0
v -704 -640 0
v -672 -640 0
v -640 -672 0
v -672 -672 0
v -672 -640 0
v -640 -640 0
v -608 -672 0
v -640 -672 0
v -640 -640 0
v -608 -640 0
v -544 -672 0
v -576 -672 0
v -576 -640 0
v -544 -640 0
v -512 -672 0
v -544 -672 0
v -544 -640 0
v -512 -640 0
v -480 -672 0
v -512 -672 0
v -512 -640 0
v -480 -640 0
v -448 -672 0
v -480 -672 0
v -480 -640 0
v -448 -640 0
v -416 -672 0
v -448 -672 0
v -448 -640 0
v -416 -640 0
v -384 -672 0
v -416 -672 0
v -416 -640 0
v -384 -640 0
v -352 -672 0
v -384 -672 0
v -384 -640 0
v -352 -640 0
v -320 -672 0
v -352 -672 0
v -352 -640 0
v -320 -640 0
v -288 -672 0
v -320 -672 0
v -320 -640 0
v -288 -640 0
v -256 -672 0
v -288 -672 0
v -288 -640 0
v -256 -640 0
v -224 -672 0
v -256 -672 0
v -256 -640 0
v -224 -640 0
v -192 -672 0
v -224 -672 0
v -224 -640 0
v -192 -640 0
v -160 -672 0
v -192 -672 0
v -192 -640 0
v -160 -640 0
v -672 -704 0
v -704 -704 0
v -704 -672 0
v -672 -672 0
v -640 -704 0
v -672 -704 0
v -672 -672 0
v -640 -672 0
v -608 -704 0
v -640 -704 0
v -640 -672 0
v -608 -672 0
v -544 -704 0
v -576 -704 0
v -576 -672 0
v -544 -672 0
v -544 -736 0
v -576 -736 0
v -576 -704 0
v -544 -704 0
v -480 -736 0
v -512 -736 0
v -512 -704 0
v -480 -704 0
v -448 -736 0
v -480 -736 0
v -480 -704 0
v -448 -704 0
v -416 -736 0
v -448 -736 0
v -448 -704 0
v -416 -704 0
v -384 -736 0
v -416 -736 0
v -416 -704 0
v -384 -704 0
v -352 -736 0
v -384 -736 0
v -384 -704 0
v -352 -704 0
v -320 -736 0
v -352 -736 0
v -352 -704 0
v -320 -704 0
v -288 -736 0
v -320 -736 0
v -320 -704 0
v -288 -704 0
v -256 -736 0
v -288 -736 0
v -288 -704 0
v -256 -704 0
v -224 -736 0
v -256 -736 0
v -256 -704 0
v -224 -704 0
v -192 -736 0
v -224 -736 0
v -224 -704 0
v -192 -704 0
v -160 -736 0
v -192 -736 0
v -192 -704 0
v -160 -704 0

# Texture cooridinates (Count = 68)
vt 0.75 0.15625
vt 0.875 0.15625
vt 0.875 0.1875
vt 0.75 0.1875
vt 0.625 0.15625
vt 0.625 0.1875
vt 0.5 0.15625
vt 0.5 0.1875
vt 0.75 0.125
vt 0.875 0.125
vt 0.625 0.125
vt 0.5 0.125
vt 0.25 0.4375
vt 0.375 0.4375
vt 0.375 0.46875
vt 0.25 0.46875
vt 0.125 0.4375
vt 0.125 0.46875
vt 0 0.4375
vt 0 0.46875
vt 0.25 0.0625
vt 0.375 0.0625
vt 0.375 0.09375
vt 0.25 0.09375
vt 0.125 0.0625
vt 0.125 0.09375
vt 0 0.0625
vt 0 0.09375
vt 0.75 0.09375
vt 0.875 0.09375
vt 0.625 0.09375
vt 0.5 0.09375
vt 0.25 0.40625
vt 0.375 0.40625
vt 0.125 0.40625
vt 0 0.40625
vt 0.25 0.03125
vt 0.375 0.03125
vt 0.125 0.03125
vt 0 0.03125
vt 0.25 0.375
vt 0.375 0.375
vt 0.125 0.375
vt 0 0.375
vt 0.25 0.5
vt 0.375 0.5
vt 0.375 0.53125
vt 0.25 0.53125
vt 0.125 0.5
vt 0.125 0.53125
vt 0 0.5
vt 0 0.53125
vt 0.75 0.34375
vt 0.875 0.34375
vt 0.875 0.375
vt 0.75 0.375
vt 0.125 0.3125
vt 0.25 0.3125
vt 0.25 0.34375
vt 0.125 0.34375
vt 0 0.3125
vt 0 0.34375
vt 0.5 0.375
vt 0.625 0.375
vt 0.625 0.40625
vt 0.5 0.40625
vt 0.75 0.3125
vt 0.875 0.3125

# Normal
vn 0 0 -1

# Mesh description
g Casino4k_mesh_0003

# Faces
f 1/1/1 2/2/1 3/3/1 4/4/1
f 5/5/1 6/1/1 7/4/1 8/6/1
f 9/7/1 10/5/1 11/6/1 12/8/1
f 13/9/1 14/10/1 15/2/1 16/1/1
f 17/11/1 18/9/1 19/1/1 20/5/1
f 21/12/1 22/11/1 23/5/1 24/7/1
f 25/13/1 26/14/1 27/15/1 28/16/1
f 29/17/1 30/13/1 31/16/1 32/18/1
f 33/19/1 34/17/1 35/18/1 36/20/1
f 37/21/1 38/22/1 39/23/1 40/24/1
f 41/25/1 42/21/1 43/24/1 44/26/1
f 45/27/1 46/25/1 47/26/1 48/28/1
f 49/29/1 50/30/1 51/10/1 52/9/1
f 53/31/1 54/29/1 55/9/1 56/11/1
f 57/32/1 58/31/1 59/11/1 60/12/1
f 61/33/1 62/34/1 63/14/1 64/13/1
f 65/35/1 66/33/1 67/13/1 68/17/1
f 69/36/1 70/35/1 71/17/1 72/19/1
f 73/37/1 74/38/1 75/22/1 76/21/1
f 77/39/1 78/37/1 79/21/1 80/25/1
f 81/40/1 82/39/1 83/25/1 84/27/1
f 85/41/1 86/42/1 87/34/1 88/33/1
f 89/43/1 90/41/1 91/33/1 92/35/1
f 93/43/1 94/41/1 95/33/1 96/35/1
f 97/43/1 98/41/1 99/33/1 100/35/1
f 101/43/1 102/41/1 103/33/1 104/35/1
f 105/43/1 106/41/1 107/33/1 108/35/1
f 109/43/1 110/41/1 111/33/1 112/35/1
f 113/43/1 114/41/1 115/33/1 116/35/1
f 117/43/1 118/41/1 119/33/1 120/35/1
f 121/43/1 122/41/1 123/33/1 124/35/1
f 125/43/1 126/41/1 127/33/1 128/35/1
f 129/43/1 130/41/1 131/33/1 132/35/1
f 133/44/1 134/43/1 135/35/1 136/36/1
f 137/45/1 138/46/1 139/47/1 140/48/1
f 141/49/1 142/45/1 143/48/1 144/50/1
f 145/51/1 146/49/1 147/50/1 148/52/1
f 149/53/1 150/54/1 151/55/1 152/56/1
f 153/57/1 154/58/1 155/59/1 156/60/1
f 157/57/1 158/58/1 159/59/1 160/60/1
f 161/57/1 162/58/1 163/59/1 164/60/1
f 165/57/1 166/58/1 167/59/1 168/60/1
f 169/57/1 170/58/1 171/59/1 172/60/1
f 173/57/1 174/58/1 175/59/1 176/60/1
f 177/57/1 178/58/1 179/59/1 180/60/1
f 181/57/1 182/58/1 183/59/1 184/60/1
f 185/57/1 186/58/1 187/59/1 188/60/1
f 189/57/1 190/58/1 191/59/1 192/60/1
f 193/57/1 194/58/1 195/59/1 196/60/1
f 197/61/1 198/57/1 199/60/1 200/62/1
f 201/16/1 202/15/1 203/46/1 204/45/1
f 205/18/1 206/16/1 207/45/1 208/49/1
f 209/20/1 210/18/1 211/49/1 212/51/1
f 213/63/1 214/64/1 215/65/1 216/66/1
f 217/67/1 218/68/1 219/54/1 220/53/1
f 221/41/1 222/42/1 223/34/1 224/33/1
f 225/43/1 226/41/1 227/33/1 228/35/1
f 229/43/1 230/41/1 231/33/1 232/35/1
f 233/43/1 234/41/1 235/33/1 236/35/1
f 237/43/1 238/41/1 239/33/1 240/35/1
f 241/43/1 242/41/1 243/33/1 244/35/1
f 245/43/1 246/41/1 247/33/1 248/35/1
f 249/43/1 250/41/1 251/33/1 252/35/1
f 253/43/1 254/41/1 255/33/1 256/35/1
f 257/43/1 258/41/1 259/33/1 260/35/1
f 261/44/1 262/43/1 263/35/1 264/36/1

