# Tiled2Unity generated file. Do not modify by hand.
# Wavefront file for 'Casino4k_mesh_0005.obj'

# Vertices (Count = 144)
v -704 -192 0
v -736 -192 0
v -736 -160 0
v -704 -160 0
v -672 -192 0
v -704 -192 0
v -704 -160 0
v -672 -160 0
v -640 -192 0
v -672 -192 0
v -672 -160 0
v -640 -160 0
v -608 -192 0
v -640 -192 0
v -640 -160 0
v -608 -160 0
v -576 -192 0
v -608 -192 0
v -608 -160 0
v -576 -160 0
v -544 -192 0
v -576 -192 0
v -576 -160 0
v -544 -160 0
v -512 -192 0
v -544 -192 0
v -544 -160 0
v -512 -160 0
v -480 -192 0
v -512 -192 0
v -512 -160 0
v -480 -160 0
v -448 -192 0
v -480 -192 0
v -480 -160 0
v -448 -160 0
v -416 -192 0
v -448 -192 0
v -448 -160 0
v -416 -160 0
v -384 -192 0
v -416 -192 0
v -416 -160 0
v -384 -160 0
v -352 -192 0
v -384 -192 0
v -384 -160 0
v -352 -160 0
v -704 -224 0
v -736 -224 0
v -736 -192 0
v -704 -192 0
v -672 -224 0
v -704 -224 0
v -704 -192 0
v -672 -192 0
v -640 -224 0
v -672 -224 0
v -672 -192 0
v -640 -192 0
v -608 -224 0
v -640 -224 0
v -640 -192 0
v -608 -192 0
v -576 -224 0
v -608 -224 0
v -608 -192 0
v -576 -192 0
v -544 -224 0
v -576 -224 0
v -576 -192 0
v -544 -192 0
v -512 -224 0
v -544 -224 0
v -544 -192 0
v -512 -192 0
v -480 -224 0
v -512 -224 0
v -512 -192 0
v -480 -192 0
v -448 -224 0
v -480 -224 0
v -480 -192 0
v -448 -192 0
v -416 -224 0
v -448 -224 0
v -448 -192 0
v -416 -192 0
v -384 -224 0
v -416 -224 0
v -416 -192 0
v -384 -192 0
v -352 -224 0
v -384 -224 0
v -384 -192 0
v -352 -192 0
v -704 -256 0
v -736 -256 0
v -736 -224 0
v -704 -224 0
v -672 -256 0
v -704 -256 0
v -704 -224 0
v -672 -224 0
v -640 -256 0
v -672 -256 0
v -672 -224 0
v -640 -224 0
v -608 -256 0
v -640 -256 0
v -640 -224 0
v -608 -224 0
v -576 -256 0
v -608 -256 0
v -608 -224 0
v -576 -224 0
v -544 -256 0
v -576 -256 0
v -576 -224 0
v -544 -224 0
v -512 -256 0
v -544 -256 0
v -544 -224 0
v -512 -224 0
v -480 -256 0
v -512 -256 0
v -512 -224 0
v -480 -224 0
v -448 -256 0
v -480 -256 0
v -480 -224 0
v -448 -224 0
v -416 -256 0
v -448 -256 0
v -448 -224 0
v -416 -224 0
v -384 -256 0
v -416 -256 0
v -416 -224 0
v -384 -224 0
v -352 -256 0
v -384 -256 0
v -384 -224 0
v -352 -224 0

# Texture cooridinates (Count = 28)
vt 0.6875 0.71875
vt 0.71875 0.71875
vt 0.71875 0.75
vt 0.6875 0.75
vt 0.65625 0.71875
vt 0.65625 0.75
vt 0.6875 0.625
vt 0.71875 0.625
vt 0.71875 0.65625
vt 0.6875 0.65625
vt 0.65625 0.625
vt 0.65625 0.65625
vt 0.625 0.625
vt 0.625 0.65625
vt 0.625 0.71875
vt 0.625 0.75
vt 0.6875 0.6875
vt 0.71875 0.6875
vt 0.65625 0.6875
vt 0.6875 0.59375
vt 0.71875 0.59375
vt 0.65625 0.59375
vt 0.625 0.59375
vt 0.625 0.6875
vt 0.6875 0.5625
vt 0.71875 0.5625
vt 0.65625 0.5625
vt 0.625 0.5625

# Normal
vn 0 0 -1

# Mesh description
g Casino4k_mesh_0005

# Faces
f 1/1/1 2/2/1 3/3/1 4/4/1
f 5/5/1 6/1/1 7/4/1 8/6/1
f 9/7/1 10/8/1 11/9/1 12/10/1
f 13/11/1 14/7/1 15/10/1 16/12/1
f 17/5/1 18/1/1 19/4/1 20/6/1
f 21/13/1 22/11/1 23/12/1 24/14/1
f 25/5/1 26/1/1 27/4/1 28/6/1
f 29/5/1 30/1/1 31/4/1 32/6/1
f 33/5/1 34/1/1 35/4/1 36/6/1
f 37/11/1 38/7/1 39/10/1 40/12/1
f 41/5/1 42/1/1 43/4/1 44/6/1
f 45/15/1 46/5/1 47/6/1 48/16/1
f 49/17/1 50/18/1 51/2/1 52/1/1
f 53/19/1 54/17/1 55/1/1 56/5/1
f 57/20/1 58/21/1 59/8/1 60/7/1
f 61/22/1 62/20/1 63/7/1 64/11/1
f 65/19/1 66/17/1 67/1/1 68/5/1
f 69/23/1 70/22/1 71/11/1 72/13/1
f 73/19/1 74/17/1 75/1/1 76/5/1
f 77/19/1 78/17/1 79/1/1 80/5/1
f 81/19/1 82/17/1 83/1/1 84/5/1
f 85/22/1 86/20/1 87/7/1 88/11/1
f 89/19/1 90/17/1 91/1/1 92/5/1
f 93/24/1 94/19/1 95/5/1 96/15/1
f 97/10/1 98/9/1 99/18/1 100/17/1
f 101/12/1 102/10/1 103/17/1 104/19/1
f 105/25/1 106/26/1 107/21/1 108/20/1
f 109/27/1 110/25/1 111/20/1 112/22/1
f 113/12/1 114/10/1 115/17/1 116/19/1
f 117/28/1 118/27/1 119/22/1 120/23/1
f 121/12/1 122/10/1 123/17/1 124/19/1
f 125/12/1 126/10/1 127/17/1 128/19/1
f 129/12/1 130/10/1 131/17/1 132/19/1
f 133/27/1 134/25/1 135/20/1 136/22/1
f 137/12/1 138/10/1 139/17/1 140/19/1
f 141/14/1 142/12/1 143/19/1 144/24/1

